<?xml version="1.0" encoding="iso-8859-1"?>
<!-- Uploaded to: SVG Repo, www.svgrepo.com, Generator: SVG Repo Mixer Tools -->
<svg fill="#000000" height="800px" width="800px" version="1.1" id="Layer_1" xmlns="http://www.w3.org/2000/svg" xmlns:xlink="http://www.w3.org/1999/xlink" 
	 viewBox="0 0 512 512" xml:space="preserve">
<g>
	<g>
		<path d="M505.663,423.5l-32.62-108.732V150.261c0-9.22-7.475-16.696-16.696-16.696h-16.696v-33.391h16.696
			c9.22,0,16.696-7.475,16.696-16.696V16.696c0-9.22-7.475-16.696-16.696-16.696H322.783c-9.22,0-16.696,7.475-16.696,16.696v66.783
			c0,9.22,7.475,16.696,16.696,16.696h16.696v33.391h-16.696c-9.22,0-16.696,7.475-16.696,16.696v16.696H205.913v-16.696
			c0-9.22-7.475-16.696-16.696-16.696h-16.696v-33.391h16.696c9.22,0,16.696-7.475,16.696-16.696V16.696
			c0-9.22-7.475-16.696-16.696-16.696H55.652c-9.22,0-16.696,7.475-16.696,16.696v66.783c0,9.22,7.475,16.696,16.696,16.696h16.696
			v33.391H55.652c-9.22,0-16.696,7.475-16.696,16.696v164.507L6.337,423.5c-0.46,1.457-0.771,3.466-0.771,5.022v66.783
			c0,9.22,7.475,16.696,16.696,16.696h200.348c9.22,0,16.696-7.475,16.696-16.696v-66.783c0-1.576-0.308-3.555-0.771-5.022
			l-32.62-108.732v-14.246h100.174v14.246L273.467,423.5c-0.451,1.428-0.771,3.446-0.771,5.022v66.783
			c0,9.22,7.475,16.696,16.696,16.696h200.348c9.22,0,16.696-7.475,16.696-16.696v-66.783
			C506.435,427.004,506.129,424.974,505.663,423.5z M72.348,33.391h100.174v33.391c-16.473,0-90.017,0-100.174,0V33.391z
			 M139.13,100.174v33.391h-33.391v-33.391H139.13z M72.348,166.957c10.128,0,83.883,0,100.174,0c0,15.342,0,118.235,0,133.565
			H72.348V166.957z M68.075,333.913h108.721l23.374,77.913H44.701L68.075,333.913z M205.913,478.609H38.957v-33.391h166.956V478.609
			z M339.478,33.391h100.174v33.391c-16.473,0-90.017,0-100.174,0V33.391z M406.261,100.174v33.391H372.87v-33.391H406.261z
			 M339.478,166.957c16.473,0,90.017,0,100.174,0v133.565H339.478C339.478,285.19,339.478,182.299,339.478,166.957z
			 M335.205,333.913h108.721l23.374,77.913H311.831L335.205,333.913z M205.913,267.13v-66.783h100.174v66.783H205.913z
			 M473.043,478.609H306.087v-33.391h166.956V478.609z"/>
	</g>
</g>
</svg>