<?xml version="1.0" encoding="iso-8859-1"?>
<!-- Uploaded to: SVG Repo, www.svgrepo.com, Generator: SVG Repo Mixer Tools -->
<svg fill="#000000" height="800px" width="800px" version="1.1" id="Layer_1" xmlns="http://www.w3.org/2000/svg" xmlns:xlink="http://www.w3.org/1999/xlink" 
	 viewBox="0 0 512 512" xml:space="preserve">
<g>
	<g>
		<path d="M504.255,487.064L274.914,82.984l29.409-58.818c4.124-8.246,0.78-18.276-7.466-22.399
			c-8.248-4.126-18.276-0.78-22.4,7.466L255.998,46.15L237.541,9.234c-4.124-8.248-14.153-11.592-22.4-7.466
			c-8.248,4.123-11.59,14.152-7.466,22.399l29.409,58.818L7.741,487.064C1.445,498.157,9.459,512,22.261,512
			c4.205,0,458.805,0,467.474,0C502.492,512,510.575,498.197,504.255,487.064z M239.303,146.721v164.933h-93.611L239.303,146.721z
			 M117.585,361.178l20.259,50.649H88.838L117.585,361.178z M50.935,478.609l18.952-33.391H151.2l13.356,33.391H50.935z
			 M147.094,345.045h84.244L189.216,450.35C182.437,433.401,150.618,353.855,147.094,345.045z M213.876,478.609l42.122-105.304
			c0.405,1.013,40.196,100.491,42.122,105.304H213.876z M272.694,325.133V146.721l150.465,265.106H307.371L272.694,325.133z
			 M334.084,478.609l-13.356-33.391h121.383l18.952,33.391H334.084z"/>
	</g>
</g>
</svg>