  0
SECTION
  2
HEADER
  9
$ACADVER
  1
AC1024
  9
$ACADMAINTVER
 70
     6
  9
$DWGCODEPAGE
  3
ANSI_1252
  9
$INSBASE
 10
0.0
 20
0.0
 30
0.0
  9
$EXTMIN
 10
1.000000000000000E+20
 20
1.000000000000000E+20
 30
1.000000000000000E+20
  9
$EXTMAX
 10
-1.000000000000000E+20
 20
-1.000000000000000E+20
 30
-1.000000000000000E+20
  9
$LIMMIN
 10
0.0
 20
0.0
  9
$LIMMAX
 10
12.0
 20
9.0
  9
$ORTHOMODE
 70
     0
  9
$REGENMODE
 70
     1
  9
$FILLMODE
 70
     1
  9
$QTEXTMODE
 70
     0
  9
$MIRRTEXT
 70
     1
  9
$LTSCALE
 40
1.0
  9
$ATTMODE
 70
     1
  9
$TEXTSIZE
 40
0.2
  9
$TRACEWID
 40
0.05
  9
$TEXTSTYLE
  7
Standard
  9
$CLAYER
  8
0
  9
$CELTYPE
  6
ByLayer
  9
$CECOLOR
 62
   256
  9
$CELTSCALE
 40
1.0
  9
$DISPSILH
 70
     0
  9
$DIMSCALE
 40
1.0
  9
$DIMASZ
 40
0.18
  9
$DIMEXO
 40
0.0625
  9
$DIMDLI
 40
0.38
  9
$DIMRND
 40
0.0
  9
$DIMDLE
 40
0.0
  9
$DIMEXE
 40
0.18
  9
$DIMTP
 40
0.0
  9
$DIMTM
 40
0.0
  9
$DIMTXT
 40
0.18
  9
$DIMCEN
 40
0.09
  9
$DIMTSZ
 40
0.0
  9
$DIMTOL
 70
     0
  9
$DIMLIM
 70
     0
  9
$DIMTIH
 70
     1
  9
$DIMTOH
 70
     1
  9
$DIMSE1
 70
     0
  9
$DIMSE2
 70
     0
  9
$DIMTAD
 70
     0
  9
$DIMZIN
 70
     0
  9
$DIMBLK
  1

  9
$DIMASO
 70
     1
  9
$DIMSHO
 70
     1
  9
$DIMPOST
  1

  9
$DIMAPOST
  1

  9
$DIMALT
 70
     0
  9
$DIMALTD
 70
     2
  9
$DIMALTF
 40
25.4
  9
$DIMLFAC
 40
1.0
  9
$DIMTOFL
 70
     0
  9
$DIMTVP
 40
0.0
  9
$DIMTIX
 70
     0
  9
$DIMSOXD
 70
     0
  9
$DIMSAH
 70
     0
  9
$DIMBLK1
  1

  9
$DIMBLK2
  1

  9
$DIMSTYLE
  2
Standard
  9
$DIMCLRD
 70
     0
  9
$DIMCLRE
 70
     0
  9
$DIMCLRT
 70
     0
  9
$DIMTFAC
 40
1.0
  9
$DIMGAP
 40
0.09
  9
$DIMJUST
 70
     0
  9
$DIMSD1
 70
     0
  9
$DIMSD2
 70
     0
  9
$DIMTOLJ
 70
     1
  9
$DIMTZIN
 70
     0
  9
$DIMALTZ
 70
     0
  9
$DIMALTTZ
 70
     0
  9
$DIMUPT
 70
     0
  9
$DIMDEC
 70
     4
  9
$DIMTDEC
 70
     4
  9
$DIMALTU
 70
     2
  9
$DIMALTTD
 70
     2
  9
$DIMTXSTY
  7
Standard
  9
$DIMAUNIT
 70
     0
  9
$DIMADEC
 70
     0
  9
$DIMALTRND
 40
0.0
  9
$DIMAZIN
 70
     0
  9
$DIMDSEP
 70
    46
  9
$DIMATFIT
 70
     3
  9
$DIMFRAC
 70
     0
  9
$DIMLDRBLK
  1

  9
$DIMLUNIT
 70
     2
  9
$DIMLWD
 70
    -2
  9
$DIMLWE
 70
    -2
  9
$DIMTMOVE
 70
     0
  9
$DIMFXL
 40
1.0
  9
$DIMFXLON
 70
     0
  9
$DIMJOGANG
 40
0.7853981633974483
  9
$DIMTFILL
 70
     0
  9
$DIMTFILLCLR
 70
     0
  9
$DIMARCSYM
 70
     0
  9
$DIMLTYPE
  6

  9
$DIMLTEX1
  6

  9
$DIMLTEX2
  6

  9
$DIMTXTDIRECTION
 70
     0
  9
$LUNITS
 70
     2
  9
$LUPREC
 70
     4
  9
$SKETCHINC
 40
0.1
  9
$FILLETRAD
 40
0.5
  9
$AUNITS
 70
     0
  9
$AUPREC
 70
     0
  9
$MENU
  1
.
  9
$ELEVATION
 40
0.0
  9
$PELEVATION
 40
0.0
  9
$THICKNESS
 40
0.0
  9
$LIMCHECK
 70
     0
  9
$CHAMFERA
 40
0.5
  9
$CHAMFERB
 40
0.5
  9
$CHAMFERC
 40
1.0
  9
$CHAMFERD
 40
0.0
  9
$SKPOLY
 70
     0
  9
$TDCREATE
 40
2458414.528962361
  9
$TDUCREATE
 40
2458414.737295695
  9
$TDUPDATE
 40
2458414.528962361
  9
$TDUUPDATE
 40
2458414.737295695
  9
$TDINDWG
 40
0.0000000116
  9
$TDUSRTIMER
 40
0.0000000116
  9
$USRTIMER
 70
     1
  9
$ANGBASE
 50
0.0
  9
$ANGDIR
 70
     0
  9
$PDMODE
 70
     0
  9
$PDSIZE
 40
0.0
  9
$PLINEWID
 40
0.0
  9
$SPLFRAME
 70
     0
  9
$SPLINETYPE
 70
     6
  9
$SPLINESEGS
 70
     8
  9
$HANDSEED
  5
A5
  9
$SURFTAB1
 70
     6
  9
$SURFTAB2
 70
     6
  9
$SURFTYPE
 70
     6
  9
$SURFU
 70
     6
  9
$SURFV
 70
     6
  9
$UCSBASE
  2

  9
$UCSNAME
  2

  9
$UCSORG
 10
0.0
 20
0.0
 30
0.0
  9
$UCSXDIR
 10
1.0
 20
0.0
 30
0.0
  9
$UCSYDIR
 10
0.0
 20
1.0
 30
0.0
  9
$UCSORTHOREF
  2

  9
$UCSORTHOVIEW
 70
     0
  9
$UCSORGTOP
 10
0.0
 20
0.0
 30
0.0
  9
$UCSORGBOTTOM
 10
0.0
 20
0.0
 30
0.0
  9
$UCSORGLEFT
 10
0.0
 20
0.0
 30
0.0
  9
$UCSORGRIGHT
 10
0.0
 20
0.0
 30
0.0
  9
$UCSORGFRONT
 10
0.0
 20
0.0
 30
0.0
  9
$UCSORGBACK
 10
0.0
 20
0.0
 30
0.0
  9
$PUCSBASE
  2

  9
$PUCSNAME
  2

  9
$PUCSORG
 10
0.0
 20
0.0
 30
0.0
  9
$PUCSXDIR
 10
1.0
 20
0.0
 30
0.0
  9
$PUCSYDIR
 10
0.0
 20
1.0
 30
0.0
  9
$PUCSORTHOREF
  2

  9
$PUCSORTHOVIEW
 70
     0
  9
$PUCSORGTOP
 10
0.0
 20
0.0
 30
0.0
  9
$PUCSORGBOTTOM
 10
0.0
 20
0.0
 30
0.0
  9
$PUCSORGLEFT
 10
0.0
 20
0.0
 30
0.0
  9
$PUCSORGRIGHT
 10
0.0
 20
0.0
 30
0.0
  9
$PUCSORGFRONT
 10
0.0
 20
0.0
 30
0.0
  9
$PUCSORGBACK
 10
0.0
 20
0.0
 30
0.0
  9
$USERI1
 70
     0
  9
$USERI2
 70
     0
  9
$USERI3
 70
     0
  9
$USERI4
 70
     0
  9
$USERI5
 70
     0
  9
$USERR1
 40
0.0
  9
$USERR2
 40
0.0
  9
$USERR3
 40
0.0
  9
$USERR4
 40
0.0
  9
$USERR5
 40
0.0
  9
$WORLDVIEW
 70
     1
  9
$SHADEDGE
 70
     3
  9
$SHADEDIF
 70
    70
  9
$TILEMODE
 70
     1
  9
$MAXACTVP
 70
    64
  9
$PINSBASE
 10
0.0
 20
0.0
 30
0.0
  9
$PLIMCHECK
 70
     0
  9
$PEXTMIN
 10
1.000000000000000E+20
 20
1.000000000000000E+20
 30
1.000000000000000E+20
  9
$PEXTMAX
 10
-1.000000000000000E+20
 20
-1.000000000000000E+20
 30
-1.000000000000000E+20
  9
$PLIMMIN
 10
0.0
 20
0.0
  9
$PLIMMAX
 10
12.0
 20
9.0
  9
$UNITMODE
 70
     0
  9
$VISRETAIN
 70
     1
  9
$PLINEGEN
 70
     0
  9
$PSLTSCALE
 70
     1
  9
$TREEDEPTH
 70
  3020
  9
$CMLSTYLE
  2
Standard
  9
$CMLJUST
 70
     0
  9
$CMLSCALE
 40
1.0
  9
$PROXYGRAPHICS
 70
     1
  9
$MEASUREMENT
 70
     0
  9
$CELWEIGHT
370
    -1
  9
$ENDCAPS
280
     0
  9
$JOINSTYLE
280
     0
  9
$LWDISPLAY
290
     1
  9
$INSUNITS
 70
     1
  9
$HYPERLINKBASE
  1

  9
$STYLESHEET
  1

  9
$XEDIT
290
     1
  9
$CEPSNTYPE
380
     0
  9
$PSTYLEMODE
290
     1
  9
$FINGERPRINTGUID
  2
{DF6827AA-5400-4439-AA95-B743F282DFD6}
  9
$VERSIONGUID
  2
{FAEB1C32-E019-11D5-929B-00C0DF256EC4}
  9
$EXTNAMES
290
     1
  9
$PSVPSCALE
 40
0.0
  9
$OLESTARTUP
290
     0
  9
$SORTENTS
280
   127
  9
$INDEXCTL
280
     0
  9
$HIDETEXT
280
     1
  9
$XCLIPFRAME
280
     2
  9
$HALOGAP
280
     0
  9
$OBSCOLOR
 70
   257
  9
$OBSLTYPE
280
     0
  9
$INTERSECTIONDISPLAY
280
     0
  9
$INTERSECTIONCOLOR
 70
   257
  9
$DIMASSOC
280
     2
  9
$PROJECTNAME
  1

  9
$CAMERADISPLAY
290
     0
  9
$LENSLENGTH
 40
50.0
  9
$CAMERAHEIGHT
 40
0.0
  9
$STEPSPERSEC
 40
2.0
  9
$STEPSIZE
 40
6.0
  9
$3DDWFPREC
 40
2.0
  9
$PSOLWIDTH
 40
0.25
  9
$PSOLHEIGHT
 40
4.0
  9
$LOFTANG1
 40
1.570796326794897
  9
$LOFTANG2
 40
1.570796326794897
  9
$LOFTMAG1
 40
0.0
  9
$LOFTMAG2
 40
0.0
  9
$LOFTPARAM
 70
     7
  9
$LOFTNORMALS
280
     1
  9
$LATITUDE
 40
37.795
  9
$LONGITUDE
 40
-122.394
  9
$NORTHDIRECTION
 40
0.0
  9
$TIMEZONE
 70
 -8000
  9
$LIGHTGLYPHDISPLAY
280
     1
  9
$TILEMODELIGHTSYNCH
280
     1
  9
$CMATERIAL
347
3C
  9
$SOLIDHIST
280
     1
  9
$SHOWHIST
280
     1
  9
$DWFFRAME
280
     2
  9
$DGNFRAME
280
     2
  9
$REALWORLDSCALE
290
     1
  9
$INTERFERECOLOR
 62
   256
  9
$CSHADOW
280
     0
  9
$SHADOWPLANELOCATION
 40
0.0
  0
ENDSEC
  0
SECTION
  2
CLASSES
  0
CLASS
  1
ACDBDICTIONARYWDFLT
  2
AcDbDictionaryWithDefault
  3
ObjectDBX Classes
 90
        0
 91
        4
280
     0
281
     0
  0
CLASS
  1
VISUALSTYLE
  2
AcDbVisualStyle
  3
ObjectDBX Classes
 90
     4095
 91
        4
280
     0
281
     0
  0
CLASS
  1
MATERIAL
  2
AcDbMaterial
  3
ObjectDBX Classes
 90
     1153
 91
        4
280
     0
281
     0
  0
CLASS
  1
SUN
  2
AcDbSun
  3
SCENEOE
 90
     1024
 91
        4
280
     0
281
     0
  0
ENDSEC
  0
SECTION
  2
TABLES
  0
TABLE
  2
VPORT
  5
8
330
0
100
AcDbSymbolTable
 70
     1
  0
VPORT
  5
29
330
8
100
AcDbSymbolTableRecord
100
AcDbViewportTableRecord
  2
*Active
 70
     0
 10
0.0
 20
0.0
 11
1.0
 21
1.0
 12
0.0
 22
0.0
 13
0.0
 23
0.0
 14
0.5
 24
0.5
 15
0.5
 25
0.5
 16
0.0
 26
0.0
 36
1.0
 17
180.0
 27
252.0
 37
0.0
 40
504.0
 41
0.7142857142857143
 42
50.0
 43
0.0
 44
0.0
 50
0.0
 51
0.0
 71
     0
 72
   100
 73
     1
 74
     3
 75
     0
 76
     0
 77
     0
 78
     0
281
     0
 65
     1
110
0.0
120
0.0
130
0.0
111
1.0
121
0.0
131
0.0
112
0.0
122
1.0
132
0.0
 79
     0
146
0.0
 60
     3
 61
     5
292
     1
282
     1
141
0.0
142
0.0
 63
   250
361
3F
  0
ENDTAB
  0
TABLE
  2
LTYPE
  5
5
330
0
100
AcDbSymbolTable
 70
     1
  0
LTYPE
  5
14
330
5
100
AcDbSymbolTableRecord
100
AcDbLinetypeTableRecord
  2
ByBlock
 70
     0
  3

 72
    65
 73
     0
 40
0.0
  0
LTYPE
  5
15
330
5
100
AcDbSymbolTableRecord
100
AcDbLinetypeTableRecord
  2
ByLayer
 70
     0
  3

 72
    65
 73
     0
 40
0.0
  0
LTYPE
  5
16
330
5
100
AcDbSymbolTableRecord
100
AcDbLinetypeTableRecord
  2
Continuous
 70
     0
  3
Solid line
 72
    65
 73
     0
 40
0.0
  0
ENDTAB
  0
TABLE
  2
LAYER
  5
2
330
0
100
AcDbSymbolTable
 70
     2
  0
LAYER
  5
10
330
2
100
AcDbSymbolTableRecord
100
AcDbLayerTableRecord
  2
0
 70
     0
 62
     7
  6
Continuous
370
    -3
390
F
347
3E
  0
LAYER
  5
40
330
2
100
AcDbSymbolTableRecord
100
AcDbLayerTableRecord
  2
Layer 1
 70
     0
 62
     7
  6
Continuous
370
    -3
390
F
347
3E
  0
ENDTAB
  0
TABLE
  2
STYLE
  5
3
330
0
100
AcDbSymbolTable
 70
     1
  0
STYLE
  5
11
330
3
100
AcDbSymbolTableRecord
100
AcDbTextStyleTableRecord
  2
Standard
 70
     0
 40
0.0
 41
1.0
 50
0.0
 71
     0
 42
0.2
  3
txt
  4

  0
ENDTAB
  0
TABLE
  2
VIEW
  5
6
330
0
100
AcDbSymbolTable
 70
     0
  0
ENDTAB
  0
TABLE
  2
UCS
  5
7
330
0
100
AcDbSymbolTable
 70
     0
  0
ENDTAB
  0
TABLE
  2
APPID
  5
9
330
0
100
AcDbSymbolTable
 70
     1
  0
APPID
  5
12
330
9
100
AcDbSymbolTableRecord
100
AcDbRegAppTableRecord
  2
ACAD
 70
     0
  0
ENDTAB
  0
TABLE
  2
DIMSTYLE
  5
A
330
0
100
AcDbSymbolTable
 70
     1
100
AcDbDimStyleTable
  0
DIMSTYLE
105
27
330
A
100
AcDbSymbolTableRecord
100
AcDbDimStyleTableRecord
  2
Standard
 70
     0
178
     0
340
11
  0
ENDTAB
  0
TABLE
  2
BLOCK_RECORD
  5
1
330
0
100
AcDbSymbolTable
 70
     1
  0
BLOCK_RECORD
  5
1F
330
1
100
AcDbSymbolTableRecord
100
AcDbBlockTableRecord
  2
*Model_Space
340
22
 70
     0
280
     1
281
     0
  0
BLOCK_RECORD
  5
1B
330
1
100
AcDbSymbolTableRecord
100
AcDbBlockTableRecord
  2
*Paper_Space
340
1E
 70
     0
280
     1
281
     0
  0
BLOCK_RECORD
  5
23
330
1
100
AcDbSymbolTableRecord
100
AcDbBlockTableRecord
  2
*Paper_Space0
340
26
 70
     0
280
     1
281
     0
  0
ENDTAB
  0
ENDSEC
  0
SECTION
  2
BLOCKS
  0
BLOCK
  5
20
330
1F
100
AcDbEntity
  8
0
100
AcDbBlockBegin
  2
*Model_Space
 70
     0
 10
0.0
 20
0.0
 30
0.0
  3
*Model_Space
  1

  0
ENDBLK
  5
21
330
1F
100
AcDbEntity
  8
0
100
AcDbBlockEnd
  0
BLOCK
  5
1C
330
1B
100
AcDbEntity
 67
     1
  8
0
100
AcDbBlockBegin
  2
*Paper_Space
 70
     0
 10
0.0
 20
0.0
 30
0.0
  3
*Paper_Space
  1

  0
ENDBLK
  5
1D
330
1B
100
AcDbEntity
 67
     1
  8
0
100
AcDbBlockEnd
  0
BLOCK
  5
24
330
23
100
AcDbEntity
  8
0
100
AcDbBlockBegin
  2
*Paper_Space0
 70
     0
 10
0.0
 20
0.0
 30
0.0
  3
*Paper_Space0
  1

  0
ENDBLK
  5
25
330
23
100
AcDbEntity
  8
0
100
AcDbBlockEnd
  0
ENDSEC
  0
SECTION
  2
ENTITIES
  0
SPLINE
  5
41
330
1F
100
AcDbEntity
  8
Layer 1
 62
   239
420
  7019318
370
    35
100
AcDbSpline
210
0.0
220
0.0
230
1.0
 70
     8
 71
     3
 72
    11
 73
     7
 74
     0
 42
0.0000000001
 43
0.0000000001
 12
1.0
 22
0.0
 32
0.0
 13
1.0
 23
0.0
 33
0.0
 40
0.0
 40
0.0
 40
0.0
 40
0.0
 40
1.0
 40
1.0
 40
1.0
 40
2.0
 40
2.0
 40
2.0
 40
2.0
 10
22.10000038146973
 20
405.0999984741211
 30
0.0
 10
34.40000152587891
 20
405.9000015258789
 30
0.0
 10
44.90000152587891
 20
404.1999969482422
 30
0.0
 10
70.5
 20
393.2999954223633
 30
0.0
 10
100.8000030517578
 20
380.3999938964844
 30
0.0
 10
109.9000015258789
 20
358.5999908447266
 30
0.0
 10
109.9000015258789
 20
358.5999908447266
 30
0.0
  0
SPLINE
  5
42
330
1F
100
AcDbEntity
  8
Layer 1
 62
   239
420
  7019318
370
    35
100
AcDbSpline
210
0.0
220
0.0
230
1.0
 70
     8
 71
     3
 72
    23
 73
    19
 74
     0
 42
0.0000000001
 43
0.0000000001
 12
1.0
 22
0.0
 32
0.0
 13
1.0
 23
0.0
 33
0.0
 40
0.0
 40
0.0
 40
0.0
 40
0.0
 40
1.0
 40
1.0
 40
1.0
 40
2.0
 40
2.0
 40
2.0
 40
3.0
 40
3.0
 40
3.0
 40
4.0
 40
4.0
 40
4.0
 40
5.0
 40
5.0
 40
5.0
 40
6.0
 40
6.0
 40
6.0
 40
6.0
 10
109.3000030517578
 20
366.1000061035156
 30
0.0
 10
109.3000030517578
 20
366.1000061035156
 30
0.0
 10
108.5
 20
367.7000122070312
 30
0.0
 10
105.1000061035156
 20
371.5
 30
0.0
 10
101.7000045776367
 20
375.1999969482422
 30
0.0
 10
99.60000610351562
 20
376.5999984741211
 30
0.0
 10
99.60000610351562
 20
376.5999984741211
 30
0.0
 10
99.60000610351562
 20
376.5999984741211
 30
0.0
 10
107.2000045776367
 20
401.0999984741211
 30
0.0
 10
97.90000915527344
 20
421.0999984741211
 30
0.0
 10
88.50000762939453
 20
441.0999984741211
 30
0.0
 10
57.80001068115234
 20
455.3999977111816
 30
0.0
 10
43.00000762939453
 20
445.7999992370605
 30
0.0
 10
28.20000839233398
 20
436.0999984741211
 30
0.0
 10
32.50000762939453
 20
419.8000030517578
 30
0.0
 10
23.50000762939453
 20
408.0999984741211
 30
0.0
 10
14.4000072479248
 20
396.4000015258789
 30
0.0
 10
12.9000072479248
 20
390.8999938964844
 30
0.0
 10
-5.899991989135742
 20
387.0999984741211
 30
0.0
  0
SPLINE
  5
43
330
1F
100
AcDbEntity
  8
Layer 1
 62
   239
420
  7019318
370
    35
100
AcDbSpline
210
0.0
220
0.0
230
1.0
 70
     8
 71
     3
 72
    17
 73
    13
 74
     0
 42
0.0000000001
 43
0.0000000001
 12
1.0
 22
0.0
 32
0.0
 13
1.0
 23
0.0
 33
0.0
 40
0.0
 40
0.0
 40
0.0
 40
0.0
 40
1.0
 40
1.0
 40
1.0
 40
2.0
 40
2.0
 40
2.0
 40
3.0
 40
3.0
 40
3.0
 40
4.0
 40
4.0
 40
4.0
 40
4.0
 10
23.29999923706055
 20
372.1999969482422
 30
0.0
 10
23.29999923706055
 20
372.1999969482422
 30
0.0
 10
6.5
 20
364.8999938964844
 30
0.0
 10
-4.700000762939453
 20
372.8000030517578
 30
0.0
 10
-15.90000057220459
 20
380.6000061035156
 30
0.0
 10
-11.70000076293945
 20
388.4000015258789
 30
0.0
 10
-0.6000008583068848
 20
387.1000061035156
 30
0.0
 10
10.5
 20
385.8000030517578
 30
0.0
 10
30.5
 20
359.3000030517578
 30
0.0
 10
56.79999923706055
 20
360.3000030517578
 30
0.0
 10
83.0999984741211
 20
361.3000030517578
 30
0.0
 10
98.39999389648438
 20
374.4000091552734
 30
0.0
 10
98.39999389648438
 20
374.4000091552734
 30
0.0
  0
SPLINE
  5
44
330
1F
100
AcDbEntity
  8
Layer 1
 62
   239
420
  7019318
370
    35
100
AcDbSpline
210
0.0
220
0.0
230
1.0
 70
     8
 71
     3
 72
    11
 73
     7
 74
     0
 42
0.0000000001
 43
0.0000000001
 12
1.0
 22
0.0
 32
0.0
 13
1.0
 23
0.0
 33
0.0
 40
0.0
 40
0.0
 40
0.0
 40
0.0
 40
1.0
 40
1.0
 40
1.0
 40
2.0
 40
2.0
 40
2.0
 40
2.0
 10
40.79999923706055
 20
362.8999938964844
 30
0.0
 10
76.69999694824219
 20
377.5999908447266
 30
0.0
 10
94.5
 20
378.2999954223633
 30
0.0
 10
94.5
 20
378.2999954223633
 30
0.0
 10
94.5
 20
378.2999954223633
 30
0.0
 10
88.69999694824219
 20
400.3999938964844
 30
0.0
 10
94.80000305175781
 20
426.2999954223633
 30
0.0
  0
SPLINE
  5
45
330
1F
100
AcDbEntity
  8
Layer 1
 62
   239
420
  7019318
370
    35
100
AcDbSpline
210
0.0
220
0.0
230
1.0
 70
     8
 71
     3
 72
    11
 73
     7
 74
     0
 42
0.0000000001
 43
0.0000000001
 12
1.0
 22
0.0
 32
0.0
 13
1.0
 23
0.0
 33
0.0
 40
0.0
 40
0.0
 40
0.0
 40
0.0
 40
1.0
 40
1.0
 40
1.0
 40
2.0
 40
2.0
 40
2.0
 40
2.0
 10
29.79999923706055
 20
366.6000061035156
 30
0.0
 10
57.69999694824219
 20
384.5000076293945
 30
0.0
 10
82.30000305175781
 20
387.3000030517578
 30
0.0
 10
82.30000305175781
 20
387.3000030517578
 30
0.0
 10
82.30000305175781
 20
387.3000030517578
 30
0.0
 10
76.80000305175781
 20
414.5
 30
0.0
 10
84.0
 20
437.4000015258789
 30
0.0
  0
SPLINE
  5
46
330
1F
100
AcDbEntity
  8
Layer 1
 62
   239
420
  7019318
370
    35
100
AcDbSpline
210
0.0
220
0.0
230
1.0
 70
     8
 71
     3
 72
    11
 73
     7
 74
     0
 42
0.0000000001
 43
0.0000000001
 12
1.0
 22
0.0
 32
0.0
 13
1.0
 23
0.0
 33
0.0
 40
0.0
 40
0.0
 40
0.0
 40
0.0
 40
1.0
 40
1.0
 40
1.0
 40
2.0
 40
2.0
 40
2.0
 40
2.0
 10
25.5
 20
370.6999969482422
 30
0.0
 10
48.90000152587891
 20
391.7999954223633
 30
0.0
 10
67.80000305175781
 20
394.3999938964844
 30
0.0
 10
67.80000305175781
 20
394.3999938964844
 30
0.0
 10
67.80000305175781
 20
394.3999938964844
 30
0.0
 10
62.70000457763672
 20
419.9999923706055
 30
0.0
 10
70.80000305175781
 20
445.0999946594238
 30
0.0
  0
SPLINE
  5
47
330
1F
100
AcDbEntity
  8
Layer 1
 62
   239
420
  7019318
370
    35
100
AcDbSpline
210
0.0
220
0.0
230
1.0
 70
     8
 71
     3
 72
    11
 73
     7
 74
     0
 42
0.0000000001
 43
0.0000000001
 12
1.0
 22
0.0
 32
0.0
 13
1.0
 23
0.0
 33
0.0
 40
0.0
 40
0.0
 40
0.0
 40
0.0
 40
1.0
 40
1.0
 40
1.0
 40
2.0
 40
2.0
 40
2.0
 40
2.0
 10
21.0
 20
373.8000030517578
 30
0.0
 10
32.90000152587891
 20
392.5
 30
0.0
 10
54.70000076293945
 20
399.6000061035156
 30
0.0
 10
54.70000076293945
 20
399.6000061035156
 30
0.0
 10
54.70000076293945
 20
399.6000061035156
 30
0.0
 10
45.30000305175781
 20
423.2000045776367
 30
0.0
 10
54.60000228881836
 20
449.5000076293945
 30
0.0
  0
SPLINE
  5
48
330
1F
100
AcDbEntity
  8
Layer 1
 62
   239
420
  7019318
370
    35
100
AcDbSpline
210
0.0
220
0.0
230
1.0
 70
     8
 71
     3
 72
    11
 73
     7
 74
     0
 42
0.0000000001
 43
0.0000000001
 12
1.0
 22
0.0
 32
0.0
 13
1.0
 23
0.0
 33
0.0
 40
0.0
 40
0.0
 40
0.0
 40
0.0
 40
1.0
 40
1.0
 40
1.0
 40
2.0
 40
2.0
 40
2.0
 40
2.0
 10
14.39999961853027
 20
378.5999984741211
 30
0.0
 10
21.59999847412109
 20
397.8999938964844
 30
0.0
 10
42.40000152587891
 20
403.3000030517578
 30
0.0
 10
42.5
 20
403.3999938964844
 30
0.0
 10
42.5
 20
403.3999938964844
 30
0.0
 10
33.20000076293945
 20
421.4999923706055
 30
0.0
 10
37.70000076293945
 20
443.2999954223633
 30
0.0
  0
SPLINE
  5
49
330
1F
100
AcDbEntity
  8
Layer 1
 62
   239
420
  7019318
370
    35
100
AcDbSpline
210
0.0
220
0.0
230
1.0
 70
     8
 71
     3
 72
    11
 73
     7
 74
     0
 42
0.0000000001
 43
0.0000000001
 12
1.0
 22
0.0
 32
0.0
 13
1.0
 23
0.0
 33
0.0
 40
0.0
 40
0.0
 40
0.0
 40
0.0
 40
1.0
 40
1.0
 40
1.0
 40
2.0
 40
2.0
 40
2.0
 40
2.0
 10
6.900000095367432
 20
383.8000030517578
 30
0.0
 10
14.80000019073486
 20
398.6000061035156
 30
0.0
 10
31.39999961853027
 20
405.1000061035156
 30
0.0
 10
31.39999961853027
 20
405.1000061035156
 30
0.0
 10
31.39999961853027
 20
405.1000061035156
 30
0.0
 10
28.10000038146973
 20
417.4000091552734
 30
0.0
 10
28.89999961853027
 20
424.2000045776367
 30
0.0
  0
SPLINE
  5
4A
330
1F
100
AcDbEntity
  8
Layer 1
 62
   239
420
  7019318
370
    35
100
AcDbSpline
210
0.0
220
0.0
230
1.0
 70
    11
 71
     3
 72
    32
 73
    28
 74
     0
 42
0.0000000001
 43
0.0000000001
 12
1.0
 22
0.0
 32
0.0
 13
1.0
 23
0.0
 33
0.0
 40
0.0
 40
0.0
 40
0.0
 40
0.0
 40
1.0
 40
1.0
 40
1.0
 40
2.0
 40
2.0
 40
2.0
 40
3.0
 40
3.0
 40
3.0
 40
4.0
 40
4.0
 40
4.0
 40
5.0
 40
5.0
 40
5.0
 40
6.0
 40
6.0
 40
6.0
 40
7.0
 40
7.0
 40
7.0
 40
8.0
 40
8.0
 40
8.0
 40
9.0
 40
9.0
 40
9.0
 40
9.0
 10
274.8999938964844
 20
249.6999969482422
 30
0.0
 10
243.3999938964844
 20
278.8999938964844
 30
0.0
 10
203.6999969482422
 20
266.8999938964844
 30
0.0
 10
182.8999938964844
 20
260.8000030517578
 30
0.0
 10
162.0999908447266
 20
254.7000122070312
 30
0.0
 10
143.7999877929688
 20
253.8000030517578
 30
0.0
 10
117.7999954223633
 20
234.7999877929688
 30
0.0
 10
91.80000305175781
 20
215.7999877929688
 30
0.0
 10
88.59999084472656
 20
175.1999816894531
 30
0.0
 10
99.69999694824219
 20
138.3999938964844
 30
0.0
 10
110.8000030517578
 20
101.6000061035156
 30
0.0
 10
153.1000061035156
 20
70.70001220703125
 30
0.0
 10
162.1999969482422
 20
64.5
 30
0.0
 10
171.3000030517578
 20
58.39999389648438
 30
0.0
 10
183.1999969482422
 20
56.0
 30
0.0
 10
199.6000061035156
 20
57.79998779296875
 30
0.0
 10
216.0
 20
59.5999755859375
 30
0.0
 10
237.6000061035156
 20
72.69998168945312
 30
0.0
 10
244.3000030517578
 20
75.89999389648438
 30
0.0
 10
251.0
 20
79.10000610351562
 30
0.0
 10
269.1000061035156
 20
74.69998168945312
 30
0.0
 10
284.0
 20
90.5
 30
0.0
 10
298.8999938964844
 20
106.3000183105469
 30
0.0
 10
310.8999938964844
 20
138.6000061035156
 30
0.0
 10
310.8999938964844
 20
170.7999877929688
 30
0.0
 10
310.7999877929688
 20
190.1000061035156
 30
0.0
 10
306.3999938964844
 20
220.5
 30
0.0
 10
274.8999938964844
 20
249.6999969482422
 30
0.0
  0
SPLINE
  5
4B
330
1F
100
AcDbEntity
  8
Layer 1
 62
   239
420
  7019318
370
    35
100
AcDbSpline
210
0.0
220
0.0
230
1.0
 70
    11
 71
     3
 72
    32
 73
    28
 74
     0
 42
0.0000000001
 43
0.0000000001
 12
1.0
 22
0.0
 32
0.0
 13
1.0
 23
0.0
 33
0.0
 40
0.0
 40
0.0
 40
0.0
 40
0.0
 40
1.0
 40
1.0
 40
1.0
 40
2.0
 40
2.0
 40
2.0
 40
3.0
 40
3.0
 40
3.0
 40
4.0
 40
4.0
 40
4.0
 40
5.0
 40
5.0
 40
5.0
 40
6.0
 40
6.0
 40
6.0
 40
7.0
 40
7.0
 40
7.0
 40
8.0
 40
8.0
 40
8.0
 40
9.0
 40
9.0
 40
9.0
 40
9.0
 10
275.8999938964844
 20
250.8999938964844
 30
0.0
 10
243.8999938964844
 20
280.5
 30
0.0
 10
203.5999908447266
 20
268.3999938964844
 30
0.0
 10
182.5999908447266
 20
262.1999969482422
 30
0.0
 10
161.5999908447266
 20
256.0
 30
0.0
 10
142.8999938964844
 20
255.0999908447266
 30
0.0
 10
116.4999923706055
 20
235.7999877929688
 30
0.0
 10
90.09999084472656
 20
216.5
 30
0.0
 10
86.89999389648438
 20
175.3999938964844
 30
0.0
 10
98.09999084472656
 20
138.0999755859375
 30
0.0
 10
109.2999877929688
 20
100.7999572753906
 30
0.0
 10
152.2999877929688
 20
69.39996337890625
 30
0.0
 10
161.5
 20
63.19998168945312
 30
0.0
 10
170.6999969482422
 20
56.99996948242188
 30
0.0
 10
182.8000030517578
 20
54.5999755859375
 30
0.0
 10
199.3999938964844
 20
56.39999389648438
 30
0.0
 10
216.0
 20
58.19998168945312
 30
0.0
 10
237.8999938964844
 20
71.5
 30
0.0
 10
244.6999969482422
 20
74.79998779296875
 30
0.0
 10
251.5
 20
78.0999755859375
 30
0.0
 10
269.8999938964844
 20
73.5999755859375
 30
0.0
 10
285.0
 20
89.5999755859375
 30
0.0
 10
300.1000061035156
 20
105.5999755859375
 30
0.0
 10
312.2999877929688
 20
138.3999633789062
 30
0.0
 10
312.2999877929688
 20
171.0999755859375
 30
0.0
 10
312.2999877929688
 20
190.5
 30
0.0
 10
307.8999938964844
 20
221.2999877929688
 30
0.0
 10
275.8999938964844
 20
250.8999938964844
 30
0.0
  0
SPLINE
  5
4C
330
1F
100
AcDbEntity
  8
Layer 1
 62
   239
420
  7019318
370
    35
100
AcDbSpline
210
0.0
220
0.0
230
1.0
 70
     8
 71
     3
 72
    17
 73
    13
 74
     0
 42
0.0000000001
 43
0.0000000001
 12
1.0
 22
0.0
 32
0.0
 13
1.0
 23
0.0
 33
0.0
 40
0.0
 40
0.0
 40
0.0
 40
0.0
 40
1.0
 40
1.0
 40
1.0
 40
2.0
 40
2.0
 40
2.0
 40
3.0
 40
3.0
 40
3.0
 40
4.0
 40
4.0
 40
4.0
 40
4.0
 10
194.0
 20
61.0
 30
0.0
 10
208.6000061035156
 20
60.10000610351562
 30
0.0
 10
212.3999938964844
 20
68.60000610351562
 30
0.0
 10
215.0
 20
72.39999389648438
 30
0.0
 10
217.6000061035156
 20
76.19998168945312
 30
0.0
 10
235.6999969482422
 20
82.89999389648438
 30
0.0
 10
240.3999938964844
 20
83.19998168945312
 30
0.0
 10
245.0999908447266
 20
83.49996948242188
 30
0.0
 10
253.1999969482422
 20
79.39999389648438
 30
0.0
 10
265.7999877929688
 20
83.19998168945312
 30
0.0
 10
278.3999938964844
 20
86.99996948242188
 30
0.0
 10
286.5
 20
98.69998168945312
 30
0.0
 10
286.5
 20
98.69998168945312
 30
0.0
  0
SPLINE
  5
4D
330
1F
100
AcDbEntity
  8
Layer 1
 62
   239
420
  7019318
370
    35
100
AcDbSpline
210
0.0
220
0.0
230
1.0
 70
     8
 71
     3
 72
    38
 73
    34
 74
     0
 42
0.0000000001
 43
0.0000000001
 12
1.0
 22
0.0
 32
0.0
 13
1.0
 23
0.0
 33
0.0
 40
0.0
 40
0.0
 40
0.0
 40
0.0
 40
1.0
 40
1.0
 40
1.0
 40
2.0
 40
2.0
 40
2.0
 40
3.0
 40
3.0
 40
3.0
 40
4.0
 40
4.0
 40
4.0
 40
5.0
 40
5.0
 40
5.0
 40
6.0
 40
6.0
 40
6.0
 40
7.0
 40
7.0
 40
7.0
 40
8.0
 40
8.0
 40
8.0
 40
9.0
 40
9.0
 40
9.0
 40
10.0
 40
10.0
 40
10.0
 40
11.0
 40
11.0
 40
11.0
 40
11.0
 10
154.8999938964844
 20
254.8999938964844
 30
0.0
 10
154.8999938964844
 20
254.8999938964844
 30
0.0
 10
151.6999969482422
 20
264.2999877929688
 30
0.0
 10
154.8999938964844
 20
272.1999969482422
 30
0.0
 10
158.0999908447266
 20
280.0999908447266
 30
0.0
 10
161.0
 20
287.3999938964844
 30
0.0
 10
161.0
 20
287.3999938964844
 30
0.0
 10
161.0
 20
287.3999938964844
 30
0.0
 10
161.0
 20
295.6999969482422
 30
0.0
 10
162.1999969482422
 20
302.5
 30
0.0
 10
163.3999938964844
 20
309.3000030517578
 30
0.0
 10
163.6999969482422
 20
316.6000061035156
 30
0.0
 10
162.1999969482422
 20
318.6000061035156
 30
0.0
 10
160.6999969482422
 20
320.6000061035156
 30
0.0
 10
162.1999969482422
 20
327.4000091552734
 30
0.0
 10
165.6999969482422
 20
333.8000030517578
 30
0.0
 10
169.1999969482422
 20
340.1999969482422
 30
0.0
 10
163.0999908447266
 20
344.3000030517578
 30
0.0
 10
165.6999969482422
 20
348.6999969482422
 30
0.0
 10
168.3000030517578
 20
353.0999908447266
 30
0.0
 10
167.5999908447266
 20
359.1999969482422
 30
0.0
 10
166.8000030517578
 20
364.8000030517578
 30
0.0
 10
166.0
 20
370.3000030517578
 30
0.0
 10
163.1000061035156
 20
374.1999969482422
 30
0.0
 10
162.8000030517578
 20
376.8000030517578
 30
0.0
 10
162.5
 20
379.4000015258789
 30
0.0
 10
164.8000030517578
 20
380.6000061035156
 30
0.0
 10
164.8000030517578
 20
380.6000061035156
 30
0.0
 10
164.8000030517578
 20
380.6000061035156
 30
0.0
 10
157.0
 20
392.3000030517578
 30
0.0
 10
153.5
 20
398.4000091552734
 30
0.0
 10
149.8999938964844
 20
404.5000076293945
 30
0.0
 10
136.8000030517578
 20
416.2000122070312
 30
0.0
 10
136.8000030517578
 20
416.2000122070312
 30
0.0
  0
SPLINE
  5
4E
330
1F
100
AcDbEntity
  8
Layer 1
 62
   239
420
  7019318
370
    35
100
AcDbSpline
210
0.0
220
0.0
230
1.0
 70
     8
 71
     3
 72
    17
 73
    13
 74
     0
 42
0.0000000001
 43
0.0000000001
 12
1.0
 22
0.0
 32
0.0
 13
1.0
 23
0.0
 33
0.0
 40
0.0
 40
0.0
 40
0.0
 40
0.0
 40
1.0
 40
1.0
 40
1.0
 40
2.0
 40
2.0
 40
2.0
 40
3.0
 40
3.0
 40
3.0
 40
4.0
 40
4.0
 40
4.0
 40
4.0
 10
153.3999938964844
 20
254.8999938964844
 30
0.0
 10
153.3999938964844
 20
254.8999938964844
 30
0.0
 10
150.5999908447266
 20
265.3999938964844
 30
0.0
 10
153.7999877929688
 20
273.2999877929688
 30
0.0
 10
156.9999847412109
 20
281.1999816894531
 30
0.0
 10
159.8999938964844
 20
288.4999847412109
 30
0.0
 10
159.8999938964844
 20
288.4999847412109
 30
0.0
 10
159.8999938964844
 20
288.4999847412109
 30
0.0
 10
159.8999938964844
 20
296.7999877929688
 30
0.0
 10
161.0999908447266
 20
303.5999908447266
 30
0.0
 10
162.2999877929688
 20
310.3999938964844
 30
0.0
 10
163.0999908447266
 20
318.5999908447266
 30
0.0
 10
161.6999969482422
 20
320.5999908447266
 30
0.0
  0
SPLINE
  5
4F
330
1F
100
AcDbEntity
  8
Layer 1
 62
   239
420
  7019318
370
    35
100
AcDbSpline
210
0.0
220
0.0
230
1.0
 70
     8
 71
     3
 72
    29
 73
    25
 74
     0
 42
0.0000000001
 43
0.0000000001
 12
1.0
 22
0.0
 32
0.0
 13
1.0
 23
0.0
 33
0.0
 40
0.0
 40
0.0
 40
0.0
 40
0.0
 40
1.0
 40
1.0
 40
1.0
 40
2.0
 40
2.0
 40
2.0
 40
3.0
 40
3.0
 40
3.0
 40
4.0
 40
4.0
 40
4.0
 40
5.0
 40
5.0
 40
5.0
 40
6.0
 40
6.0
 40
6.0
 40
7.0
 40
7.0
 40
7.0
 40
8.0
 40
8.0
 40
8.0
 40
8.0
 10
180.3999938964844
 20
261.5
 30
0.0
 10
180.3999938964844
 20
261.5
 30
0.0
 10
174.0999908447266
 20
268.0
 30
0.0
 10
175.0
 20
273.3000030517578
 30
0.0
 10
175.8999938964844
 20
278.6000061035156
 30
0.0
 10
177.6999969482422
 20
285.9000091552734
 30
0.0
 10
177.6999969482422
 20
285.9000091552734
 30
0.0
 10
177.6999969482422
 20
285.9000091552734
 30
0.0
 10
176.0
 20
290.9000091552734
 30
0.0
 10
177.6999969482422
 20
292.9000091552734
 30
0.0
 10
179.3999938964844
 20
294.9000091552734
 30
0.0
 10
180.0
 20
301.1000061035156
 30
0.0
 10
179.0999908447266
 20
306.0000152587891
 30
0.0
 10
178.1999969482422
 20
311.0000152587891
 30
0.0
 10
178.7999877929688
 20
314.5000152587891
 30
0.0
 10
180.3999938964844
 20
318.8000183105469
 30
0.0
 10
182.0
 20
323.2000122070312
 30
0.0
 10
181.6999969482422
 20
332.2000122070312
 30
0.0
 10
183.1999969482422
 20
337.5000152587891
 30
0.0
 10
184.6999969482422
 20
342.8000183105469
 30
0.0
 10
189.3000030517578
 20
349.2000122070312
 30
0.0
 10
187.8999938964844
 20
355.3000183105469
 30
0.0
 10
186.3999938964844
 20
361.4000244140625
 30
0.0
 10
177.0999908447266
 20
362.9000244140625
 30
0.0
 10
177.0999908447266
 20
362.9000244140625
 30
0.0
  0
SPLINE
  5
50
330
1F
100
AcDbEntity
  8
Layer 1
 62
   239
420
  7019318
370
    35
100
AcDbSpline
210
0.0
220
0.0
230
1.0
 70
     8
 71
     3
 72
    20
 73
    16
 74
     0
 42
0.0000000001
 43
0.0000000001
 12
1.0
 22
0.0
 32
0.0
 13
1.0
 23
0.0
 33
0.0
 40
0.0
 40
0.0
 40
0.0
 40
0.0
 40
1.0
 40
1.0
 40
1.0
 40
2.0
 40
2.0
 40
2.0
 40
3.0
 40
3.0
 40
3.0
 40
4.0
 40
4.0
 40
4.0
 40
5.0
 40
5.0
 40
5.0
 40
5.0
 10
180.6999969482422
 20
319.8000030517578
 30
0.0
 10
179.0999908447266
 20
315.4000091552734
 30
0.0
 10
179.5999908447266
 20
311.0
 30
0.0
 10
180.5
 20
306.1000061035156
 30
0.0
 10
181.3999938964844
 20
301.1000061035156
 30
0.0
 10
180.8000030517578
 20
295.0
 30
0.0
 10
179.1000061035156
 20
293.0
 30
0.0
 10
177.4000091552734
 20
291.0
 30
0.0
 10
179.1000061035156
 20
286.0
 30
0.0
 10
179.1000061035156
 20
286.0
 30
0.0
 10
179.1000061035156
 20
286.0
 30
0.0
 10
177.3000030517578
 20
278.6999969482422
 30
0.0
 10
176.4000091552734
 20
273.3999938964844
 30
0.0
 10
175.5000152587891
 20
268.0999908447266
 30
0.0
 10
182.6000061035156
 20
262.1999969482422
 30
0.0
 10
182.6000061035156
 20
262.1999969482422
 30
0.0
  0
SPLINE
  5
51
330
1F
100
AcDbEntity
  8
Layer 1
 62
   239
420
  7019318
370
    35
100
AcDbSpline
210
0.0
220
0.0
230
1.0
 70
     8
 71
     3
 72
     8
 73
     4
 74
     0
 42
0.0000000001
 43
0.0000000001
 12
1.0
 22
0.0
 32
0.0
 13
1.0
 23
0.0
 33
0.0
 40
0.0
 40
0.0
 40
0.0
 40
0.0
 40
1.0
 40
1.0
 40
1.0
 40
1.0
 10
188.1000061035156
 20
353.3000030517578
 30
0.0
 10
191.0
 20
363.8000030517578
 30
0.0
 10
176.4000091552734
 20
380.2000045776367
 30
0.0
 10
176.4000091552734
 20
380.2000045776367
 30
0.0
  0
SPLINE
  5
52
330
1F
100
AcDbEntity
  8
Layer 1
 62
   239
420
  7019318
370
    35
100
AcDbSpline
210
0.0
220
0.0
230
1.0
 70
     8
 71
     3
 72
    17
 73
    13
 74
     0
 42
0.0000000001
 43
0.0000000001
 12
1.0
 22
0.0
 32
0.0
 13
1.0
 23
0.0
 33
0.0
 40
0.0
 40
0.0
 40
0.0
 40
0.0
 40
1.0
 40
1.0
 40
1.0
 40
2.0
 40
2.0
 40
2.0
 40
3.0
 40
3.0
 40
3.0
 40
4.0
 40
4.0
 40
4.0
 40
4.0
 10
183.1999969482422
 20
337.6000061035156
 30
0.0
 10
183.1999969482422
 20
337.6000061035156
 30
0.0
 10
184.0999908447266
 20
329.1000061035156
 30
0.0
 10
185.8000030517578
 20
328.3000030517578
 30
0.0
 10
187.6000061035156
 20
327.4000091552734
 30
0.0
 10
188.5
 20
328.3000030517578
 30
0.0
 10
188.5
 20
328.3000030517578
 30
0.0
 10
188.5
 20
328.3000030517578
 30
0.0
 10
196.8999938964844
 20
303.1999969482422
 30
0.0
 10
200.3999938964844
 20
293.0
 30
0.0
 10
203.8999938964844
 20
282.8000030517578
 30
0.0
 10
204.7999877929688
 20
275.1000061035156
 30
0.0
 10
213.7999877929688
 20
268.6000061035156
 30
0.0
  0
SPLINE
  5
53
330
1F
100
AcDbEntity
  8
Layer 1
 62
   239
420
  7019318
370
    35
100
AcDbSpline
210
0.0
220
0.0
230
1.0
 70
     8
 71
     3
 72
    20
 73
    16
 74
     0
 42
0.0000000001
 43
0.0000000001
 12
1.0
 22
0.0
 32
0.0
 13
1.0
 23
0.0
 33
0.0
 40
0.0
 40
0.0
 40
0.0
 40
0.0
 40
1.0
 40
1.0
 40
1.0
 40
2.0
 40
2.0
 40
2.0
 40
3.0
 40
3.0
 40
3.0
 40
4.0
 40
4.0
 40
4.0
 40
5.0
 40
5.0
 40
5.0
 40
5.0
 10
144.8000030517578
 20
408.4000015258789
 30
0.0
 10
144.8000030517578
 20
408.4000015258789
 30
0.0
 10
146.1999969482422
 20
403.5
 30
0.0
 10
144.8000030517578
 20
398.0
 30
0.0
 10
143.4000091552734
 20
392.5
 30
0.0
 10
136.6999969482422
 20
382.5
 30
0.0
 10
136.6999969482422
 20
376.6999969482422
 30
0.0
 10
136.6999969482422
 20
370.8999938964844
 30
0.0
 10
132.3000030517578
 20
358.5999908447266
 30
0.0
 10
136.6999969482422
 20
348.8999938964844
 30
0.0
 10
141.0999908447266
 20
339.2999877929688
 30
0.0
 10
142.0
 20
329.0
 30
0.0
 10
140.0999908447266
 20
318.7999877929688
 30
0.0
 10
138.1999969482422
 20
308.5999908447266
 30
0.0
 10
136.6999969482422
 20
304.9999847412109
 30
0.0
 10
136.6999969482422
 20
304.9999847412109
 30
0.0
  0
SPLINE
  5
54
330
1F
100
AcDbEntity
  8
Layer 1
 62
   239
420
  7019318
370
    35
100
AcDbSpline
210
0.0
220
0.0
230
1.0
 70
     8
 71
     3
 72
    17
 73
    13
 74
     0
 42
0.0000000001
 43
0.0000000001
 12
1.0
 22
0.0
 32
0.0
 13
1.0
 23
0.0
 33
0.0
 40
0.0
 40
0.0
 40
0.0
 40
0.0
 40
1.0
 40
1.0
 40
1.0
 40
2.0
 40
2.0
 40
2.0
 40
3.0
 40
3.0
 40
3.0
 40
4.0
 40
4.0
 40
4.0
 40
4.0
 10
120.6999969482422
 20
307.5
 30
0.0
 10
120.6999969482422
 20
307.5
 30
0.0
 10
121.8999938964844
 20
314.1999969482422
 30
0.0
 10
123.2999954223633
 20
315.6999969482422
 30
0.0
 10
124.6999969482422
 20
317.1999969482422
 30
0.0
 10
129.6999969482422
 20
319.1999969482422
 30
0.0
 10
130.0
 20
324.1999969482422
 30
0.0
 10
130.3000030517578
 20
329.1999969482422
 30
0.0
 10
127.4000015258789
 20
345.1999969482422
 30
0.0
 10
125.3000030517578
 20
347.8999938964844
 30
0.0
 10
123.3000030517578
 20
350.5
 30
0.0
 10
124.1000061035156
 20
360.5
 30
0.0
 10
124.1000061035156
 20
360.5
 30
0.0
  0
SPLINE
  5
55
330
1F
100
AcDbEntity
  8
Layer 1
 62
   239
420
  7019318
370
    35
100
AcDbSpline
210
0.0
220
0.0
230
1.0
 70
     8
 71
     3
 72
    56
 73
    52
 74
     0
 42
0.0000000001
 43
0.0000000001
 12
1.0
 22
0.0
 32
0.0
 13
1.0
 23
0.0
 33
0.0
 40
0.0
 40
0.0
 40
0.0
 40
0.0
 40
1.0
 40
1.0
 40
1.0
 40
2.0
 40
2.0
 40
2.0
 40
3.0
 40
3.0
 40
3.0
 40
4.0
 40
4.0
 40
4.0
 40
5.0
 40
5.0
 40
5.0
 40
6.0
 40
6.0
 40
6.0
 40
7.0
 40
7.0
 40
7.0
 40
8.0
 40
8.0
 40
8.0
 40
9.0
 40
9.0
 40
9.0
 40
10.0
 40
10.0
 40
10.0
 40
11.0
 40
11.0
 40
11.0
 40
12.0
 40
12.0
 40
12.0
 40
13.0
 40
13.0
 40
13.0
 40
14.0
 40
14.0
 40
14.0
 40
15.0
 40
15.0
 40
15.0
 40
16.0
 40
16.0
 40
16.0
 40
17.0
 40
17.0
 40
17.0
 40
17.0
 10
350.2000122070312
 20
152.3999938964844
 30
0.0
 10
350.2000122070312
 20
152.3999938964844
 30
0.0
 10
336.2000122070312
 20
195.6000061035156
 30
0.0
 10
315.2000122070312
 20
234.5
 30
0.0
 10
294.2000122070312
 20
273.3000030517578
 30
0.0
 10
266.1000061035156
 20
304.0
 30
0.0
 10
257.4000244140625
 20
309.3000030517578
 30
0.0
 10
248.6000213623047
 20
314.6000061035156
 30
0.0
 10
235.5000305175781
 20
322.6999969482422
 30
0.0
 10
222.4000244140625
 20
335.6000061035156
 30
0.0
 10
209.3000183105469
 20
348.4000091552734
 30
0.0
 10
195.5000305175781
 20
373.3000030517578
 30
0.0
 10
191.7000274658203
 20
380.3000030517578
 30
0.0
 10
187.9000244140625
 20
387.3000030517578
 30
0.0
 10
171.3000335693359
 20
413.0
 30
0.0
 10
165.7000274658203
 20
421.4000015258789
 30
0.0
 10
160.2000274658203
 20
429.8000030517578
 30
0.0
 10
134.8000335693359
 20
448.0
 30
0.0
 10
134.8000335693359
 20
448.0
 30
0.0
 10
134.8000335693359
 20
448.0
 30
0.0
 10
119.5000305175781
 20
451.7999992370605
 30
0.0
 10
116.900032043457
 20
451.7999992370605
 30
0.0
 10
114.3000335693359
 20
451.7999992370605
 30
0.0
 10
107.3000335693359
 20
442.5
 30
0.0
 10
109.6000289916992
 20
440.6999969482422
 30
0.0
 10
112.0000305175781
 20
438.8999938964844
 30
0.0
 10
120.1000289916992
 20
429.5999984741211
 30
0.0
 10
119.8000259399414
 20
427.0
 30
0.0
 10
119.5000228881836
 20
424.4000015258789
 30
0.0
 10
123.3000259399414
 20
420.5999984741211
 30
0.0
 10
125.3000259399414
 20
414.6999969482422
 30
0.0
 10
127.4000244140625
 20
408.8999938964844
 30
0.0
 10
123.5000228881836
 20
402.6999969482422
 30
0.0
 10
120.6000289916992
 20
399.5
 30
0.0
 10
117.7000274658203
 20
396.3000030517578
 30
0.0
 10
122.900032043457
 20
385.8000030517578
 30
0.0
 10
120.6000289916992
 20
385.5
 30
0.0
 10
118.3000259399414
 20
385.1999969482422
 30
0.0
 10
119.8000259399414
 20
381.4000015258789
 30
0.0
 10
119.8000259399414
 20
381.4000015258789
 30
0.0
 10
119.8000259399414
 20
381.4000015258789
 30
0.0
 10
111.0000228881836
 20
372.1000061035156
 30
0.0
 10
109.8000259399414
 20
366.8000030517578
 30
0.0
 10
108.6000289916992
 20
361.5
 30
0.0
 10
111.8000259399414
 20
353.4000091552734
 30
0.0
 10
111.8000259399414
 20
353.4000091552734
 30
0.0
 10
111.8000259399414
 20
353.4000091552734
 30
0.0
 10
118.2000274658203
 20
354.9000091552734
 30
0.0
 10
122.3000259399414
 20
358.4000091552734
 30
0.0
 10
126.4000244140625
 20
361.9000091552734
 30
0.0
 10
129.9000244140625
 20
372.7000122070312
 30
0.0
 10
129.9000244140625
 20
372.7000122070312
 30
0.0
  0
SPLINE
  5
56
330
1F
100
AcDbEntity
  8
Layer 1
 62
   239
420
  7019318
370
    35
100
AcDbSpline
210
0.0
220
0.0
230
1.0
 70
     8
 71
     3
 72
    23
 73
    19
 74
     0
 42
0.0000000001
 43
0.0000000001
 12
1.0
 22
0.0
 32
0.0
 13
1.0
 23
0.0
 33
0.0
 40
0.0
 40
0.0
 40
0.0
 40
0.0
 40
1.0
 40
1.0
 40
1.0
 40
2.0
 40
2.0
 40
2.0
 40
3.0
 40
3.0
 40
3.0
 40
4.0
 40
4.0
 40
4.0
 40
5.0
 40
5.0
 40
5.0
 40
6.0
 40
6.0
 40
6.0
 40
6.0
 10
88.0
 20
319.6999969482422
 30
0.0
 10
88.0
 20
319.6999969482422
 30
0.0
 10
102.9000015258789
 20
320.0
 30
0.0
 10
109.1999969482422
 20
316.1999969482422
 30
0.0
 10
115.5
 20
312.3999938964844
 30
0.0
 10
116.8999938964844
 20
308.0
 30
0.0
 10
120.6999969482422
 20
307.3999938964844
 30
0.0
 10
124.5
 20
306.7999877929688
 30
0.0
 10
127.3999938964844
 20
308.0
 30
0.0
 10
130.0999908447266
 20
307.3999938964844
 30
0.0
 10
132.4999847412109
 20
306.7999877929688
 30
0.0
 10
136.1999969482422
 20
304.5
 30
0.0
 10
140.1999969482422
 20
304.5
 30
0.0
 10
144.0999908447266
 20
304.5
 30
0.0
 10
152.3000030517578
 20
301.3000030517578
 30
0.0
 10
154.8999938964844
 20
304.5
 30
0.0
 10
157.4999847412109
 20
307.6999969482422
 30
0.0
 10
156.7999877929688
 20
312.1000061035156
 30
0.0
 10
152.1999969482422
 20
314.1000061035156
 30
0.0
  0
SPLINE
  5
57
330
1F
100
AcDbEntity
  8
Layer 1
 62
   239
420
  7019318
370
    35
100
AcDbSpline
210
0.0
220
0.0
230
1.0
 70
     8
 71
     3
 72
    26
 73
    22
 74
     0
 42
0.0000000001
 43
0.0000000001
 12
1.0
 22
0.0
 32
0.0
 13
1.0
 23
0.0
 33
0.0
 40
0.0
 40
0.0
 40
0.0
 40
0.0
 40
1.0
 40
1.0
 40
1.0
 40
2.0
 40
2.0
 40
2.0
 40
3.0
 40
3.0
 40
3.0
 40
4.0
 40
4.0
 40
4.0
 40
5.0
 40
5.0
 40
5.0
 40
6.0
 40
6.0
 40
6.0
 40
7.0
 40
7.0
 40
7.0
 40
7.0
 10
215.8999938964844
 20
298.1000061035156
 30
0.0
 10
215.8999938964844
 20
298.1000061035156
 30
0.0
 10
218.1999969482422
 20
295.5
 30
0.0
 10
221.6999969482422
 20
294.9000091552734
 30
0.0
 10
225.1999969482422
 20
294.3000030517578
 30
0.0
 10
229.6999969482422
 20
294.9000091552734
 30
0.0
 10
229.6999969482422
 20
294.9000091552734
 30
0.0
 10
229.6999969482422
 20
294.9000091552734
 30
0.0
 10
231.3999938964844
 20
301.6000061035156
 30
0.0
 10
228.1999969482422
 20
307.5000152587891
 30
0.0
 10
225.0
 20
313.3000183105469
 30
0.0
 10
218.0
 20
316.6000213623047
 30
0.0
 10
218.0
 20
316.6000213623047
 30
0.0
 10
218.0
 20
316.6000213623047
 30
0.0
 10
218.8999938964844
 20
319.2000274658203
 30
0.0
 10
218.0
 20
319.8000183105469
 30
0.0
 10
217.1000061035156
 20
320.4000244140625
 30
0.0
 10
212.6999969482422
 20
326.8000183105469
 30
0.0
 10
205.6999969482422
 20
337.6000213623047
 30
0.0
 10
198.6999969482422
 20
348.4000244140625
 30
0.0
 10
188.5999908447266
 20
376.4000244140625
 30
0.0
 10
188.5999908447266
 20
376.4000244140625
 30
0.0
  0
SPLINE
  5
58
330
1F
100
AcDbEntity
  8
Layer 1
 62
   239
420
  7019318
370
    35
100
AcDbSpline
210
0.0
220
0.0
230
1.0
 70
     8
 71
     3
 72
    14
 73
    10
 74
     0
 42
0.0000000001
 43
0.0000000001
 12
1.0
 22
0.0
 32
0.0
 13
1.0
 23
0.0
 33
0.0
 40
0.0
 40
0.0
 40
0.0
 40
0.0
 40
1.0
 40
1.0
 40
1.0
 40
2.0
 40
2.0
 40
2.0
 40
3.0
 40
3.0
 40
3.0
 40
3.0
 10
206.1999969482422
 20
325.3000030517578
 30
0.0
 10
206.1999969482422
 20
325.3000030517578
 30
0.0
 10
209.6999969482422
 20
318.1999969482422
 30
0.0
 10
210.8999938964844
 20
312.3000030517578
 30
0.0
 10
212.0999908447266
 20
306.4000091552734
 30
0.0
 10
213.5
 20
303.0
 30
0.0
 10
219.0999908447266
 20
292.9000091552734
 30
0.0
 10
225.4999847412109
 20
281.2000122070312
 30
0.0
 10
236.2999877929688
 20
269.4000091552734
 30
0.0
 10
236.2999877929688
 20
269.4000091552734
 30
0.0
  0
SPLINE
  5
59
330
1F
100
AcDbEntity
  8
Layer 1
 62
   239
420
  7019318
370
    35
100
AcDbSpline
210
0.0
220
0.0
230
1.0
 70
     8
 71
     3
 72
    20
 73
    16
 74
     0
 42
0.0000000001
 43
0.0000000001
 12
1.0
 22
0.0
 32
0.0
 13
1.0
 23
0.0
 33
0.0
 40
0.0
 40
0.0
 40
0.0
 40
0.0
 40
1.0
 40
1.0
 40
1.0
 40
2.0
 40
2.0
 40
2.0
 40
3.0
 40
3.0
 40
3.0
 40
4.0
 40
4.0
 40
4.0
 40
5.0
 40
5.0
 40
5.0
 40
5.0
 10
259.1000061035156
 20
262.6000061035156
 30
0.0
 10
259.1000061035156
 20
262.6000061035156
 30
0.0
 10
259.7000122070312
 20
276.6000061035156
 30
0.0
 10
259.7000122070312
 20
282.4000091552734
 30
0.0
 10
259.7000122070312
 20
288.2000122070312
 30
0.0
 10
265.5
 20
295.0000152587891
 30
0.0
 10
265.2000122070312
 20
297.3000030517578
 30
0.0
 10
264.9000244140625
 20
299.6999969482422
 30
0.0
 10
262.0
 20
302.1999969482422
 30
0.0
 10
257.0
 20
305.1000061035156
 30
0.0
 10
252.0
 20
307.9000091552734
 30
0.0
 10
231.6000061035156
 20
318.9000091552734
 30
0.0
 10
218.5
 20
331.2000122070312
 30
0.0
 10
205.3999938964844
 20
343.5000152587891
 30
0.0
 10
193.6999969482422
 20
363.0
 30
0.0
 10
193.6999969482422
 20
363.0
 30
0.0
  0
SPLINE
  5
5A
330
1F
100
AcDbEntity
  8
Layer 1
 62
   239
420
  7019318
370
    35
100
AcDbSpline
210
0.0
220
0.0
230
1.0
 70
     8
 71
     3
 72
   125
 73
   121
 74
     0
 42
0.0000000001
 43
0.0000000001
 12
1.0
 22
0.0
 32
0.0
 13
1.0
 23
0.0
 33
0.0
 40
0.0
 40
0.0
 40
0.0
 40
0.0
 40
1.0
 40
1.0
 40
1.0
 40
2.0
 40
2.0
 40
2.0
 40
3.0
 40
3.0
 40
3.0
 40
4.0
 40
4.0
 40
4.0
 40
5.0
 40
5.0
 40
5.0
 40
6.0
 40
6.0
 40
6.0
 40
7.0
 40
7.0
 40
7.0
 40
8.0
 40
8.0
 40
8.0
 40
9.0
 40
9.0
 40
9.0
 40
10.0
 40
10.0
 40
10.0
 40
11.0
 40
11.0
 40
11.0
 40
12.0
 40
12.0
 40
12.0
 40
13.0
 40
13.0
 40
13.0
 40
14.0
 40
14.0
 40
14.0
 40
15.0
 40
15.0
 40
15.0
 40
16.0
 40
16.0
 40
16.0
 40
17.0
 40
17.0
 40
17.0
 40
18.0
 40
18.0
 40
18.0
 40
19.0
 40
19.0
 40
19.0
 40
20.0
 40
20.0
 40
20.0
 40
21.0
 40
21.0
 40
21.0
 40
22.0
 40
22.0
 40
22.0
 40
23.0
 40
23.0
 40
23.0
 40
24.0
 40
24.0
 40
24.0
 40
25.0
 40
25.0
 40
25.0
 40
26.0
 40
26.0
 40
26.0
 40
27.0
 40
27.0
 40
27.0
 40
28.0
 40
28.0
 40
28.0
 40
29.0
 40
29.0
 40
29.0
 40
30.0
 40
30.0
 40
30.0
 40
31.0
 40
31.0
 40
31.0
 40
32.0
 40
32.0
 40
32.0
 40
33.0
 40
33.0
 40
33.0
 40
34.0
 40
34.0
 40
34.0
 40
35.0
 40
35.0
 40
35.0
 40
36.0
 40
36.0
 40
36.0
 40
37.0
 40
37.0
 40
37.0
 40
38.0
 40
38.0
 40
38.0
 40
39.0
 40
39.0
 40
39.0
 40
40.0
 40
40.0
 40
40.0
 40
40.0
 10
309.7000122070312
 20
186.1000061035156
 30
0.0
 10
322.4000244140625
 20
175.3999938964844
 30
0.0
 10
327.1000061035156
 20
162.8000183105469
 30
0.0
 10
327.1000061035156
 20
162.8000183105469
 30
0.0
 10
327.1000061035156
 20
162.8000183105469
 30
0.0
 10
328.6000061035156
 20
164.3000183105469
 30
0.0
 10
330.8999938964844
 20
164.3000183105469
 30
0.0
 10
333.1999816894531
 20
164.2000122070312
 30
0.0
 10
334.6999816894531
 20
156.2000122070312
 30
0.0
 10
334.6999816894531
 20
156.2000122070312
 30
0.0
 10
334.6999816894531
 20
156.2000122070312
 30
0.0
 10
335.5999755859375
 20
158.2000122070312
 30
0.0
 10
337.5999755859375
 20
158.8000183105469
 30
0.0
 10
339.5999755859375
 20
159.4000244140625
 30
0.0
 10
341.6999816894531
 20
152.4000244140625
 30
0.0
 10
341.6999816894531
 20
152.4000244140625
 30
0.0
 10
341.6999816894531
 20
152.4000244140625
 30
0.0
 10
342.8999938964844
 20
154.7000122070312
 30
0.0
 10
345.1999816894531
 20
155.0000305175781
 30
0.0
 10
347.4999694824219
 20
155.3000183105469
 30
0.0
 10
350.1999816894531
 20
149.7000427246094
 30
0.0
 10
350.1999816894531
 20
149.7000427246094
 30
0.0
 10
350.1999816894531
 20
149.7000427246094
 30
0.0
 10
351.3999938964844
 20
156.7000427246094
 30
0.0
 10
350.1999816894531
 20
159.9000549316406
 30
0.0
 10
348.9999694824219
 20
163.1000671386719
 30
0.0
 10
353.3999938964844
 20
164.2000427246094
 30
0.0
 10
353.3999938964844
 20
164.2000427246094
 30
0.0
 10
353.3999938964844
 20
164.2000427246094
 30
0.0
 10
353.6999816894531
 20
166.6000366210938
 30
0.0
 10
353.6999816894531
 20
169.2000427246094
 30
0.0
 10
353.6999816894531
 20
171.800048828125
 30
0.0
 10
355.9999694824219
 20
173.6000366210938
 30
0.0
 10
355.9999694824219
 20
173.6000366210938
 30
0.0
 10
355.9999694824219
 20
173.6000366210938
 30
0.0
 10
356.2999572753906
 20
177.1000366210938
 30
0.0
 10
355.6999816894531
 20
179.7000427246094
 30
0.0
 10
355.1000061035156
 20
182.300048828125
 30
0.0
 10
360.0999755859375
 20
183.6000366210938
 30
0.0
 10
360.0999755859375
 20
183.6000366210938
 30
0.0
 10
360.0999755859375
 20
183.6000366210938
 30
0.0
 10
359.1999816894531
 20
187.300048828125
 30
0.0
 10
358.8999633789062
 20
190.2000427246094
 30
0.0
 10
358.5999755859375
 20
193.1000366210938
 30
0.0
 10
362.9999694824219
 20
193.800048828125
 30
0.0
 10
362.9999694824219
 20
193.800048828125
 30
0.0
 10
362.9999694824219
 20
193.800048828125
 30
0.0
 10
362.6999816894531
 20
197.5000610351562
 30
0.0
 10
361.1999816894531
 20
200.6000366210938
 30
0.0
 10
359.6999816894531
 20
203.7000427246094
 30
0.0
 10
362.9999694824219
 20
205.1000366210938
 30
0.0
 10
362.9999694824219
 20
205.1000366210938
 30
0.0
 10
362.9999694824219
 20
205.1000366210938
 30
0.0
 10
360.9999694824219
 20
206.9000244140625
 30
0.0
 10
360.0999755859375
 20
211.2000427246094
 30
0.0
 10
359.1999816894531
 20
215.6000366210938
 30
0.0
 10
362.9999694824219
 20
213.6000366210938
 30
0.0
 10
362.9999694824219
 20
213.6000366210938
 30
0.0
 10
362.9999694824219
 20
213.6000366210938
 30
0.0
 10
361.4999694824219
 20
219.7000427246094
 30
0.0
 10
359.4999694824219
 20
223.2000427246094
 30
0.0
 10
357.4999694824219
 20
226.7000427246094
 30
0.0
 10
362.9999694824219
 20
226.5000305175781
 30
0.0
 10
362.9999694824219
 20
226.5000305175781
 30
0.0
 10
362.9999694824219
 20
226.5000305175781
 30
0.0
 10
358.8999633789062
 20
234.3000183105469
 30
0.0
 10
355.6999816894531
 20
237.0000305175781
 30
0.0
 10
352.4999694824219
 20
239.7000427246094
 30
0.0
 10
360.6999816894531
 20
239.7000427246094
 30
0.0
 10
360.6999816894531
 20
239.7000427246094
 30
0.0
 10
360.6999816894531
 20
239.7000427246094
 30
0.0
 10
358.0999755859375
 20
243.6000366210938
 30
0.0
 10
355.9999694824219
 20
245.9000549316406
 30
0.0
 10
353.9999694824219
 20
248.2000579833984
 30
0.0
 10
355.9999694824219
 20
248.5000610351562
 30
0.0
 10
355.9999694824219
 20
248.5000610351562
 30
0.0
 10
355.9999694824219
 20
248.5000610351562
 30
0.0
 10
349.2999572753906
 20
252.7000579833984
 30
0.0
 10
346.8999633789062
 20
254.7000579833984
 30
0.0
 10
344.5999755859375
 20
256.7000579833984
 30
0.0
 10
348.699951171875
 20
259.7000579833984
 30
0.0
 10
348.699951171875
 20
259.7000579833984
 30
0.0
 10
348.699951171875
 20
259.7000579833984
 30
0.0
 10
346.3999633789062
 20
261.7000579833984
 30
0.0
 10
344.2999572753906
 20
265.2000579833984
 30
0.0
 10
342.199951171875
 20
268.7000579833984
 30
0.0
 10
345.7999572753906
 20
268.2000579833984
 30
0.0
 10
345.7999572753906
 20
268.2000579833984
 30
0.0
 10
345.7999572753906
 20
268.2000579833984
 30
0.0
 10
341.9999694824219
 20
270.1000518798828
 30
0.0
 10
338.7999572753906
 20
272.4000549316406
 30
0.0
 10
335.5999450683594
 20
274.7000579833984
 30
0.0
 10
336.7999572753906
 20
274.800048828125
 30
0.0
 10
336.7999572753906
 20
274.800048828125
 30
0.0
 10
336.7999572753906
 20
274.800048828125
 30
0.0
 10
333.2999572753906
 20
275.1000518798828
 30
0.0
 10
329.7999572753906
 20
276.300048828125
 30
0.0
 10
326.2999572753906
 20
277.5000457763672
 30
0.0
 10
326.5999450683594
 20
279.7000427246094
 30
0.0
 10
326.5999450683594
 20
279.7000427246094
 30
0.0
 10
326.5999450683594
 20
279.7000427246094
 30
0.0
 10
329.7999572753906
 20
279.7000427246094
 30
0.0
 10
329.7999572753906
 20
279.7000427246094
 30
0.0
 10
329.7999572753906
 20
279.7000427246094
 30
0.0
 10
326.8999633789062
 20
282.7000427246094
 30
0.0
 10
323.0999450683594
 20
286.6000366210938
 30
0.0
 10
319.2999572753906
 20
290.5000305175781
 30
0.0
 10
309.0999450683594
 20
289.7000427246094
 30
0.0
 10
309.0999450683594
 20
289.7000427246094
 30
0.0
 10
309.0999450683594
 20
289.7000427246094
 30
0.0
 10
310.8999328613281
 20
291.7000427246094
 30
0.0
 10
310.8999328613281
 20
291.7000427246094
 30
0.0
 10
310.8999328613281
 20
291.7000427246094
 30
0.0
 10
306.4999389648438
 20
293.5000457763672
 30
0.0
 10
300.0999450683594
 20
294.4000396728516
 30
0.0
 10
293.699951171875
 20
295.3000335693359
 30
0.0
 10
287.2999572753906
 20
296.4000396728516
 30
0.0
 10
280.199951171875
 20
297.1000366210938
 30
0.0
 10
273.199951171875
 20
297.7000427246094
 30
0.0
 10
267.3999633789062
 20
300.4000396728516
 30
0.0
 10
267.3999633789062
 20
300.4000396728516
 30
0.0
  0
SPLINE
  5
5B
330
1F
100
AcDbEntity
  8
Layer 1
 62
   239
420
  7019318
370
    35
100
AcDbSpline
210
0.0
220
0.0
230
1.0
 70
     8
 71
     3
 72
    23
 73
    19
 74
     0
 42
0.0000000001
 43
0.0000000001
 12
1.0
 22
0.0
 32
0.0
 13
1.0
 23
0.0
 33
0.0
 40
0.0
 40
0.0
 40
0.0
 40
0.0
 40
1.0
 40
1.0
 40
1.0
 40
2.0
 40
2.0
 40
2.0
 40
3.0
 40
3.0
 40
3.0
 40
4.0
 40
4.0
 40
4.0
 40
5.0
 40
5.0
 40
5.0
 40
6.0
 40
6.0
 40
6.0
 40
6.0
 10
259.7000122070312
 20
279.8999938964844
 30
0.0
 10
259.7000122070312
 20
280.0
 30
0.0
 10
262.1000061035156
 20
273.6999969482422
 30
0.0
 10
263.6000061035156
 20
271.8999938964844
 30
0.0
 10
265.3000183105469
 20
269.8999938964844
 30
0.0
 10
267.3000183105469
 20
267.0999908447266
 30
0.0
 10
267.3000183105469
 20
267.0999908447266
 30
0.0
 10
267.3000183105469
 20
267.0999908447266
 30
0.0
 10
263.2000122070312
 20
266.1999969482422
 30
0.0
 10
265.3000183105469
 20
264.4999847412109
 30
0.0
 10
267.3000183105469
 20
262.6999816894531
 30
0.0
 10
271.1000061035156
 20
261.4999847412109
 30
0.0
 10
271.1000061035156
 20
261.4999847412109
 30
0.0
 10
271.1000061035156
 20
261.4999847412109
 30
0.0
 10
269.1000061035156
 20
259.2999877929688
 30
0.0
 10
269.1000061035156
 20
259.2999877929688
 30
0.0
 10
269.1000061035156
 20
259.2999877929688
 30
0.0
 10
272.7000122070312
 20
253.7999877929688
 30
0.0
 10
272.7000122070312
 20
253.7999877929688
 30
0.0
  0
SPLINE
  5
5C
330
1F
100
AcDbEntity
  8
Layer 1
 62
   239
420
  7019318
370
    35
100
AcDbSpline
210
0.0
220
0.0
230
1.0
 70
     8
 71
     3
 72
    29
 73
    25
 74
     0
 42
0.0000000001
 43
0.0000000001
 12
1.0
 22
0.0
 32
0.0
 13
1.0
 23
0.0
 33
0.0
 40
0.0
 40
0.0
 40
0.0
 40
0.0
 40
1.0
 40
1.0
 40
1.0
 40
2.0
 40
2.0
 40
2.0
 40
3.0
 40
3.0
 40
3.0
 40
4.0
 40
4.0
 40
4.0
 40
5.0
 40
5.0
 40
5.0
 40
6.0
 40
6.0
 40
6.0
 40
7.0
 40
7.0
 40
7.0
 40
8.0
 40
8.0
 40
8.0
 40
8.0
 10
324.6000061035156
 20
168.0
 30
0.0
 10
323.8999938964844
 20
169.3999938964844
 30
0.0
 10
325.3000183105469
 20
172.6000061035156
 30
0.0
 10
325.3000183105469
 20
172.6000061035156
 30
0.0
 10
325.3000183105469
 20
172.6000061035156
 30
0.0
 10
323.8000183105469
 20
173.8000183105469
 30
0.0
 10
322.7000122070312
 20
176.2000122070312
 30
0.0
 10
321.6000061035156
 20
178.6000061035156
 30
0.0
 10
323.8000183105469
 20
180.8000183105469
 30
0.0
 10
323.8000183105469
 20
180.8000183105469
 30
0.0
 10
323.8000183105469
 20
180.8000183105469
 30
0.0
 10
320.7000122070312
 20
181.9000244140625
 30
0.0
 10
318.8000183105469
 20
184.1000061035156
 30
0.0
 10
316.8000183105469
 20
186.3000183105469
 30
0.0
 10
319.8000183105469
 20
188.8000183105469
 30
0.0
 10
319.8000183105469
 20
188.8000183105469
 30
0.0
 10
319.8000183105469
 20
188.8000183105469
 30
0.0
 10
317.7000122070312
 20
189.7000122070312
 30
0.0
 10
316.0000305175781
 20
190.7000122070312
 30
0.0
 10
314.3000183105469
 20
191.7000122070312
 30
0.0
 10
316.0000305175781
 20
195.4000244140625
 30
0.0
 10
316.0000305175781
 20
195.4000244140625
 30
0.0
 10
316.0000305175781
 20
195.4000244140625
 30
0.0
 10
308.5000305175781
 20
199.7000122070312
 30
0.0
 10
308.5000305175781
 20
199.8000183105469
 30
0.0
  0
SPLINE
  5
5D
330
1F
100
AcDbEntity
  8
Layer 1
 62
   239
420
  7019318
370
    35
100
AcDbSpline
210
0.0
220
0.0
230
1.0
 70
     8
 71
     3
 72
    11
 73
     7
 74
     0
 42
0.0000000001
 43
0.0000000001
 12
1.0
 22
0.0
 32
0.0
 13
1.0
 23
0.0
 33
0.0
 40
0.0
 40
0.0
 40
0.0
 40
0.0
 40
1.0
 40
1.0
 40
1.0
 40
2.0
 40
2.0
 40
2.0
 40
2.0
 10
359.0
 20
217.3999938964844
 30
0.0
 10
351.6000061035156
 20
223.6000061035156
 30
0.0
 10
339.1000061035156
 20
233.2999877929688
 30
0.0
 10
322.2999877929688
 20
239.2999877929688
 30
0.0
 10
314.0999755859375
 20
242.1999816894531
 30
0.0
 10
306.6999816894531
 20
249.1999816894531
 30
0.0
 10
306.6999816894531
 20
249.1999816894531
 30
0.0
  0
SPLINE
  5
5E
330
1F
100
AcDbEntity
  8
Layer 1
 62
   239
420
  7019318
370
    35
100
AcDbSpline
210
0.0
220
0.0
230
1.0
 70
     8
 71
     3
 72
    11
 73
     7
 74
     0
 42
0.0000000001
 43
0.0000000001
 12
1.0
 22
0.0
 32
0.0
 13
1.0
 23
0.0
 33
0.0
 40
0.0
 40
0.0
 40
0.0
 40
0.0
 40
1.0
 40
1.0
 40
1.0
 40
2.0
 40
2.0
 40
2.0
 40
2.0
 10
293.7999877929688
 20
268.5
 30
0.0
 10
293.7999877929688
 20
268.5
 30
0.0
 10
297.7999877929688
 20
263.1999969482422
 30
0.0
 10
312.2999877929688
 20
258.8999938964844
 30
0.0
 10
326.7999877929688
 20
254.5999908447266
 30
0.0
 10
343.1999816894531
 20
252.2999877929688
 30
0.0
 10
355.0
 20
243.2999877929688
 30
0.0
  0
SPLINE
  5
5F
330
1F
100
AcDbEntity
  8
Layer 1
 62
   239
420
  7019318
370
    35
100
AcDbSpline
210
0.0
220
0.0
230
1.0
 70
     8
 71
     3
 72
    11
 73
     7
 74
     0
 42
0.0000000001
 43
0.0000000001
 12
1.0
 22
0.0
 32
0.0
 13
1.0
 23
0.0
 33
0.0
 40
0.0
 40
0.0
 40
0.0
 40
0.0
 40
1.0
 40
1.0
 40
1.0
 40
2.0
 40
2.0
 40
2.0
 40
2.0
 10
279.2000122070312
 20
287.3999938964844
 30
0.0
 10
279.2000122070312
 20
287.3999938964844
 30
0.0
 10
288.3000183105469
 20
280.0999908447266
 30
0.0
 10
300.9000244140625
 20
277.0
 30
0.0
 10
313.6000366210938
 20
273.8999938964844
 30
0.0
 10
329.7000122070312
 20
270.6000061035156
 30
0.0
 10
340.6000366210938
 20
264.3000030517578
 30
0.0
  0
SPLINE
  5
60
330
1F
100
AcDbEntity
  8
Layer 1
 62
   239
420
  7019318
370
    35
100
AcDbSpline
210
0.0
220
0.0
230
1.0
 70
     8
 71
     3
 72
    11
 73
     7
 74
     0
 42
0.0000000001
 43
0.0000000001
 12
1.0
 22
0.0
 32
0.0
 13
1.0
 23
0.0
 33
0.0
 40
0.0
 40
0.0
 40
0.0
 40
0.0
 40
1.0
 40
1.0
 40
1.0
 40
2.0
 40
2.0
 40
2.0
 40
2.0
 10
359.0
 20
198.2000122070312
 30
0.0
 10
353.3999938964844
 20
205.8000183105469
 30
0.0
 10
339.8999938964844
 20
216.3000183105469
 30
0.0
 10
331.3999938964844
 20
219.2000122070312
 30
0.0
 10
322.7999877929688
 20
222.1000061035156
 30
0.0
 10
318.5
 20
228.3000183105469
 30
0.0
 10
318.5
 20
228.4000244140625
 30
0.0
  0
SPLINE
  5
61
330
1F
100
AcDbEntity
  8
Layer 1
 62
   239
420
  7019318
370
    35
100
AcDbSpline
210
0.0
220
0.0
230
1.0
 70
     8
 71
     3
 72
     8
 73
     4
 74
     0
 42
0.0000000001
 43
0.0000000001
 12
1.0
 22
0.0
 32
0.0
 13
1.0
 23
0.0
 33
0.0
 40
0.0
 40
0.0
 40
0.0
 40
0.0
 40
1.0
 40
1.0
 40
1.0
 40
1.0
 10
328.3999938964844
 20
207.7999877929688
 30
0.0
 10
337.0
 20
197.0
 30
0.0
 10
347.1000061035156
 20
196.1999816894531
 30
0.0
 10
355.1000061035156
 20
186.5
 30
0.0
  0
SPLINE
  5
62
330
1F
100
AcDbEntity
  8
Layer 1
 62
   239
420
  7019318
370
    35
100
AcDbSpline
210
0.0
220
0.0
230
1.0
 70
     8
 71
     3
 72
     8
 73
     4
 74
     0
 42
0.0000000001
 43
0.0000000001
 12
1.0
 22
0.0
 32
0.0
 13
1.0
 23
0.0
 33
0.0
 40
0.0
 40
0.0
 40
0.0
 40
0.0
 40
1.0
 40
1.0
 40
1.0
 40
1.0
 10
351.8999938964844
 20
172.5
 30
0.0
 10
347.0
 20
180.5
 30
0.0
 10
342.1999816894531
 20
182.3999938964844
 30
0.0
 10
336.8999938964844
 20
188.0
 30
0.0
  0
SPLINE
  5
63
330
1F
100
AcDbEntity
  8
Layer 1
 62
   239
420
  7019318
370
    35
100
AcDbSpline
210
0.0
220
0.0
230
1.0
 70
     8
 71
     3
 72
     8
 73
     4
 74
     0
 42
0.0000000001
 43
0.0000000001
 12
1.0
 22
0.0
 32
0.0
 13
1.0
 23
0.0
 33
0.0
 40
0.0
 40
0.0
 40
0.0
 40
0.0
 40
1.0
 40
1.0
 40
1.0
 40
1.0
 10
265.6000061035156
 20
269.3000030517578
 30
0.0
 10
266.0
 20
274.1000061035156
 30
0.0
 10
272.3000183105469
 20
282.6000061035156
 30
0.0
 10
271.5
 20
291.6000061035156
 30
0.0
  0
SPLINE
  5
64
330
1F
100
AcDbEntity
  8
Layer 1
 62
   239
420
  7019318
370
    35
100
AcDbSpline
210
0.0
220
0.0
230
1.0
 70
     8
 71
     3
 72
     8
 73
     4
 74
     0
 42
0.0000000001
 43
0.0000000001
 12
1.0
 22
0.0
 32
0.0
 13
1.0
 23
0.0
 33
0.0
 40
0.0
 40
0.0
 40
0.0
 40
0.0
 40
1.0
 40
1.0
 40
1.0
 40
1.0
 10
276.8999938964844
 20
247.7000122070312
 30
0.0
 10
278.1999816894531
 20
257.7000122070312
 30
0.0
 10
284.3999938964844
 20
266.5000152587891
 30
0.0
 10
284.6000061035156
 20
274.7000122070312
 30
0.0
  0
SPLINE
  5
65
330
1F
100
AcDbEntity
  8
Layer 1
 62
   239
420
  7019318
370
    35
100
AcDbSpline
210
0.0
220
0.0
230
1.0
 70
     8
 71
     3
 72
     8
 73
     4
 74
     0
 42
0.0000000001
 43
0.0000000001
 12
1.0
 22
0.0
 32
0.0
 13
1.0
 23
0.0
 33
0.0
 40
0.0
 40
0.0
 40
0.0
 40
0.0
 40
1.0
 40
1.0
 40
1.0
 40
1.0
 10
290.5
 20
232.3999938964844
 30
0.0
 10
292.1000061035156
 20
240.6999816894531
 30
0.0
 10
298.7999877929688
 20
247.1000061035156
 30
0.0
 10
299.3999938964844
 20
254.8999938964844
 30
0.0
  0
SPLINE
  5
66
330
1F
100
AcDbEntity
  8
Layer 1
 62
   239
420
  7019318
370
    35
100
AcDbSpline
210
0.0
220
0.0
230
1.0
 70
     8
 71
     3
 72
     8
 73
     4
 74
     0
 42
0.0000000001
 43
0.0000000001
 12
1.0
 22
0.0
 32
0.0
 13
1.0
 23
0.0
 33
0.0
 40
0.0
 40
0.0
 40
0.0
 40
0.0
 40
1.0
 40
1.0
 40
1.0
 40
1.0
 10
332.7999877929688
 20
162.5
 30
0.0
 10
333.2999877929688
 20
167.7000122070312
 30
0.0
 10
338.0999755859375
 20
171.2999877929688
 30
0.0
 10
338.6999816894531
 20
177.8999938964844
 30
0.0
  0
SPLINE
  5
67
330
1F
100
AcDbEntity
  8
Layer 1
 62
   239
420
  7019318
370
    35
100
AcDbSpline
210
0.0
220
0.0
230
1.0
 70
     8
 71
     3
 72
     8
 73
     4
 74
     0
 42
0.0000000001
 43
0.0000000001
 12
1.0
 22
0.0
 32
0.0
 13
1.0
 23
0.0
 33
0.0
 40
0.0
 40
0.0
 40
0.0
 40
0.0
 40
1.0
 40
1.0
 40
1.0
 40
1.0
 10
322.7000122070312
 20
176.2000122070312
 30
0.0
 10
324.3000183105469
 20
183.4000244140625
 30
0.0
 10
330.7000122070312
 20
187.3000183105469
 30
0.0
 10
331.5
 20
194.9000244140625
 30
0.0
  0
SPLINE
  5
68
330
1F
100
AcDbEntity
  8
Layer 1
 62
   239
420
  7019318
370
    35
100
AcDbSpline
210
0.0
220
0.0
230
1.0
 70
     8
 71
     3
 72
     8
 73
     4
 74
     0
 42
0.0000000001
 43
0.0000000001
 12
1.0
 22
0.0
 32
0.0
 13
1.0
 23
0.0
 33
0.0
 40
0.0
 40
0.0
 40
0.0
 40
0.0
 40
1.0
 40
1.0
 40
1.0
 40
1.0
 10
315.2000122070312
 20
195.8999938964844
 30
0.0
 10
316.8000183105469
 20
204.1000061035156
 30
0.0
 10
320.7000122070312
 20
207.7999877929688
 30
0.0
 10
321.8000183105469
 20
215.1999816894531
 30
0.0
  0
SPLINE
  5
69
330
1F
100
AcDbEntity
  8
Layer 1
 62
   239
420
  7019318
370
    35
100
AcDbSpline
210
0.0
220
0.0
230
1.0
 70
     8
 71
     3
 72
     8
 73
     4
 74
     0
 42
0.0000000001
 43
0.0000000001
 12
1.0
 22
0.0
 32
0.0
 13
1.0
 23
0.0
 33
0.0
 40
0.0
 40
0.0
 40
0.0
 40
0.0
 40
1.0
 40
1.0
 40
1.0
 40
1.0
 10
304.7999877929688
 20
210.6000061035156
 30
0.0
 10
305.8999938964844
 20
216.8000183105469
 30
0.0
 10
311.5
 20
225.8000183105469
 30
0.0
 10
312.3999938964844
 20
234.6000061035156
 30
0.0
  0
SPLINE
  5
6A
330
1F
100
AcDbEntity
  8
Layer 1
 62
   239
420
  7019318
370
    35
100
AcDbSpline
210
0.0
220
0.0
230
1.0
 70
     8
 71
     3
 72
    65
 73
    61
 74
     0
 42
0.0000000001
 43
0.0000000001
 12
1.0
 22
0.0
 32
0.0
 13
1.0
 23
0.0
 33
0.0
 40
0.0
 40
0.0
 40
0.0
 40
0.0
 40
1.0
 40
1.0
 40
1.0
 40
2.0
 40
2.0
 40
2.0
 40
3.0
 40
3.0
 40
3.0
 40
4.0
 40
4.0
 40
4.0
 40
5.0
 40
5.0
 40
5.0
 40
6.0
 40
6.0
 40
6.0
 40
7.0
 40
7.0
 40
7.0
 40
8.0
 40
8.0
 40
8.0
 40
9.0
 40
9.0
 40
9.0
 40
10.0
 40
10.0
 40
10.0
 40
11.0
 40
11.0
 40
11.0
 40
12.0
 40
12.0
 40
12.0
 40
13.0
 40
13.0
 40
13.0
 40
14.0
 40
14.0
 40
14.0
 40
15.0
 40
15.0
 40
15.0
 40
16.0
 40
16.0
 40
16.0
 40
17.0
 40
17.0
 40
17.0
 40
18.0
 40
18.0
 40
18.0
 40
19.0
 40
19.0
 40
19.0
 40
20.0
 40
20.0
 40
20.0
 40
20.0
 10
307.1000061035156
 20
139.2999877929688
 30
0.0
 10
307.1000061035156
 20
139.2999877929688
 30
0.0
 10
314.5
 20
123.0
 30
0.0
 10
316.8999938964844
 20
118.8999938964844
 30
0.0
 10
319.2999877929688
 20
114.6999816894531
 30
0.0
 10
316.8999938964844
 20
111.0
 30
0.0
 10
316.8999938964844
 20
111.0
 30
0.0
 10
316.8999938964844
 20
111.0
 30
0.0
 10
319.0
 20
110.3999938964844
 30
0.0
 10
321.0
 20
109.1000061035156
 30
0.0
 10
322.8999938964844
 20
107.7000122070312
 30
0.0
 10
321.3999938964844
 20
104.3999938964844
 30
0.0
 10
321.7999877929688
 20
102.7000122070312
 30
0.0
 10
322.1999816894531
 20
100.9000244140625
 30
0.0
 10
328.3999938964844
 20
97.4000244140625
 30
0.0
 10
328.3999938964844
 20
97.4000244140625
 30
0.0
 10
328.3999938964844
 20
97.4000244140625
 30
0.0
 10
327.7999877929688
 20
95.10003662109375
 30
0.0
 10
328.3999938964844
 20
94.10003662109375
 30
0.0
 10
329.0
 20
93.10003662109375
 30
0.0
 10
331.5
 20
93.300048828125
 30
0.0
 10
331.5
 20
93.300048828125
 30
0.0
 10
331.5
 20
93.300048828125
 30
0.0
 10
331.5
 20
86.10003662109375
 30
0.0
 10
336.8999938964844
 20
79.90005493164062
 30
0.0
 10
342.2999877929688
 20
73.7000732421875
 30
0.0
 10
358.8999938964844
 20
72.300048828125
 30
0.0
 10
358.8999938964844
 20
72.300048828125
 30
0.0
 10
358.8999938964844
 20
72.300048828125
 30
0.0
 10
358.1000061035156
 20
83.20004272460938
 30
0.0
 10
351.8999938964844
 20
92.50006103515625
 30
0.0
 10
345.6999816894531
 20
101.8000793457031
 30
0.0
 10
341.3999938964844
 20
99.50006103515625
 30
0.0
 10
341.6999816894531
 20
101.1000671386719
 30
0.0
 10
341.9999694824219
 20
102.7000732421875
 30
0.0
 10
340.2999877929688
 20
103.6000671386719
 30
0.0
 10
340.2999877929688
 20
103.6000671386719
 30
0.0
 10
340.2999877929688
 20
103.6000671386719
 30
0.0
 10
338.5
 20
107.1000671386719
 30
0.0
 10
335.7999877929688
 20
111.6000671386719
 30
0.0
 10
333.0
 20
116.1000671386719
 30
0.0
 10
331.5999755859375
 20
118.0000610351562
 30
0.0
 10
331.5999755859375
 20
118.0000610351562
 30
0.0
 10
331.5999755859375
 20
118.0000610351562
 30
0.0
 10
333.6999816894531
 20
119.0000610351562
 30
0.0
 10
332.8999633789062
 20
120.5000610351562
 30
0.0
 10
332.0999755859375
 20
122.1000671386719
 30
0.0
 10
331.3999633789062
 20
122.800048828125
 30
0.0
 10
329.7999572753906
 20
126.9000549316406
 30
0.0
 10
328.199951171875
 20
131.0000610351562
 30
0.0
 10
332.8999633789062
 20
134.9000549316406
 30
0.0
 10
332.8999633789062
 20
134.9000549316406
 30
0.0
 10
332.8999633789062
 20
134.9000549316406
 30
0.0
 10
329.2999572753906
 20
137.4000549316406
 30
0.0
 10
325.4999694824219
 20
140.4000549316406
 30
0.0
 10
321.6999816894531
 20
143.300048828125
 30
0.0
 10
321.0999755859375
 20
150.300048828125
 30
0.0
 10
318.5999755859375
 20
154.0000610351562
 30
0.0
 10
316.0999755859375
 20
157.7000732421875
 30
0.0
 10
312.4999694824219
 20
165.5000610351562
 30
0.0
 10
312.4999694824219
 20
165.5000610351562
 30
0.0
  0
SPLINE
  5
6B
330
1F
100
AcDbEntity
  8
Layer 1
 62
   239
420
  7019318
370
    35
100
AcDbSpline
210
0.0
220
0.0
230
1.0
 70
     8
 71
     3
 72
   170
 73
   166
 74
     0
 42
0.0000000001
 43
0.0000000001
 12
1.0
 22
0.0
 32
0.0
 13
1.0
 23
0.0
 33
0.0
 40
0.0
 40
0.0
 40
0.0
 40
0.0
 40
1.0
 40
1.0
 40
1.0
 40
2.0
 40
2.0
 40
2.0
 40
3.0
 40
3.0
 40
3.0
 40
4.0
 40
4.0
 40
4.0
 40
5.0
 40
5.0
 40
5.0
 40
6.0
 40
6.0
 40
6.0
 40
7.0
 40
7.0
 40
7.0
 40
8.0
 40
8.0
 40
8.0
 40
9.0
 40
9.0
 40
9.0
 40
10.0
 40
10.0
 40
10.0
 40
11.0
 40
11.0
 40
11.0
 40
12.0
 40
12.0
 40
12.0
 40
13.0
 40
13.0
 40
13.0
 40
14.0
 40
14.0
 40
14.0
 40
15.0
 40
15.0
 40
15.0
 40
16.0
 40
16.0
 40
16.0
 40
17.0
 40
17.0
 40
17.0
 40
18.0
 40
18.0
 40
18.0
 40
19.0
 40
19.0
 40
19.0
 40
20.0
 40
20.0
 40
20.0
 40
21.0
 40
21.0
 40
21.0
 40
22.0
 40
22.0
 40
22.0
 40
23.0
 40
23.0
 40
23.0
 40
24.0
 40
24.0
 40
24.0
 40
25.0
 40
25.0
 40
25.0
 40
26.0
 40
26.0
 40
26.0
 40
27.0
 40
27.0
 40
27.0
 40
28.0
 40
28.0
 40
28.0
 40
29.0
 40
29.0
 40
29.0
 40
30.0
 40
30.0
 40
30.0
 40
31.0
 40
31.0
 40
31.0
 40
32.0
 40
32.0
 40
32.0
 40
33.0
 40
33.0
 40
33.0
 40
34.0
 40
34.0
 40
34.0
 40
35.0
 40
35.0
 40
35.0
 40
36.0
 40
36.0
 40
36.0
 40
37.0
 40
37.0
 40
37.0
 40
38.0
 40
38.0
 40
38.0
 40
39.0
 40
39.0
 40
39.0
 40
40.0
 40
40.0
 40
40.0
 40
41.0
 40
41.0
 40
41.0
 40
42.0
 40
42.0
 40
42.0
 40
43.0
 40
43.0
 40
43.0
 40
44.0
 40
44.0
 40
44.0
 40
45.0
 40
45.0
 40
45.0
 40
46.0
 40
46.0
 40
46.0
 40
47.0
 40
47.0
 40
47.0
 40
48.0
 40
48.0
 40
48.0
 40
49.0
 40
49.0
 40
49.0
 40
50.0
 40
50.0
 40
50.0
 40
51.0
 40
51.0
 40
51.0
 40
52.0
 40
52.0
 40
52.0
 40
53.0
 40
53.0
 40
53.0
 40
54.0
 40
54.0
 40
54.0
 40
55.0
 40
55.0
 40
55.0
 40
55.0
 10
98.19999694824219
 20
209.6000061035156
 30
0.0
 10
96.0999984741211
 20
209.6000061035156
 30
0.0
 10
94.19999694824219
 20
209.7000122070312
 30
0.0
 10
94.19999694824219
 20
209.7000122070312
 30
0.0
 10
94.19999694824219
 20
209.7000122070312
 30
0.0
 10
95.5999984741211
 20
208.4000244140625
 30
0.0
 10
94.89999389648438
 20
206.0
 30
0.0
 10
94.19999694824219
 20
203.5
 30
0.0
 10
86.09999084472656
 20
205.8999938964844
 30
0.0
 10
86.09999084472656
 20
205.8999938964844
 30
0.0
 10
86.09999084472656
 20
205.8999938964844
 30
0.0
 10
87.89999389648438
 20
204.1999816894531
 30
0.0
 10
86.79998779296875
 20
202.1999816894531
 30
0.0
 10
85.69998931884766
 20
200.1999816894531
 30
0.0
 10
77.09999084472656
 20
199.2999877929688
 30
0.0
 10
77.09999084472656
 20
199.2999877929688
 30
0.0
 10
77.09999084472656
 20
199.2999877929688
 30
0.0
 10
79.29998779296875
 20
197.5999755859375
 30
0.0
 10
77.79998779296875
 20
195.5999755859375
 30
0.0
 10
76.19998931884766
 20
193.4999694824219
 30
0.0
 10
69.99998474121094
 20
193.5999755859375
 30
0.0
 10
69.99998474121094
 20
193.5999755859375
 30
0.0
 10
69.99998474121094
 20
193.5999755859375
 30
0.0
 10
72.59998321533203
 20
190.8999633789062
 30
0.0
 10
70.39998626708984
 20
189.6999816894531
 30
0.0
 10
68.19998931884766
 20
188.5
 30
0.0
 10
60.79998779296875
 20
185.5999755859375
 30
0.0
 10
60.79998779296875
 20
185.5999755859375
 30
0.0
 10
60.79998779296875
 20
185.5999755859375
 30
0.0
 10
63.79998779296875
 20
183.1999816894531
 30
0.0
 10
60.4999885559082
 20
180.7999877929688
 30
0.0
 10
57.29998779296875
 20
178.3999938964844
 30
0.0
 10
51.29998779296875
 20
173.8999938964844
 30
0.0
 10
51.29998779296875
 20
173.8999938964844
 30
0.0
 10
51.29998779296875
 20
173.8999938964844
 30
0.0
 10
56.4999885559082
 20
173.5
 30
0.0
 10
53.5999870300293
 20
171.3999938964844
 30
0.0
 10
50.69998550415039
 20
169.2999877929688
 30
0.0
 10
41.89998626708984
 20
160.6999816894531
 30
0.0
 10
41.89998626708984
 20
160.6999816894531
 30
0.0
 10
41.89998626708984
 20
160.6999816894531
 30
0.0
 10
44.29998779296875
 20
160.6999816894531
 30
0.0
 10
44.19998550415039
 20
157.6999816894531
 30
0.0
 10
44.0999870300293
 20
154.6999816894531
 30
0.0
 10
34.59998321533203
 20
149.6999816894531
 30
0.0
 10
34.59998321533203
 20
149.6999816894531
 30
0.0
 10
34.59998321533203
 20
149.6999816894531
 30
0.0
 10
36.59998321533203
 20
148.9999694824219
 30
0.0
 10
36.59998321533203
 20
145.9999694824219
 30
0.0
 10
36.49998474121094
 20
142.9999694824219
 30
0.0
 10
30.4999828338623
 20
140.5999755859375
 30
0.0
 10
30.4999828338623
 20
140.5999755859375
 30
0.0
 10
30.4999828338623
 20
140.5999755859375
 30
0.0
 10
31.09998321533203
 20
138.5999755859375
 30
0.0
 10
30.79998207092285
 20
135.0999755859375
 30
0.0
 10
30.4999828338623
 20
131.5999755859375
 30
0.0
 10
24.39998245239258
 20
127.0999755859375
 30
0.0
 10
24.39998245239258
 20
127.0999755859375
 30
0.0
 10
24.39998245239258
 20
127.0999755859375
 30
0.0
 10
25.69998168945312
 20
127.0999755859375
 30
0.0
 10
26.19998168945312
 20
126.2999877929688
 30
0.0
 10
26.69998168945312
 20
125.3999938964844
 30
0.0
 10
22.19998168945312
 20
120.3999938964844
 30
0.0
 10
22.19998168945312
 20
120.3999938964844
 30
0.0
 10
22.19998168945312
 20
120.3999938964844
 30
0.0
 10
25.5999813079834
 20
118.3999938964844
 30
0.0
 10
24.5999813079834
 20
116.6999816894531
 30
0.0
 10
23.5999813079834
 20
114.9999694824219
 30
0.0
 10
19.49998092651367
 20
110.6999816894531
 30
0.0
 10
19.49998092651367
 20
110.6999816894531
 30
0.0
 10
19.49998092651367
 20
110.6999816894531
 30
0.0
 10
21.49998092651367
 20
108.4999694824219
 30
0.0
 10
22.19998168945312
 20
105.3999938964844
 30
0.0
 10
22.89998245239258
 20
102.2999877929688
 30
0.0
 10
16.79998207092285
 20
102.1000061035156
 30
0.0
 10
16.79998207092285
 20
102.1000061035156
 30
0.0
 10
16.79998207092285
 20
102.1000061035156
 30
0.0
 10
18.79998207092285
 20
100.8999938964844
 30
0.0
 10
19.4999828338623
 20
98.70001220703125
 30
0.0
 10
20.19998359680176
 20
96.5
 30
0.0
 10
16.79998207092285
 20
92.9000244140625
 30
0.0
 10
16.79998207092285
 20
92.9000244140625
 30
0.0
 10
16.79998207092285
 20
92.9000244140625
 30
0.0
 10
18.69998168945312
 20
92.30001831054688
 30
0.0
 10
19.9999828338623
 20
90.10003662109375
 30
0.0
 10
21.39998245239258
 20
88.00003051757812
 30
0.0
 10
17.79998207092285
 20
80.20004272460938
 30
0.0
 10
17.79998207092285
 20
80.20004272460938
 30
0.0
 10
17.79998207092285
 20
80.20004272460938
 30
0.0
 10
20.0999813079834
 20
80.60003662109375
 30
0.0
 10
20.69998168945312
 20
78.60003662109375
 30
0.0
 10
21.29998207092285
 20
76.60003662109375
 30
0.0
 10
19.29998207092285
 20
72.60003662109375
 30
0.0
 10
19.29998207092285
 20
72.60003662109375
 30
0.0
 10
19.29998207092285
 20
72.60003662109375
 30
0.0
 10
22.19998168945312
 20
71.50003051757812
 30
0.0
 10
21.19998168945312
 20
68.300048828125
 30
0.0
 10
20.19998168945312
 20
65.10003662109375
 30
0.0
 10
22.29998207092285
 20
58.40005493164062
 30
0.0
 10
22.29998207092285
 20
58.40005493164062
 30
0.0
 10
22.29998207092285
 20
58.40005493164062
 30
0.0
 10
24.89998245239258
 20
64.50006103515625
 30
0.0
 10
25.9999828338623
 20
66.50006103515625
 30
0.0
 10
27.09998321533203
 20
68.50006103515625
 30
0.0
 10
30.69998168945312
 20
74.00006103515625
 30
0.0
 10
35.39998245239258
 20
77.2000732421875
 30
0.0
 10
40.09998321533203
 20
80.40008544921875
 30
0.0
 10
37.79998397827148
 20
75.00006103515625
 30
0.0
 10
37.79998397827148
 20
75.00006103515625
 30
0.0
 10
37.79998397827148
 20
75.00006103515625
 30
0.0
 10
41.89998245239258
 20
78.50006103515625
 30
0.0
 10
45.79998397827148
 20
80.300048828125
 30
0.0
 10
49.69998550415039
 20
82.20004272460938
 30
0.0
 10
50.39998245239258
 20
76.300048828125
 30
0.0
 10
50.39998245239258
 20
76.300048828125
 30
0.0
 10
50.39998245239258
 20
76.300048828125
 30
0.0
 10
52.79998397827148
 20
76.90005493164062
 30
0.0
 10
56.89998245239258
 20
77.90005493164062
 30
0.0
 10
60.99998092651367
 20
78.90005493164062
 30
0.0
 10
62.09998321533203
 20
73.300048828125
 30
0.0
 10
62.09998321533203
 20
73.300048828125
 30
0.0
 10
62.09998321533203
 20
73.300048828125
 30
0.0
 10
64.49998474121094
 20
74.300048828125
 30
0.0
 10
69.09998321533203
 20
74.00006103515625
 30
0.0
 10
73.69998168945312
 20
73.7000732421875
 30
0.0
 10
73.69998168945312
 20
68.00006103515625
 30
0.0
 10
73.69998168945312
 20
68.00006103515625
 30
0.0
 10
73.69998168945312
 20
68.00006103515625
 30
0.0
 10
76.69998168945312
 20
70.300048828125
 30
0.0
 10
80.09998321533203
 20
70.7000732421875
 30
0.0
 10
83.49998474121094
 20
71.10006713867188
 30
0.0
 10
82.69998168945312
 20
66.10006713867188
 30
0.0
 10
82.69998168945312
 20
66.10006713867188
 30
0.0
 10
82.69998168945312
 20
66.10006713867188
 30
0.0
 10
86.19998168945312
 20
69.60006713867188
 30
0.0
 10
89.09998321533203
 20
71.2000732421875
 30
0.0
 10
91.99998474121094
 20
72.90008544921875
 30
0.0
 10
93.19998168945312
 20
69.30007934570312
 30
0.0
 10
93.19998168945312
 20
69.30007934570312
 30
0.0
 10
93.19998168945312
 20
69.30007934570312
 30
0.0
 10
96.39997863769531
 20
72.10006713867188
 30
0.0
 10
100.3999786376953
 20
73.7000732421875
 30
0.0
 10
104.2999801635742
 20
75.30007934570312
 30
0.0
 10
105.3999786376953
 20
71.40008544921875
 30
0.0
 10
105.3999786376953
 20
71.40008544921875
 30
0.0
 10
105.3999786376953
 20
71.40008544921875
 30
0.0
 10
109.9999771118164
 20
74.40008544921875
 30
0.0
 10
111.5999755859375
 20
75.7000732421875
 30
0.0
 10
111.5999755859375
 20
75.7000732421875
 30
0.0
 10
113.1999740600586
 20
73.2000732421875
 30
0.0
 10
113.1999740600586
 20
73.2000732421875
 30
0.0
 10
113.1999740600586
 20
73.2000732421875
 30
0.0
 10
117.5999755859375
 20
79.00006103515625
 30
0.0
 10
121.4999771118164
 20
79.30007934570312
 30
0.0
 10
125.3999786376953
 20
79.60009765625
 30
0.0
 10
124.8999786376953
 20
77.2000732421875
 30
0.0
 10
124.8999786376953
 20
77.2000732421875
 30
0.0
 10
124.8999786376953
 20
77.2000732421875
 30
0.0
 10
129.3999786376953
 20
82.00006103515625
 30
0.0
 10
131.7999725341797
 20
81.60006713867188
 30
0.0
 10
134.0999755859375
 20
81.2000732421875
 30
0.0
 10
134.3999786376953
 20
80.00006103515625
 30
0.0
 10
134.3999786376953
 20
80.00006103515625
 30
0.0
 10
134.3999786376953
 20
80.00006103515625
 30
0.0
 10
138.0999755859375
 20
81.7000732421875
 30
0.0
 10
138.0999755859375
 20
81.7000732421875
 30
0.0
  0
SPLINE
  5
6C
330
1F
100
AcDbEntity
  8
Layer 1
 62
   239
420
  7019318
370
    35
100
AcDbSpline
210
0.0
220
0.0
230
1.0
 70
     8
 71
     3
 72
    11
 73
     7
 74
     0
 42
0.0000000001
 43
0.0000000001
 12
1.0
 22
0.0
 32
0.0
 13
1.0
 23
0.0
 33
0.0
 40
0.0
 40
0.0
 40
0.0
 40
0.0
 40
1.0
 40
1.0
 40
1.0
 40
2.0
 40
2.0
 40
2.0
 40
2.0
 10
96.5
 20
149.2999877929688
 30
0.0
 10
96.5
 20
149.2999877929688
 30
0.0
 10
74.0999984741211
 20
142.1999816894531
 30
0.0
 10
52.40000152587891
 20
119.5
 30
0.0
 10
30.70000076293945
 20
96.89999389648438
 30
0.0
 10
21.60000228881836
 20
68.89999389648438
 30
0.0
 10
22.30000114440918
 20
58.60000610351562
 30
0.0
  0
SPLINE
  5
6D
330
1F
100
AcDbEntity
  8
Layer 1
 62
   239
420
  7019318
370
    35
100
AcDbSpline
210
0.0
220
0.0
230
1.0
 70
     8
 71
     3
 72
     8
 73
     4
 74
     0
 42
0.0000000001
 43
0.0000000001
 12
1.0
 22
0.0
 32
0.0
 13
1.0
 23
0.0
 33
0.0
 40
0.0
 40
0.0
 40
0.0
 40
0.0
 40
1.0
 40
1.0
 40
1.0
 40
1.0
 10
71.4000015258789
 20
135.8999938964844
 30
0.0
 10
52.0
 20
113.3999938964844
 30
0.0
 10
59.09999847412109
 20
100.3999938964844
 30
0.0
 10
47.0
 20
84.29998779296875
 30
0.0
  0
SPLINE
  5
6E
330
1F
100
AcDbEntity
  8
Layer 1
 62
   239
420
  7019318
370
    35
100
AcDbSpline
210
0.0
220
0.0
230
1.0
 70
     8
 71
     3
 72
     8
 73
     4
 74
     0
 42
0.0000000001
 43
0.0000000001
 12
1.0
 22
0.0
 32
0.0
 13
1.0
 23
0.0
 33
0.0
 40
0.0
 40
0.0
 40
0.0
 40
0.0
 40
1.0
 40
1.0
 40
1.0
 40
1.0
 10
69.69999694824219
 20
80.39999389648438
 30
0.0
 10
85.89999389648438
 20
101.2999877929688
 30
0.0
 10
82.5
 20
127.6000061035156
 30
0.0
 10
96.0999984741211
 20
145.0
 30
0.0
  0
SPLINE
  5
6F
330
1F
100
AcDbEntity
  8
Layer 1
 62
   239
420
  7019318
370
    35
100
AcDbSpline
210
0.0
220
0.0
230
1.0
 70
     8
 71
     3
 72
     8
 73
     4
 74
     0
 42
0.0000000001
 43
0.0000000001
 12
1.0
 22
0.0
 32
0.0
 13
1.0
 23
0.0
 33
0.0
 40
0.0
 40
0.0
 40
0.0
 40
0.0
 40
1.0
 40
1.0
 40
1.0
 40
1.0
 10
100.5
 20
77.70001220703125
 30
0.0
 10
111.5
 20
92.10000610351562
 30
0.0
 10
110.1999969482422
 20
113.5
 30
0.0
 10
110.1999969482422
 20
113.5
 30
0.0
  0
SPLINE
  5
70
330
1F
100
AcDbEntity
  8
Layer 1
 62
   239
420
  7019318
370
    35
100
AcDbSpline
210
0.0
220
0.0
230
1.0
 70
     8
 71
     3
 72
     8
 73
     4
 74
     0
 42
0.0000000001
 43
0.0000000001
 12
1.0
 22
0.0
 32
0.0
 13
1.0
 23
0.0
 33
0.0
 40
0.0
 40
0.0
 40
0.0
 40
0.0
 40
1.0
 40
1.0
 40
1.0
 40
1.0
 10
86.80000305175781
 20
145.1000061035156
 30
0.0
 10
86.80000305175781
 20
145.1000061035156
 30
0.0
 10
58.50000381469727
 20
148.2000122070312
 30
0.0
 10
35.40000152587891
 20
137.1000061035156
 30
0.0
  0
SPLINE
  5
71
330
1F
100
AcDbEntity
  8
Layer 1
 62
   239
420
  7019318
370
    35
100
AcDbSpline
210
0.0
220
0.0
230
1.0
 70
     8
 71
     3
 72
     8
 73
     4
 74
     0
 42
0.0000000001
 43
0.0000000001
 12
1.0
 22
0.0
 32
0.0
 13
1.0
 23
0.0
 33
0.0
 40
0.0
 40
0.0
 40
0.0
 40
0.0
 40
1.0
 40
1.0
 40
1.0
 40
1.0
 10
92.19999694824219
 20
172.7999877929688
 30
0.0
 10
85.0999984741211
 20
174.3999938964844
 30
0.0
 10
73.89999389648438
 20
175.5
 30
0.0
 10
59.99999618530273
 20
171.7999877929688
 30
0.0
  0
SPLINE
  5
72
330
1F
100
AcDbEntity
  8
Layer 1
 62
   239
420
  7019318
370
    35
100
AcDbSpline
210
0.0
220
0.0
230
1.0
 70
     8
 71
     3
 72
     8
 73
     4
 74
     0
 42
0.0000000001
 43
0.0000000001
 12
1.0
 22
0.0
 32
0.0
 13
1.0
 23
0.0
 33
0.0
 40
0.0
 40
0.0
 40
0.0
 40
0.0
 40
1.0
 40
1.0
 40
1.0
 40
1.0
 10
56.40000152587891
 20
123.5
 30
0.0
 10
56.40000152587891
 20
123.5
 30
0.0
 10
44.40000152587891
 20
124.0
 30
0.0
 10
30.00000190734863
 20
113.5
 30
0.0
  0
SPLINE
  5
73
330
1F
100
AcDbEntity
  8
Layer 1
 62
   239
420
  7019318
370
    35
100
AcDbSpline
210
0.0
220
0.0
230
1.0
 70
     8
 71
     3
 72
    14
 73
    10
 74
     0
 42
0.0000000001
 43
0.0000000001
 12
1.0
 22
0.0
 32
0.0
 13
1.0
 23
0.0
 33
0.0
 40
0.0
 40
0.0
 40
0.0
 40
0.0
 40
1.0
 40
1.0
 40
1.0
 40
2.0
 40
2.0
 40
2.0
 40
3.0
 40
3.0
 40
3.0
 40
3.0
 10
124.3000030517578
 20
351.3000030517578
 30
0.0
 10
94.10000610351562
 20
356.4000091552734
 30
0.0
 10
64.30000305175781
 20
356.6999969482422
 30
0.0
 10
39.40000152587891
 20
321.8000030517578
 30
0.0
 10
11.00000190734863
 20
282.1000061035156
 30
0.0
 10
18.00000190734863
 20
230.2000122070312
 30
0.0
 10
27.30000114440918
 20
210.6000061035156
 30
0.0
 10
36.60000228881836
 20
191.0
 30
0.0
 10
54.30000305175781
 20
176.2000122070312
 30
0.0
 10
54.30000305175781
 20
176.2000122070312
 30
0.0
  0
SPLINE
  5
74
330
1F
100
AcDbEntity
  8
Layer 1
 62
   239
420
  7019318
370
    35
100
AcDbSpline
210
0.0
220
0.0
230
1.0
 70
     8
 71
     3
 72
     8
 73
     4
 74
     0
 42
0.0000000001
 43
0.0000000001
 12
1.0
 22
0.0
 32
0.0
 13
1.0
 23
0.0
 33
0.0
 40
0.0
 40
0.0
 40
0.0
 40
0.0
 40
1.0
 40
1.0
 40
1.0
 40
1.0
 10
167.0
 20
338.0
 30
0.0
 10
158.8000030517578
 20
342.5
 30
0.0
 10
148.6000061035156
 20
346.6999969482422
 30
0.0
 10
136.8000030517578
 20
349.0
 30
0.0
  0
SPLINE
  5
75
330
1F
100
AcDbEntity
  8
Layer 1
 62
   239
420
  7019318
370
    35
100
AcDbSpline
210
0.0
220
0.0
230
1.0
 70
     8
 71
     3
 72
     8
 73
     4
 74
     0
 42
0.0000000001
 43
0.0000000001
 12
1.0
 22
0.0
 32
0.0
 13
1.0
 23
0.0
 33
0.0
 40
0.0
 40
0.0
 40
0.0
 40
0.0
 40
1.0
 40
1.0
 40
1.0
 40
1.0
 10
191.3000030517578
 20
319.8000030517578
 30
0.0
 10
191.3000030517578
 20
319.8000030517578
 30
0.0
 10
188.0
 20
323.5
 30
0.0
 10
181.8000030517578
 20
328.3000030517578
 30
0.0
  0
SPLINE
  5
76
330
1F
100
AcDbEntity
  8
Layer 1
 62
   239
420
  7019318
370
    35
100
AcDbSpline
210
0.0
220
0.0
230
1.0
 70
     8
 71
     3
 72
    11
 73
     7
 74
     0
 42
0.0000000001
 43
0.0000000001
 12
1.0
 22
0.0
 32
0.0
 13
1.0
 23
0.0
 33
0.0
 40
0.0
 40
0.0
 40
0.0
 40
0.0
 40
1.0
 40
1.0
 40
1.0
 40
2.0
 40
2.0
 40
2.0
 40
2.0
 10
259.7000122070312
 20
81.89999389648438
 30
0.0
 10
279.3000183105469
 20
89.10000610351562
 30
0.0
 10
292.1000061035156
 20
113.6000061035156
 30
0.0
 10
300.9000244140625
 20
147.2000122070312
 30
0.0
 10
309.7000122070312
 20
180.8000183105469
 30
0.0
 10
295.0000305175781
 20
213.3000183105469
 30
0.0
 10
295.0000305175781
 20
213.3000183105469
 30
0.0
  0
SPLINE
  5
77
330
1F
100
AcDbEntity
  8
Layer 1
 62
   239
420
  7019318
370
    35
100
AcDbSpline
210
0.0
220
0.0
230
1.0
 70
     8
 71
     3
 72
     8
 73
     4
 74
     0
 42
0.0000000001
 43
0.0000000001
 12
1.0
 22
0.0
 32
0.0
 13
1.0
 23
0.0
 33
0.0
 40
0.0
 40
0.0
 40
0.0
 40
0.0
 40
1.0
 40
1.0
 40
1.0
 40
1.0
 10
182.8999938964844
 20
260.8000030517578
 30
0.0
 10
182.8999938964844
 20
260.8000030517578
 30
0.0
 10
165.0999908447266
 20
255.8000030517578
 30
0.0
 10
178.5
 20
185.5
 30
0.0
  0
SPLINE
  5
78
330
1F
100
AcDbEntity
  8
Layer 1
 62
   239
420
  7019318
370
    35
100
AcDbSpline
210
0.0
220
0.0
230
1.0
 70
     8
 71
     3
 72
    11
 73
     7
 74
     0
 42
0.0000000001
 43
0.0000000001
 12
1.0
 22
0.0
 32
0.0
 13
1.0
 23
0.0
 33
0.0
 40
0.0
 40
0.0
 40
0.0
 40
0.0
 40
1.0
 40
1.0
 40
1.0
 40
2.0
 40
2.0
 40
2.0
 40
2.0
 10
276.8999938964844
 20
227.2000122070312
 30
0.0
 10
269.8999938964844
 20
241.5
 30
0.0
 10
250.5999908447266
 20
257.0000152587891
 30
0.0
 10
234.5999908447266
 20
262.6000061035156
 30
0.0
 10
218.4999847412109
 20
268.2000122070312
 30
0.0
 10
198.2999877929688
 20
265.0
 30
0.0
 10
198.2999877929688
 20
265.0
 30
0.0
  0
SPLINE
  5
79
330
1F
100
AcDbEntity
  8
Layer 1
 62
   239
420
  7019318
370
    35
100
AcDbSpline
210
0.0
220
0.0
230
1.0
 70
     8
 71
     3
 72
    11
 73
     7
 74
     0
 42
0.0000000001
 43
0.0000000001
 12
1.0
 22
0.0
 32
0.0
 13
1.0
 23
0.0
 33
0.0
 40
0.0
 40
0.0
 40
0.0
 40
0.0
 40
1.0
 40
1.0
 40
1.0
 40
2.0
 40
2.0
 40
2.0
 40
2.0
 10
240.3999938964844
 20
83.20001220703125
 30
0.0
 10
251.5
 20
84.70001220703125
 30
0.0
 10
261.1000061035156
 20
86.70001220703125
 30
0.0
 10
269.1000061035156
 20
98.10000610351562
 30
0.0
 10
278.7000122070312
 20
111.8000183105469
 30
0.0
 10
281.7000122070312
 20
135.8999938964844
 30
0.0
 10
281.7000122070312
 20
135.8999938964844
 30
0.0
  0
SPLINE
  5
7A
330
1F
100
AcDbEntity
  8
Layer 1
 62
   239
420
  7019318
370
    35
100
AcDbSpline
210
0.0
220
0.0
230
1.0
 70
     8
 71
     3
 72
    14
 73
    10
 74
     0
 42
0.0000000001
 43
0.0000000001
 12
1.0
 22
0.0
 32
0.0
 13
1.0
 23
0.0
 33
0.0
 40
0.0
 40
0.0
 40
0.0
 40
0.0
 40
1.0
 40
1.0
 40
1.0
 40
2.0
 40
2.0
 40
2.0
 40
3.0
 40
3.0
 40
3.0
 40
3.0
 10
142.3000030517578
 20
141.2999877929688
 30
0.0
 10
143.8000030517578
 20
132.5
 30
0.0
 10
155.1999969482422
 20
102.6999816894531
 30
0.0
 10
167.0
 20
90.19998168945312
 30
0.0
 10
178.1999969482422
 20
78.39999389648438
 30
0.0
 10
196.0
 20
69.49996948242188
 30
0.0
 10
202.1999969482422
 20
68.5999755859375
 30
0.0
 10
208.3999938964844
 20
67.69998168945312
 30
0.0
 10
215.0
 20
72.39996337890625
 30
0.0
 10
215.0
 20
72.39996337890625
 30
0.0
  0
SPLINE
  5
7B
330
1F
100
AcDbEntity
  8
Layer 1
 62
   239
420
  7019318
370
    35
100
AcDbSpline
210
0.0
220
0.0
230
1.0
 70
     8
 71
     3
 72
    11
 73
     7
 74
     0
 42
0.0000000001
 43
0.0000000001
 12
1.0
 22
0.0
 32
0.0
 13
1.0
 23
0.0
 33
0.0
 40
0.0
 40
0.0
 40
0.0
 40
0.0
 40
1.0
 40
1.0
 40
1.0
 40
2.0
 40
2.0
 40
2.0
 40
2.0
 10
151.8999938964844
 20
252.3999938964844
 30
0.0
 10
151.8999938964844
 20
252.3999938964844
 30
0.0
 10
133.0999908447266
 20
245.1999816894531
 30
0.0
 10
122.1999969482422
 20
229.7999877929688
 30
0.0
 10
116.7999954223633
 20
222.0999755859375
 30
0.0
 10
111.6999969482422
 20
211.0
 30
0.0
 10
108.6999969482422
 20
198.5
 30
0.0
  0
SPLINE
  5
7C
330
1F
100
AcDbEntity
  8
Layer 1
 62
   239
420
  7019318
370
    35
100
AcDbSpline
210
0.0
220
0.0
230
1.0
 70
     8
 71
     3
 72
     8
 73
     4
 74
     0
 42
0.0000000001
 43
0.0000000001
 12
1.0
 22
0.0
 32
0.0
 13
1.0
 23
0.0
 33
0.0
 40
0.0
 40
0.0
 40
0.0
 40
0.0
 40
1.0
 40
1.0
 40
1.0
 40
1.0
 10
164.1000061035156
 20
255.8999938964844
 30
0.0
 10
164.1000061035156
 20
255.8999938964844
 30
0.0
 10
145.8000030517578
 20
247.6000061035156
 30
0.0
 10
145.5
 20
213.2999877929688
 30
0.0
  0
SPLINE
  5
7D
330
1F
100
AcDbEntity
  8
Layer 1
 62
   239
420
  7019318
370
    35
100
AcDbSpline
210
0.0
220
0.0
230
1.0
 70
     8
 71
     3
 72
     8
 73
     4
 74
     0
 42
0.0000000001
 43
0.0000000001
 12
1.0
 22
0.0
 32
0.0
 13
1.0
 23
0.0
 33
0.0
 40
0.0
 40
0.0
 40
0.0
 40
0.0
 40
1.0
 40
1.0
 40
1.0
 40
1.0
 10
249.6999969482422
 20
229.7999877929688
 30
0.0
 10
230.3999938964844
 20
266.5999908447266
 30
0.0
 10
202.1999969482422
 20
265.3999938964844
 30
0.0
 10
202.1999969482422
 20
265.3999938964844
 30
0.0
  0
SPLINE
  5
7E
330
1F
100
AcDbEntity
  8
Layer 1
 62
   239
420
  7019318
370
    35
100
AcDbSpline
210
0.0
220
0.0
230
1.0
 70
     8
 71
     3
 72
     8
 73
     4
 74
     0
 42
0.0000000001
 43
0.0000000001
 12
1.0
 22
0.0
 32
0.0
 13
1.0
 23
0.0
 33
0.0
 40
0.0
 40
0.0
 40
0.0
 40
0.0
 40
1.0
 40
1.0
 40
1.0
 40
1.0
 10
247.0
 20
84.29998779296875
 30
0.0
 10
260.2999877929688
 20
98.19998168945312
 30
0.0
 10
259.7000122070312
 20
152.3999938964844
 30
0.0
 10
259.7000122070312
 20
152.3999938964844
 30
0.0
  0
SPLINE
  5
7F
330
1F
100
AcDbEntity
  8
Layer 1
 62
   239
420
  7019318
370
    35
100
AcDbSpline
210
0.0
220
0.0
230
1.0
 70
     8
 71
     3
 72
    14
 73
    10
 74
     0
 42
0.0000000001
 43
0.0000000001
 12
1.0
 22
0.0
 32
0.0
 13
1.0
 23
0.0
 33
0.0
 40
0.0
 40
0.0
 40
0.0
 40
0.0
 40
1.0
 40
1.0
 40
1.0
 40
2.0
 40
2.0
 40
2.0
 40
3.0
 40
3.0
 40
3.0
 40
3.0
 10
100.5
 20
159.7000122070312
 30
0.0
 10
100.5
 20
159.7000122070312
 30
0.0
 10
105.5
 20
125.8000183105469
 30
0.0
 10
131.5
 20
100.4000244140625
 30
0.0
 10
157.5
 20
75.00003051757812
 30
0.0
 10
170.3000030517578
 20
67.4000244140625
 30
0.0
 10
178.6999969482422
 20
65.10003662109375
 30
0.0
 10
187.0
 20
62.800048828125
 30
0.0
 10
206.3999938964844
 20
62.10003662109375
 30
0.0
 10
209.3999938964844
 20
65.20004272460938
 30
0.0
  0
SPLINE
  5
80
330
1F
100
AcDbEntity
  8
Layer 1
 62
   239
420
  7019318
370
    35
100
AcDbSpline
210
0.0
220
0.0
230
1.0
 70
     8
 71
     3
 72
     8
 73
     4
 74
     0
 42
0.0000000001
 43
0.0000000001
 12
1.0
 22
0.0
 32
0.0
 13
1.0
 23
0.0
 33
0.0
 40
0.0
 40
0.0
 40
0.0
 40
0.0
 40
1.0
 40
1.0
 40
1.0
 40
1.0
 10
114.1999969482422
 20
312.1999969482422
 30
0.0
 10
114.1999969482422
 20
312.1999969482422
 30
0.0
 10
91.0999984741211
 20
313.0999908447266
 30
0.0
 10
80.89999389648438
 20
291.5999908447266
 30
0.0
  0
SPLINE
  5
81
330
1F
100
AcDbEntity
  8
Layer 1
 62
   239
420
  7019318
370
    35
100
AcDbSpline
210
0.0
220
0.0
230
1.0
 70
     8
 71
     3
 72
    11
 73
     7
 74
     0
 42
0.0000000001
 43
0.0000000001
 12
1.0
 22
0.0
 32
0.0
 13
1.0
 23
0.0
 33
0.0
 40
0.0
 40
0.0
 40
0.0
 40
0.0
 40
1.0
 40
1.0
 40
1.0
 40
2.0
 40
2.0
 40
2.0
 40
2.0
 10
121.5999984741211
 20
311.3999938964844
 30
0.0
 10
121.5999984741211
 20
311.3999938964844
 30
0.0
 10
118.4000015258789
 20
314.6999969482422
 30
0.0
 10
118.6999969482422
 20
319.6999969482422
 30
0.0
 10
119.0
 20
324.6999969482422
 30
0.0
 10
116.3999938964844
 20
332.0
 30
0.0
 10
110.5
 20
335.5
 30
0.0
  0
SPLINE
  5
82
330
1F
100
AcDbEntity
  8
Layer 1
 62
   239
420
  7019318
370
    35
100
AcDbSpline
210
0.0
220
0.0
230
1.0
 70
     8
 71
     3
 72
     8
 73
     4
 74
     0
 42
0.0000000001
 43
0.0000000001
 12
1.0
 22
0.0
 32
0.0
 13
1.0
 23
0.0
 33
0.0
 40
0.0
 40
0.0
 40
0.0
 40
0.0
 40
1.0
 40
1.0
 40
1.0
 40
1.0
 10
92.0999984741211
 20
259.6000061035156
 30
0.0
 10
91.19999694824219
 20
258.7000122070312
 30
0.0
 10
69.69999694824219
 20
231.8999938964844
 30
0.0
 10
66.30000305175781
 20
187.9000244140625
 30
0.0
  0
SPLINE
  5
83
330
1F
100
AcDbEntity
  8
Layer 1
 62
   239
420
  7019318
370
    35
100
AcDbSpline
210
0.0
220
0.0
230
1.0
 70
     8
 71
     3
 72
    11
 73
     7
 74
     0
 42
0.0000000001
 43
0.0000000001
 12
1.0
 22
0.0
 32
0.0
 13
1.0
 23
0.0
 33
0.0
 40
0.0
 40
0.0
 40
0.0
 40
0.0
 40
1.0
 40
1.0
 40
1.0
 40
2.0
 40
2.0
 40
2.0
 40
2.0
 10
42.70000076293945
 20
270.0
 30
0.0
 10
42.70000076293945
 20
270.0
 30
0.0
 10
32.09999847412109
 20
244.8999938964844
 30
0.0
 10
35.40000152587891
 20
218.7000122070312
 30
0.0
 10
38.70000076293945
 20
192.6000061035156
 30
0.0
 10
48.20000076293945
 20
181.8000183105469
 30
0.0
 10
48.20000076293945
 20
181.8000183105469
 30
0.0
  0
SPLINE
  5
84
330
1F
100
AcDbEntity
  8
Layer 1
 62
   239
420
  7019318
370
    35
100
AcDbSpline
210
0.0
220
0.0
230
1.0
 70
     8
 71
     3
 72
    11
 73
     7
 74
     0
 42
0.0000000001
 43
0.0000000001
 12
1.0
 22
0.0
 32
0.0
 13
1.0
 23
0.0
 33
0.0
 40
0.0
 40
0.0
 40
0.0
 40
0.0
 40
1.0
 40
1.0
 40
1.0
 40
2.0
 40
2.0
 40
2.0
 40
2.0
 10
207.3000030517578
 20
309.6999969482422
 30
0.0
 10
207.3000030517578
 20
309.6999969482422
 30
0.0
 10
210.4000091552734
 20
299.0
 30
0.0
 10
215.3000030517578
 20
289.0999908447266
 30
0.0
 10
220.1999969482422
 20
279.1999969482422
 30
0.0
 10
229.6999969482422
 20
269.8999938964844
 30
0.0
 10
229.6999969482422
 20
269.8999938964844
 30
0.0
  0
SPLINE
  5
85
330
1F
100
AcDbEntity
  8
Layer 1
 62
   239
420
  7019318
370
    35
100
AcDbSpline
210
0.0
220
0.0
230
1.0
 70
     8
 71
     3
 72
    11
 73
     7
 74
     0
 42
0.0000000001
 43
0.0000000001
 12
1.0
 22
0.0
 32
0.0
 13
1.0
 23
0.0
 33
0.0
 40
0.0
 40
0.0
 40
0.0
 40
0.0
 40
1.0
 40
1.0
 40
1.0
 40
2.0
 40
2.0
 40
2.0
 40
2.0
 10
199.8999938964844
 20
317.3000030517578
 30
0.0
 10
203.8999938964844
 20
304.8000030517578
 30
0.0
 10
210.1999969482422
 20
288.5
 30
0.0
 10
213.7999877929688
 20
281.7000122070312
 30
0.0
 10
217.3999938964844
 20
274.9000091552734
 30
0.0
 10
222.6999816894531
 20
269.9000091552734
 30
0.0
 10
222.6999816894531
 20
269.9000091552734
 30
0.0
  0
SPLINE
  5
86
330
1F
100
AcDbEntity
  8
Layer 1
 62
   239
420
  7019318
370
    35
100
AcDbSpline
210
0.0
220
0.0
230
1.0
 70
     8
 71
     3
 72
    11
 73
     7
 74
     0
 42
0.0000000001
 43
0.0000000001
 12
1.0
 22
0.0
 32
0.0
 13
1.0
 23
0.0
 33
0.0
 40
0.0
 40
0.0
 40
0.0
 40
0.0
 40
1.0
 40
1.0
 40
1.0
 40
2.0
 40
2.0
 40
2.0
 40
2.0
 10
193.6999969482422
 20
322.3999938964844
 30
0.0
 10
193.6999969482422
 20
322.3999938964844
 30
0.0
 10
197.8000030517578
 20
306.1999969482422
 30
0.0
 10
204.1999969482422
 20
291.5999908447266
 30
0.0
 10
210.5999908447266
 20
276.9999847412109
 30
0.0
 10
216.8999938964844
 20
269.5999908447266
 30
0.0
 10
216.8999938964844
 20
269.5999908447266
 30
0.0
  0
SPLINE
  5
87
330
1F
100
AcDbEntity
  8
Layer 1
 62
   239
420
  7019318
370
    35
100
AcDbSpline
210
0.0
220
0.0
230
1.0
 70
     8
 71
     3
 72
    11
 73
     7
 74
     0
 42
0.0000000001
 43
0.0000000001
 12
1.0
 22
0.0
 32
0.0
 13
1.0
 23
0.0
 33
0.0
 40
0.0
 40
0.0
 40
0.0
 40
0.0
 40
1.0
 40
1.0
 40
1.0
 40
2.0
 40
2.0
 40
2.0
 40
2.0
 10
325.3999938964844
 20
107.6000061035156
 30
0.0
 10
325.3999938964844
 20
107.6000061035156
 30
0.0
 10
323.0
 20
115.3000183105469
 30
0.0
 10
320.3999938964844
 20
122.1000061035156
 30
0.0
 10
317.8999938964844
 20
128.8999938964844
 30
0.0
 10
309.5
 20
143.0
 30
0.0
 10
309.6000061035156
 20
143.3000183105469
 30
0.0
  0
SPLINE
  5
88
330
1F
100
AcDbEntity
  8
Layer 1
 62
   239
420
  7019318
370
    35
100
AcDbSpline
210
0.0
220
0.0
230
1.0
 70
     8
 71
     3
 72
     8
 73
     4
 74
     0
 42
0.0000000001
 43
0.0000000001
 12
1.0
 22
0.0
 32
0.0
 13
1.0
 23
0.0
 33
0.0
 40
0.0
 40
0.0
 40
0.0
 40
0.0
 40
1.0
 40
1.0
 40
1.0
 40
1.0
 10
324.2999877929688
 20
122.6000061035156
 30
0.0
 10
321.3999938964844
 20
130.6000061035156
 30
0.0
 10
310.7999877929688
 20
150.2000122070312
 30
0.0
 10
310.7999877929688
 20
150.2000122070312
 30
0.0
  0
SPLINE
  5
89
330
1F
100
AcDbEntity
  8
Layer 1
 62
   239
420
  7019318
370
    35
100
AcDbSpline
210
0.0
220
0.0
230
1.0
 70
     8
 71
     3
 72
     8
 73
     4
 74
     0
 42
0.0000000001
 43
0.0000000001
 12
1.0
 22
0.0
 32
0.0
 13
1.0
 23
0.0
 33
0.0
 40
0.0
 40
0.0
 40
0.0
 40
0.0
 40
1.0
 40
1.0
 40
1.0
 40
1.0
 10
319.6000061035156
 20
143.2000122070312
 30
0.0
 10
317.1000061035156
 20
148.2000122070312
 30
0.0
 10
311.7000122070312
 20
158.2000122070312
 30
0.0
 10
311.7000122070312
 20
158.2000122070312
 30
0.0
  0
SPLINE
  5
8A
330
1F
100
AcDbEntity
  8
Layer 1
 62
   239
420
  7019318
370
    35
100
AcDbSpline
210
0.0
220
0.0
230
1.0
 70
     8
 71
     3
 72
     8
 73
     4
 74
     0
 42
0.0000000001
 43
0.0000000001
 12
1.0
 22
0.0
 32
0.0
 13
1.0
 23
0.0
 33
0.0
 40
0.0
 40
0.0
 40
0.0
 40
0.0
 40
1.0
 40
1.0
 40
1.0
 40
1.0
 10
172.3000030517578
 20
272.3000030517578
 30
0.0
 10
171.9000091552734
 20
265.9000091552734
 30
0.0
 10
175.8000030517578
 20
260.1999969482422
 30
0.0
 10
175.8000030517578
 20
260.1999969482422
 30
0.0
  0
SPLINE
  5
8B
330
1F
100
AcDbEntity
  8
Layer 1
 62
   239
420
  7019318
370
    35
100
AcDbSpline
210
0.0
220
0.0
230
1.0
 70
     8
 71
     3
 72
     8
 73
     4
 74
     0
 42
0.0000000001
 43
0.0000000001
 12
1.0
 22
0.0
 32
0.0
 13
1.0
 23
0.0
 33
0.0
 40
0.0
 40
0.0
 40
0.0
 40
0.0
 40
1.0
 40
1.0
 40
1.0
 40
1.0
 10
156.3999938964844
 20
268.5
 30
0.0
 10
154.7999877929688
 20
260.8999938964844
 30
0.0
 10
158.3999938964844
 20
255.8999938964844
 30
0.0
 10
158.3999938964844
 20
255.8999938964844
 30
0.0
  0
SPLINE
  5
8C
330
1F
100
AcDbEntity
  8
Layer 1
 62
   239
420
  7019318
370
    35
100
AcDbSpline
210
0.0
220
0.0
230
1.0
 70
     8
 71
     3
 72
     8
 73
     4
 74
     0
 42
0.0000000001
 43
0.0000000001
 12
1.0
 22
0.0
 32
0.0
 13
1.0
 23
0.0
 33
0.0
 40
0.0
 40
0.0
 40
0.0
 40
0.0
 40
1.0
 40
1.0
 40
1.0
 40
1.0
 10
169.3000030517578
 20
278.1999969482422
 30
0.0
 10
167.0
 20
265.8999938964844
 30
0.0
 10
171.3000030517578
 20
259.1999969482422
 30
0.0
 10
171.3000030517578
 20
259.1999969482422
 30
0.0
  0
SPLINE
  5
8D
330
1F
100
AcDbEntity
  8
Layer 1
 62
   239
420
  7019318
370
    35
100
AcDbSpline
210
0.0
220
0.0
230
1.0
 70
     8
 71
     3
 72
     8
 73
     4
 74
     0
 42
0.0000000001
 43
0.0000000001
 12
1.0
 22
0.0
 32
0.0
 13
1.0
 23
0.0
 33
0.0
 40
0.0
 40
0.0
 40
0.0
 40
0.0
 40
1.0
 40
1.0
 40
1.0
 40
1.0
 10
160.0
 20
273.5
 30
0.0
 10
158.1000061035156
 20
265.5
 30
0.0
 10
162.6999969482422
 20
257.0
 30
0.0
 10
162.6999969482422
 20
257.0
 30
0.0
  0
SPLINE
  5
8E
330
1F
100
AcDbEntity
  8
Layer 1
 62
   239
420
  7019318
370
    35
100
AcDbSpline
210
0.0
220
0.0
230
1.0
 70
     8
 71
     3
 72
     8
 73
     4
 74
     0
 42
0.0000000001
 43
0.0000000001
 12
1.0
 22
0.0
 32
0.0
 13
1.0
 23
0.0
 33
0.0
 40
0.0
 40
0.0
 40
0.0
 40
0.0
 40
1.0
 40
1.0
 40
1.0
 40
1.0
 10
165.3000030517578
 20
285.0
 30
0.0
 10
162.6000061035156
 20
265.6999969482422
 30
0.0
 10
167.0
 20
258.1000061035156
 30
0.0
 10
167.0
 20
258.1000061035156
 30
0.0
  0
SPLINE
  5
8F
330
1F
100
AcDbEntity
  8
Layer 1
 62
   239
420
  7019318
370
    35
100
AcDbSpline
210
0.0
220
0.0
230
1.0
 70
     8
 71
     3
 72
     8
 73
     4
 74
     0
 42
0.0000000001
 43
0.0000000001
 12
1.0
 22
0.0
 32
0.0
 13
1.0
 23
0.0
 33
0.0
 40
0.0
 40
0.0
 40
0.0
 40
0.0
 40
1.0
 40
1.0
 40
1.0
 40
1.0
 10
197.3999938964844
 20
339.6999969482422
 30
0.0
 10
194.6999969482422
 20
347.0999908447266
 30
0.0
 10
186.1999969482422
 20
365.5
 30
0.0
 10
186.1999969482422
 20
365.5
 30
0.0
  0
SPLINE
  5
90
330
1F
100
AcDbEntity
  8
Layer 1
 62
   239
420
  7019318
370
    35
100
AcDbSpline
210
0.0
220
0.0
230
1.0
 70
     8
 71
     3
 72
     8
 73
     4
 74
     0
 42
0.0000000001
 43
0.0000000001
 12
1.0
 22
0.0
 32
0.0
 13
1.0
 23
0.0
 33
0.0
 40
0.0
 40
0.0
 40
0.0
 40
0.0
 40
1.0
 40
1.0
 40
1.0
 40
1.0
 10
196.0
 20
331.6999969482422
 30
0.0
 10
193.6999969482422
 20
339.0999908447266
 30
0.0
 10
187.8999938964844
 20
351.0
 30
0.0
 10
187.8999938964844
 20
351.0
 30
0.0
  0
SPLINE
  5
91
330
1F
100
AcDbEntity
  8
Layer 1
 62
   239
420
  7019318
370
    35
100
AcDbSpline
210
0.0
220
0.0
230
1.0
 70
     8
 71
     3
 72
     8
 73
     4
 74
     0
 42
0.0000000001
 43
0.0000000001
 12
1.0
 22
0.0
 32
0.0
 13
1.0
 23
0.0
 33
0.0
 40
0.0
 40
0.0
 40
0.0
 40
0.0
 40
1.0
 40
1.0
 40
1.0
 40
1.0
 10
186.1000061035156
 20
345.0
 30
0.0
 10
186.1000061035156
 20
345.0
 30
0.0
 10
189.7000122070312
 20
333.6999969482422
 30
0.0
 10
192.0
 20
327.1000061035156
 30
0.0
  0
SPLINE
  5
92
330
1F
100
AcDbEntity
  8
Layer 1
 62
   239
420
  7019318
370
    35
100
AcDbSpline
210
0.0
220
0.0
230
1.0
 70
     8
 71
     3
 72
    14
 73
    10
 74
     0
 42
0.0000000001
 43
0.0000000001
 12
1.0
 22
0.0
 32
0.0
 13
1.0
 23
0.0
 33
0.0
 40
0.0
 40
0.0
 40
0.0
 40
0.0
 40
1.0
 40
1.0
 40
1.0
 40
2.0
 40
2.0
 40
2.0
 40
3.0
 40
3.0
 40
3.0
 40
3.0
 10
156.0
 20
431.3000030517578
 30
0.0
 10
156.0
 20
431.3000030517578
 30
0.0
 10
188.1999969482422
 20
411.2000045776367
 30
0.0
 10
213.8999938964844
 20
404.6000061035156
 30
0.0
 10
261.6000061035156
 20
392.4000091552734
 30
0.0
 10
258.1000061035156
 20
381.0000076293945
 30
0.0
 10
293.2000122070312
 20
366.8000030517578
 30
0.0
 10
334.4000244140625
 20
350.1999969482422
 30
0.0
 10
368.4000244140625
 20
357.1999969482422
 30
0.0
 10
368.4000244140625
 20
357.1999969482422
 30
0.0
  0
SPLINE
  5
93
330
1F
100
AcDbEntity
  8
Layer 1
 62
   239
420
  7019318
370
    35
100
AcDbSpline
210
0.0
220
0.0
230
1.0
 70
     8
 71
     3
 72
   191
 73
   187
 74
     0
 42
0.0000000001
 43
0.0000000001
 12
1.0
 22
0.0
 32
0.0
 13
1.0
 23
0.0
 33
0.0
 40
0.0
 40
0.0
 40
0.0
 40
0.0
 40
1.0
 40
1.0
 40
1.0
 40
2.0
 40
2.0
 40
2.0
 40
3.0
 40
3.0
 40
3.0
 40
4.0
 40
4.0
 40
4.0
 40
5.0
 40
5.0
 40
5.0
 40
6.0
 40
6.0
 40
6.0
 40
7.0
 40
7.0
 40
7.0
 40
8.0
 40
8.0
 40
8.0
 40
9.0
 40
9.0
 40
9.0
 40
10.0
 40
10.0
 40
10.0
 40
11.0
 40
11.0
 40
11.0
 40
12.0
 40
12.0
 40
12.0
 40
13.0
 40
13.0
 40
13.0
 40
14.0
 40
14.0
 40
14.0
 40
15.0
 40
15.0
 40
15.0
 40
16.0
 40
16.0
 40
16.0
 40
17.0
 40
17.0
 40
17.0
 40
18.0
 40
18.0
 40
18.0
 40
19.0
 40
19.0
 40
19.0
 40
20.0
 40
20.0
 40
20.0
 40
21.0
 40
21.0
 40
21.0
 40
22.0
 40
22.0
 40
22.0
 40
23.0
 40
23.0
 40
23.0
 40
24.0
 40
24.0
 40
24.0
 40
25.0
 40
25.0
 40
25.0
 40
26.0
 40
26.0
 40
26.0
 40
27.0
 40
27.0
 40
27.0
 40
28.0
 40
28.0
 40
28.0
 40
29.0
 40
29.0
 40
29.0
 40
30.0
 40
30.0
 40
30.0
 40
31.0
 40
31.0
 40
31.0
 40
32.0
 40
32.0
 40
32.0
 40
33.0
 40
33.0
 40
33.0
 40
34.0
 40
34.0
 40
34.0
 40
35.0
 40
35.0
 40
35.0
 40
36.0
 40
36.0
 40
36.0
 40
37.0
 40
37.0
 40
37.0
 40
38.0
 40
38.0
 40
38.0
 40
39.0
 40
39.0
 40
39.0
 40
40.0
 40
40.0
 40
40.0
 40
41.0
 40
41.0
 40
41.0
 40
42.0
 40
42.0
 40
42.0
 40
43.0
 40
43.0
 40
43.0
 40
44.0
 40
44.0
 40
44.0
 40
45.0
 40
45.0
 40
45.0
 40
46.0
 40
46.0
 40
46.0
 40
47.0
 40
47.0
 40
47.0
 40
48.0
 40
48.0
 40
48.0
 40
49.0
 40
49.0
 40
49.0
 40
50.0
 40
50.0
 40
50.0
 40
51.0
 40
51.0
 40
51.0
 40
52.0
 40
52.0
 40
52.0
 40
53.0
 40
53.0
 40
53.0
 40
54.0
 40
54.0
 40
54.0
 40
55.0
 40
55.0
 40
55.0
 40
56.0
 40
56.0
 40
56.0
 40
57.0
 40
57.0
 40
57.0
 40
58.0
 40
58.0
 40
58.0
 40
59.0
 40
59.0
 40
59.0
 40
60.0
 40
60.0
 40
60.0
 40
61.0
 40
61.0
 40
61.0
 40
62.0
 40
62.0
 40
62.0
 40
62.0
 10
167.0
 20
419.3000030517578
 30
0.0
 10
167.0
 20
419.3000030517578
 30
0.0
 10
175.3000030517578
 20
415.6000061035156
 30
0.0
 10
180.3999938964844
 20
408.4000015258789
 30
0.0
 10
185.5
 20
401.2000045776367
 30
0.0
 10
186.5999908447266
 20
396.2000045776367
 30
0.0
 10
186.5999908447266
 20
396.2000045776367
 30
0.0
 10
186.5999908447266
 20
396.2000045776367
 30
0.0
 10
190.0999908447266
 20
396.1000061035156
 30
0.0
 10
193.6999969482422
 20
387.8000030517578
 30
0.0
 10
197.1999969482422
 20
379.6000061035156
 30
0.0
 10
202.1999969482422
 20
366.6999969482422
 30
0.0
 10
202.1999969482422
 20
366.6999969482422
 30
0.0
 10
202.1999969482422
 20
366.6999969482422
 30
0.0
 10
204.0
 20
368.6999969482422
 30
0.0
 10
205.3000030517578
 20
366.6999969482422
 30
0.0
 10
206.6000061035156
 20
364.6999969482422
 30
0.0
 10
207.3000030517578
 20
360.3000030517578
 30
0.0
 10
207.3000030517578
 20
360.3000030517578
 30
0.0
 10
207.3000030517578
 20
360.3000030517578
 30
0.0
 10
208.5
 20
362.1000061035156
 30
0.0
 10
211.3000030517578
 20
360.3000030517578
 30
0.0
 10
214.1000061035156
 20
358.5
 30
0.0
 10
216.9000091552734
 20
352.6000061035156
 30
0.0
 10
216.9000091552734
 20
352.6000061035156
 30
0.0
 10
216.9000091552734
 20
352.6000061035156
 30
0.0
 10
218.3000030517578
 20
354.8000030517578
 30
0.0
 10
221.3000030517578
 20
353.8000030517578
 30
0.0
 10
224.4000091552734
 20
352.8000030517578
 30
0.0
 10
229.5
 20
351.0
 30
0.0
 10
229.5
 20
351.0
 30
0.0
 10
229.5
 20
351.0
 30
0.0
 10
228.5
 20
354.5
 30
0.0
 10
233.1999969482422
 20
353.8000030517578
 30
0.0
 10
237.8999938964844
 20
353.1000061035156
 30
0.0
 10
243.0999908447266
 20
351.0
 30
0.0
 10
243.0999908447266
 20
351.0
 30
0.0
 10
243.0999908447266
 20
351.0
 30
0.0
 10
242.1999969482422
 20
353.1000061035156
 30
0.0
 10
244.5999908447266
 20
353.8000030517578
 30
0.0
 10
246.8999938964844
 20
354.5
 30
0.0
 10
250.9999847412109
 20
352.6000061035156
 30
0.0
 10
250.9999847412109
 20
352.6000061035156
 30
0.0
 10
250.9999847412109
 20
352.6000061035156
 30
0.0
 10
250.6999816894531
 20
353.1000061035156
 30
0.0
 10
252.9999847412109
 20
353.8000030517578
 30
0.0
 10
255.2999877929688
 20
354.5
 30
0.0
 10
264.7999877929688
 20
358.0
 30
0.0
 10
280.7999877929688
 20
346.3000030517578
 30
0.0
 10
296.7999877929688
 20
334.6000061035156
 30
0.0
 10
296.5
 20
332.9000091552734
 30
0.0
 10
306.6999816894531
 20
328.1999969482422
 30
0.0
 10
316.9999694824219
 20
323.5
 30
0.0
 10
324.4999694824219
 20
322.8999938964844
 30
0.0
 10
324.4999694824219
 20
322.8999938964844
 30
0.0
 10
324.4999694824219
 20
322.8999938964844
 30
0.0
 10
322.0999755859375
 20
325.8999938964844
 30
0.0
 10
324.4999694824219
 20
327.0999908447266
 30
0.0
 10
326.8999633789062
 20
328.2999877929688
 30
0.0
 10
332.8999633789062
 20
329.3999938964844
 30
0.0
 10
332.8999633789062
 20
329.3999938964844
 30
0.0
 10
332.8999633789062
 20
329.3999938964844
 30
0.0
 10
330.9999694824219
 20
334.0999908447266
 30
0.0
 10
333.8999633789062
 20
333.8999938964844
 30
0.0
 10
336.7999572753906
 20
333.7999877929688
 30
0.0
 10
340.699951171875
 20
336.0
 30
0.0
 10
340.699951171875
 20
336.0
 30
0.0
 10
340.699951171875
 20
336.0
 30
0.0
 10
336.199951171875
 20
339.5
 30
0.0
 10
338.699951171875
 20
339.6999969482422
 30
0.0
 10
341.199951171875
 20
339.8999938964844
 30
0.0
 10
345.5999450683594
 20
341.3000030517578
 30
0.0
 10
345.5999450683594
 20
341.3000030517578
 30
0.0
 10
345.5999450683594
 20
341.3000030517578
 30
0.0
 10
344.0999450683594
 20
345.1000061035156
 30
0.0
 10
346.7999572753906
 20
344.9000091552734
 30
0.0
 10
349.3999633789062
 20
344.8000030517578
 30
0.0
 10
352.0999450683594
 20
344.9000091552734
 30
0.0
 10
352.0999450683594
 20
344.9000091552734
 30
0.0
 10
352.0999450683594
 20
344.9000091552734
 30
0.0
 10
350.5999450683594
 20
347.7000122070312
 30
0.0
 10
353.8999328613281
 20
348.9000091552734
 30
0.0
 10
357.0999450683594
 20
350.1000061035156
 30
0.0
 10
360.2999267578125
 20
348.9000091552734
 30
0.0
 10
360.2999267578125
 20
348.9000091552734
 30
0.0
 10
360.2999267578125
 20
348.9000091552734
 30
0.0
 10
360.5999145507812
 20
351.5000152587891
 30
0.0
 10
363.1999206542969
 20
353.3000030517578
 30
0.0
 10
365.7999267578125
 20
355.1000061035156
 30
0.0
 10
368.4999084472656
 20
357.1000061035156
 30
0.0
 10
368.4999084472656
 20
357.1000061035156
 30
0.0
 10
368.4999084472656
 20
357.1000061035156
 30
0.0
 10
350.89990234375
 20
361.4000091552734
 30
0.0
 10
340.89990234375
 20
368.7000122070312
 30
0.0
 10
330.89990234375
 20
376.0000152587891
 30
0.0
 10
329.6998901367188
 20
378.0000152587891
 30
0.0
 10
329.6998901367188
 20
378.0000152587891
 30
0.0
 10
329.6998901367188
 20
378.0000152587891
 30
0.0
 10
324.9998779296875
 20
380.0000152587891
 30
0.0
 10
324.39990234375
 20
382.1000137329102
 30
0.0
 10
323.7998962402344
 20
384.1000137329102
 30
0.0
 10
324.0999145507812
 20
385.3000106811523
 30
0.0
 10
324.0999145507812
 20
385.3000106811523
 30
0.0
 10
324.0999145507812
 20
385.3000106811523
 30
0.0
 10
319.6999206542969
 20
387.2000122070312
 30
0.0
 10
318.9999084472656
 20
388.7000122070312
 30
0.0
 10
318.2998962402344
 20
390.2000122070312
 30
0.0
 10
319.2998962402344
 20
391.3000106811523
 30
0.0
 10
319.2998962402344
 20
391.3000106811523
 30
0.0
 10
319.2998962402344
 20
391.3000106811523
 30
0.0
 10
314.1998901367188
 20
393.3000106811523
 30
0.0
 10
313.2998962402344
 20
395.4000091552734
 30
0.0
 10
312.39990234375
 20
397.4000091552734
 30
0.0
 10
313.5998840332031
 20
399.1000061035156
 30
0.0
 10
313.5998840332031
 20
399.1000061035156
 30
0.0
 10
313.5998840332031
 20
399.1000061035156
 30
0.0
 10
308.4998779296875
 20
400.4000091552734
 30
0.0
 10
307.2998962402344
 20
402.6000061035156
 30
0.0
 10
306.0998840332031
 20
404.8000030517578
 30
0.0
 10
307.39990234375
 20
406.5000076293945
 30
0.0
 10
307.39990234375
 20
406.5000076293945
 30
0.0
 10
307.39990234375
 20
406.5000076293945
 30
0.0
 10
300.1998901367188
 20
407.5000076293945
 30
0.0
 10
299.7998962402344
 20
409.7000045776367
 30
0.0
 10
299.39990234375
 20
411.9000015258789
 30
0.0
 10
299.89990234375
 20
412.6000061035156
 30
0.0
 10
299.89990234375
 20
412.6000061035156
 30
0.0
 10
299.89990234375
 20
412.6000061035156
 30
0.0
 10
293.2998962402344
 20
412.7000045776367
 30
0.0
 10
291.6998901367188
 20
415.1000061035156
 30
0.0
 10
290.0998840332031
 20
417.4000091552734
 30
0.0
 10
291.39990234375
 20
419.2000045776367
 30
0.0
 10
291.39990234375
 20
419.2000045776367
 30
0.0
 10
291.39990234375
 20
419.2000045776367
 30
0.0
 10
284.0999145507812
 20
418.1000061035156
 30
0.0
 10
282.1998901367188
 20
420.1000061035156
 30
0.0
 10
280.2998962402344
 20
422.1000061035156
 30
0.0
 10
280.6998901367188
 20
423.9000091552734
 30
0.0
 10
280.6998901367188
 20
423.9000091552734
 30
0.0
 10
280.6998901367188
 20
423.9000091552734
 30
0.0
 10
268.2998962402344
 20
424.6000061035156
 30
0.0
 10
267.5998840332031
 20
426.5000076293945
 30
0.0
 10
266.8998718261719
 20
428.4000091552734
 30
0.0
 10
268.2998962402344
 20
429.4000091552734
 30
0.0
 10
268.2998962402344
 20
429.4000091552734
 30
0.0
 10
268.2998962402344
 20
429.4000091552734
 30
0.0
 10
259.39990234375
 20
429.1000061035156
 30
0.0
 10
258.6998901367188
 20
430.1000061035156
 30
0.0
 10
257.9998779296875
 20
431.1000061035156
 30
0.0
 10
258.2998962402344
 20
432.4000091552734
 30
0.0
 10
258.2998962402344
 20
432.4000091552734
 30
0.0
 10
258.2998962402344
 20
432.4000091552734
 30
0.0
 10
251.39990234375
 20
431.1000061035156
 30
0.0
 10
250.9998931884766
 20
432.4000091552734
 30
0.0
 10
250.5998992919922
 20
433.7000122070312
 30
0.0
 10
251.6998901367188
 20
435.0000076293945
 30
0.0
 10
251.6998901367188
 20
435.0000076293945
 30
0.0
 10
251.6998901367188
 20
435.0000076293945
 30
0.0
 10
243.4998931884766
 20
432.5000076293945
 30
0.0
 10
242.1998901367188
 20
433.7000045776367
 30
0.0
 10
240.8998870849609
 20
434.9000015258789
 30
0.0
 10
241.7998962402344
 20
436.2000045776367
 30
0.0
 10
241.7998962402344
 20
436.2000045776367
 30
0.0
 10
241.7998962402344
 20
436.2000045776367
 30
0.0
 10
235.6998901367188
 20
431.7000045776367
 30
0.0
 10
233.89990234375
 20
432.1000061035156
 30
0.0
 10
232.0998992919922
 20
432.5000076293945
 30
0.0
 10
232.6999053955078
 20
434.6000061035156
 30
0.0
 10
232.6999053955078
 20
434.6000061035156
 30
0.0
 10
232.6999053955078
 20
434.6000061035156
 30
0.0
 10
228.4999084472656
 20
429.6000061035156
 30
0.0
 10
225.6999053955078
 20
429.5000076293945
 30
0.0
 10
222.89990234375
 20
429.4000091552734
 30
0.0
 10
218.4999084472656
 20
431.1000061035156
 30
0.0
 10
218.4999084472656
 20
431.1000061035156
 30
0.0
 10
218.4999084472656
 20
431.1000061035156
 30
0.0
 10
208.6999053955078
 20
429.2000045776367
 30
0.0
 10
205.2999114990234
 20
427.5000076293945
 30
0.0
 10
201.8999176025391
 20
425.8000106811523
 30
0.0
 10
198.4999084472656
 20
426.2000045776367
 30
0.0
 10
198.4999084472656
 20
426.2000045776367
 30
0.0
 10
198.4999084472656
 20
426.2000045776367
 30
0.0
 10
193.39990234375
 20
422.8000030517578
 30
0.0
 10
188.4999084472656
 20
421.8000030517578
 30
0.0
 10
183.5999145507812
 20
420.8000030517578
 30
0.0
 10
173.6999053955078
 20
420.9000015258789
 30
0.0
 10
173.6999053955078
 20
420.9000015258789
 30
0.0
  0
SPLINE
  5
94
330
1F
100
AcDbEntity
  8
Layer 1
 62
   239
420
  7019318
370
    35
100
AcDbSpline
210
0.0
220
0.0
230
1.0
 70
     8
 71
     3
 72
    11
 73
     7
 74
     0
 42
0.0000000001
 43
0.0000000001
 12
1.0
 22
0.0
 32
0.0
 13
1.0
 23
0.0
 33
0.0
 40
0.0
 40
0.0
 40
0.0
 40
0.0
 40
1.0
 40
1.0
 40
1.0
 40
2.0
 40
2.0
 40
2.0
 40
2.0
 10
200.5
 20
406.3000030517578
 30
0.0
 10
200.8999938964844
 20
406.2000045776367
 30
0.0
 10
208.1999969482422
 20
402.1000061035156
 30
0.0
 10
212.8999938964844
 20
391.1000061035156
 30
0.0
 10
217.5999908447266
 20
380.1000061035156
 30
0.0
 10
225.6999969482422
 20
360.7000122070312
 30
0.0
 10
236.3999938964844
 20
353.0
 30
0.0
  0
SPLINE
  5
95
330
1F
100
AcDbEntity
  8
Layer 1
 62
   239
420
  7019318
370
    35
100
AcDbSpline
210
0.0
220
0.0
230
1.0
 70
     8
 71
     3
 72
     8
 73
     4
 74
     0
 42
0.0000000001
 43
0.0000000001
 12
1.0
 22
0.0
 32
0.0
 13
1.0
 23
0.0
 33
0.0
 40
0.0
 40
0.0
 40
0.0
 40
0.0
 40
1.0
 40
1.0
 40
1.0
 40
1.0
 10
228.6999969482422
 20
396.8000030517578
 30
0.0
 10
236.5999908447266
 20
388.5
 30
0.0
 10
241.5999908447266
 20
364.1000061035156
 30
0.0
 10
253.8999938964844
 20
354.0
 30
0.0
  0
SPLINE
  5
96
330
1F
100
AcDbEntity
  8
Layer 1
 62
   239
420
  7019318
370
    35
100
AcDbSpline
210
0.0
220
0.0
230
1.0
 70
     8
 71
     3
 72
    50
 73
    46
 74
     0
 42
0.0000000001
 43
0.0000000001
 12
1.0
 22
0.0
 32
0.0
 13
1.0
 23
0.0
 33
0.0
 40
0.0
 40
0.0
 40
0.0
 40
0.0
 40
1.0
 40
1.0
 40
1.0
 40
2.0
 40
2.0
 40
2.0
 40
3.0
 40
3.0
 40
3.0
 40
4.0
 40
4.0
 40
4.0
 40
5.0
 40
5.0
 40
5.0
 40
6.0
 40
6.0
 40
6.0
 40
7.0
 40
7.0
 40
7.0
 40
8.0
 40
8.0
 40
8.0
 40
9.0
 40
9.0
 40
9.0
 40
10.0
 40
10.0
 40
10.0
 40
11.0
 40
11.0
 40
11.0
 40
12.0
 40
12.0
 40
12.0
 40
13.0
 40
13.0
 40
13.0
 40
14.0
 40
14.0
 40
14.0
 40
15.0
 40
15.0
 40
15.0
 40
15.0
 10
321.1000061035156
 20
323.3999938964844
 30
0.0
 10
321.1000061035156
 20
323.3999938964844
 30
0.0
 10
313.2000122070312
 20
327.7999877929688
 30
0.0
 10
311.2000122070312
 20
330.0
 30
0.0
 10
309.2000122070312
 20
332.1999969482422
 30
0.0
 10
313.7000122070312
 20
332.6000061035156
 30
0.0
 10
313.7000122070312
 20
332.6000061035156
 30
0.0
 10
313.7000122070312
 20
332.6000061035156
 30
0.0
 10
309.0
 20
334.2000122070312
 30
0.0
 10
307.4000244140625
 20
336.8000030517578
 30
0.0
 10
305.8000183105469
 20
339.4000091552734
 30
0.0
 10
309.9000244140625
 20
339.6999969482422
 30
0.0
 10
309.9000244140625
 20
339.6999969482422
 30
0.0
 10
309.9000244140625
 20
339.6999969482422
 30
0.0
 10
305.5000305175781
 20
343.0
 30
0.0
 10
301.9000244140625
 20
343.5
 30
0.0
 10
298.2000122070312
 20
344.0
 30
0.0
 10
303.5000305175781
 20
346.3999938964844
 30
0.0
 10
303.5000305175781
 20
346.3999938964844
 30
0.0
 10
303.5000305175781
 20
346.3999938964844
 30
0.0
 10
298.4000244140625
 20
348.1999969482422
 30
0.0
 10
295.0000305175781
 20
349.0
 30
0.0
 10
291.6000366210938
 20
349.8999938964844
 30
0.0
 10
295.0000305175781
 20
351.8000030517578
 30
0.0
 10
295.0000305175781
 20
351.8000030517578
 30
0.0
 10
295.0000305175781
 20
351.8000030517578
 30
0.0
 10
290.6000366210938
 20
352.1999969482422
 30
0.0
 10
288.1000366210938
 20
352.6999969482422
 30
0.0
 10
285.6000366210938
 20
353.1999969482422
 30
0.0
 10
285.6000366210938
 20
355.6999969482422
 30
0.0
 10
285.6000366210938
 20
355.6999969482422
 30
0.0
 10
285.6000366210938
 20
355.6999969482422
 30
0.0
 10
283.300048828125
 20
354.5999908447266
 30
0.0
 10
280.9000244140625
 20
354.1999969482422
 30
0.0
 10
278.6000366210938
 20
353.8000030517578
 30
0.0
 10
273.2000122070312
 20
357.3000030517578
 30
0.0
 10
273.2000122070312
 20
357.3000030517578
 30
0.0
 10
273.2000122070312
 20
357.3000030517578
 30
0.0
 10
271.3000183105469
 20
354.8000030517578
 30
0.0
 10
269.8000183105469
 20
354.9000091552734
 30
0.0
 10
268.3000183105469
 20
355.0000152587891
 30
0.0
 10
264.3000183105469
 20
357.7000122070312
 30
0.0
 10
261.3000183105469
 20
356.7000122070312
 30
0.0
 10
258.3000183105469
 20
355.7000122070312
 30
0.0
 10
258.2000122070312
 20
355.0000152587891
 30
0.0
 10
257.8000183105469
 20
354.9000091552734
 30
0.0
  0
SPLINE
  5
97
330
1F
100
AcDbEntity
  8
Layer 1
 62
   239
420
  7019318
370
    35
100
AcDbSpline
210
0.0
220
0.0
230
1.0
 70
     8
 71
     3
 72
     8
 73
     4
 74
     0
 42
0.0000000001
 43
0.0000000001
 12
1.0
 22
0.0
 32
0.0
 13
1.0
 23
0.0
 33
0.0
 40
0.0
 40
0.0
 40
0.0
 40
0.0
 40
1.0
 40
1.0
 40
1.0
 40
1.0
 10
321.8999938964844
 20
355.6999969482422
 30
0.0
 10
328.5
 20
353.3000030517578
 30
0.0
 10
335.3999938964844
 20
346.8000030517578
 30
0.0
 10
345.3999938964844
 20
344.3999938964844
 30
0.0
  0
SPLINE
  5
98
330
1F
100
AcDbEntity
  8
Layer 1
 62
   239
420
  7019318
370
    35
100
AcDbSpline
210
0.0
220
0.0
230
1.0
 70
     8
 71
     3
 72
     8
 73
     4
 74
     0
 42
0.0000000001
 43
0.0000000001
 12
1.0
 22
0.0
 32
0.0
 13
1.0
 23
0.0
 33
0.0
 40
0.0
 40
0.0
 40
0.0
 40
0.0
 40
1.0
 40
1.0
 40
1.0
 40
1.0
 10
295.8999938964844
 20
363.0
 30
0.0
 10
309.5
 20
357.1999969482422
 30
0.0
 10
319.0
 20
334.3999938964844
 30
0.0
 10
332.2999877929688
 20
332.8000030517578
 30
0.0
  0
SPLINE
  5
99
330
1F
100
AcDbEntity
  8
Layer 1
 62
   239
420
  7019318
370
    35
100
AcDbSpline
210
0.0
220
0.0
230
1.0
 70
     8
 71
     3
 72
     8
 73
     4
 74
     0
 42
0.0000000001
 43
0.0000000001
 12
1.0
 22
0.0
 32
0.0
 13
1.0
 23
0.0
 33
0.0
 40
0.0
 40
0.0
 40
0.0
 40
0.0
 40
1.0
 40
1.0
 40
1.0
 40
1.0
 10
263.5
 20
379.5999984741211
 30
0.0
 10
270.7999877929688
 20
375.1999969482422
 30
0.0
 10
278.7000122070312
 20
358.0
 30
0.0
 10
291.1000061035156
 20
352.1000061035156
 30
0.0
  0
SPLINE
  5
9A
330
1F
100
AcDbEntity
  8
Layer 1
 62
   239
420
  7019318
370
    35
100
AcDbSpline
210
0.0
220
0.0
230
1.0
 70
     8
 71
     3
 72
     8
 73
     4
 74
     0
 42
0.0000000001
 43
0.0000000001
 12
1.0
 22
0.0
 32
0.0
 13
1.0
 23
0.0
 33
0.0
 40
0.0
 40
0.0
 40
0.0
 40
0.0
 40
1.0
 40
1.0
 40
1.0
 40
1.0
 10
314.6000061035156
 20
391.1999969482422
 30
0.0
 10
300.0
 20
390.8999938964844
 30
0.0
 10
283.8000183105469
 20
376.0
 30
0.0
 10
273.3999938964844
 20
376.5
 30
0.0
  0
SPLINE
  5
9B
330
1F
100
AcDbEntity
  8
Layer 1
 62
   239
420
  7019318
370
    35
100
AcDbSpline
210
0.0
220
0.0
230
1.0
 70
     8
 71
     3
 72
     8
 73
     4
 74
     0
 42
0.0000000001
 43
0.0000000001
 12
1.0
 22
0.0
 32
0.0
 13
1.0
 23
0.0
 33
0.0
 40
0.0
 40
0.0
 40
0.0
 40
0.0
 40
1.0
 40
1.0
 40
1.0
 40
1.0
 10
290.5
 20
413.0
 30
0.0
 10
269.0
 20
414.5999984741211
 30
0.0
 10
256.2999877929688
 20
396.1999969482422
 30
0.0
 10
239.8999938964844
 20
396.0999984741211
 30
0.0
  0
SPLINE
  5
9C
330
1F
100
AcDbEntity
  8
Layer 1
 62
   239
420
  7019318
370
    35
100
AcDbSpline
210
0.0
220
0.0
230
1.0
 70
     8
 71
     3
 72
     8
 73
     4
 74
     0
 42
0.0000000001
 43
0.0000000001
 12
1.0
 22
0.0
 32
0.0
 13
1.0
 23
0.0
 33
0.0
 40
0.0
 40
0.0
 40
0.0
 40
0.0
 40
1.0
 40
1.0
 40
1.0
 40
1.0
 10
263.5
 20
425.5999984741211
 30
0.0
 10
244.3999938964844
 20
426.0
 30
0.0
 10
222.3000030517578
 20
407.5
 30
0.0
 10
209.3000030517578
 20
406.3000030517578
 30
0.0
  0
SPLINE
  5
9D
330
1F
100
AcDbEntity
  8
Layer 1
 62
   239
420
  7019318
370
    35
100
AcDbSpline
210
0.0
220
0.0
230
1.0
 70
     8
 71
     3
 72
     8
 73
     4
 74
     0
 42
0.0000000001
 43
0.0000000001
 12
1.0
 22
0.0
 32
0.0
 13
1.0
 23
0.0
 33
0.0
 40
0.0
 40
0.0
 40
0.0
 40
0.0
 40
1.0
 40
1.0
 40
1.0
 40
1.0
 10
185.1999969482422
 20
416.0
 30
0.0
 10
195.0999908447266
 20
416.5999984741211
 30
0.0
 10
207.1999969482422
 20
426.4000015258789
 30
0.0
 10
219.3999938964844
 20
428.0
 30
0.0
  0
SPLINE
  5
9E
330
1F
100
AcDbEntity
  8
Layer 1
 62
   239
420
  7019318
370
    35
100
AcDbSpline
210
0.0
220
0.0
230
1.0
 70
     8
 71
     3
 72
     8
 73
     4
 74
     0
 42
0.0000000001
 43
0.0000000001
 12
1.0
 22
0.0
 32
0.0
 13
1.0
 23
0.0
 33
0.0
 40
0.0
 40
0.0
 40
0.0
 40
0.0
 40
1.0
 40
1.0
 40
1.0
 40
1.0
 10
329.8999938964844
 20
372.1999969482422
 30
0.0
 10
321.8999938964844
 20
373.6999969482422
 30
0.0
 10
313.6000061035156
 20
363.6999969482422
 30
0.0
 10
306.0
 20
362.1999969482422
 30
0.0
  0
SPLINE
  5
9F
330
1F
100
AcDbEntity
  8
Layer 1
 62
   239
420
  7019318
370
    35
100
AcDbSpline
210
0.0
220
0.0
230
1.0
 70
     8
 71
     3
 72
     8
 73
     4
 74
     0
 42
0.0000000001
 43
0.0000000001
 12
1.0
 22
0.0
 32
0.0
 13
1.0
 23
0.0
 33
0.0
 40
0.0
 40
0.0
 40
0.0
 40
0.0
 40
1.0
 40
1.0
 40
1.0
 40
1.0
 10
346.1000061035156
 20
361.8999938964844
 30
0.0
 10
341.6000061035156
 20
362.1999969482422
 30
0.0
 10
339.3999938964844
 20
357.3999938964844
 30
0.0
 10
333.6000061035156
 20
356.5
 30
0.0
  0
SPLINE
  5
A0
330
1F
100
AcDbEntity
  8
Layer 1
 62
   239
420
  7019318
370
    35
100
AcDbSpline
210
0.0
220
0.0
230
1.0
 70
     8
 71
     3
 72
     8
 73
     4
 74
     0
 42
0.0000000001
 43
0.0000000001
 12
1.0
 22
0.0
 32
0.0
 13
1.0
 23
0.0
 33
0.0
 40
0.0
 40
0.0
 40
0.0
 40
0.0
 40
1.0
 40
1.0
 40
1.0
 40
1.0
 10
178.5
 20
260.5
 30
0.0
 10
178.5
 20
260.5
 30
0.0
 10
163.8999938964844
 20
252.3000030517578
 30
0.0
 10
172.6999969482422
 20
202.7000122070312
 30
0.0
  0
SPLINE
  5
A1
330
1F
100
AcDbEntity
  8
Layer 1
 62
   239
420
  7019318
370
    35
100
AcDbSpline
210
0.0
220
0.0
230
1.0
 70
     8
 71
     3
 72
    11
 73
     7
 74
     0
 42
0.0000000001
 43
0.0000000001
 12
1.0
 22
0.0
 32
0.0
 13
1.0
 23
0.0
 33
0.0
 40
0.0
 40
0.0
 40
0.0
 40
0.0
 40
1.0
 40
1.0
 40
1.0
 40
2.0
 40
2.0
 40
2.0
 40
2.0
 10
162.6999969482422
 20
87.60000610351562
 30
0.0
 10
162.6999969482422
 20
87.60000610351562
 30
0.0
 10
184.3000030517578
 20
68.89999389648438
 30
0.0
 10
198.2999877929688
 20
66.60000610351562
 30
0.0
 10
202.8999938964844
 20
65.80001831054688
 30
0.0
 10
209.0999908447266
 20
65.60000610351562
 30
0.0
 10
213.0999908447266
 20
68.0
 30
0.0
  0
SPLINE
  5
A2
330
1F
100
AcDbEntity
  8
Layer 1
 62
   239
420
  7019318
370
    35
100
AcDbSpline
210
0.0
220
0.0
230
1.0
 70
     8
 71
     3
 72
    11
 73
     7
 74
     0
 42
0.0000000001
 43
0.0000000001
 12
1.0
 22
0.0
 32
0.0
 13
1.0
 23
0.0
 33
0.0
 40
0.0
 40
0.0
 40
0.0
 40
0.0
 40
1.0
 40
1.0
 40
1.0
 40
2.0
 40
2.0
 40
2.0
 40
2.0
 10
241.8000030517578
 20
83.79998779296875
 30
0.0
 10
243.6999969482422
 20
85.89999389648438
 30
0.0
 10
245.1999969482422
 20
88.29998779296875
 30
0.0
 10
246.4000091552734
 20
90.79998779296875
 30
0.0
 10
253.9000091552734
 20
106.7999877929688
 30
0.0
 10
253.5000152587891
 20
123.2999877929688
 30
0.0
 10
255.0000152587891
 20
140.6999816894531
 30
0.0
  0
ENDSEC
  0
SECTION
  2
OBJECTS
  0
DICTIONARY
  5
C
330
0
100
AcDbDictionary
281
     1
  3
ACAD_GROUP
350
D
  3
ACAD_LAYOUT
350
1A
  3
ACAD_MATERIAL
350
3B
  3
ACAD_MLEADERSTYLE
350
A4
  3
ACAD_MLINESTYLE
350
17
  3
ACAD_PLOTSETTINGS
350
19
  3
ACAD_PLOTSTYLENAME
350
E
  3
ACAD_TABLESTYLE
350
A3
  3
ACAD_VISUALSTYLE
350
2A
  0
SUN
  5
3F
330
29
100
AcDbSun
 90
        1
290
     0
 63
     7
421
 16777215
 40
1.0
291
     1
 91
  2455826
 92
 54000000
292
     0
 70
     2
 71
   256
280
     1
  0
DICTIONARY
  5
D
102
{ACAD_REACTORS
330
C
102
}
330
C
100
AcDbDictionary
281
     1
  0
DICTIONARY
  5
1A
102
{ACAD_REACTORS
330
C
102
}
330
C
100
AcDbDictionary
281
     1
  3
Layout1
350
1E
  3
Layout2
350
26
  3
Model
350
22
  0
DICTIONARY
  5
3B
102
{ACAD_REACTORS
330
C
102
}
330
C
100
AcDbDictionary
281
     1
  3
ByBlock
350
3D
  3
ByLayer
350
3C
  3
Global
350
3E
  0
DICTIONARY
  5
A4
102
{ACAD_REACTORS
330
C
102
}
330
C
100
AcDbDictionary
281
     1
  0
DICTIONARY
  5
17
102
{ACAD_REACTORS
330
C
102
}
330
C
100
AcDbDictionary
281
     1
  3
Standard
350
18
  0
DICTIONARY
  5
19
102
{ACAD_REACTORS
330
C
102
}
330
C
100
AcDbDictionary
281
     1
  0
ACDBDICTIONARYWDFLT
  5
E
102
{ACAD_REACTORS
330
C
102
}
330
C
100
AcDbDictionary
281
     1
  3
Normal
350
F
100
AcDbDictionaryWithDefault
340
F
  0
DICTIONARY
  5
A3
102
{ACAD_REACTORS
330
C
102
}
330
C
100
AcDbDictionary
281
     1
  0
DICTIONARY
  5
2A
102
{ACAD_REACTORS
330
C
102
}
330
C
100
AcDbDictionary
281
     1
  3
2dWireframe
350
2F
  3
3D Hidden
350
31
  3
3dWireframe
350
30
  3
Basic
350
32
  3
Brighten
350
36
  3
ColorChange
350
3A
  3
Conceptual
350
34
  3
Dim
350
35
  3
Facepattern
350
39
  3
Flat
350
2B
  3
FlatWithEdges
350
2C
  3
Gouraud
350
2D
  3
GouraudWithEdges
350
2E
  3
Linepattern
350
38
  3
Realistic
350
33
  3
Thicken
350
37
  0
LAYOUT
  5
1E
102
{ACAD_REACTORS
330
1A
102
}
330
1A
100
AcDbPlotSettings
  1

  2
none_device
  4

  6

 40
0.0
 41
0.0
 42
0.0
 43
0.0
 44
0.0
 45
0.0
 46
0.0
 47
0.0
 48
0.0
 49
0.0
140
0.0
141
0.0
142
1.0
143
1.0
 70
   688
 72
     0
 73
     0
 74
     5
  7

 75
    16
 76
     0
 77
     2
 78
   300
147
1.0
148
0.0
149
0.0
100
AcDbLayout
  1
Layout1
 70
     1
 71
     1
 10
0.0
 20
0.0
 11
12.0
 21
9.0
 12
0.0
 22
0.0
 32
0.0
 14
1.000000000000000E+20
 24
1.000000000000000E+20
 34
1.000000000000000E+20
 15
-1.000000000000000E+20
 25
-1.000000000000000E+20
 35
-1.000000000000000E+20
146
0.0
 13
0.0
 23
0.0
 33
0.0
 16
1.0
 26
0.0
 36
0.0
 17
0.0
 27
1.0
 37
0.0
 76
     0
330
1B
  0
LAYOUT
  5
26
102
{ACAD_REACTORS
330
1A
102
}
330
1A
100
AcDbPlotSettings
  1

  2
none_device
  4

  6

 40
0.0
 41
0.0
 42
0.0
 43
0.0
 44
0.0
 45
0.0
 46
0.0
 47
0.0
 48
0.0
 49
0.0
140
0.0
141
0.0
142
1.0
143
1.0
 70
   688
 72
     0
 73
     0
 74
     5
  7

 75
    16
 76
     0
 77
     2
 78
   300
147
1.0
148
0.0
149
0.0
100
AcDbLayout
  1
Layout2
 70
     1
 71
     2
 10
0.0
 20
0.0
 11
0.0
 21
0.0
 12
0.0
 22
0.0
 32
0.0
 14
0.0
 24
0.0
 34
0.0
 15
0.0
 25
0.0
 35
0.0
146
0.0
 13
0.0
 23
0.0
 33
0.0
 16
1.0
 26
0.0
 36
0.0
 17
0.0
 27
1.0
 37
0.0
 76
     0
330
23
  0
LAYOUT
  5
22
102
{ACAD_REACTORS
330
1A
102
}
330
1A
100
AcDbPlotSettings
  1

  2
none_device
  4

  6

 40
0.0
 41
0.0
 42
0.0
 43
0.0
 44
0.0
 45
0.0
 46
0.0
 47
0.0
 48
0.0
 49
0.0
140
0.0
141
0.0
142
1.0
143
1.0
 70
  1712
 72
     0
 73
     0
 74
     0
  7

 75
     0
 76
     0
 77
     2
 78
   300
147
1.0
148
0.0
149
0.0
100
AcDbLayout
  1
Model
 70
     1
 71
     0
 10
0.0
 20
0.0
 11
12.0
 21
9.0
 12
0.0
 22
0.0
 32
0.0
 14
1.000000000000000E+20
 24
1.000000000000000E+20
 34
1.000000000000000E+20
 15
-1.000000000000000E+20
 25
-1.000000000000000E+20
 35
-1.000000000000000E+20
146
0.0
 13
0.0
 23
0.0
 33
0.0
 16
1.0
 26
0.0
 36
0.0
 17
0.0
 27
1.0
 37
0.0
 76
     0
330
1F
331
29
  0
MATERIAL
  5
3D
102
{ACAD_REACTORS
330
3B
102
}
330
3B
100
AcDbMaterial
  1
ByBlock
 72
     1
 94
      127
  0
MATERIAL
  5
3C
102
{ACAD_REACTORS
330
3B
102
}
330
3B
100
AcDbMaterial
  1
ByLayer
 72
     1
 94
      127
  0
MATERIAL
  5
3E
102
{ACAD_REACTORS
330
3B
102
}
330
3B
100
AcDbMaterial
  1
Global
 72
     1
 94
      127
  0
MLINESTYLE
  5
18
102
{ACAD_REACTORS
330
17
102
}
330
17
100
AcDbMlineStyle
  2
Standard
 70
     0
  3

 62
   256
 51
90.0
 52
90.0
 71
     2
 49
0.5
 62
   256
  6
BYLAYER
 49
-0.5
 62
   256
  6
BYLAYER
  0
ACDBPLACEHOLDER
  5
F
102
{ACAD_REACTORS
330
E
102
}
330
E
  0
VISUALSTYLE
  5
2F
102
{ACAD_REACTORS
330
2A
102
}
330
2A
100
AcDbVisualStyle
  2
2dWireframe
 70
     4
177
     2
291
     0
 71
     0
176
     1
 72
     2
176
     1
 73
     0
176
     1
 90
        0
176
     1
 40
-0.6
176
     1
 41
-30.0
176
     1
 62
     5
 63
     7
421
 16777215
176
     1
 74
     1
176
     1
 91
        4
176
     1
 64
     7
176
     1
 65
   257
176
     1
 75
     1
176
     1
175
     1
176
     1
 42
1.0
176
     1
 92
        0
176
     1
 66
   257
176
     1
 43
1.0
176
     1
 76
     1
176
     1
 77
     6
176
     1
 78
     2
176
     1
 67
     7
176
     1
 79
     5
176
     1
170
     0
176
     1
171
     0
176
     1
290
     0
176
     1
 93
        1
176
     1
 44
0.0
176
     1
173
     0
176
     1
  0
VISUALSTYLE
  5
31
102
{ACAD_REACTORS
330
2A
102
}
330
2A
100
AcDbVisualStyle
  2
3D Hidden
 70
     6
177
     2
291
     0
 71
     1
176
     1
 72
     2
176
     1
 73
     2
176
     1
 90
        0
176
     1
 40
-0.6
176
     1
 41
-30.0
176
     1
 62
     5
 63
     7
421
 16777215
176
     1
 74
     2
176
     1
 91
        2
176
     1
 64
     7
176
     1
 65
   257
176
     1
 75
     2
176
     1
175
     1
176
     1
 42
40.0
176
     1
 92
        0
176
     1
 66
   257
176
     1
 43
1.0
176
     1
 76
     1
176
     1
 77
     6
176
     1
 78
     2
176
     1
 67
     7
176
     1
 79
     3
176
     1
170
     0
176
     1
171
     0
176
     1
290
     0
176
     1
 93
        1
176
     1
 44
0.0
176
     1
173
     0
176
     1
  0
VISUALSTYLE
  5
30
102
{ACAD_REACTORS
330
2A
102
}
330
2A
100
AcDbVisualStyle
  2
3dWireframe
 70
     5
177
     2
291
     0
 71
     0
176
     1
 72
     2
176
     1
 73
     0
176
     1
 90
        0
176
     1
 40
-0.6
176
     1
 41
-30.0
176
     1
 62
     5
 63
     7
421
 16777215
176
     1
 74
     1
176
     1
 91
        4
176
     1
 64
     7
176
     1
 65
   257
176
     1
 75
     1
176
     1
175
     1
176
     1
 42
1.0
176
     1
 92
        0
176
     1
 66
   257
176
     1
 43
1.0
176
     1
 76
     1
176
     1
 77
     6
176
     1
 78
     2
176
     1
 67
     7
176
     1
 79
     5
176
     1
170
     0
176
     1
171
     0
176
     1
290
     0
176
     1
 93
        1
176
     1
 44
0.0
176
     1
173
     0
176
     1
  0
VISUALSTYLE
  5
32
102
{ACAD_REACTORS
330
2A
102
}
330
2A
100
AcDbVisualStyle
  2
Basic
 70
     7
177
     2
291
     1
 71
     1
176
     1
 72
     0
176
     1
 73
     1
176
     1
 90
        0
176
     1
 40
-0.6
176
     1
 41
-30.0
176
     1
 62
     5
 63
     7
421
 16777215
176
     1
 74
     0
176
     1
 91
        4
176
     1
 64
     7
176
     1
 65
   257
176
     1
 75
     1
176
     1
175
     1
176
     1
 42
1.0
176
     1
 92
        8
176
     1
 66
     7
176
     1
 43
1.0
176
     1
 76
     1
176
     1
 77
     6
176
     1
 78
     2
176
     1
 67
     7
176
     1
 79
     5
176
     1
170
     0
176
     1
171
     0
176
     1
290
     0
176
     1
 93
        1
176
     1
 44
0.0
176
     1
173
     0
176
     1
  0
VISUALSTYLE
  5
36
102
{ACAD_REACTORS
330
2A
102
}
330
2A
100
AcDbVisualStyle
  2
Brighten
 70
    12
177
     2
291
     1
 71
     2
176
     1
 72
     2
176
     1
 73
     0
176
     1
 90
        0
176
     1
 40
-0.6
176
     1
 41
-30.0
176
     1
 62
     5
 63
     7
421
 16777215
176
     1
 74
     1
176
     1
 91
        4
176
     1
 64
     7
176
     1
 65
   257
176
     1
 75
     1
176
     1
175
     1
176
     1
 42
1.0
176
     1
 92
        8
176
     1
 66
     7
176
     1
 43
1.0
176
     1
 76
     1
176
     1
 77
     6
176
     1
 78
     2
176
     1
 67
     7
176
     1
 79
     5
176
     1
170
     0
176
     1
171
     0
176
     1
290
     0
176
     1
 93
        1
176
     1
 44
50.0
176
     1
173
     0
176
     1
  0
VISUALSTYLE
  5
3A
102
{ACAD_REACTORS
330
2A
102
}
330
2A
100
AcDbVisualStyle
  2
ColorChange
 70
    16
177
     2
291
     1
 71
     2
176
     1
 72
     2
176
     1
 73
     3
176
     1
 90
        0
176
     1
 40
-0.6
176
     1
 41
-30.0
176
     1
 62
     5
 63
     8
421
  8421504
176
     1
 74
     1
176
     1
 91
        4
176
     1
 64
     7
176
     1
 65
   257
176
     1
 75
     1
176
     1
175
     1
176
     1
 42
1.0
176
     1
 92
        8
176
     1
 66
     8
424
  8421504
176
     1
 43
1.0
176
     1
 76
     1
176
     1
 77
     6
176
     1
 78
     2
176
     1
 67
     7
176
     1
 79
     5
176
     1
170
     0
176
     1
171
     0
176
     1
290
     0
176
     1
 93
        1
176
     1
 44
0.0
176
     1
173
     0
176
     1
  0
VISUALSTYLE
  5
34
102
{ACAD_REACTORS
330
2A
102
}
330
2A
100
AcDbVisualStyle
  2
Conceptual
 70
     9
177
     2
291
     0
 71
     3
176
     1
 72
     2
176
     1
 73
     0
176
     1
 90
        0
176
     1
 40
-0.6
176
     1
 41
-30.0
176
     1
 62
     5
 63
     7
421
 16777215
176
     1
 74
     2
176
     1
 91
        2
176
     1
 64
     7
176
     1
 65
   257
176
     1
 75
     1
176
     1
175
     1
176
     1
 42
40.0
176
     1
 92
        8
176
     1
 66
     7
176
     1
 43
1.0
176
     1
 76
     1
176
     1
 77
     6
176
     1
 78
     2
176
     1
 67
     7
176
     1
 79
     3
176
     1
170
     0
176
     1
171
     0
176
     1
290
     0
176
     1
 93
        1
176
     1
 44
0.0
176
     1
173
     0
176
     1
  0
VISUALSTYLE
  5
35
102
{ACAD_REACTORS
330
2A
102
}
330
2A
100
AcDbVisualStyle
  2
Dim
 70
    11
177
     2
291
     1
 71
     2
176
     1
 72
     2
176
     1
 73
     0
176
     1
 90
        0
176
     1
 40
-0.6
176
     1
 41
-30.0
176
     1
 62
     5
 63
     7
421
 16777215
176
     1
 74
     1
176
     1
 91
        4
176
     1
 64
     7
176
     1
 65
   257
176
     1
 75
     1
176
     1
175
     1
176
     1
 42
1.0
176
     1
 92
        8
176
     1
 66
     7
176
     1
 43
1.0
176
     1
 76
     1
176
     1
 77
     6
176
     1
 78
     2
176
     1
 67
     7
176
     1
 79
     5
176
     1
170
     0
176
     1
171
     0
176
     1
290
     0
176
     1
 93
        1
176
     1
 44
-50.0
176
     1
173
     0
176
     1
  0
VISUALSTYLE
  5
39
102
{ACAD_REACTORS
330
2A
102
}
330
2A
100
AcDbVisualStyle
  2
Facepattern
 70
    15
177
     2
291
     1
 71
     2
176
     1
 72
     2
176
     1
 73
     0
176
     1
 90
        0
176
     1
 40
-0.6
176
     1
 41
-30.0
176
     1
 62
     5
 63
     7
421
 16777215
176
     1
 74
     1
176
     1
 91
        4
176
     1
 64
     7
176
     1
 65
   257
176
     1
 75
     1
176
     1
175
     1
176
     1
 42
1.0
176
     1
 92
        8
176
     1
 66
     7
176
     1
 43
1.0
176
     1
 76
     1
176
     1
 77
     6
176
     1
 78
     2
176
     1
 67
     7
176
     1
 79
     5
176
     1
170
     0
176
     1
171
     0
176
     1
290
     0
176
     1
 93
        1
176
     1
 44
0.0
176
     1
173
     0
176
     1
  0
VISUALSTYLE
  5
2B
102
{ACAD_REACTORS
330
2A
102
}
330
2A
100
AcDbVisualStyle
  2
Flat
 70
     0
177
     2
291
     1
 71
     2
176
     1
 72
     1
176
     1
 73
     1
176
     1
 90
        2
176
     1
 40
-0.6
176
     1
 41
30.0
176
     1
 62
     5
 63
     7
421
 16777215
176
     1
 74
     0
176
     1
 91
        4
176
     1
 64
     7
176
     1
 65
   257
176
     1
 75
     1
176
     1
175
     1
176
     1
 42
1.0
176
     1
 92
        8
176
     1
 66
     7
176
     1
 43
1.0
176
     1
 76
     1
176
     1
 77
     6
176
     1
 78
     2
176
     1
 67
     7
176
     1
 79
     5
176
     1
170
     0
176
     1
171
     0
176
     1
290
     0
176
     1
 93
       13
176
     1
 44
0.0
176
     1
173
     0
176
     1
  0
VISUALSTYLE
  5
2C
102
{ACAD_REACTORS
330
2A
102
}
330
2A
100
AcDbVisualStyle
  2
FlatWithEdges
 70
     1
177
     2
291
     1
 71
     2
176
     1
 72
     1
176
     1
 73
     1
176
     1
 90
        2
176
     1
 40
-0.6
176
     1
 41
30.0
176
     1
 62
     5
 63
     7
421
 16777215
176
     1
 74
     1
176
     1
 91
        4
176
     1
 64
     7
176
     1
 65
   257
176
     1
 75
     1
176
     1
175
     1
176
     1
 42
1.0
176
     1
 92
        0
176
     1
 66
   257
176
     1
 43
1.0
176
     1
 76
     1
176
     1
 77
     6
176
     1
 78
     2
176
     1
 67
     7
176
     1
 79
     5
176
     1
170
     0
176
     1
171
     0
176
     1
290
     0
176
     1
 93
       13
176
     1
 44
0.0
176
     1
173
     0
176
     1
  0
VISUALSTYLE
  5
2D
102
{ACAD_REACTORS
330
2A
102
}
330
2A
100
AcDbVisualStyle
  2
Gouraud
 70
     2
177
     2
291
     1
 71
     2
176
     1
 72
     2
176
     1
 73
     1
176
     1
 90
        2
176
     1
 40
-0.6
176
     1
 41
30.0
176
     1
 62
     5
 63
     7
421
 16777215
176
     1
 74
     0
176
     1
 91
        4
176
     1
 64
     7
176
     1
 65
   257
176
     1
 75
     1
176
     1
175
     1
176
     1
 42
1.0
176
     1
 92
        0
176
     1
 66
     7
176
     1
 43
1.0
176
     1
 76
     1
176
     1
 77
     6
176
     1
 78
     2
176
     1
 67
     7
176
     1
 79
     5
176
     1
170
     0
176
     1
171
     0
176
     1
290
     0
176
     1
 93
       13
176
     1
 44
0.0
176
     1
173
     0
176
     1
  0
VISUALSTYLE
  5
2E
102
{ACAD_REACTORS
330
2A
102
}
330
2A
100
AcDbVisualStyle
  2
GouraudWithEdges
 70
     3
177
     2
291
     1
 71
     2
176
     1
 72
     2
176
     1
 73
     1
176
     1
 90
        2
176
     1
 40
-0.6
176
     1
 41
30.0
176
     1
 62
     5
 63
     7
421
 16777215
176
     1
 74
     1
176
     1
 91
        4
176
     1
 64
     7
176
     1
 65
   257
176
     1
 75
     1
176
     1
175
     1
176
     1
 42
1.0
176
     1
 92
        0
176
     1
 66
   257
176
     1
 43
1.0
176
     1
 76
     1
176
     1
 77
     6
176
     1
 78
     2
176
     1
 67
     7
176
     1
 79
     5
176
     1
170
     0
176
     1
171
     0
176
     1
290
     0
176
     1
 93
       13
176
     1
 44
0.0
176
     1
173
     0
176
     1
  0
VISUALSTYLE
  5
38
102
{ACAD_REACTORS
330
2A
102
}
330
2A
100
AcDbVisualStyle
  2
Linepattern
 70
    14
177
     2
291
     1
 71
     2
176
     1
 72
     2
176
     1
 73
     0
176
     1
 90
        0
176
     1
 40
-0.6
176
     1
 41
-30.0
176
     1
 62
     5
 63
     7
421
 16777215
176
     1
 74
     1
176
     1
 91
        4
176
     1
 64
     7
176
     1
 65
   257
176
     1
 75
     7
176
     1
175
     7
176
     1
 42
1.0
176
     1
 92
        8
176
     1
 66
     7
176
     1
 43
1.0
176
     1
 76
     1
176
     1
 77
     6
176
     1
 78
     2
176
     1
 67
     7
176
     1
 79
     5
176
     1
170
     0
176
     1
171
     0
176
     1
290
     0
176
     1
 93
        1
176
     1
 44
0.0
176
     1
173
     0
176
     1
  0
VISUALSTYLE
  5
33
102
{ACAD_REACTORS
330
2A
102
}
330
2A
100
AcDbVisualStyle
  2
Realistic
 70
     8
177
     2
291
     0
 71
     2
176
     1
 72
     2
176
     1
 73
     0
176
     1
 90
        0
176
     1
 40
-0.6
176
     1
 41
-30.0
176
     1
 62
     5
 63
     7
421
 16777215
176
     1
 74
     1
176
     1
 91
        0
176
     1
 64
     7
176
     1
 65
   257
176
     1
 75
     1
176
     1
175
     1
176
     1
 42
1.0
176
     1
 92
        8
176
     1
 66
     8
424
  7895160
176
     1
 43
1.0
176
     1
 76
     1
176
     1
 77
     6
176
     1
 78
     2
176
     1
 67
     7
176
     1
 79
     5
176
     1
170
     0
176
     1
171
     0
176
     1
290
     0
176
     1
 93
       13
176
     1
 44
0.0
176
     1
173
     0
176
     1
  0
VISUALSTYLE
  5
37
102
{ACAD_REACTORS
330
2A
102
}
330
2A
100
AcDbVisualStyle
  2
Thicken
 70
    13
177
     2
291
     1
 71
     2
176
     1
 72
     2
176
     1
 73
     0
176
     1
 90
        0
176
     1
 40
-0.6
176
     1
 41
-30.0
176
     1
 62
     5
 63
     7
421
 16777215
176
     1
 74
     1
176
     1
 91
        4
176
     1
 64
     7
176
     1
 65
   257
176
     1
 75
     1
176
     1
175
     1
176
     1
 42
1.0
176
     1
 92
       12
176
     1
 66
     7
176
     1
 43
1.0
176
     1
 76
     1
176
     1
 77
     6
176
     1
 78
     2
176
     1
 67
     7
176
     1
 79
     5
176
     1
170
     0
176
     1
171
     0
176
     1
290
     0
176
     1
 93
        1
176
     1
 44
0.0
176
     1
173
     0
176
     1
  0
ENDSEC
  0
EOF
