  0
SECTION
  2
HEADER
  9
$ACADVER
  1
AC1024
  9
$ACADMAINTVER
 70
     6
  9
$DWGCODEPAGE
  3
ANSI_1252
  9
$INSBASE
 10
0.0
 20
0.0
 30
0.0
  9
$EXTMIN
 10
1.000000000000000E+20
 20
1.000000000000000E+20
 30
1.000000000000000E+20
  9
$EXTMAX
 10
-1.000000000000000E+20
 20
-1.000000000000000E+20
 30
-1.000000000000000E+20
  9
$LIMMIN
 10
0.0
 20
0.0
  9
$LIMMAX
 10
12.0
 20
9.0
  9
$ORTHOMODE
 70
     0
  9
$REGENMODE
 70
     1
  9
$FILLMODE
 70
     1
  9
$QTEXTMODE
 70
     0
  9
$MIRRTEXT
 70
     1
  9
$LTSCALE
 40
1.0
  9
$ATTMODE
 70
     1
  9
$TEXTSIZE
 40
0.2
  9
$TRACEWID
 40
0.05
  9
$TEXTSTYLE
  7
Standard
  9
$CLAYER
  8
0
  9
$CELTYPE
  6
ByLayer
  9
$CECOLOR
 62
   256
  9
$CELTSCALE
 40
1.0
  9
$DISPSILH
 70
     0
  9
$DIMSCALE
 40
1.0
  9
$DIMASZ
 40
0.18
  9
$DIMEXO
 40
0.0625
  9
$DIMDLI
 40
0.38
  9
$DIMRND
 40
0.0
  9
$DIMDLE
 40
0.0
  9
$DIMEXE
 40
0.18
  9
$DIMTP
 40
0.0
  9
$DIMTM
 40
0.0
  9
$DIMTXT
 40
0.18
  9
$DIMCEN
 40
0.09
  9
$DIMTSZ
 40
0.0
  9
$DIMTOL
 70
     0
  9
$DIMLIM
 70
     0
  9
$DIMTIH
 70
     1
  9
$DIMTOH
 70
     1
  9
$DIMSE1
 70
     0
  9
$DIMSE2
 70
     0
  9
$DIMTAD
 70
     0
  9
$DIMZIN
 70
     0
  9
$DIMBLK
  1

  9
$DIMASO
 70
     1
  9
$DIMSHO
 70
     1
  9
$DIMPOST
  1

  9
$DIMAPOST
  1

  9
$DIMALT
 70
     0
  9
$DIMALTD
 70
     2
  9
$DIMALTF
 40
25.4
  9
$DIMLFAC
 40
1.0
  9
$DIMTOFL
 70
     0
  9
$DIMTVP
 40
0.0
  9
$DIMTIX
 70
     0
  9
$DIMSOXD
 70
     0
  9
$DIMSAH
 70
     0
  9
$DIMBLK1
  1

  9
$DIMBLK2
  1

  9
$DIMSTYLE
  2
Standard
  9
$DIMCLRD
 70
     0
  9
$DIMCLRE
 70
     0
  9
$DIMCLRT
 70
     0
  9
$DIMTFAC
 40
1.0
  9
$DIMGAP
 40
0.09
  9
$DIMJUST
 70
     0
  9
$DIMSD1
 70
     0
  9
$DIMSD2
 70
     0
  9
$DIMTOLJ
 70
     1
  9
$DIMTZIN
 70
     0
  9
$DIMALTZ
 70
     0
  9
$DIMALTTZ
 70
     0
  9
$DIMUPT
 70
     0
  9
$DIMDEC
 70
     4
  9
$DIMTDEC
 70
     4
  9
$DIMALTU
 70
     2
  9
$DIMALTTD
 70
     2
  9
$DIMTXSTY
  7
Standard
  9
$DIMAUNIT
 70
     0
  9
$DIMADEC
 70
     0
  9
$DIMALTRND
 40
0.0
  9
$DIMAZIN
 70
     0
  9
$DIMDSEP
 70
    46
  9
$DIMATFIT
 70
     3
  9
$DIMFRAC
 70
     0
  9
$DIMLDRBLK
  1

  9
$DIMLUNIT
 70
     2
  9
$DIMLWD
 70
    -2
  9
$DIMLWE
 70
    -2
  9
$DIMTMOVE
 70
     0
  9
$DIMFXL
 40
1.0
  9
$DIMFXLON
 70
     0
  9
$DIMJOGANG
 40
0.7853981633974483
  9
$DIMTFILL
 70
     0
  9
$DIMTFILLCLR
 70
     0
  9
$DIMARCSYM
 70
     0
  9
$DIMLTYPE
  6

  9
$DIMLTEX1
  6

  9
$DIMLTEX2
  6

  9
$DIMTXTDIRECTION
 70
     0
  9
$LUNITS
 70
     2
  9
$LUPREC
 70
     4
  9
$SKETCHINC
 40
0.1
  9
$FILLETRAD
 40
0.5
  9
$AUNITS
 70
     0
  9
$AUPREC
 70
     0
  9
$MENU
  1
.
  9
$ELEVATION
 40
0.0
  9
$PELEVATION
 40
0.0
  9
$THICKNESS
 40
0.0
  9
$LIMCHECK
 70
     0
  9
$CHAMFERA
 40
0.5
  9
$CHAMFERB
 40
0.5
  9
$CHAMFERC
 40
1.0
  9
$CHAMFERD
 40
0.0
  9
$SKPOLY
 70
     0
  9
$TDCREATE
 40
2458359.546213322
  9
$TDUCREATE
 40
2458359.754546655
  9
$TDUPDATE
 40
2458359.546213322
  9
$TDUUPDATE
 40
2458359.754546655
  9
$TDINDWG
 40
0.0000000116
  9
$TDUSRTIMER
 40
0.0000000116
  9
$USRTIMER
 70
     1
  9
$ANGBASE
 50
0.0
  9
$ANGDIR
 70
     0
  9
$PDMODE
 70
     0
  9
$PDSIZE
 40
0.0
  9
$PLINEWID
 40
0.0
  9
$SPLFRAME
 70
     0
  9
$SPLINETYPE
 70
     6
  9
$SPLINESEGS
 70
     8
  9
$HANDSEED
  5
65
  9
$SURFTAB1
 70
     6
  9
$SURFTAB2
 70
     6
  9
$SURFTYPE
 70
     6
  9
$SURFU
 70
     6
  9
$SURFV
 70
     6
  9
$UCSBASE
  2

  9
$UCSNAME
  2

  9
$UCSORG
 10
0.0
 20
0.0
 30
0.0
  9
$UCSXDIR
 10
1.0
 20
0.0
 30
0.0
  9
$UCSYDIR
 10
0.0
 20
1.0
 30
0.0
  9
$UCSORTHOREF
  2

  9
$UCSORTHOVIEW
 70
     0
  9
$UCSORGTOP
 10
0.0
 20
0.0
 30
0.0
  9
$UCSORGBOTTOM
 10
0.0
 20
0.0
 30
0.0
  9
$UCSORGLEFT
 10
0.0
 20
0.0
 30
0.0
  9
$UCSORGRIGHT
 10
0.0
 20
0.0
 30
0.0
  9
$UCSORGFRONT
 10
0.0
 20
0.0
 30
0.0
  9
$UCSORGBACK
 10
0.0
 20
0.0
 30
0.0
  9
$PUCSBASE
  2

  9
$PUCSNAME
  2

  9
$PUCSORG
 10
0.0
 20
0.0
 30
0.0
  9
$PUCSXDIR
 10
1.0
 20
0.0
 30
0.0
  9
$PUCSYDIR
 10
0.0
 20
1.0
 30
0.0
  9
$PUCSORTHOREF
  2

  9
$PUCSORTHOVIEW
 70
     0
  9
$PUCSORGTOP
 10
0.0
 20
0.0
 30
0.0
  9
$PUCSORGBOTTOM
 10
0.0
 20
0.0
 30
0.0
  9
$PUCSORGLEFT
 10
0.0
 20
0.0
 30
0.0
  9
$PUCSORGRIGHT
 10
0.0
 20
0.0
 30
0.0
  9
$PUCSORGFRONT
 10
0.0
 20
0.0
 30
0.0
  9
$PUCSORGBACK
 10
0.0
 20
0.0
 30
0.0
  9
$USERI1
 70
     0
  9
$USERI2
 70
     0
  9
$USERI3
 70
     0
  9
$USERI4
 70
     0
  9
$USERI5
 70
     0
  9
$USERR1
 40
0.0
  9
$USERR2
 40
0.0
  9
$USERR3
 40
0.0
  9
$USERR4
 40
0.0
  9
$USERR5
 40
0.0
  9
$WORLDVIEW
 70
     1
  9
$SHADEDGE
 70
     3
  9
$SHADEDIF
 70
    70
  9
$TILEMODE
 70
     1
  9
$MAXACTVP
 70
    64
  9
$PINSBASE
 10
0.0
 20
0.0
 30
0.0
  9
$PLIMCHECK
 70
     0
  9
$PEXTMIN
 10
1.000000000000000E+20
 20
1.000000000000000E+20
 30
1.000000000000000E+20
  9
$PEXTMAX
 10
-1.000000000000000E+20
 20
-1.000000000000000E+20
 30
-1.000000000000000E+20
  9
$PLIMMIN
 10
0.0
 20
0.0
  9
$PLIMMAX
 10
12.0
 20
9.0
  9
$UNITMODE
 70
     0
  9
$VISRETAIN
 70
     1
  9
$PLINEGEN
 70
     0
  9
$PSLTSCALE
 70
     1
  9
$TREEDEPTH
 70
  3020
  9
$CMLSTYLE
  2
Standard
  9
$CMLJUST
 70
     0
  9
$CMLSCALE
 40
1.0
  9
$PROXYGRAPHICS
 70
     1
  9
$MEASUREMENT
 70
     0
  9
$CELWEIGHT
370
    -1
  9
$ENDCAPS
280
     0
  9
$JOINSTYLE
280
     0
  9
$LWDISPLAY
290
     1
  9
$INSUNITS
 70
     1
  9
$HYPERLINKBASE
  1

  9
$STYLESHEET
  1

  9
$XEDIT
290
     1
  9
$CEPSNTYPE
380
     0
  9
$PSTYLEMODE
290
     1
  9
$FINGERPRINTGUID
  2
{BF2AD0D0-81B9-4B30-B0E3-0B91107543CD}
  9
$VERSIONGUID
  2
{FAEB1C32-E019-11D5-929B-00C0DF256EC4}
  9
$EXTNAMES
290
     1
  9
$PSVPSCALE
 40
0.0
  9
$OLESTARTUP
290
     0
  9
$SORTENTS
280
   127
  9
$INDEXCTL
280
     0
  9
$HIDETEXT
280
     1
  9
$XCLIPFRAME
280
     2
  9
$HALOGAP
280
     0
  9
$OBSCOLOR
 70
   257
  9
$OBSLTYPE
280
     0
  9
$INTERSECTIONDISPLAY
280
     0
  9
$INTERSECTIONCOLOR
 70
   257
  9
$DIMASSOC
280
     2
  9
$PROJECTNAME
  1

  9
$CAMERADISPLAY
290
     0
  9
$LENSLENGTH
 40
50.0
  9
$CAMERAHEIGHT
 40
0.0
  9
$STEPSPERSEC
 40
2.0
  9
$STEPSIZE
 40
6.0
  9
$3DDWFPREC
 40
2.0
  9
$PSOLWIDTH
 40
0.25
  9
$PSOLHEIGHT
 40
4.0
  9
$LOFTANG1
 40
1.570796326794897
  9
$LOFTANG2
 40
1.570796326794897
  9
$LOFTMAG1
 40
0.0
  9
$LOFTMAG2
 40
0.0
  9
$LOFTPARAM
 70
     7
  9
$LOFTNORMALS
280
     1
  9
$LATITUDE
 40
37.795
  9
$LONGITUDE
 40
-122.394
  9
$NORTHDIRECTION
 40
0.0
  9
$TIMEZONE
 70
 -8000
  9
$LIGHTGLYPHDISPLAY
280
     1
  9
$TILEMODELIGHTSYNCH
280
     1
  9
$CMATERIAL
347
3C
  9
$SOLIDHIST
280
     1
  9
$SHOWHIST
280
     1
  9
$DWFFRAME
280
     2
  9
$DGNFRAME
280
     2
  9
$REALWORLDSCALE
290
     1
  9
$INTERFERECOLOR
 62
   256
  9
$CSHADOW
280
     0
  9
$SHADOWPLANELOCATION
 40
0.0
  0
ENDSEC
  0
SECTION
  2
CLASSES
  0
CLASS
  1
ACDBDICTIONARYWDFLT
  2
AcDbDictionaryWithDefault
  3
ObjectDBX Classes
 90
        0
 91
        4
280
     0
281
     0
  0
CLASS
  1
VISUALSTYLE
  2
AcDbVisualStyle
  3
ObjectDBX Classes
 90
     4095
 91
        4
280
     0
281
     0
  0
CLASS
  1
MATERIAL
  2
AcDbMaterial
  3
ObjectDBX Classes
 90
     1153
 91
        4
280
     0
281
     0
  0
CLASS
  1
SUN
  2
AcDbSun
  3
SCENEOE
 90
     1024
 91
        4
280
     0
281
     0
  0
ENDSEC
  0
SECTION
  2
TABLES
  0
TABLE
  2
VPORT
  5
8
330
0
100
AcDbSymbolTable
 70
     1
  0
VPORT
  5
29
330
8
100
AcDbSymbolTableRecord
100
AcDbViewportTableRecord
  2
*Active
 70
     0
 10
0.0
 20
0.0
 11
1.0
 21
1.0
 12
0.0
 22
0.0
 13
0.0
 23
0.0
 14
0.5
 24
0.5
 15
0.5
 25
0.5
 16
0.0
 26
0.0
 36
1.0
 17
9.0409723989971
 27
5.697916671225
 37
0.0
 40
11.39583334245
 41
1.586715447183501
 42
50.0
 43
0.0
 44
0.0
 50
0.0
 51
0.0
 71
     0
 72
   100
 73
     1
 74
     3
 75
     0
 76
     0
 77
     0
 78
     0
281
     0
 65
     1
110
0.0
120
0.0
130
0.0
111
1.0
121
0.0
131
0.0
112
0.0
122
1.0
132
0.0
 79
     0
146
0.0
 60
     3
 61
     5
292
     1
282
     1
141
0.0
142
0.0
 63
   250
361
3F
  0
ENDTAB
  0
TABLE
  2
LTYPE
  5
5
330
0
100
AcDbSymbolTable
 70
     1
  0
LTYPE
  5
14
330
5
100
AcDbSymbolTableRecord
100
AcDbLinetypeTableRecord
  2
ByBlock
 70
     0
  3

 72
    65
 73
     0
 40
0.0
  0
LTYPE
  5
15
330
5
100
AcDbSymbolTableRecord
100
AcDbLinetypeTableRecord
  2
ByLayer
 70
     0
  3

 72
    65
 73
     0
 40
0.0
  0
LTYPE
  5
16
330
5
100
AcDbSymbolTableRecord
100
AcDbLinetypeTableRecord
  2
Continuous
 70
     0
  3
Solid line
 72
    65
 73
     0
 40
0.0
  0
ENDTAB
  0
TABLE
  2
LAYER
  5
2
330
0
100
AcDbSymbolTable
 70
     2
  0
LAYER
  5
10
330
2
100
AcDbSymbolTableRecord
100
AcDbLayerTableRecord
  2
0
 70
     0
 62
     7
  6
Continuous
370
    -3
390
F
347
3E
  0
LAYER
  5
40
330
2
100
AcDbSymbolTableRecord
100
AcDbLayerTableRecord
  2
Layer 1
 70
     0
 62
     7
  6
Continuous
370
    -3
390
F
347
3E
  0
ENDTAB
  0
TABLE
  2
STYLE
  5
3
330
0
100
AcDbSymbolTable
 70
     1
  0
STYLE
  5
11
330
3
100
AcDbSymbolTableRecord
100
AcDbTextStyleTableRecord
  2
Standard
 70
     0
 40
0.0
 41
1.0
 50
0.0
 71
     0
 42
0.2
  3
txt
  4

  0
ENDTAB
  0
TABLE
  2
VIEW
  5
6
330
0
100
AcDbSymbolTable
 70
     0
  0
ENDTAB
  0
TABLE
  2
UCS
  5
7
330
0
100
AcDbSymbolTable
 70
     0
  0
ENDTAB
  0
TABLE
  2
APPID
  5
9
330
0
100
AcDbSymbolTable
 70
     1
  0
APPID
  5
12
330
9
100
AcDbSymbolTableRecord
100
AcDbRegAppTableRecord
  2
ACAD
 70
     0
  0
ENDTAB
  0
TABLE
  2
DIMSTYLE
  5
A
330
0
100
AcDbSymbolTable
 70
     1
100
AcDbDimStyleTable
  0
DIMSTYLE
105
27
330
A
100
AcDbSymbolTableRecord
100
AcDbDimStyleTableRecord
  2
Standard
 70
     0
178
     0
340
11
  0
ENDTAB
  0
TABLE
  2
BLOCK_RECORD
  5
1
330
0
100
AcDbSymbolTable
 70
     1
  0
BLOCK_RECORD
  5
1F
330
1
100
AcDbSymbolTableRecord
100
AcDbBlockTableRecord
  2
*Model_Space
340
22
 70
     0
280
     1
281
     0
  0
BLOCK_RECORD
  5
1B
330
1
100
AcDbSymbolTableRecord
100
AcDbBlockTableRecord
  2
*Paper_Space
340
1E
 70
     0
280
     1
281
     0
  0
BLOCK_RECORD
  5
23
330
1
100
AcDbSymbolTableRecord
100
AcDbBlockTableRecord
  2
*Paper_Space0
340
26
 70
     0
280
     1
281
     0
  0
ENDTAB
  0
ENDSEC
  0
SECTION
  2
BLOCKS
  0
BLOCK
  5
20
330
1F
100
AcDbEntity
  8
0
100
AcDbBlockBegin
  2
*Model_Space
 70
     0
 10
0.0
 20
0.0
 30
0.0
  3
*Model_Space
  1

  0
ENDBLK
  5
21
330
1F
100
AcDbEntity
  8
0
100
AcDbBlockEnd
  0
BLOCK
  5
1C
330
1B
100
AcDbEntity
 67
     1
  8
0
100
AcDbBlockBegin
  2
*Paper_Space
 70
     0
 10
0.0
 20
0.0
 30
0.0
  3
*Paper_Space
  1

  0
ENDBLK
  5
1D
330
1B
100
AcDbEntity
 67
     1
  8
0
100
AcDbBlockEnd
  0
BLOCK
  5
24
330
23
100
AcDbEntity
  8
0
100
AcDbBlockBegin
  2
*Paper_Space0
 70
     0
 10
0.0
 20
0.0
 30
0.0
  3
*Paper_Space0
  1

  0
ENDBLK
  5
25
330
23
100
AcDbEntity
  8
0
100
AcDbBlockEnd
  0
ENDSEC
  0
SECTION
  2
ENTITIES
  0
SPLINE
  5
41
330
1F
100
AcDbEntity
  8
Layer 1
 62
     7
420
 16777215
370
    35
100
AcDbSpline
210
0.0
220
0.0
230
1.0
 70
    11
 71
     3
 72
   113
 73
   109
 74
     0
 42
0.0000000001
 43
0.0000000001
 12
1.0
 22
0.0
 32
0.0
 13
1.0
 23
0.0
 33
0.0
 40
0.0
 40
0.0
 40
0.0
 40
0.0
 40
1.0
 40
1.0
 40
1.0
 40
2.0
 40
2.0
 40
2.0
 40
3.0
 40
3.0
 40
3.0
 40
4.0
 40
4.0
 40
4.0
 40
5.0
 40
5.0
 40
5.0
 40
6.0
 40
6.0
 40
6.0
 40
7.0
 40
7.0
 40
7.0
 40
8.0
 40
8.0
 40
8.0
 40
9.0
 40
9.0
 40
9.0
 40
10.0
 40
10.0
 40
10.0
 40
11.0
 40
11.0
 40
11.0
 40
12.0
 40
12.0
 40
12.0
 40
13.0
 40
13.0
 40
13.0
 40
14.0
 40
14.0
 40
14.0
 40
15.0
 40
15.0
 40
15.0
 40
16.0
 40
16.0
 40
16.0
 40
17.0
 40
17.0
 40
17.0
 40
18.0
 40
18.0
 40
18.0
 40
19.0
 40
19.0
 40
19.0
 40
20.0
 40
20.0
 40
20.0
 40
21.0
 40
21.0
 40
21.0
 40
22.0
 40
22.0
 40
22.0
 40
23.0
 40
23.0
 40
23.0
 40
24.0
 40
24.0
 40
24.0
 40
25.0
 40
25.0
 40
25.0
 40
26.0
 40
26.0
 40
26.0
 40
27.0
 40
27.0
 40
27.0
 40
28.0
 40
28.0
 40
28.0
 40
29.0
 40
29.0
 40
29.0
 40
30.0
 40
30.0
 40
30.0
 40
31.0
 40
31.0
 40
31.0
 40
32.0
 40
32.0
 40
32.0
 40
33.0
 40
33.0
 40
33.0
 40
34.0
 40
34.0
 40
34.0
 40
35.0
 40
35.0
 40
35.0
 40
36.0
 40
36.0
 40
36.0
 40
36.0
 10
6.272875049099246
 20
6.69999992058895
 30
0.0
 10
6.349069388488544
 20
6.796444368501391
 30
0.0
 10
6.430083385949188
 20
6.870722034440806
 30
0.0
 10
6.517861265522448
 20
6.922805367815805
 30
0.0
 10
6.618166610926044
 20
6.981638596080103
 30
0.0
 10
6.735833491309891
 20
7.011541584114008
 30
0.0
 10
6.871833382911746
 20
7.011541584114008
 30
0.0
 10
6.9624998360279
 20
7.011541584114008
 30
0.0
 10
7.043513833488544
 20
6.997069470387152
 30
0.0
 10
7.115847275386688
 20
6.968138806301508
 30
0.0
 10
7.188180717284832
 20
6.939208142215863
 30
0.0
 10
7.257625161784833
 20
6.892902803637152
 30
0.0
 10
7.325139369466882
 20
6.829249917301508
 30
0.0
 10
7.413875161909833
 20
6.745333359074652
 30
0.0
 10
7.482347282461572
 20
6.652749808653363
 30
0.0
 10
7.528653468750788
 20
6.551472139301508
 30
0.0
 10
7.554695135438288
 20
6.494569571710413
 30
0.0
 10
7.589417357688287
 20
6.408721928955103
 30
0.0
 10
7.631862222631097
 20
6.29298613309971
 30
0.0
 10
7.637653780795453
 20
6.277555682647913
 30
0.0
 10
7.646334336357953
 20
6.256333250176508
 30
0.0
 10
7.656945976448908
 20
6.229333246764066
 30
0.0
 10
7.660807297795313
 20
6.219694354476624
 30
0.0
 10
7.669487853357813
 20
6.213902796312268
 30
0.0
 10
7.679126321790003
 20
6.213902796312268
 30
0.0
 10
7.679126321790003
 20
6.213902796312268
 30
0.0
 10
7.679126321790003
 20
6.213902796312268
 30
0.0
 10
7.679126321790003
 20
6.213902796312268
 30
0.0
 10
7.692626111568598
 20
6.213902796312268
 30
0.0
 10
7.703237751659552
 20
6.225472349272913
 30
0.0
 10
7.703237751659552
 20
6.238986126274826
 30
0.0
 10
7.703237751659552
 20
6.238986126274826
 30
0.0
 10
7.682987643136408
 20
6.99708345761047
 30
0.0
 10
7.682987643136408
 20
6.99708345761047
 30
0.0
 10
7.682987643136408
 20
7.010583247389065
 30
0.0
 10
7.672376850755957
 20
7.020236126899826
 30
0.0
 10
7.658876213266858
 20
7.020236126899826
 30
0.0
 10
7.658876213266858
 20
7.020236126899826
 30
0.0
 10
7.655014891920453
 20
7.020236126899826
 30
0.0
 10
7.655014891920453
 20
7.020236126899826
 30
0.0
 10
7.645376423488263
 20
7.020236126899826
 30
0.0
 10
7.636695867925763
 20
7.01444456873547
 30
0.0
 10
7.632834546579358
 20
7.00576401317297
 30
0.0
 10
7.623196078147168
 20
6.985513904649826
 30
0.0
 10
7.615473435454358
 20
6.970083454198028
 30
0.0
 10
7.608723116709808
 20
6.960430574687268
 30
0.0
 10
7.589431768766858
 20
6.93534724472471
 30
0.0
 10
7.564362426027619
 20
6.922819355039124
 30
0.0
 10
7.534459437993713
 20
6.922819355039124
 30
0.0
 10
7.513237005522308
 20
6.922819355039124
 30
0.0
 10
7.487195338834808
 20
6.928610913203479
 30
0.0
 10
7.458264674749164
 20
6.939222129439181
 30
0.0
 10
7.458264674749164
 20
6.939222129439181
 30
0.0
 10
7.310695230186664
 20
6.987444141467776
 30
0.0
 10
7.310695230186664
 20
6.987444141467776
 30
0.0
 10
7.148653671897309
 20
7.042416472240921
 30
0.0
 10
6.994333908590259
 20
7.070388799601623
 30
0.0
 10
6.848695124700962
 20
7.070388799601623
 30
0.0
 10
6.696306022067114
 20
7.070388799601623
 30
0.0
 10
6.543917343288519
 20
7.045305469639065
 30
0.0
 10
6.391514677286606
 20
6.994194460212326
 30
0.0
 10
6.239125574652759
 20
6.943069463562268
 30
0.0
 10
6.108917241215259
 20
6.874597343010529
 30
0.0
 10
5.998959016300903
 20
6.787791787385529
 30
0.0
 10
5.857181129902759
 20
6.674944565073028
 30
0.0
 10
5.746264568263461
 20
6.525444459837326
 30
0.0
 10
5.667167244252701
 20
6.339291895533673
 30
0.0
 10
5.58806992024194
 20
6.15313933123002
 30
0.0
 10
5.548528463775845
 20
5.950597555894376
 30
0.0
 10
5.548528463775845
 20
5.730694669433731
 30
0.0
 10
5.548528463775845
 20
5.443277999146289
 30
0.0
 10
5.616042247602643
 20
5.195389221956876
 30
0.0
 10
5.752042139204498
 20
4.988027788549884
 30
0.0
 10
5.888042030806353
 20
4.780652791774826
 30
0.0
 10
6.077084016363403
 20
4.636944244703479
 30
0.0
 10
6.318208911440201
 20
4.557861331771289
 30
0.0
 10
6.469639253493854
 20
4.508666995794433
 30
0.0
 10
6.628778251016999
 20
4.483597653055194
 30
0.0
 10
6.794681130652759
 20
4.483597653055194
 30
0.0
 10
6.858334016988404
 20
4.483597653055194
 30
0.0
 10
6.919097905925903
 20
4.4874589744016
 30
0.0
 10
6.976972797465259
 20
4.494208869290897
 30
0.0
 10
6.988542350425903
 20
4.4961395299641
 30
0.0
 10
6.998195229936664
 20
4.505778422251542
 30
0.0
 10
6.998195229936664
 20
4.518319875305195
 30
0.0
 10
6.998195229936664
 20
4.518319875305195
 30
0.0
 10
6.998195229936664
 20
4.574264530026599
 30
0.0
 10
6.998195229936664
 20
4.574264530026599
 30
0.0
 10
6.998195229936664
 20
4.587764319805194
 30
0.0
 10
6.986625676976019
 20
4.599347859989157
 30
0.0
 10
6.973111899974106
 20
4.598375536040897
 30
0.0
 10
6.955750788849106
 20
4.597417199315955
 30
0.0
 10
6.939348014449048
 20
4.597417199315955
 30
0.0
 10
6.921986903324048
 20
4.597417199315955
 30
0.0
 10
6.648070446670453
 20
4.597417199315955
 30
0.0
 10
6.427195236261548
 20
4.692903310503454
 30
0.0
 10
6.261306343849106
 20
4.882917196153513
 30
0.0
 10
6.170639890732953
 20
4.98515320223031
 30
0.0
 10
6.102167346325961
 20
5.112472538269666
 30
0.0
 10
6.05586200774725
 20
5.26390330417857
 30
0.0
 10
6.008597908588345
 20
5.415334070087476
 30
0.0
 10
5.985459226522308
 20
5.586042196716012
 30
0.0
 10
5.985459226522308
 20
5.774125421692868
 30
0.0
 10
5.985459226522308
 20
5.996930868919724
 30
0.0
 10
6.020181448772308
 20
6.194652986184021
 30
0.0
 10
6.088667556547366
 20
6.369222858014215
 30
0.0
 10
6.134958484047507
 20
6.492624923813891
 30
0.0
 10
6.197652609802957
 20
6.603555472676508
 30
0.0
 10
6.272875049099246
 20
6.69999992058895
 30
0.0
  0
SPLINE
  5
42
330
1F
100
AcDbEntity
  8
Layer 1
 62
     7
420
 16777215
370
    35
100
AcDbSpline
210
0.0
220
0.0
230
1.0
 70
    11
 71
     3
 72
   110
 73
   106
 74
     0
 42
0.0000000001
 43
0.0000000001
 12
1.0
 22
0.0
 32
0.0
 13
1.0
 23
0.0
 33
0.0
 40
0.0
 40
0.0
 40
0.0
 40
0.0
 40
1.0
 40
1.0
 40
1.0
 40
2.0
 40
2.0
 40
2.0
 40
3.0
 40
3.0
 40
3.0
 40
4.0
 40
4.0
 40
4.0
 40
5.0
 40
5.0
 40
5.0
 40
6.0
 40
6.0
 40
6.0
 40
7.0
 40
7.0
 40
7.0
 40
8.0
 40
8.0
 40
8.0
 40
9.0
 40
9.0
 40
9.0
 40
10.0
 40
10.0
 40
10.0
 40
11.0
 40
11.0
 40
11.0
 40
12.0
 40
12.0
 40
12.0
 40
13.0
 40
13.0
 40
13.0
 40
14.0
 40
14.0
 40
14.0
 40
15.0
 40
15.0
 40
15.0
 40
16.0
 40
16.0
 40
16.0
 40
17.0
 40
17.0
 40
17.0
 40
18.0
 40
18.0
 40
18.0
 40
19.0
 40
19.0
 40
19.0
 40
20.0
 40
20.0
 40
20.0
 40
21.0
 40
21.0
 40
21.0
 40
22.0
 40
22.0
 40
22.0
 40
23.0
 40
23.0
 40
23.0
 40
24.0
 40
24.0
 40
24.0
 40
25.0
 40
25.0
 40
25.0
 40
26.0
 40
26.0
 40
26.0
 40
27.0
 40
27.0
 40
27.0
 40
28.0
 40
28.0
 40
28.0
 40
29.0
 40
29.0
 40
29.0
 40
30.0
 40
30.0
 40
30.0
 40
31.0
 40
31.0
 40
31.0
 40
32.0
 40
32.0
 40
32.0
 40
33.0
 40
33.0
 40
33.0
 40
34.0
 40
34.0
 40
34.0
 40
35.0
 40
35.0
 40
35.0
 40
35.0
 10
8.733333170777899
 20
5.776000133472797
 30
0.0
 10
8.733333170777899
 20
6.833097251424594
 30
0.0
 10
7.878777404306494
 20
7.624958468285297
 30
0.0
 10
6.823610947027899
 20
7.624958468285297
 30
0.0
 10
5.768444489749304
 20
7.624958468285297
 30
0.0
 10
4.913888723277899
 20
6.833097251424594
 30
0.0
 10
4.913888723277899
 20
5.776000133472797
 30
0.0
 10
4.913888723277899
 20
4.718903015520999
 30
0.0
 10
5.768444489749304
 20
3.969485815892603
 30
0.0
 10
6.823610947027899
 20
3.969485815892603
 30
0.0
 10
6.955749941138602
 20
3.969485815892603
 30
0.0
 10
7.084027613902899
 20
3.979124284324793
 30
0.0
 10
7.208444389176043
 20
3.998416479978247
 30
0.0
 10
7.215194707920594
 20
3.999374392847937
 30
0.0
 10
7.220986266084949
 20
4.005166798722796
 30
0.0
 10
7.220986266084949
 20
4.012888593705102
 30
0.0
 10
7.220986266084949
 20
4.012888593705102
 30
0.0
 10
7.220986266084949
 20
4.039888173262293
 30
0.0
 10
7.220986266084949
 20
4.039888173262293
 30
0.0
 10
7.220986266084949
 20
4.049526641694483
 30
0.0
 10
7.212305710522449
 20
4.055319047569342
 30
0.0
 10
7.203625154959949
 20
4.053387963040888
 30
0.0
 10
7.083055713809891
 20
4.033137854517743
 30
0.0
 10
6.954778041045594
 20
4.030235293751532
 30
0.0
 10
6.824569707608093
 20
4.030235293751532
 30
0.0
 10
5.904430817983093
 20
4.030235293751532
 30
0.0
 10
5.157903039608093
 20
4.763263282347937
 30
0.0
 10
5.157903039608093
 20
5.775985298538974
 30
0.0
 10
5.157903039608093
 20
6.788707314730011
 30
0.0
 10
5.904430817983093
 20
7.562249083740771
 30
0.0
 10
6.824569707608093
 20
7.562249083740771
 30
0.0
 10
7.744708597233093
 20
7.562249083740771
 30
0.0
 10
8.491236375608093
 20
6.78872130195333
 30
0.0
 10
8.491236375608093
 20
5.775985298538974
 30
0.0
 10
8.491236375608093
 20
5.324596409288974
 30
0.0
 10
8.342709018175903
 20
4.930110511485321
 30
0.0
 10
8.09772237789745
 20
4.629193627564032
 30
0.0
 10
8.09772237789745
 20
4.629193627564032
 30
0.0
 10
8.09772237789745
 20
4.630151964288974
 30
0.0
 10
8.09772237789745
 20
4.630151964288974
 30
0.0
 10
7.918319708483093
 20
4.424707628187119
 30
0.0
 10
7.607749945051044
 20
4.448818634201416
 30
0.0
 10
7.493944809868854
 20
4.715026859240772
 30
0.0
 10
7.494902722738543
 20
4.715985195965714
 30
0.0
 10
7.494902722738543
 20
4.717915856638916
 30
0.0
 10
7.495875046686804
 20
4.718888180587177
 30
0.0
 10
7.49973636803321
 20
4.721777177985321
 30
0.0
 10
7.502625365431354
 20
4.725638075476474
 30
0.0
 10
7.506485839067254
 20
4.728527072874619
 30
0.0
 10
7.696499300862061
 20
4.891526967888916
 30
0.0
 10
7.85274930098706
 20
5.119152073187118
 30
0.0
 10
7.85949961973161
 20
5.438401968326416
 30
0.0
 10
7.86722226242442
 20
5.781762869480011
 30
0.0
 10
7.578832844333466
 20
6.110666067985322
 30
0.0
 10
7.423541604788659
 20
6.185888083426359
 30
0.0
 10
7.18820869173147
 20
6.300665966412061
 30
0.0
 10
6.967333481322565
 20
6.341179746826416
 30
0.0
 10
6.730055496513602
 20
6.226401863840714
 30
0.0
 10
6.45999993735116
 20
6.096193530403213
 30
0.0
 10
6.316277826911747
 20
5.802985301951416
 30
0.0
 10
6.38187493728866
 20
5.514596307715713
 30
0.0
 10
6.415638822813718
 20
5.365096202480011
 30
0.0
 10
6.495680496326102
 20
5.245499085278214
 30
0.0
 10
6.630722051203016
 20
5.166415748490771
 30
0.0
 10
6.71173604866366
 20
5.119151649331867
 30
0.0
 10
6.79951392823692
 20
5.097929640715714
 30
0.0
 10
6.893069378751218
 20
5.110471093769367
 30
0.0
 10
6.99916670617442
 20
5.123970883547962
 30
0.0
 10
7.084041601126218
 20
5.177984877596164
 30
0.0
 10
7.14866638755487
 20
5.262859772547961
 30
0.0
 10
7.159277179935321
 20
5.276359562326556
 30
0.0
 10
7.17470805424237
 20
5.274429325508606
 30
0.0
 10
7.181458372986921
 20
5.258998451201556
 30
0.0
 10
7.18338860980487
 20
5.255137129855151
 30
0.0
 10
7.184347370385065
 20
5.250317895639056
 30
0.0
 10
7.186277607203015
 20
5.245498661422961
 30
0.0
 10
7.231610621833465
 20
5.112401330587317
 30
0.0
 10
7.279833481572565
 20
4.979290436383606
 30
0.0
 10
7.341569694458325
 20
4.851984663712317
 30
0.0
 10
7.352180486838776
 20
4.829804318371222
 30
0.0
 10
7.44862535860647
 20
4.646540327610461
 30
0.0
 10
7.44862535860647
 20
4.646540327610461
 30
0.0
 10
7.50070869198147
 20
4.556845774587317
 30
0.0
 10
7.602945121913519
 20
4.430484775272904
 30
0.0
 10
7.680111361395825
 20
4.360081994047961
 30
0.0
 10
7.780416706799421
 20
4.269415117076557
 30
0.0
 10
7.923166917145825
 20
4.185512969928271
 30
0.0
 10
8.059166808747682
 20
4.187428795667651
 30
0.0
 10
8.147902601190632
 20
4.188386708537341
 30
0.0
 10
8.229888922599537
 20
4.216359459753296
 30
0.0
 10
8.307041598713775
 20
4.258803476985602
 30
0.0
 10
8.32922194405487
 20
4.270373029946247
 30
0.0
 10
8.349486463656586
 20
4.283887230803412
 30
0.0
 10
8.372624721867371
 20
4.297387020582007
 30
0.0
 10
8.380347364560182
 20
4.302206254798102
 30
0.0
 10
8.382263190299561
 20
4.312817471033805
 30
0.0
 10
8.375513719265514
 20
4.319567365923102
 30
0.0
 10
8.375513719265514
 20
4.319567365923102
 30
0.0
 10
8.222152716538659
 20
4.493178477173102
 30
0.0
 10
8.222152716538659
 20
4.493178477173102
 30
0.0
 10
8.217333482322564
 20
4.498970035337457
 30
0.0
 10
8.217333482322564
 20
4.507650590899957
 30
0.0
 10
8.22311062940835
 20
4.512470248971304
 30
0.0
 10
8.538499627056494
 20
4.83368047465145
 30
0.0
 10
8.733333170777899
 20
5.271569574122855
 30
0.0
 10
8.733333170777899
 20
5.776000133472797
 30
0.0
  0
SPLINE
  5
43
330
1F
100
AcDbEntity
  8
Layer 1
 62
     7
420
 16777215
370
    35
100
AcDbSpline
210
0.0
220
0.0
230
1.0
 70
    11
 71
     3
 72
    50
 73
    46
 74
     0
 42
0.0000000001
 43
0.0000000001
 12
1.0
 22
0.0
 32
0.0
 13
1.0
 23
0.0
 33
0.0
 40
0.0
 40
0.0
 40
0.0
 40
0.0
 40
1.0
 40
1.0
 40
1.0
 40
2.0
 40
2.0
 40
2.0
 40
3.0
 40
3.0
 40
3.0
 40
4.0
 40
4.0
 40
4.0
 40
5.0
 40
5.0
 40
5.0
 40
6.0
 40
6.0
 40
6.0
 40
7.0
 40
7.0
 40
7.0
 40
8.0
 40
8.0
 40
8.0
 40
9.0
 40
9.0
 40
9.0
 40
10.0
 40
10.0
 40
10.0
 40
11.0
 40
11.0
 40
11.0
 40
12.0
 40
12.0
 40
12.0
 40
13.0
 40
13.0
 40
13.0
 40
14.0
 40
14.0
 40
14.0
 40
15.0
 40
15.0
 40
15.0
 40
15.0
 10
7.397486374733093
 20
4.904083255876392
 30
0.0
 10
7.245097695954498
 20
5.217541592851334
 30
0.0
 10
7.172749842977783
 20
5.554166586338949
 30
0.0
 10
7.116819599334949
 20
5.896555587399536
 30
0.0
 10
7.115861686465259
 20
5.905236142962036
 30
0.0
 10
7.107180707047506
 20
5.910055377178131
 30
0.0
 10
7.098500151485006
 20
5.90812514036018
 30
0.0
 10
7.086930598524362
 20
5.905236142962036
 30
0.0
 10
7.076319806143911
 20
5.901375245470883
 30
0.0
 10
7.065708589908209
 20
5.898486248072738
 30
0.0
 10
7.058958695018911
 20
5.896555587399536
 30
0.0
 10
7.055097373672507
 20
5.889805692510238
 30
0.0
 10
7.055097373672507
 20
5.883055797620941
 30
0.0
 10
7.057986371070651
 20
5.858944791606643
 30
0.0
 10
7.059916607888602
 20
5.836764022410296
 30
0.0
 10
7.061847268561804
 20
5.813611353120941
 30
0.0
 10
7.06763882672616
 20
5.740305587274536
 30
0.0
 10
7.05895827116366
 20
5.668930905956586
 30
0.0
 10
7.030986367658209
 20
5.599486461456586
 30
0.0
 10
6.975041712936804
 20
5.458666911783383
 30
0.0
 10
6.843875466629615
 20
5.422986352808441
 30
0.0
 10
6.738736475931354
 20
5.455778338240491
 30
0.0
 10
6.663500473266998
 20
5.479889344254788
 30
0.0
 10
6.615278037383152
 20
5.535833998976194
 30
0.0
 10
6.57959747840821
 20
5.602389446078049
 30
0.0
 10
6.484111367220709
 20
5.782750452217346
 30
0.0
 10
6.532333379249304
 20
5.975653335265549
 30
0.0
 10
6.705944490499304
 20
6.09813944986549
 30
0.0
 10
6.810111157249304
 20
6.172403128581585
 30
0.0
 10
6.927777613777899
 20
6.207125350831586
 30
0.0
 10
7.056055710397449
 20
6.196514558451136
 30
0.0
 10
7.196874836215399
 20
6.184945005490491
 30
0.0
 10
7.305861584891998
 20
6.11550056099049
 30
0.0
 10
7.389778143118854
 20
6.004583999351193
 30
0.0
 10
7.468861056051044
 20
5.899458995876251
 30
0.0
 10
7.515167242340259
 20
5.779847891451135
 30
0.0
 10
7.537347587681354
 20
5.651570218686838
 30
0.0
 10
7.574958807329498
 20
5.439375987695685
 30
0.0
 10
7.559527933022449
 20
5.231042654195685
 30
0.0
 10
7.485264254306354
 20
5.02850087886004
 30
0.0
 10
7.465972906363404
 20
4.97641754548504
 30
0.0
 10
7.438972479095709
 20
4.929153446326136
 30
0.0
 10
7.422570128550904
 20
4.903111779638635
 30
0.0
 10
7.416777722676044
 20
4.893486026864007
 30
0.0
 10
7.402319172317255
 20
4.89444436358895
 30
0.0
 10
7.397486374733093
 20
4.904083255876392
 30
0.0
  0
SPLINE
  5
44
330
1F
100
AcDbEntity
  8
Layer 1
 62
     7
420
 16777215
370
    35
100
AcDbSpline
210
0.0
220
0.0
230
1.0
 70
    11
 71
     3
 72
    59
 73
    55
 74
     0
 42
0.0000000001
 43
0.0000000001
 12
1.0
 22
0.0
 32
0.0
 13
1.0
 23
0.0
 33
0.0
 40
0.0
 40
0.0
 40
0.0
 40
0.0
 40
1.0
 40
1.0
 40
1.0
 40
2.0
 40
2.0
 40
2.0
 40
3.0
 40
3.0
 40
3.0
 40
4.0
 40
4.0
 40
4.0
 40
5.0
 40
5.0
 40
5.0
 40
6.0
 40
6.0
 40
6.0
 40
7.0
 40
7.0
 40
7.0
 40
8.0
 40
8.0
 40
8.0
 40
9.0
 40
9.0
 40
9.0
 40
10.0
 40
10.0
 40
10.0
 40
11.0
 40
11.0
 40
11.0
 40
12.0
 40
12.0
 40
12.0
 40
13.0
 40
13.0
 40
13.0
 40
14.0
 40
14.0
 40
14.0
 40
15.0
 40
15.0
 40
15.0
 40
16.0
 40
16.0
 40
16.0
 40
17.0
 40
17.0
 40
17.0
 40
18.0
 40
18.0
 40
18.0
 40
18.0
 10
7.074388721615457
 20
5.598527700876391
 30
0.0
 10
7.074388721615457
 20
5.598527700876391
 30
0.0
 10
7.035805178019052
 20
5.402736244285297
 30
0.0
 10
6.813972054740457
 20
5.405624817828189
 30
0.0
 10
6.59213850760661
 20
5.408513815226334
 30
0.0
 10
6.517874828890515
 20
5.518472040140689
 30
0.0
 10
6.48604160403866
 20
5.749958042930045
 30
0.0
 10
6.454208379186804
 20
5.9814440457194
 30
0.0
 10
6.710777711938718
 20
6.244749709992544
 30
0.0
 10
7.035805601874304
 20
6.232208256938891
 30
0.0
 10
7.360833067954639
 20
6.219666803885239
 30
0.0
 10
7.569180812533209
 20
5.945749923376392
 30
0.0
 10
7.582680602311804
 20
5.496291694799594
 30
0.0
 10
7.586541923658209
 20
5.362222463870941
 30
0.0
 10
7.574000046749305
 20
5.225263811688892
 30
0.0
 10
7.533486266334949
 20
5.096027802199652
 30
0.0
 10
7.511305920993854
 20
5.02465269702645
 30
0.0
 10
7.472722377397448
 20
4.89541668753721
 30
0.0
 10
7.397486374733093
 20
4.862611138737094
 30
0.0
 10
7.406166930295593
 20
4.849111348958499
 30
0.0
 10
7.414847485858093
 20
4.835611135324652
 30
0.0
 10
7.424485954290283
 20
4.822097358322739
 30
0.0
 10
7.496819396188428
 20
4.877069689095883
 30
0.0
 10
7.527694708170594
 20
4.954236352433441
 30
0.0
 10
7.556624524545733
 20
5.037180586712037
 30
0.0
 10
7.601957539176184
 20
5.168347256874478
 30
0.0
 10
7.614499416085089
 20
5.307236145874478
 30
0.0
 10
7.613527092136828
 20
5.445166698149536
 30
0.0
 10
7.612569179267139
 20
5.61298625123518
 30
0.0
 10
7.592304659665424
 20
5.784666701811978
 30
0.0
 10
7.520929978347473
 20
5.937069367813891
 30
0.0
 10
7.484277519279523
 20
6.015194367876392
 30
0.0
 10
7.432194185904523
 20
6.087527809774536
 30
0.0
 10
7.367568975620618
 20
6.145402701313892
 30
0.0
 10
7.299082443990308
 20
6.206166590251391
 30
0.0
 10
7.216138209711713
 20
6.233166593663833
 30
0.0
 10
7.129332654086713
 20
6.259208260351333
 30
0.0
 10
7.079179981384915
 20
6.274638710803131
 30
0.0
 10
7.03191588222601
 20
6.267888815913834
 30
0.0
 10
6.97983254885101
 20
6.265958155240631
 30
0.0
 10
6.890137995827866
 20
6.262096833894226
 30
0.0
 10
6.800429879436654
 20
6.237985827879928
 30
0.0
 10
6.720374218700952
 20
6.195555374015689
 30
0.0
 10
6.562193557902749
 20
6.111638815788834
 30
0.0
 10
6.45031865953851
 20
5.949610820867544
 30
0.0
 10
6.442596440700952
 20
5.769249814728247
 30
0.0
 10
6.43198522446525
 20
5.535833151265689
 30
0.0
 10
6.602707762172357
 20
5.323652483642602
 30
0.0
 10
6.849624215413511
 20
5.366082937506842
 30
0.0
 10
6.947040987274213
 20
5.382485711906901
 30
0.0
 10
7.036735540297357
 20
5.441318940171198
 30
0.0
 10
7.090749110490307
 20
5.524263598305045
 30
0.0
 10
7.087888935249304
 20
5.549347352122854
 30
0.0
 10
7.078236055738544
 20
5.574416694862094
 30
0.0
 10
7.074388721615457
 20
5.598527700876391
 30
0.0
  0
SPLINE
  5
45
330
1F
100
AcDbEntity
  8
Layer 1
 62
     7
420
 16777215
370
    35
100
AcDbSpline
210
0.0
220
0.0
230
1.0
 70
    11
 71
     3
 72
    26
 73
    22
 74
     0
 42
0.0000000001
 43
0.0000000001
 12
1.0
 22
0.0
 32
0.0
 13
1.0
 23
0.0
 33
0.0
 40
0.0
 40
0.0
 40
0.0
 40
0.0
 40
1.0
 40
1.0
 40
1.0
 40
2.0
 40
2.0
 40
2.0
 40
3.0
 40
3.0
 40
3.0
 40
4.0
 40
4.0
 40
4.0
 40
5.0
 40
5.0
 40
5.0
 40
6.0
 40
6.0
 40
6.0
 40
7.0
 40
7.0
 40
7.0
 40
7.0
 10
7.469833379999304
 20
4.749763916424594
 30
0.0
 10
7.463083061254754
 20
4.761333469385239
 30
0.0
 10
7.443791713311804
 20
4.779666904458499
 30
0.0
 10
7.438000155147448
 20
4.791236033563892
 30
0.0
 10
7.517083068079638
 20
4.893472039640689
 30
0.0
 10
7.599069389488544
 20
5.01597214146395
 30
0.0
 10
7.625111056176044
 20
5.142319577410297
 30
0.0
 10
7.652110635733234
 20
5.269638913449652
 30
0.0
 10
7.655014044209949
 20
5.400805583612094
 30
0.0
 10
7.646333488647449
 20
5.530055580324652
 30
0.0
 10
7.640541930483093
 20
5.620722457296057
 30
0.0
 10
7.628014464652759
 20
5.71041658646395
 30
0.0
 10
7.605819708233093
 20
5.79819446603721
 30
0.0
 10
7.573027722801044
 20
5.925513802076566
 30
0.0
 10
7.502610954352783
 20
6.066333351749768
 30
0.0
 10
7.401347696079498
 20
6.152166583426507
 30
0.0
 10
7.630903462050903
 20
6.00555547558895
 30
0.0
 10
7.806444810118854
 20
5.752861027551508
 30
0.0
 10
7.823805921243854
 20
5.480874807715863
 30
0.0
 10
7.841167032368854
 20
5.211764021910296
 30
0.0
 10
7.698416822022449
 20
4.904083255876392
 30
0.0
 10
7.469833379999304
 20
4.749763916424594
 30
0.0
  0
SPLINE
  5
46
330
1F
100
AcDbEntity
  8
Layer 1
 62
     7
420
 16777215
370
    35
100
AcDbSpline
210
0.0
220
0.0
230
1.0
 70
    11
 71
     3
 72
    29
 73
    25
 74
     0
 42
0.0000000001
 43
0.0000000001
 12
1.0
 22
0.0
 32
0.0
 13
1.0
 23
0.0
 33
0.0
 40
0.0
 40
0.0
 40
0.0
 40
0.0
 40
1.0
 40
1.0
 40
1.0
 40
2.0
 40
2.0
 40
2.0
 40
3.0
 40
3.0
 40
3.0
 40
4.0
 40
4.0
 40
4.0
 40
5.0
 40
5.0
 40
5.0
 40
6.0
 40
6.0
 40
6.0
 40
7.0
 40
7.0
 40
7.0
 40
8.0
 40
8.0
 40
8.0
 40
8.0
 10
7.601971950254755
 20
5.928388812251391
 30
0.0
 10
7.601971950254755
 20
5.928388812251391
 30
0.0
 10
7.712888935749304
 20
5.670861142774537
 30
0.0
 10
7.686847269061804
 20
5.346791589563892
 30
0.0
 10
7.671416394754755
 20
5.148097148351334
 30
0.0
 10
7.61451382716366
 20
4.939763814851334
 30
0.0
 10
7.463083061254754
 20
4.799916589126392
 30
0.0
 10
7.470805703947565
 20
4.788347036165747
 30
0.0
 10
7.474652614215399
 20
4.783513814726334
 30
0.0
 10
7.482374409197705
 20
4.778694156654987
 30
0.0
 10
7.541208061317255
 20
4.832708150703189
 30
0.0
 10
7.590402397294111
 20
4.899263597805045
 30
0.0
 10
7.6347630879763
 20
4.965805057683582
 30
0.0
 10
7.700346211129895
 20
5.064180166269226
 30
0.0
 10
7.752429544504895
 20
5.171249393785437
 30
0.0
 10
7.776540974374445
 20
5.287943950221024
 30
0.0
 10
7.787151766754895
 20
5.339068946871081
 30
0.0
 10
7.792944172629754
 20
5.390179956297821
 30
0.0
 10
7.792944172629754
 20
5.442263289672821
 30
0.0
 10
7.792944172629754
 20
5.532930166644226
 30
0.0
 10
7.775583061504754
 20
5.623596619760379
 30
0.0
 10
7.740860839254755
 20
5.706541277894226
 30
0.0
 10
7.709027614402899
 20
5.783722352310354
 30
0.0
 10
7.661763515243994
 20
5.869555583987094
 30
0.0
 10
7.601971950254755
 20
5.928388812251391
 30
0.0
  0
SPLINE
  5
47
330
1F
100
AcDbEntity
  8
Layer 1
 62
     7
420
 16777215
370
    35
100
AcDbSpline
210
0.0
220
0.0
230
1.0
 70
    11
 71
     3
 72
    14
 73
    10
 74
     0
 42
0.0000000001
 43
0.0000000001
 12
1.0
 22
0.0
 32
0.0
 13
1.0
 23
0.0
 33
0.0
 40
0.0
 40
0.0
 40
0.0
 40
0.0
 40
1.0
 40
1.0
 40
1.0
 40
2.0
 40
2.0
 40
2.0
 40
3.0
 40
3.0
 40
3.0
 40
3.0
 10
7.675264152733093
 20
5.776972033565805
 30
0.0
 10
7.750500155397448
 20
5.536805475213949
 30
0.0
 10
7.740847275886688
 20
5.27061081354266
 30
0.0
 10
7.650180398915284
 20
5.036235813355161
 30
0.0
 10
7.716735846017139
 20
5.149083035667661
 30
0.0
 10
7.758208387011688
 20
5.282180366503305
 30
0.0
 10
7.764957858045734
 20
5.413360600033814
 30
0.0
 10
7.771722587868854
 20
5.543555370103247
 30
0.0
 10
7.738930602436804
 20
5.662194574435355
 30
0.0
 10
7.675264152733093
 20
5.776972033565805
 30
0.0
  0
SPLINE
  5
48
330
1F
100
AcDbEntity
  8
Layer 1
 62
     7
420
 16777215
370
    35
100
AcDbSpline
210
0.0
220
0.0
230
1.0
 70
    11
 71
     3
 72
    47
 73
    43
 74
     0
 42
0.0000000001
 43
0.0000000001
 12
1.0
 22
0.0
 32
0.0
 13
1.0
 23
0.0
 33
0.0
 40
0.0
 40
0.0
 40
0.0
 40
0.0
 40
1.0
 40
1.0
 40
1.0
 40
2.0
 40
2.0
 40
2.0
 40
3.0
 40
3.0
 40
3.0
 40
4.0
 40
4.0
 40
4.0
 40
5.0
 40
5.0
 40
5.0
 40
6.0
 40
6.0
 40
6.0
 40
7.0
 40
7.0
 40
7.0
 40
8.0
 40
8.0
 40
8.0
 40
9.0
 40
9.0
 40
9.0
 40
10.0
 40
10.0
 40
10.0
 40
11.0
 40
11.0
 40
11.0
 40
12.0
 40
12.0
 40
12.0
 40
13.0
 40
13.0
 40
13.0
 40
14.0
 40
14.0
 40
14.0
 40
14.0
 10
7.144791502840399
 20
5.336194360551508
 30
0.0
 10
7.14672173965835
 20
5.327513804989008
 30
0.0
 10
7.148652824186804
 20
5.318833249426508
 30
0.0
 10
7.150583061004755
 20
5.309194357139066
 30
0.0
 10
7.150583061004755
 20
5.307263696465863
 30
0.0
 10
7.151540973874445
 20
5.30533303579266
 30
0.0
 10
7.150583061004755
 20
5.303402798974711
 30
0.0
 10
7.149625148135065
 20
5.301472138301508
 30
0.0
 10
7.148652824186804
 20
5.299541477628305
 30
0.0
 10
7.14672173965835
 20
5.297611240810355
 30
0.0
 10
7.080166292556494
 20
5.218527904022912
 30
0.0
 10
6.989513402808408
 20
5.152930793645999
 30
0.0
 10
6.883416075385205
 20
5.140402903960412
 30
0.0
 10
6.8014297539763
 20
5.13076401167297
 30
0.0
 10
6.716554859024503
 20
5.14715279884971
 30
0.0
 10
6.644221840981611
 20
5.185736342446115
 30
0.0
 10
6.561277606703015
 20
5.230097456983557
 30
0.0
 10
6.494721735745908
 20
5.302444462249768
 30
0.0
 10
6.45324961860661
 20
5.386347457108557
 30
0.0
 10
6.411777501467313
 20
5.470264015335412
 30
0.0
 10
6.393444066394053
 20
5.564777802574652
 30
0.0
 10
6.395374727067255
 20
5.659306000892462
 30
0.0
 10
6.396333063792197
 20
5.685347667579962
 30
0.0
 10
6.40019396128335
 20
5.70945867359426
 30
0.0
 10
6.410805177519052
 20
5.733569679608557
 30
0.0
 10
6.414666498865457
 20
5.635194571022913
 30
0.0
 10
6.440708165552957
 20
5.534875238395999
 30
0.0
 10
6.502430391215399
 20
5.457722562281759
 30
0.0
 10
6.565124940826101
 20
5.378639225494318
 30
0.0
 10
6.663499625556494
 20
5.330403226242404
 30
0.0
 10
6.764777718763602
 20
5.32751422884426
 30
0.0
 10
6.862194490624304
 20
5.324625231446115
 30
0.0
 10
6.956708277863544
 20
5.363194787819202
 30
0.0
 10
7.035805601874304
 20
5.419139442540606
 30
0.0
 10
7.061847268561804
 20
5.437458890390549
 30
0.0
 10
7.086930598524362
 20
5.461583883628164
 30
0.0
 10
7.100430812158209
 20
5.489542223765548
 30
0.0
 10
7.106222370322564
 20
5.470250451967346
 30
0.0
 10
7.112000365118853
 20
5.450958680169144
 30
0.0
 10
7.11683401041352
 20
5.431667332226193
 30
0.0
 10
7.127430391715399
 20
5.399847246887152
 30
0.0
 10
7.137069707858093
 20
5.368014022035297
 30
0.0
 10
7.144791502840399
 20
5.336194360551508
 30
0.0
  0
SPLINE
  5
49
330
1F
100
AcDbEntity
  8
Layer 1
 62
     7
420
 16777215
370
    35
100
AcDbSpline
210
0.0
220
0.0
230
1.0
 70
    11
 71
     3
 72
    29
 73
    25
 74
     0
 42
0.0000000001
 43
0.0000000001
 12
1.0
 22
0.0
 32
0.0
 13
1.0
 23
0.0
 33
0.0
 40
0.0
 40
0.0
 40
0.0
 40
0.0
 40
1.0
 40
1.0
 40
1.0
 40
2.0
 40
2.0
 40
2.0
 40
3.0
 40
3.0
 40
3.0
 40
4.0
 40
4.0
 40
4.0
 40
5.0
 40
5.0
 40
5.0
 40
6.0
 40
6.0
 40
6.0
 40
7.0
 40
7.0
 40
7.0
 40
8.0
 40
8.0
 40
8.0
 40
8.0
 10
7.087888935249304
 20
5.429749811065805
 30
0.0
 10
7.087888935249304
 20
5.429749811065805
 30
0.0
 10
7.123569070368994
 20
5.312082930681958
 30
0.0
 10
7.123569070368994
 20
5.312082930681958
 30
0.0
 10
7.123569070368994
 20
5.312082930681958
 30
0.0
 10
6.952846956517138
 20
5.095069041619458
 30
0.0
 10
6.725221851218937
 20
5.179943936571256
 30
0.0
 10
6.496638409195792
 20
5.264818831523053
 30
0.0
 10
6.440694178329639
 20
5.490513276148053
 30
0.0
 10
6.429124625368995
 20
5.533916053960553
 30
0.0
 10
6.444555075820792
 20
5.474110501747995
 30
0.0
 10
6.497610733144052
 20
5.407569041869458
 30
0.0
 10
6.546791081897589
 20
5.374777056437408
 30
0.0
 10
6.595013093926184
 20
5.342943831585553
 30
0.0
 10
6.648068751249444
 20
5.320763062389206
 30
0.0
 10
6.703999418747531
 20
5.309193933283813
 30
0.0
 10
6.762832647011829
 20
5.296652056374908
 30
0.0
 10
6.812026982988685
 20
5.300513377721313
 30
0.0
 10
6.869888311159973
 20
5.314985491448169
 30
0.0
 10
6.937402094986771
 20
5.332346602573169
 30
0.0
 10
7.009735536884915
 20
5.357429932535727
 30
0.0
 10
7.063749530933118
 20
5.403721707746372
 30
0.0
 10
7.071486160849246
 20
5.411416799847797
 30
0.0
 10
7.081139040360007
 20
5.420097355410297
 30
0.0
 10
7.087888935249304
 20
5.429749811065805
 30
0.0
  0
SPLINE
  5
4A
330
1F
100
AcDbEntity
  8
Layer 1
 62
     7
420
 16777215
370
    35
100
AcDbSpline
210
0.0
220
0.0
230
1.0
 70
    11
 71
     3
 72
    17
 73
    13
 74
     0
 42
0.0000000001
 43
0.0000000001
 12
1.0
 22
0.0
 32
0.0
 13
1.0
 23
0.0
 33
0.0
 40
0.0
 40
0.0
 40
0.0
 40
0.0
 40
1.0
 40
1.0
 40
1.0
 40
2.0
 40
2.0
 40
2.0
 40
3.0
 40
3.0
 40
3.0
 40
4.0
 40
4.0
 40
4.0
 40
4.0
 10
7.076305395065341
 20
5.386347033253305
 30
0.0
 10
7.076305395065341
 20
5.386347033253305
 30
0.0
 10
7.100416401079639
 20
5.318833249426508
 30
0.0
 10
7.100416401079639
 20
5.318833249426508
 30
0.0
 10
7.100416401079639
 20
5.318833249426508
 30
0.0
 10
6.846749629093936
 20
5.021763699628305
 30
0.0
 10
6.557402721988543
 20
5.32847214171395
 30
0.0
 10
6.557402721988543
 20
5.32847214171395
 30
0.0
 10
6.681819497261689
 20
5.239735925415747
 30
0.0
 10
6.846750052949188
 20
5.275430471614007
 30
0.0
 10
7.016513830076102
 20
5.313041691262153
 30
0.0
 10
7.076305395065341
 20
5.386347033253305
 30
0.0
 10
7.076305395065341
 20
5.386347033253305
 30
0.0
  0
SPLINE
  5
4B
330
1F
100
AcDbEntity
  8
Layer 1
 62
     7
420
 16777215
370
    35
100
AcDbSpline
210
0.0
220
0.0
230
1.0
 70
    11
 71
     3
 72
    14
 73
    10
 74
     0
 42
0.0000000001
 43
0.0000000001
 12
1.0
 22
0.0
 32
0.0
 13
1.0
 23
0.0
 33
0.0
 40
0.0
 40
0.0
 40
0.0
 40
0.0
 40
1.0
 40
1.0
 40
1.0
 40
2.0
 40
2.0
 40
2.0
 40
3.0
 40
3.0
 40
3.0
 40
3.0
 10
7.066666502777899
 20
5.347763913512152
 30
0.0
 10
7.066666502777899
 20
5.347763913512152
 30
0.0
 10
7.074388721615457
 20
5.325583568171057
 30
0.0
 10
7.074388721615457
 20
5.325583568171057
 30
0.0
 10
7.074388721615457
 20
5.325583568171057
 30
0.0
 10
6.859305493226159
 20
5.130750024449652
 30
0.0
 10
6.688583379374304
 20
5.256139123671058
 30
0.0
 10
6.688583379374304
 20
5.256138699815805
 30
0.0
 10
6.881486262422507
 20
5.190541589438892
 30
0.0
 10
7.066666502777899
 20
5.347763913512152
 30
0.0
  0
SPLINE
  5
4C
330
1F
100
AcDbEntity
  8
Layer 1
 62
     7
420
 16777215
370
    35
100
AcDbSpline
210
0.0
220
0.0
230
1.0
 70
    11
 71
     3
 72
    29
 73
    25
 74
     0
 42
0.0000000001
 43
0.0000000001
 12
1.0
 22
0.0
 32
0.0
 13
1.0
 23
0.0
 33
0.0
 40
0.0
 40
0.0
 40
0.0
 40
0.0
 40
1.0
 40
1.0
 40
1.0
 40
2.0
 40
2.0
 40
2.0
 40
3.0
 40
3.0
 40
3.0
 40
4.0
 40
4.0
 40
4.0
 40
5.0
 40
5.0
 40
5.0
 40
6.0
 40
6.0
 40
6.0
 40
7.0
 40
7.0
 40
7.0
 40
8.0
 40
8.0
 40
8.0
 40
8.0
 10
7.074388721615457
 20
5.882097037040747
 30
0.0
 10
7.084027613902899
 20
5.775999709617545
 30
0.0
 10
7.094638830138602
 20
5.708485925790747
 30
0.0
 10
7.11199951740835
 20
5.62361103083895
 30
0.0
 10
7.16408285078335
 20
5.365125024637152
 30
0.0
 10
7.245096848243994
 20
5.100847036415747
 30
0.0
 10
7.357944070556494
 20
4.862611138737094
 30
0.0
 10
7.457291503090399
 20
4.652347144563891
 30
0.0
 10
7.601957539176184
 20
4.433403018683441
 30
0.0
 10
7.799694491374304
 20
4.303194685245941
 30
0.0
 10
7.946306023067114
 20
4.205778337240491
 30
0.0
 10
8.180681023254614
 20
4.174916588626392
 30
0.0
 10
8.312805182431495
 20
4.317666798972796
 30
0.0
 10
8.2732637259654
 20
4.370708469072738
 30
0.0
 10
8.22888862420464
 20
4.427625023887152
 30
0.0
 10
8.189347167738545
 20
4.480666693987094
 30
0.0
 10
8.189347167738545
 20
4.480666693987094
 30
0.0
 10
7.899027512829639
 20
4.308013919462036
 30
0.0
 10
7.630902614340399
 20
4.510569682020999
 30
0.0
 10
7.360846631322705
 20
4.715042118029846
 30
0.0
 10
7.154430818983093
 20
5.416236457919144
 30
0.0
 10
7.100430388302957
 20
5.886917118967347
 30
0.0
 10
7.100430388302957
 20
5.886917118967347
 30
0.0
 10
7.074388721615457
 20
5.882097037040747
 30
0.0
 10
7.074388721615457
 20
5.882097037040747
 30
0.0
  0
SPLINE
  5
4D
330
1F
100
AcDbEntity
  8
Layer 1
 62
     7
420
 16777215
370
    35
100
AcDbSpline
210
0.0
220
0.0
230
1.0
 70
    11
 71
     3
 72
    35
 73
    31
 74
     0
 42
0.0000000001
 43
0.0000000001
 12
1.0
 22
0.0
 32
0.0
 13
1.0
 23
0.0
 33
0.0
 40
0.0
 40
0.0
 40
0.0
 40
0.0
 40
1.0
 40
1.0
 40
1.0
 40
2.0
 40
2.0
 40
2.0
 40
3.0
 40
3.0
 40
3.0
 40
4.0
 40
4.0
 40
4.0
 40
5.0
 40
5.0
 40
5.0
 40
6.0
 40
6.0
 40
6.0
 40
7.0
 40
7.0
 40
7.0
 40
8.0
 40
8.0
 40
8.0
 40
9.0
 40
9.0
 40
9.0
 40
10.0
 40
10.0
 40
10.0
 40
10.0
 10
8.127625365931355
 20
4.597374813790747
 30
0.0
 10
8.135348008624163
 20
4.605097032628305
 30
0.0
 10
8.14209747965821
 20
4.613777588190805
 30
0.0
 10
8.14980571127245
 20
4.621485819805045
 30
0.0
 10
8.554902825311805
 20
5.085416162108698
 30
0.0
 10
8.601194600522449
 20
5.748999706205103
 30
0.0
 10
8.458444390176044
 20
6.324805370728247
 30
0.0
 10
8.41890293370995
 20
6.483944368251391
 30
0.0
 10
8.358139044772448
 20
6.637305370978247
 30
0.0
 10
8.274222486545593
 20
6.778124920651449
 30
0.0
 10
8.085180500988544
 20
7.095444578972796
 30
0.0
 10
7.785222377647449
 20
7.327888918487094
 30
0.0
 10
7.444750473891999
 20
7.465819470762153
 30
0.0
 10
7.286570236949048
 20
7.529472357097797
 30
0.0
 10
7.119708596733093
 20
7.572875134910297
 30
0.0
 10
6.949958806829498
 20
7.592166482853247
 30
0.0
 10
7.441861476493854
 20
7.534291591313892
 30
0.0
 10
7.895180602561804
 20
7.379971828006842
 30
0.0
 10
8.276153571074047
 20
6.945944049881843
 30
0.0
 10
8.657126539586292
 20
6.511916271756842
 30
0.0
 10
8.729472697141999
 20
5.976610824279986
 30
0.0
 10
8.681250685113403
 20
5.532944153867545
 30
0.0
 10
8.633028673084809
 20
5.089277483455103
 30
0.0
 10
8.390931030204499
 20
4.728541483953189
 30
0.0
 10
8.212500684738403
 20
4.5491523779069
 30
0.0
 10
8.034070339272308
 20
4.369749708492544
 30
0.0
 10
7.746639681761548
 20
4.471985714569342
 30
0.0
 10
7.746639681761548
 20
4.471985714569342
 30
0.0
 10
7.890361368345709
 20
4.471986138424594
 30
0.0
 10
8.032139254743853
 20
4.492249810315805
 30
0.0
 10
8.127625365931355
 20
4.597374813790747
 30
0.0
  0
SPLINE
  5
4E
330
1F
100
AcDbEntity
  8
Layer 1
 62
     7
420
 16777215
370
    35
100
AcDbSpline
210
0.0
220
0.0
230
1.0
 70
    11
 71
     3
 72
    26
 73
    22
 74
     0
 42
0.0000000001
 43
0.0000000001
 12
1.0
 22
0.0
 32
0.0
 13
1.0
 23
0.0
 33
0.0
 40
0.0
 40
0.0
 40
0.0
 40
0.0
 40
1.0
 40
1.0
 40
1.0
 40
2.0
 40
2.0
 40
2.0
 40
3.0
 40
3.0
 40
3.0
 40
4.0
 40
4.0
 40
4.0
 40
5.0
 40
5.0
 40
5.0
 40
6.0
 40
6.0
 40
6.0
 40
7.0
 40
7.0
 40
7.0
 40
7.0
 10
8.18452793352245
 20
4.444013811063892
 30
0.0
 10
8.210569600209949
 20
4.402541693924594
 30
0.0
 10
8.241430501113543
 20
4.362027489654986
 30
0.0
 10
8.275194810493854
 20
4.326347354535296
 30
0.0
 10
8.233722269499305
 20
4.288736134887152
 30
0.0
 10
8.179708699306353
 20
4.267513702415747
 30
0.0
 10
8.123764044584949
 20
4.259791907433441
 30
0.0
 10
8.068791713811803
 20
4.252069264740631
 30
0.0
 10
8.011874735142138
 20
4.258833994563751
 30
0.0
 10
7.957875576027759
 20
4.272333784342346
 30
0.0
 10
7.836347798152759
 20
4.303194685245941
 30
0.0
 10
7.725430812658209
 20
4.372639129745941
 30
0.0
 10
7.644417662908069
 20
4.467167328063751
 30
0.0
 10
7.679139885158069
 20
4.444986982722656
 30
0.0
 10
7.713862107408069
 20
4.425695210924454
 30
0.0
 10
7.753403563874164
 20
4.413153334015549
 30
0.0
 10
7.790056022942115
 20
4.401583781054904
 30
0.0
 10
7.848889675061664
 20
4.389042328001251
 30
0.0
 10
7.887473218658068
 20
4.387111667328049
 30
0.0
 10
7.995485947965399
 20
4.381333248676508
 30
0.0
 10
8.087110737806494
 20
4.394833462310355
 30
0.0
 10
8.18452793352245
 20
4.444013811063892
 30
0.0
  0
SPLINE
  5
4F
330
1F
100
AcDbEntity
  8
Layer 1
 62
     7
420
 16777215
370
    35
100
AcDbSpline
210
0.0
220
0.0
230
1.0
 70
    11
 71
     3
 72
    14
 73
    10
 74
     0
 42
0.0000000001
 43
0.0000000001
 12
1.0
 22
0.0
 32
0.0
 13
1.0
 23
0.0
 33
0.0
 40
0.0
 40
0.0
 40
0.0
 40
0.0
 40
1.0
 40
1.0
 40
1.0
 40
2.0
 40
2.0
 40
2.0
 40
3.0
 40
3.0
 40
3.0
 40
3.0
 10
7.802583488772449
 20
4.370722032440805
 30
0.0
 10
7.802583488772449
 20
4.370722032440805
 30
0.0
 10
8.026347696579498
 20
4.208680050296198
 30
0.0
 10
8.225041713936804
 20
4.335041473465863
 30
0.0
 10
8.225041713936804
 20
4.335041473465863
 30
0.0
 10
8.173916293431494
 20
4.407374915364008
 30
0.0
 10
8.173916293431494
 20
4.407374915364008
 30
0.0
 10
8.173916293431494
 20
4.407374915364008
 30
0.0
 10
8.002236266709948
 20
4.308027906685354
 30
0.0
 10
7.802583488772449
 20
4.370722032440805
 30
0.0
  0
SPLINE
  5
50
330
1F
100
AcDbEntity
  8
Layer 1
 62
     7
420
 16777215
370
    35
100
AcDbSpline
210
0.0
220
0.0
230
1.0
 70
    11
 71
     3
 72
    14
 73
    10
 74
     0
 42
0.0000000001
 43
0.0000000001
 12
1.0
 22
0.0
 32
0.0
 13
1.0
 23
0.0
 33
0.0
 40
0.0
 40
0.0
 40
0.0
 40
0.0
 40
1.0
 40
1.0
 40
1.0
 40
2.0
 40
2.0
 40
2.0
 40
3.0
 40
3.0
 40
3.0
 40
3.0
 10
7.949194172754755
 20
4.327319254628305
 30
0.0
 10
7.949194172754755
 20
4.327319254628305
 30
0.0
 10
8.07651350879411
 20
4.281985816142603
 30
0.0
 10
8.18838840715835
 20
4.344680365753305
 30
0.0
 10
8.18838840715835
 20
4.344680365753305
 30
0.0
 10
8.166208061817255
 20
4.37651359060516
 30
0.0
 10
8.166208061817255
 20
4.37651359060516
 30
0.0
 10
8.166208061817255
 20
4.377472351185355
 30
0.0
 10
8.113152404493995
 20
4.327319254628305
 30
0.0
 10
7.949194172754755
 20
4.327319254628305
 30
0.0
  0
SPLINE
  5
51
330
1F
100
AcDbEntity
  8
Layer 1
 62
     7
420
 16777215
370
    35
100
AcDbSpline
210
0.0
220
0.0
230
1.0
 70
     8
 71
     3
 72
    32
 73
    28
 74
     0
 42
0.0000000001
 43
0.0000000001
 12
1.0
 22
0.0
 32
0.0
 13
1.0
 23
0.0
 33
0.0
 40
0.0
 40
0.0
 40
0.0
 40
0.0
 40
1.0
 40
1.0
 40
1.0
 40
2.0
 40
2.0
 40
2.0
 40
3.0
 40
3.0
 40
3.0
 40
4.0
 40
4.0
 40
4.0
 40
5.0
 40
5.0
 40
5.0
 40
6.0
 40
6.0
 40
6.0
 40
7.0
 40
7.0
 40
7.0
 40
8.0
 40
8.0
 40
8.0
 40
9.0
 40
9.0
 40
9.0
 40
9.0
 10
7.966555283879755
 20
4.473916799097797
 30
0.0
 10
8.03311073098161
 20
4.477778120444202
 30
0.0
 10
8.095804856737061
 20
4.505750023949652
 30
0.0
 10
8.148846950692255
 20
4.546250240995941
 30
0.0
 10
8.201888196936945
 20
4.585791697462036
 30
0.0
 10
8.245290974749445
 20
4.636917117967347
 30
0.0
 10
8.285805602874305
 20
4.689000451342347
 30
0.0
 10
8.470027506504755
 20
4.928194685745941
 30
0.0
 10
8.592514044959948
 20
5.21272278249049
 30
0.0
 10
8.641708380936805
 20
5.509791908433441
 30
0.0
 10
8.700542033056355
 20
5.862805689097796
 30
0.0
 10
8.6552081707154
 20
6.235097254337036
 30
0.0
 10
8.503777404806494
 20
6.560139131495942
 30
0.0
 10
8.296401984176184
 20
7.006708786529846
 30
0.0
 10
7.878777404306494
 20
7.247833681606644
 30
0.0
 10
7.878777404306494
 20
7.247833681606644
 30
0.0
 10
8.43144396290835
 20
6.825375456442289
 30
0.0
 10
8.53270806889214
 20
6.265972566319202
 30
0.0
 10
8.553930501363544
 20
5.808792118904846
 30
0.0
 10
8.575152933834948
 20
5.352583995438751
 30
0.0
 10
8.435291720886688
 20
5.039111671240491
 30
0.0
 10
8.435291720886688
 20
5.039111671240491
 30
0.0
 10
8.341735846517139
 20
4.839458893302991
 30
0.0
 10
8.238527940347334
 20
4.619556006842346
 30
0.0
 10
8.041777723176043
 20
4.505736460581586
 30
0.0
 10
8.018625053886689
 20
4.492236670802991
 30
0.0
 10
7.994513624017139
 20
4.478736457169144
 30
0.0
 10
7.967514044459949
 20
4.476805796495941
 30
0.0
  0
SPLINE
  5
52
330
1F
100
AcDbEntity
  8
Layer 1
 62
     7
420
 16777215
370
    35
100
AcDbSpline
210
0.0
220
0.0
230
1.0
 70
    11
 71
     3
 72
    26
 73
    22
 74
     0
 42
0.0000000001
 43
0.0000000001
 12
1.0
 22
0.0
 32
0.0
 13
1.0
 23
0.0
 33
0.0
 40
0.0
 40
0.0
 40
0.0
 40
0.0
 40
1.0
 40
1.0
 40
1.0
 40
2.0
 40
2.0
 40
2.0
 40
3.0
 40
3.0
 40
3.0
 40
4.0
 40
4.0
 40
4.0
 40
5.0
 40
5.0
 40
5.0
 40
6.0
 40
6.0
 40
6.0
 40
7.0
 40
7.0
 40
7.0
 40
7.0
 10
8.390930182493994
 20
6.69999992058895
 30
0.0
 10
8.55297174078335
 20
6.388458257063892
 30
0.0
 10
8.641708380936805
 20
6.130944150955103
 30
0.0
 10
8.625305182681494
 20
5.655444255690806
 30
0.0
 10
8.608901984426184
 20
5.179944360426507
 30
0.0
 10
8.349457641499445
 20
4.827902479855161
 30
0.0
 10
8.349457641499445
 20
4.827902479855161
 30
0.0
 10
8.375499308186944
 20
4.871305257667661
 30
0.0
 10
8.3986519774763
 20
4.915666372205102
 30
0.0
 10
8.420832322817395
 20
4.960999810690805
 30
0.0
 10
8.58190155715849
 20
5.29665248023016
 30
0.0
 10
8.627235419499444
 20
5.685346819869458
 30
0.0
 10
8.570332004197846
 20
6.051860814167661
 30
0.0
 10
8.535609781947846
 20
6.274666261394516
 30
0.0
 10
8.471956895612202
 20
6.499388805926507
 30
0.0
 10
8.377429545004896
 20
6.703860818080103
 30
0.0
 10
8.377429545004896
 20
6.703860818080103
 30
0.0
 10
8.290623989379895
 20
6.856249496858697
 30
0.0
 10
8.290623989379895
 20
6.856249496858697
 30
0.0
 10
8.290623989379895
 20
6.856249496858697
 30
0.0
 10
8.390930182493994
 20
6.69999992058895
 30
0.0
 10
8.390930182493994
 20
6.69999992058895
 30
0.0
  0
SPLINE
  5
53
330
1F
100
AcDbEntity
  8
Layer 1
 62
     7
420
 16777215
370
    35
100
AcDbSpline
210
0.0
220
0.0
230
1.0
 70
     8
 71
     3
 72
     8
 73
     4
 74
     0
 42
0.0000000001
 43
0.0000000001
 12
1.0
 22
0.0
 32
0.0
 13
1.0
 23
0.0
 33
0.0
 40
0.0
 40
0.0
 40
0.0
 40
0.0
 40
1.0
 40
1.0
 40
1.0
 40
1.0
 10
7.571097485983094
 20
7.428208251114008
 30
0.0
 10
7.691667350988403
 20
7.376124917739007
 30
0.0
 10
7.811264044334949
 20
7.311499707455103
 30
0.0
 10
7.911569389738544
 20
7.225666475778363
 30
0.0
  0
SPLINE
  5
54
330
1F
100
AcDbEntity
  8
Layer 1
 62
     7
420
 16777215
370
    35
100
AcDbSpline
210
0.0
220
0.0
230
1.0
 70
    11
 71
     3
 72
    35
 73
    31
 74
     0
 42
0.0000000001
 43
0.0000000001
 12
1.0
 22
0.0
 32
0.0
 13
1.0
 23
0.0
 33
0.0
 40
0.0
 40
0.0
 40
0.0
 40
0.0
 40
1.0
 40
1.0
 40
1.0
 40
2.0
 40
2.0
 40
2.0
 40
3.0
 40
3.0
 40
3.0
 40
4.0
 40
4.0
 40
4.0
 40
5.0
 40
5.0
 40
5.0
 40
6.0
 40
6.0
 40
6.0
 40
7.0
 40
7.0
 40
7.0
 40
8.0
 40
8.0
 40
8.0
 40
9.0
 40
9.0
 40
9.0
 40
10.0
 40
10.0
 40
10.0
 40
10.0
 10
7.464041821834948
 20
6.722180689785296
 30
0.0
 10
7.489125575652759
 20
6.690347464933441
 30
0.0
 10
7.513236157811805
 20
6.657555479501392
 30
0.0
 10
7.533486266334949
 20
6.621875344381702
 30
0.0
 10
7.559527933022449
 20
6.575583569171057
 30
0.0
 10
7.576889044147449
 20
6.524458572521
 30
0.0
 10
7.595208068142139
 20
6.474305899819202
 30
0.0
 10
7.621249734829639
 20
6.399069897154846
 30
0.0
 10
7.648249314386828
 20
6.323847457858557
 30
0.0
 10
7.674290981074328
 20
6.248611455194202
 30
0.0
 10
7.655971957079639
 20
6.491667010944202
 30
0.0
 10
7.655971957079639
 20
6.735680903419143
 30
0.0
 10
7.656929869949328
 20
6.979708783117404
 30
0.0
 10
7.642457756222473
 20
6.944986560867404
 30
0.0
 10
7.625096645097473
 20
6.909306001892462
 30
0.0
 10
7.594235744193878
 20
6.89001423009426
 30
0.0
 10
7.565305080108233
 20
6.871694782244318
 30
0.0
 10
7.527680297092023
 20
6.870722458296057
 30
0.0
 10
7.493930398790283
 20
6.879403013858557
 30
0.0
 10
7.460180500488544
 20
6.888083569421057
 30
0.0
 10
7.429305188506378
 20
6.904486343821115
 30
0.0
 10
7.398444287602783
 20
6.918944470324652
 30
0.0
 10
7.304888413233233
 20
6.964277908810355
 30
0.0
 10
7.197833596795594
 20
7.00381936527645
 30
0.0
 10
7.092694182242081
 20
7.008639023347797
 30
0.0
 10
7.166958284813428
 20
6.976805798495941
 30
0.0
 10
7.250874843040283
 20
6.937263918174594
 30
0.0
 10
7.312596644847473
 20
6.885180584799595
 30
0.0
 10
7.367596950067255
 20
6.836958148915747
 30
0.0
 10
7.417750046624304
 20
6.781013918049594
 30
0.0
 10
7.464041821834948
 20
6.722180689785296
 30
0.0
  0
SPLINE
  5
55
330
1F
100
AcDbEntity
  8
Layer 1
 62
     7
420
 16777215
370
    35
100
AcDbSpline
210
0.0
220
0.0
230
1.0
 70
    11
 71
     3
 72
    35
 73
    31
 74
     0
 42
0.0000000001
 43
0.0000000001
 12
1.0
 22
0.0
 32
0.0
 13
1.0
 23
0.0
 33
0.0
 40
0.0
 40
0.0
 40
0.0
 40
0.0
 40
1.0
 40
1.0
 40
1.0
 40
2.0
 40
2.0
 40
2.0
 40
3.0
 40
3.0
 40
3.0
 40
4.0
 40
4.0
 40
4.0
 40
5.0
 40
5.0
 40
5.0
 40
6.0
 40
6.0
 40
6.0
 40
7.0
 40
7.0
 40
7.0
 40
8.0
 40
8.0
 40
8.0
 40
9.0
 40
9.0
 40
9.0
 40
10.0
 40
10.0
 40
10.0
 40
10.0
 10
7.057027610490457
 20
7.015388918237094
 30
0.0
 10
7.12936062853335
 20
7.001889128458499
 30
0.0
 10
6.910416502652899
 20
7.035639026760239
 30
0.0
 10
6.836152823936804
 20
7.036611350708499
 30
0.0
 10
6.500500154397449
 20
7.040472672054904
 30
0.0
 10
6.127236265209949
 20
6.907361353995941
 30
0.0
 10
5.902514144533209
 20
6.650806008467346
 30
0.0
 10
5.714430919556354
 20
6.43668111680299
 30
0.0
 10
5.593875465629615
 20
6.144444788444201
 30
0.0
 10
5.576514354504615
 20
5.860875452279847
 30
0.0
 10
5.55433400916352
 20
5.504014337492404
 30
0.0
 10
5.644028138331412
 20
4.988000661813751
 30
0.0
 10
6.063583802729556
 20
4.717931115427991
 30
0.0
 10
6.483139467127701
 20
4.447875556265549
 30
0.0
 10
6.955750364993854
 20
4.520208998163693
 30
0.0
 10
6.955750364993854
 20
4.520208998163693
 30
0.0
 10
6.955750364993854
 20
4.520208998163693
 30
0.0
 10
6.958639362391998
 20
4.563611775976193
 30
0.0
 10
6.958639362391998
 20
4.563611775976193
 30
0.0
 10
6.958639362391998
 20
4.563611775976193
 30
0.0
 10
6.582486475806354
 20
4.529847890451135
 30
0.0
 10
6.319167248165143
 20
4.783514662436838
 30
0.0
 10
6.055861583891998
 20
5.03718143442254
 30
0.0
 10
5.962306133377701
 20
5.371861780013635
 30
0.0
 10
5.954583914540143
 20
5.632278446888635
 30
0.0
 10
5.946861695702585
 20
5.892695113763636
 30
0.0
 10
5.940111800813288
 20
6.172403552436838
 30
0.0
 10
6.150375371131238
 20
6.561097892076135
 30
0.0
 10
6.360652928672507
 20
6.949805371228247
 30
0.0
 10
6.688583379374304
 20
7.085805686685354
 30
0.0
 10
7.057027610490457
 20
7.015388918237094
 30
0.0
  0
SPLINE
  5
56
330
1F
100
AcDbEntity
  8
Layer 1
 62
     7
420
 16777215
370
    35
100
AcDbSpline
210
0.0
220
0.0
230
1.0
 70
     8
 71
     3
 72
     8
 73
     4
 74
     0
 42
0.0000000001
 43
0.0000000001
 12
1.0
 22
0.0
 32
0.0
 13
1.0
 23
0.0
 33
0.0
 40
0.0
 40
0.0
 40
0.0
 40
0.0
 40
1.0
 40
1.0
 40
1.0
 40
1.0
 10
7.050263728377841
 20
7.018291479003305
 30
0.0
 10
7.068583176227783
 20
7.011541584114008
 30
0.0
 10
7.091735845517139
 20
7.007680262767603
 30
0.0
 10
7.111027617315341
 20
7.00479168922471
 30
0.0
  0
SPLINE
  5
57
330
1F
100
AcDbEntity
  8
Layer 1
 62
     7
420
 16777215
370
    35
100
AcDbSpline
210
0.0
220
0.0
230
1.0
 70
    11
 71
     3
 72
    35
 73
    31
 74
     0
 42
0.0000000001
 43
0.0000000001
 12
1.0
 22
0.0
 32
0.0
 13
1.0
 23
0.0
 33
0.0
 40
0.0
 40
0.0
 40
0.0
 40
0.0
 40
1.0
 40
1.0
 40
1.0
 40
2.0
 40
2.0
 40
2.0
 40
3.0
 40
3.0
 40
3.0
 40
4.0
 40
4.0
 40
4.0
 40
5.0
 40
5.0
 40
5.0
 40
6.0
 40
6.0
 40
6.0
 40
7.0
 40
7.0
 40
7.0
 40
8.0
 40
8.0
 40
8.0
 40
9.0
 40
9.0
 40
9.0
 40
10.0
 40
10.0
 40
10.0
 40
10.0
 10
6.579597054552957
 20
6.994180472989008
 30
0.0
 10
6.662541712686804
 20
7.028902695239007
 30
0.0
 10
6.40116628523161
 20
6.95270835584971
 30
0.0
 10
6.319180387677958
 20
6.916055472926508
 30
0.0
 10
6.12145827041366
 20
6.826360919903363
 30
0.0
 10
5.952666393379754
 20
6.679749812065805
 30
0.0
 10
5.832110939453015
 20
6.500347142651449
 30
0.0
 10
5.74916670517442
 20
6.376888704103247
 30
0.0
 10
5.674902602603074
 20
6.232208256938891
 30
0.0
 10
5.64595795129411
 20
6.086569473049594
 30
0.0
 10
5.608346731645965
 20
5.899458148165747
 30
0.0
 10
5.595805278592312
 20
5.705583365024536
 30
0.0
 10
5.622805282004754
 20
5.515583466597796
 30
0.0
 10
5.626666603351159
 20
5.489541799910297
 30
0.0
 10
5.631485837567254
 20
5.462541796497855
 30
0.0
 10
5.63630507178335
 20
5.436500129810355
 30
0.0
 10
5.687430068433407
 20
5.185722355222797
 30
0.0
 10
5.817638401870908
 20
4.945569360239007
 30
0.0
 10
6.020180177206552
 20
4.790278120694202
 30
0.0
 10
6.272874625243994
 20
4.596416900921057
 30
0.0
 10
6.608527294783349
 20
4.512500342694202
 30
0.0
 10
6.923916292431494
 20
4.540472670054904
 30
0.0
 10
6.923916292431494
 20
4.540472670054904
 30
0.0
 10
6.052971738783349
 20
4.49418089484426
 30
0.0
 10
5.942055177144052
 20
5.495333781929904
 30
0.0
 10
5.942055177144052
 20
5.495333781929904
 30
0.0
 10
5.864888513806494
 20
6.016167115679904
 30
0.0
 10
6.026930072095849
 20
6.356639443290606
 30
0.0
 10
6.188971630385205
 20
6.697111770901309
 30
0.0
 10
6.288305499551043
 20
6.870722034440806
 30
0.0
 10
6.579597054552957
 20
6.994180472989008
 30
0.0
  0
SPLINE
  5
58
330
1F
100
AcDbEntity
  8
Layer 1
 62
     7
420
 16777215
370
    35
100
AcDbSpline
210
0.0
220
0.0
230
1.0
 70
     8
 71
     3
 72
    44
 73
    40
 74
     0
 42
0.0000000001
 43
0.0000000001
 12
1.0
 22
0.0
 32
0.0
 13
1.0
 23
0.0
 33
0.0
 40
0.0
 40
0.0
 40
0.0
 40
0.0
 40
1.0
 40
1.0
 40
1.0
 40
2.0
 40
2.0
 40
2.0
 40
3.0
 40
3.0
 40
3.0
 40
4.0
 40
4.0
 40
4.0
 40
5.0
 40
5.0
 40
5.0
 40
6.0
 40
6.0
 40
6.0
 40
7.0
 40
7.0
 40
7.0
 40
8.0
 40
8.0
 40
8.0
 40
9.0
 40
9.0
 40
9.0
 40
10.0
 40
10.0
 40
10.0
 40
11.0
 40
11.0
 40
11.0
 40
12.0
 40
12.0
 40
12.0
 40
13.0
 40
13.0
 40
13.0
 40
13.0
 10
6.553555387865457
 20
4.578083465847796
 30
0.0
 10
6.503402715163659
 20
4.587722358135239
 30
0.0
 10
6.454208379186804
 20
4.605083469260238
 30
0.0
 10
6.405027606578015
 20
4.619555582987094
 30
0.0
 10
6.26227739623161
 20
4.662000024074652
 30
0.0
 10
6.12145827041366
 20
4.753624813915748
 30
0.0
 10
6.00861104810116
 20
4.848139025010239
 30
0.0
 10
5.891902504442255
 20
4.945555796870941
 30
0.0
 10
5.794486156436804
 20
5.067083574745941
 30
0.0
 10
5.733722267499305
 20
5.206930800470883
 30
0.0
 10
5.663319486274363
 20
5.369930695485181
 30
0.0
 10
5.644027714476159
 20
5.551264025572738
 30
0.0
 10
5.647875048599246
 20
5.728722470945825
 30
0.0
 10
5.65076404599739
 20
5.89944458479768
 30
0.0
 10
5.673916715286746
 20
6.07015313528147
 30
0.0
 10
5.728889046059891
 20
6.232194693570825
 30
0.0
 10
5.778083382036746
 20
6.378805801408383
 30
0.0
 10
5.880319388113544
 20
6.512861468968969
 30
0.0
 10
5.984486054863543
 20
6.62668101522973
 30
0.0
 10
6.090583382286746
 20
6.742417234940375
 30
0.0
 10
6.225610949940341
 20
6.852375459854731
 30
0.0
 10
6.375111055176044
 20
6.907347790627875
 30
0.0
 10
6.352930709834949
 20
6.898667235065375
 30
0.0
 10
6.326889043147449
 20
6.865875673488578
 30
0.0
 10
6.310485844892138
 20
6.84947289908852
 30
0.0
 10
6.256471850843936
 20
6.795458905040316
 30
0.0
 10
6.207277514867081
 20
6.736625676776019
 30
0.0
 10
6.162916400329639
 20
6.673931127165317
 30
0.0
 10
6.018235953165283
 20
6.46945869115647
 30
0.0
 10
5.929499736867081
 20
6.228333796079673
 30
0.0
 10
5.905388730852783
 20
5.979486682165317
 30
0.0
 10
5.886096959054581
 20
5.777903243554614
 30
0.0
 10
5.899597172688428
 20
5.569569910054614
 30
0.0
 10
5.935291718886688
 20
5.370889456065375
 30
0.0
 10
5.960375048849246
 20
5.22911156966723
 30
0.0
 10
6.003777826661747
 20
5.08925035671897
 30
0.0
 10
6.078041929233093
 20
4.964834005301078
 30
0.0
 10
6.187027830199188
 20
4.783500675213519
 30
0.0
 10
6.361611265397449
 20
4.641722788815374
 30
0.0
 10
6.56222238005989
 20
4.574209004988577
 30
0.0
  0
SPLINE
  5
59
330
1F
100
AcDbEntity
  8
Layer 1
 62
     7
420
 16777215
370
    35
100
AcDbSpline
210
0.0
220
0.0
230
1.0
 70
     8
 71
     3
 72
    32
 73
    28
 74
     0
 42
0.0000000001
 43
0.0000000001
 12
1.0
 22
0.0
 32
0.0
 13
1.0
 23
0.0
 33
0.0
 40
0.0
 40
0.0
 40
0.0
 40
0.0
 40
1.0
 40
1.0
 40
1.0
 40
2.0
 40
2.0
 40
2.0
 40
3.0
 40
3.0
 40
3.0
 40
4.0
 40
4.0
 40
4.0
 40
5.0
 40
5.0
 40
5.0
 40
6.0
 40
6.0
 40
6.0
 40
7.0
 40
7.0
 40
7.0
 40
8.0
 40
8.0
 40
8.0
 40
9.0
 40
9.0
 40
9.0
 40
9.0
 10
6.264194493536746
 20
6.832138914699653
 30
0.0
 10
6.120485946465399
 20
6.729902908622854
 30
0.0
 10
5.992208273701102
 20
6.593902593165748
 30
0.0
 10
5.894791501840399
 20
6.448263809276449
 30
0.0
 10
5.813777504379755
 20
6.327694368126392
 30
0.0
 10
5.744333059879755
 20
6.192666800472796
 30
0.0
 10
5.711541498302958
 20
6.050888914074652
 30
0.0
 10
5.634374834965399
 20
5.718138805301508
 30
0.0
 10
5.681638510269052
 20
5.336194360551508
 30
0.0
 10
5.86972215910116
 20
5.046833466222797
 30
0.0
 10
5.985458378811805
 20
4.868403120756701
 30
0.0
 10
6.148458273826102
 20
4.738194787319202
 30
0.0
 10
6.34715271503866
 20
4.661027700126391
 30
0.0
 10
6.157138829388602
 20
4.789305372890689
 30
0.0
 10
6.011500045499305
 20
4.983166592663833
 30
0.0
 10
5.944958161765515
 20
5.202111142399536
 30
0.0
 10
5.92277781642442
 20
5.273486247572738
 30
0.0
 10
5.909277602790573
 20
5.346791589563892
 30
0.0
 10
5.89769406260661
 20
5.421055692135239
 30
0.0
 10
5.869721735245908
 20
5.596597464058441
 30
0.0
 10
5.847541389904813
 20
5.778889130870941
 30
0.0
 10
5.865860837754755
 20
5.957319476337037
 30
0.0
 10
5.884180285604697
 20
6.136722145751392
 30
0.0
 10
5.936263618979697
 20
6.311291593726334
 30
0.0
 10
6.009568960970849
 20
6.475263812688891
 30
0.0
 10
6.07033284990835
 20
6.61222204101569
 30
0.0
 10
6.149416186695792
 20
6.746291695799594
 30
0.0
 10
6.270943964570792
 20
6.834055588149536
 30
0.0
  0
SPLINE
  5
5A
330
1F
100
AcDbEntity
  8
Layer 1
 62
     7
420
 16777215
370
    35
100
AcDbSpline
210
0.0
220
0.0
230
1.0
 70
    11
 71
     3
 72
    17
 73
    13
 74
     0
 42
0.0000000001
 43
0.0000000001
 12
1.0
 22
0.0
 32
0.0
 13
1.0
 23
0.0
 33
0.0
 40
0.0
 40
0.0
 40
0.0
 40
0.0
 40
1.0
 40
1.0
 40
1.0
 40
2.0
 40
2.0
 40
2.0
 40
3.0
 40
3.0
 40
3.0
 40
4.0
 40
4.0
 40
4.0
 40
4.0
 10
6.174499940513602
 20
4.770985925040747
 30
0.0
 10
5.907333378749304
 20
4.960027486742544
 30
0.0
 10
5.734680604224247
 20
5.303388811751391
 30
0.0
 10
5.717319493099247
 20
5.662194150580103
 30
0.0
 10
5.700916718699188
 20
6.003624814915747
 30
0.0
 10
5.817625262358093
 20
6.351819361364008
 30
0.0
 10
6.045249943801044
 20
6.606444046219401
 30
0.0
 10
5.861999940263602
 20
6.3286662682194
 30
0.0
 10
5.799305390652899
 20
5.997846820119458
 30
0.0
 10
5.816666501777899
 20
5.665083147978248
 30
0.0
 10
5.835958273576102
 20
5.326541481040747
 30
0.0
 10
5.955555390777899
 20
5.005360925228247
 30
0.0
 10
6.174499940513602
 20
4.770985925040747
 30
0.0
  0
SPLINE
  5
5B
330
1F
100
AcDbEntity
  8
Layer 1
 62
     7
420
 16777215
370
    35
100
AcDbSpline
210
0.0
220
0.0
230
1.0
 70
     8
 71
     3
 72
     8
 73
     4
 74
     0
 42
0.0000000001
 43
0.0000000001
 12
1.0
 22
0.0
 32
0.0
 13
1.0
 23
0.0
 33
0.0
 40
0.0
 40
0.0
 40
0.0
 40
0.0
 40
1.0
 40
1.0
 40
1.0
 40
1.0
 10
5.834985949627841
 20
6.210027911597797
 30
0.0
 10
5.834985949627841
 20
6.210027911597797
 30
0.0
 10
5.576499943426044
 20
5.638069581197739
 30
0.0
 10
5.977735736118994
 20
4.991861135449652
 30
0.0
  0
SPLINE
  5
5C
330
1F
100
AcDbEntity
  8
Layer 1
 62
     7
420
 16777215
370
    35
100
AcDbSpline
210
0.0
220
0.0
230
1.0
 70
    11
 71
     3
 72
    23
 73
    19
 74
     0
 42
0.0000000001
 43
0.0000000001
 12
1.0
 22
0.0
 32
0.0
 13
1.0
 23
0.0
 33
0.0
 40
0.0
 40
0.0
 40
0.0
 40
0.0
 40
1.0
 40
1.0
 40
1.0
 40
2.0
 40
2.0
 40
2.0
 40
3.0
 40
3.0
 40
3.0
 40
4.0
 40
4.0
 40
4.0
 40
5.0
 40
5.0
 40
5.0
 40
6.0
 40
6.0
 40
6.0
 40
6.0
 10
7.272110838879755
 20
6.94305547633895
 30
0.0
 10
7.369527186885205
 20
6.887111245472797
 30
0.0
 10
7.449583271476159
 20
6.804166587338949
 30
0.0
 10
7.51034716041366
 20
6.710611136824652
 30
0.0
 10
7.57111104935116
 20
6.617055686310355
 30
0.0
 10
7.61451382716366
 20
6.511916695612094
 30
0.0
 10
7.646347052015515
 20
6.40486103146395
 30
0.0
 10
7.628985940890515
 20
6.560152694864008
 30
0.0
 10
7.618375148510065
 20
6.715430371040747
 30
0.0
 10
7.618375148510065
 20
6.871680371165747
 30
0.0
 10
7.610652505817255
 20
6.852388599367544
 30
0.0
 10
7.58847216047616
 20
6.841777383131842
 30
0.0
 10
7.567249728004755
 20
6.837916485640689
 30
0.0
 10
7.514208481760065
 20
6.828277593353247
 30
0.0
 10
7.461152824436804
 20
6.851416275419284
 30
0.0
 10
7.413888725277899
 20
6.877457942106784
 30
0.0
 10
7.367596950067255
 20
6.903514019872855
 30
0.0
 10
7.325152932834949
 20
6.932444260103247
 30
0.0
 10
7.272110838879755
 20
6.94305547633895
 30
0.0
  0
SPLINE
  5
5D
330
1F
100
AcDbEntity
  8
Layer 1
 62
     7
420
 16777215
370
    35
100
AcDbSpline
210
0.0
220
0.0
230
1.0
 70
    11
 71
     3
 72
    17
 73
    13
 74
     0
 42
0.0000000001
 43
0.0000000001
 12
1.0
 22
0.0
 32
0.0
 13
1.0
 23
0.0
 33
0.0
 40
0.0
 40
0.0
 40
0.0
 40
0.0
 40
1.0
 40
1.0
 40
1.0
 40
2.0
 40
2.0
 40
2.0
 40
3.0
 40
3.0
 40
3.0
 40
4.0
 40
4.0
 40
4.0
 40
4.0
 10
7.445721950129755
 20
6.837930472864008
 30
0.0
 10
7.516124307499445
 20
6.763666794147912
 30
0.0
 10
7.573041286169111
 20
6.676861238522912
 30
0.0
 10
7.610652505817255
 20
6.581375127335413
 30
0.0
 10
7.601971950254755
 20
6.655638806051508
 30
0.0
 10
7.590402397294111
 20
6.732805893244318
 30
0.0
 10
7.581721841731611
 20
6.806111235235471
 30
0.0
 10
7.56340281773692
 20
6.798389016397913
 30
0.0
 10
7.542180385265516
 20
6.803222237837326
 30
0.0
 10
7.523846950192254
 20
6.810930469451566
 30
0.0
 10
7.496832959556494
 20
6.820569361739008
 30
0.0
 10
7.470791292868994
 20
6.825389019810355
 30
0.0
 10
7.445721950129755
 20
6.837930472864008
 30
0.0
  0
SPLINE
  5
5E
330
1F
100
AcDbEntity
  8
Layer 1
 62
     7
420
 16777215
370
    35
100
AcDbSpline
210
0.0
220
0.0
230
1.0
 70
    11
 71
     3
 72
    14
 73
    10
 74
     0
 42
0.0000000001
 43
0.0000000001
 12
1.0
 22
0.0
 32
0.0
 13
1.0
 23
0.0
 33
0.0
 40
0.0
 40
0.0
 40
0.0
 40
0.0
 40
1.0
 40
1.0
 40
1.0
 40
2.0
 40
2.0
 40
2.0
 40
3.0
 40
3.0
 40
3.0
 40
3.0
 10
7.571097485983094
 20
6.704819578660297
 30
0.0
 10
7.555666611676044
 20
6.733750242745941
 30
0.0
 10
7.537333176602783
 20
6.760764233381702
 30
0.0
 10
7.518056239738403
 20
6.786805900069202
 30
0.0
 10
7.529625792699048
 20
6.781014341904847
 30
0.0
 10
7.544097906425903
 20
6.775236347108557
 30
0.0
 10
7.557597696204498
 20
6.773306110290607
 30
0.0
 10
7.559527933022449
 20
6.747264019747854
 30
0.0
 10
7.564347167238544
 20
6.729902908622854
 30
0.0
 10
7.571097485983094
 20
6.704819578660297
 30
0.0
  0
SPLINE
  5
5F
330
1F
100
AcDbEntity
  8
Layer 1
 62
     7
420
 16777215
370
    35
100
AcDbSpline
210
0.0
220
0.0
230
1.0
 70
     8
 71
     3
 72
    29
 73
    25
 74
     0
 42
0.0000000001
 43
0.0000000001
 12
1.0
 22
0.0
 32
0.0
 13
1.0
 23
0.0
 33
0.0
 40
0.0
 40
0.0
 40
0.0
 40
0.0
 40
1.0
 40
1.0
 40
1.0
 40
2.0
 40
2.0
 40
2.0
 40
3.0
 40
3.0
 40
3.0
 40
4.0
 40
4.0
 40
4.0
 40
5.0
 40
5.0
 40
5.0
 40
6.0
 40
6.0
 40
6.0
 40
7.0
 40
7.0
 40
7.0
 40
8.0
 40
8.0
 40
8.0
 40
8.0
 10
6.950930706922507
 20
7.592166482853247
 30
0.0
 10
6.734875154584949
 20
7.629777702501392
 30
0.0
 10
6.513042031306354
 20
7.583485927290747
 30
0.0
 10
6.304708697806354
 20
7.530444257190805
 30
0.0
 10
5.996070018902759
 20
7.450388596455102
 30
0.0
 10
5.713472582831412
 20
7.296069257003305
 30
0.0
 10
5.485847477533209
 20
7.071333149103247
 30
0.0
 10
5.428944909942114
 20
7.015388494381842
 30
0.0
 10
5.376861576567114
 20
6.954624605444342
 30
0.0
 10
5.327666816735007
 20
6.891930479688892
 30
0.0
 10
4.999736366033209
 20
6.459833362237094
 30
0.0
 10
4.879166924883151
 20
5.891735929328189
 30
0.0
 10
4.997805705360006
 20
5.361263703290748
 30
0.0
 10
5.078819702820652
 20
4.997638706390689
 30
0.0
 10
5.282333378249304
 20
4.657180366003305
 30
0.0
 10
5.581333588720709
 20
4.435333255501392
 30
0.0
 10
5.637278243442115
 20
4.392888814413833
 30
0.0
 10
5.697069808431354
 20
4.355277594765689
 30
0.0
 10
5.756875360643912
 20
4.318624711842487
 30
0.0
 10
5.993181021504614
 20
4.171055267279987
 30
0.0
 10
6.245875469542057
 20
4.064958363712036
 30
0.0
 10
6.523653247542057
 20
4.021555585899536
 30
0.0
 10
6.741625473329498
 20
3.986833363649536
 30
0.0
 10
6.959611686340259
 20
4.000333153428131
 30
0.0
 10
7.17855581222071
 20
4.020597673029846
 30
0.0
  0
SPLINE
  5
60
330
1F
100
AcDbEntity
  8
Layer 1
 62
     7
420
 16777215
370
    35
100
AcDbSpline
210
0.0
220
0.0
230
1.0
 70
     8
 71
     3
 72
    14
 73
    10
 74
     0
 42
0.0000000001
 43
0.0000000001
 12
1.0
 22
0.0
 32
0.0
 13
1.0
 23
0.0
 33
0.0
 40
0.0
 40
0.0
 40
0.0
 40
0.0
 40
1.0
 40
1.0
 40
1.0
 40
2.0
 40
2.0
 40
2.0
 40
3.0
 40
3.0
 40
3.0
 40
3.0
 10
6.348111051763602
 20
4.057250132097797
 30
0.0
 10
6.348111051763602
 20
4.057250132097797
 30
0.0
 10
5.523458273326102
 20
4.28390333730299
 30
0.0
 10
5.238930600436804
 20
5.103736033813892
 30
0.0
 10
4.954402927547506
 20
5.923569578035297
 30
0.0
 10
5.195527822624304
 20
6.405819368188892
 30
0.0
 10
5.388430705672507
 20
6.772333362487094
 30
0.0
 10
5.581333588720709
 20
7.138847356785297
 30
0.0
 10
6.213083484110006
 20
7.703083468347796
 30
0.0
 10
7.105250046374304
 20
7.56805547683895
 30
0.0
  0
SPLINE
  5
61
330
1F
100
AcDbEntity
  8
Layer 1
 62
     7
420
 16777215
370
    35
100
AcDbSpline
210
0.0
220
0.0
230
1.0
 70
    11
 71
     3
 72
    53
 73
    49
 74
     0
 42
0.0000000001
 43
0.0000000001
 12
1.0
 22
0.0
 32
0.0
 13
1.0
 23
0.0
 33
0.0
 40
0.0
 40
0.0
 40
0.0
 40
0.0
 40
1.0
 40
1.0
 40
1.0
 40
2.0
 40
2.0
 40
2.0
 40
3.0
 40
3.0
 40
3.0
 40
4.0
 40
4.0
 40
4.0
 40
5.0
 40
5.0
 40
5.0
 40
6.0
 40
6.0
 40
6.0
 40
7.0
 40
7.0
 40
7.0
 40
8.0
 40
8.0
 40
8.0
 40
9.0
 40
9.0
 40
9.0
 40
10.0
 40
10.0
 40
10.0
 40
11.0
 40
11.0
 40
11.0
 40
12.0
 40
12.0
 40
12.0
 40
13.0
 40
13.0
 40
13.0
 40
14.0
 40
14.0
 40
14.0
 40
15.0
 40
15.0
 40
15.0
 40
16.0
 40
16.0
 40
16.0
 40
16.0
 10
5.988347376209949
 20
7.403124921151449
 30
0.0
 10
5.944944598397448
 20
7.377083254463949
 30
0.0
 10
5.902500157309891
 20
7.351041587776449
 30
0.0
 10
5.860069703445651
 20
7.323069260415747
 30
0.0
 10
5.813777928235007
 20
7.293166272381842
 30
0.0
 10
5.764583592258151
 20
7.269055266367545
 30
0.0
 10
5.719250153772449
 20
7.23722204151569
 30
0.0
 10
5.672958378561805
 20
7.205388816663834
 30
0.0
 10
5.628583276801044
 20
7.170666594413833
 30
0.0
 10
5.586152822936804
 20
7.133055374765689
 30
0.0
 10
5.502236264709949
 20
7.059750032774536
 30
0.0
 10
5.42701382541366
 20
6.975847037915747
 30
0.0
 10
5.360458378311804
 20
6.886138921524537
 30
0.0
 10
5.315124939826101
 20
6.824416695862094
 30
0.0
 10
5.273652822686804
 20
6.758819585485181
 30
0.0
 10
5.236999939763602
 20
6.691305377803131
 30
0.0
 10
5.180096948317255
 20
6.587138711053131
 30
0.0
 10
5.134763933686804
 20
6.477180486138776
 30
0.0
 10
5.098111050763602
 20
6.364333263826276
 30
0.0
 10
5.061458167840399
 20
6.249555380840573
 30
0.0
 10
5.027708269538659
 20
6.129958263638776
 30
0.0
 10
5.007444597647448
 20
6.010361146436979
 30
0.0
 10
4.950542030056353
 20
5.674708476897623
 30
0.0
 10
5.021916711374304
 20
5.294694692820825
 30
0.0
 10
5.174305814008151
 20
4.991847148226333
 30
0.0
 10
5.301625150047506
 20
4.738180376240631
 30
0.0
 10
5.502236264709949
 20
4.487416588876392
 30
0.0
 10
5.754944699970709
 20
4.346597039203189
 30
0.0
 10
5.721180814445652
 20
4.364916487053131
 30
0.0
 10
5.690319489686805
 20
4.395791375180044
 30
0.0
 10
5.661389249456412
 20
4.420861141774536
 30
0.0
 10
5.503208588658209
 20
4.559750030774536
 30
0.0
 10
5.378791813385065
 20
4.728541907808442
 30
0.0
 10
5.283305702197564
 20
4.915652808837036
 30
0.0
 10
5.08751424560647
 20
5.30048625098518
 30
0.0
 10
5.00938924554397
 20
5.788527599303131
 30
0.0
 10
5.12223646785647
 20
6.209055587649536
 30
0.0
 10
5.154069692708325
 20
6.326722044178132
 30
0.0
 10
5.195542233702874
 20
6.442472251112094
 30
0.0
 10
5.248583479947564
 20
6.552416488803131
 30
0.0
 10
5.29777781592442
 20
6.655624818828189
 30
0.0
 10
5.336347372297507
 20
6.757860824904987
 30
0.0
 10
5.40001424585647
 20
6.853346936092486
 30
0.0
 10
5.480069906592172
 20
6.973916377242545
 30
0.0
 10
5.581347575944028
 20
7.085791275606784
 30
0.0
 10
5.690333900765375
 20
7.181277386794284
 30
0.0
 10
5.782902616252842
 20
7.26423603215145
 30
0.0
 10
5.882250048786746
 20
7.339472034815805
 30
0.0
 10
5.988347376209949
 20
7.403124921151449
 30
0.0
  0
SPLINE
  5
62
330
1F
100
AcDbEntity
  8
Layer 1
 62
     7
420
 16777215
370
    35
100
AcDbSpline
210
0.0
220
0.0
230
1.0
 70
     8
 71
     3
 72
    17
 73
    13
 74
     0
 42
0.0000000001
 43
0.0000000001
 12
1.0
 22
0.0
 32
0.0
 13
1.0
 23
0.0
 33
0.0
 40
0.0
 40
0.0
 40
0.0
 40
0.0
 40
1.0
 40
1.0
 40
1.0
 40
2.0
 40
2.0
 40
2.0
 40
3.0
 40
3.0
 40
3.0
 40
4.0
 40
4.0
 40
4.0
 40
4.0
 10
5.492597372422507
 20
4.566513912887152
 30
0.0
 10
5.401930919306354
 20
4.653319468512152
 30
0.0
 10
5.324777819336862
 20
4.779666480603247
 30
0.0
 10
5.261111369633151
 20
4.887694468699652
 30
0.0
 10
5.149222484045593
 20
5.07770835434971
 30
0.0
 10
5.102930708834949
 20
5.264819679233558
 30
0.0
 10
5.063389252368854
 20
5.478930583674594
 30
0.0
 10
5.035416925008152
 20
5.630360925728247
 30
0.0
 10
5.028667030118854
 20
5.786610925853247
 30
0.0
 10
5.042166819897449
 20
5.939958365212036
 30
0.0
 10
5.078819702820652
 20
6.366263924499478
 30
0.0
 10
5.276541820084949
 20
6.757861248760238
 30
0.0
 10
5.552388937411746
 20
7.080000141297681
 30
0.0
  0
ENDSEC
  0
SECTION
  2
OBJECTS
  0
DICTIONARY
  5
C
330
0
100
AcDbDictionary
281
     1
  3
ACAD_GROUP
350
D
  3
ACAD_LAYOUT
350
1A
  3
ACAD_MATERIAL
350
3B
  3
ACAD_MLEADERSTYLE
350
64
  3
ACAD_MLINESTYLE
350
17
  3
ACAD_PLOTSETTINGS
350
19
  3
ACAD_PLOTSTYLENAME
350
E
  3
ACAD_TABLESTYLE
350
63
  3
ACAD_VISUALSTYLE
350
2A
  0
SUN
  5
3F
330
29
100
AcDbSun
 90
        1
290
     0
 63
     7
421
 16777215
 40
1.0
291
     1
 91
  2455826
 92
 54000000
292
     0
 70
     2
 71
   256
280
     1
  0
DICTIONARY
  5
D
102
{ACAD_REACTORS
330
C
102
}
330
C
100
AcDbDictionary
281
     1
  0
DICTIONARY
  5
1A
102
{ACAD_REACTORS
330
C
102
}
330
C
100
AcDbDictionary
281
     1
  3
Layout1
350
1E
  3
Layout2
350
26
  3
Model
350
22
  0
DICTIONARY
  5
3B
102
{ACAD_REACTORS
330
C
102
}
330
C
100
AcDbDictionary
281
     1
  3
ByBlock
350
3D
  3
ByLayer
350
3C
  3
Global
350
3E
  0
DICTIONARY
  5
64
102
{ACAD_REACTORS
330
C
102
}
330
C
100
AcDbDictionary
281
     1
  0
DICTIONARY
  5
17
102
{ACAD_REACTORS
330
C
102
}
330
C
100
AcDbDictionary
281
     1
  3
Standard
350
18
  0
DICTIONARY
  5
19
102
{ACAD_REACTORS
330
C
102
}
330
C
100
AcDbDictionary
281
     1
  0
ACDBDICTIONARYWDFLT
  5
E
102
{ACAD_REACTORS
330
C
102
}
330
C
100
AcDbDictionary
281
     1
  3
Normal
350
F
100
AcDbDictionaryWithDefault
340
F
  0
DICTIONARY
  5
63
102
{ACAD_REACTORS
330
C
102
}
330
C
100
AcDbDictionary
281
     1
  0
DICTIONARY
  5
2A
102
{ACAD_REACTORS
330
C
102
}
330
C
100
AcDbDictionary
281
     1
  3
2dWireframe
350
2F
  3
3D Hidden
350
31
  3
3dWireframe
350
30
  3
Basic
350
32
  3
Brighten
350
36
  3
ColorChange
350
3A
  3
Conceptual
350
34
  3
Dim
350
35
  3
Facepattern
350
39
  3
Flat
350
2B
  3
FlatWithEdges
350
2C
  3
Gouraud
350
2D
  3
GouraudWithEdges
350
2E
  3
Linepattern
350
38
  3
Realistic
350
33
  3
Thicken
350
37
  0
LAYOUT
  5
1E
102
{ACAD_REACTORS
330
1A
102
}
330
1A
100
AcDbPlotSettings
  1

  2
none_device
  4

  6

 40
0.0
 41
0.0
 42
0.0
 43
0.0
 44
0.0
 45
0.0
 46
0.0
 47
0.0
 48
0.0
 49
0.0
140
0.0
141
0.0
142
1.0
143
1.0
 70
   688
 72
     0
 73
     0
 74
     5
  7

 75
    16
 76
     0
 77
     2
 78
   300
147
1.0
148
0.0
149
0.0
100
AcDbLayout
  1
Layout1
 70
     1
 71
     1
 10
0.0
 20
0.0
 11
12.0
 21
9.0
 12
0.0
 22
0.0
 32
0.0
 14
1.000000000000000E+20
 24
1.000000000000000E+20
 34
1.000000000000000E+20
 15
-1.000000000000000E+20
 25
-1.000000000000000E+20
 35
-1.000000000000000E+20
146
0.0
 13
0.0
 23
0.0
 33
0.0
 16
1.0
 26
0.0
 36
0.0
 17
0.0
 27
1.0
 37
0.0
 76
     0
330
1B
  0
LAYOUT
  5
26
102
{ACAD_REACTORS
330
1A
102
}
330
1A
100
AcDbPlotSettings
  1

  2
none_device
  4

  6

 40
0.0
 41
0.0
 42
0.0
 43
0.0
 44
0.0
 45
0.0
 46
0.0
 47
0.0
 48
0.0
 49
0.0
140
0.0
141
0.0
142
1.0
143
1.0
 70
   688
 72
     0
 73
     0
 74
     5
  7

 75
    16
 76
     0
 77
     2
 78
   300
147
1.0
148
0.0
149
0.0
100
AcDbLayout
  1
Layout2
 70
     1
 71
     2
 10
0.0
 20
0.0
 11
0.0
 21
0.0
 12
0.0
 22
0.0
 32
0.0
 14
0.0
 24
0.0
 34
0.0
 15
0.0
 25
0.0
 35
0.0
146
0.0
 13
0.0
 23
0.0
 33
0.0
 16
1.0
 26
0.0
 36
0.0
 17
0.0
 27
1.0
 37
0.0
 76
     0
330
23
  0
LAYOUT
  5
22
102
{ACAD_REACTORS
330
1A
102
}
330
1A
100
AcDbPlotSettings
  1

  2
none_device
  4

  6

 40
0.0
 41
0.0
 42
0.0
 43
0.0
 44
0.0
 45
0.0
 46
0.0
 47
0.0
 48
0.0
 49
0.0
140
0.0
141
0.0
142
1.0
143
1.0
 70
  1712
 72
     0
 73
     0
 74
     0
  7

 75
     0
 76
     0
 77
     2
 78
   300
147
1.0
148
0.0
149
0.0
100
AcDbLayout
  1
Model
 70
     1
 71
     0
 10
0.0
 20
0.0
 11
12.0
 21
9.0
 12
0.0
 22
0.0
 32
0.0
 14
1.000000000000000E+20
 24
1.000000000000000E+20
 34
1.000000000000000E+20
 15
-1.000000000000000E+20
 25
-1.000000000000000E+20
 35
-1.000000000000000E+20
146
0.0
 13
0.0
 23
0.0
 33
0.0
 16
1.0
 26
0.0
 36
0.0
 17
0.0
 27
1.0
 37
0.0
 76
     0
330
1F
331
29
  0
MATERIAL
  5
3D
102
{ACAD_REACTORS
330
3B
102
}
330
3B
100
AcDbMaterial
  1
ByBlock
 72
     1
 94
      127
  0
MATERIAL
  5
3C
102
{ACAD_REACTORS
330
3B
102
}
330
3B
100
AcDbMaterial
  1
ByLayer
 72
     1
 94
      127
  0
MATERIAL
  5
3E
102
{ACAD_REACTORS
330
3B
102
}
330
3B
100
AcDbMaterial
  1
Global
 72
     1
 94
      127
  0
MLINESTYLE
  5
18
102
{ACAD_REACTORS
330
17
102
}
330
17
100
AcDbMlineStyle
  2
Standard
 70
     0
  3

 62
   256
 51
90.0
 52
90.0
 71
     2
 49
0.5
 62
   256
  6
BYLAYER
 49
-0.5
 62
   256
  6
BYLAYER
  0
ACDBPLACEHOLDER
  5
F
102
{ACAD_REACTORS
330
E
102
}
330
E
  0
VISUALSTYLE
  5
2F
102
{ACAD_REACTORS
330
2A
102
}
330
2A
100
AcDbVisualStyle
  2
2dWireframe
 70
     4
177
     2
291
     0
 71
     0
176
     1
 72
     2
176
     1
 73
     0
176
     1
 90
        0
176
     1
 40
-0.6
176
     1
 41
-30.0
176
     1
 62
     5
 63
     7
421
 16777215
176
     1
 74
     1
176
     1
 91
        4
176
     1
 64
     7
176
     1
 65
   257
176
     1
 75
     1
176
     1
175
     1
176
     1
 42
1.0
176
     1
 92
        0
176
     1
 66
   257
176
     1
 43
1.0
176
     1
 76
     1
176
     1
 77
     6
176
     1
 78
     2
176
     1
 67
     7
176
     1
 79
     5
176
     1
170
     0
176
     1
171
     0
176
     1
290
     0
176
     1
 93
        1
176
     1
 44
0.0
176
     1
173
     0
176
     1
  0
VISUALSTYLE
  5
31
102
{ACAD_REACTORS
330
2A
102
}
330
2A
100
AcDbVisualStyle
  2
3D Hidden
 70
     6
177
     2
291
     0
 71
     1
176
     1
 72
     2
176
     1
 73
     2
176
     1
 90
        0
176
     1
 40
-0.6
176
     1
 41
-30.0
176
     1
 62
     5
 63
     7
421
 16777215
176
     1
 74
     2
176
     1
 91
        2
176
     1
 64
     7
176
     1
 65
   257
176
     1
 75
     2
176
     1
175
     1
176
     1
 42
40.0
176
     1
 92
        0
176
     1
 66
   257
176
     1
 43
1.0
176
     1
 76
     1
176
     1
 77
     6
176
     1
 78
     2
176
     1
 67
     7
176
     1
 79
     3
176
     1
170
     0
176
     1
171
     0
176
     1
290
     0
176
     1
 93
        1
176
     1
 44
0.0
176
     1
173
     0
176
     1
  0
VISUALSTYLE
  5
30
102
{ACAD_REACTORS
330
2A
102
}
330
2A
100
AcDbVisualStyle
  2
3dWireframe
 70
     5
177
     2
291
     0
 71
     0
176
     1
 72
     2
176
     1
 73
     0
176
     1
 90
        0
176
     1
 40
-0.6
176
     1
 41
-30.0
176
     1
 62
     5
 63
     7
421
 16777215
176
     1
 74
     1
176
     1
 91
        4
176
     1
 64
     7
176
     1
 65
   257
176
     1
 75
     1
176
     1
175
     1
176
     1
 42
1.0
176
     1
 92
        0
176
     1
 66
   257
176
     1
 43
1.0
176
     1
 76
     1
176
     1
 77
     6
176
     1
 78
     2
176
     1
 67
     7
176
     1
 79
     5
176
     1
170
     0
176
     1
171
     0
176
     1
290
     0
176
     1
 93
        1
176
     1
 44
0.0
176
     1
173
     0
176
     1
  0
VISUALSTYLE
  5
32
102
{ACAD_REACTORS
330
2A
102
}
330
2A
100
AcDbVisualStyle
  2
Basic
 70
     7
177
     2
291
     1
 71
     1
176
     1
 72
     0
176
     1
 73
     1
176
     1
 90
        0
176
     1
 40
-0.6
176
     1
 41
-30.0
176
     1
 62
     5
 63
     7
421
 16777215
176
     1
 74
     0
176
     1
 91
        4
176
     1
 64
     7
176
     1
 65
   257
176
     1
 75
     1
176
     1
175
     1
176
     1
 42
1.0
176
     1
 92
        8
176
     1
 66
     7
176
     1
 43
1.0
176
     1
 76
     1
176
     1
 77
     6
176
     1
 78
     2
176
     1
 67
     7
176
     1
 79
     5
176
     1
170
     0
176
     1
171
     0
176
     1
290
     0
176
     1
 93
        1
176
     1
 44
0.0
176
     1
173
     0
176
     1
  0
VISUALSTYLE
  5
36
102
{ACAD_REACTORS
330
2A
102
}
330
2A
100
AcDbVisualStyle
  2
Brighten
 70
    12
177
     2
291
     1
 71
     2
176
     1
 72
     2
176
     1
 73
     0
176
     1
 90
        0
176
     1
 40
-0.6
176
     1
 41
-30.0
176
     1
 62
     5
 63
     7
421
 16777215
176
     1
 74
     1
176
     1
 91
        4
176
     1
 64
     7
176
     1
 65
   257
176
     1
 75
     1
176
     1
175
     1
176
     1
 42
1.0
176
     1
 92
        8
176
     1
 66
     7
176
     1
 43
1.0
176
     1
 76
     1
176
     1
 77
     6
176
     1
 78
     2
176
     1
 67
     7
176
     1
 79
     5
176
     1
170
     0
176
     1
171
     0
176
     1
290
     0
176
     1
 93
        1
176
     1
 44
50.0
176
     1
173
     0
176
     1
  0
VISUALSTYLE
  5
3A
102
{ACAD_REACTORS
330
2A
102
}
330
2A
100
AcDbVisualStyle
  2
ColorChange
 70
    16
177
     2
291
     1
 71
     2
176
     1
 72
     2
176
     1
 73
     3
176
     1
 90
        0
176
     1
 40
-0.6
176
     1
 41
-30.0
176
     1
 62
     5
 63
     8
421
  8421504
176
     1
 74
     1
176
     1
 91
        4
176
     1
 64
     7
176
     1
 65
   257
176
     1
 75
     1
176
     1
175
     1
176
     1
 42
1.0
176
     1
 92
        8
176
     1
 66
     8
424
  8421504
176
     1
 43
1.0
176
     1
 76
     1
176
     1
 77
     6
176
     1
 78
     2
176
     1
 67
     7
176
     1
 79
     5
176
     1
170
     0
176
     1
171
     0
176
     1
290
     0
176
     1
 93
        1
176
     1
 44
0.0
176
     1
173
     0
176
     1
  0
VISUALSTYLE
  5
34
102
{ACAD_REACTORS
330
2A
102
}
330
2A
100
AcDbVisualStyle
  2
Conceptual
 70
     9
177
     2
291
     0
 71
     3
176
     1
 72
     2
176
     1
 73
     0
176
     1
 90
        0
176
     1
 40
-0.6
176
     1
 41
-30.0
176
     1
 62
     5
 63
     7
421
 16777215
176
     1
 74
     2
176
     1
 91
        2
176
     1
 64
     7
176
     1
 65
   257
176
     1
 75
     1
176
     1
175
     1
176
     1
 42
40.0
176
     1
 92
        8
176
     1
 66
     7
176
     1
 43
1.0
176
     1
 76
     1
176
     1
 77
     6
176
     1
 78
     2
176
     1
 67
     7
176
     1
 79
     3
176
     1
170
     0
176
     1
171
     0
176
     1
290
     0
176
     1
 93
        1
176
     1
 44
0.0
176
     1
173
     0
176
     1
  0
VISUALSTYLE
  5
35
102
{ACAD_REACTORS
330
2A
102
}
330
2A
100
AcDbVisualStyle
  2
Dim
 70
    11
177
     2
291
     1
 71
     2
176
     1
 72
     2
176
     1
 73
     0
176
     1
 90
        0
176
     1
 40
-0.6
176
     1
 41
-30.0
176
     1
 62
     5
 63
     7
421
 16777215
176
     1
 74
     1
176
     1
 91
        4
176
     1
 64
     7
176
     1
 65
   257
176
     1
 75
     1
176
     1
175
     1
176
     1
 42
1.0
176
     1
 92
        8
176
     1
 66
     7
176
     1
 43
1.0
176
     1
 76
     1
176
     1
 77
     6
176
     1
 78
     2
176
     1
 67
     7
176
     1
 79
     5
176
     1
170
     0
176
     1
171
     0
176
     1
290
     0
176
     1
 93
        1
176
     1
 44
-50.0
176
     1
173
     0
176
     1
  0
VISUALSTYLE
  5
39
102
{ACAD_REACTORS
330
2A
102
}
330
2A
100
AcDbVisualStyle
  2
Facepattern
 70
    15
177
     2
291
     1
 71
     2
176
     1
 72
     2
176
     1
 73
     0
176
     1
 90
        0
176
     1
 40
-0.6
176
     1
 41
-30.0
176
     1
 62
     5
 63
     7
421
 16777215
176
     1
 74
     1
176
     1
 91
        4
176
     1
 64
     7
176
     1
 65
   257
176
     1
 75
     1
176
     1
175
     1
176
     1
 42
1.0
176
     1
 92
        8
176
     1
 66
     7
176
     1
 43
1.0
176
     1
 76
     1
176
     1
 77
     6
176
     1
 78
     2
176
     1
 67
     7
176
     1
 79
     5
176
     1
170
     0
176
     1
171
     0
176
     1
290
     0
176
     1
 93
        1
176
     1
 44
0.0
176
     1
173
     0
176
     1
  0
VISUALSTYLE
  5
2B
102
{ACAD_REACTORS
330
2A
102
}
330
2A
100
AcDbVisualStyle
  2
Flat
 70
     0
177
     2
291
     1
 71
     2
176
     1
 72
     1
176
     1
 73
     1
176
     1
 90
        2
176
     1
 40
-0.6
176
     1
 41
30.0
176
     1
 62
     5
 63
     7
421
 16777215
176
     1
 74
     0
176
     1
 91
        4
176
     1
 64
     7
176
     1
 65
   257
176
     1
 75
     1
176
     1
175
     1
176
     1
 42
1.0
176
     1
 92
        8
176
     1
 66
     7
176
     1
 43
1.0
176
     1
 76
     1
176
     1
 77
     6
176
     1
 78
     2
176
     1
 67
     7
176
     1
 79
     5
176
     1
170
     0
176
     1
171
     0
176
     1
290
     0
176
     1
 93
       13
176
     1
 44
0.0
176
     1
173
     0
176
     1
  0
VISUALSTYLE
  5
2C
102
{ACAD_REACTORS
330
2A
102
}
330
2A
100
AcDbVisualStyle
  2
FlatWithEdges
 70
     1
177
     2
291
     1
 71
     2
176
     1
 72
     1
176
     1
 73
     1
176
     1
 90
        2
176
     1
 40
-0.6
176
     1
 41
30.0
176
     1
 62
     5
 63
     7
421
 16777215
176
     1
 74
     1
176
     1
 91
        4
176
     1
 64
     7
176
     1
 65
   257
176
     1
 75
     1
176
     1
175
     1
176
     1
 42
1.0
176
     1
 92
        0
176
     1
 66
   257
176
     1
 43
1.0
176
     1
 76
     1
176
     1
 77
     6
176
     1
 78
     2
176
     1
 67
     7
176
     1
 79
     5
176
     1
170
     0
176
     1
171
     0
176
     1
290
     0
176
     1
 93
       13
176
     1
 44
0.0
176
     1
173
     0
176
     1
  0
VISUALSTYLE
  5
2D
102
{ACAD_REACTORS
330
2A
102
}
330
2A
100
AcDbVisualStyle
  2
Gouraud
 70
     2
177
     2
291
     1
 71
     2
176
     1
 72
     2
176
     1
 73
     1
176
     1
 90
        2
176
     1
 40
-0.6
176
     1
 41
30.0
176
     1
 62
     5
 63
     7
421
 16777215
176
     1
 74
     0
176
     1
 91
        4
176
     1
 64
     7
176
     1
 65
   257
176
     1
 75
     1
176
     1
175
     1
176
     1
 42
1.0
176
     1
 92
        0
176
     1
 66
     7
176
     1
 43
1.0
176
     1
 76
     1
176
     1
 77
     6
176
     1
 78
     2
176
     1
 67
     7
176
     1
 79
     5
176
     1
170
     0
176
     1
171
     0
176
     1
290
     0
176
     1
 93
       13
176
     1
 44
0.0
176
     1
173
     0
176
     1
  0
VISUALSTYLE
  5
2E
102
{ACAD_REACTORS
330
2A
102
}
330
2A
100
AcDbVisualStyle
  2
GouraudWithEdges
 70
     3
177
     2
291
     1
 71
     2
176
     1
 72
     2
176
     1
 73
     1
176
     1
 90
        2
176
     1
 40
-0.6
176
     1
 41
30.0
176
     1
 62
     5
 63
     7
421
 16777215
176
     1
 74
     1
176
     1
 91
        4
176
     1
 64
     7
176
     1
 65
   257
176
     1
 75
     1
176
     1
175
     1
176
     1
 42
1.0
176
     1
 92
        0
176
     1
 66
   257
176
     1
 43
1.0
176
     1
 76
     1
176
     1
 77
     6
176
     1
 78
     2
176
     1
 67
     7
176
     1
 79
     5
176
     1
170
     0
176
     1
171
     0
176
     1
290
     0
176
     1
 93
       13
176
     1
 44
0.0
176
     1
173
     0
176
     1
  0
VISUALSTYLE
  5
38
102
{ACAD_REACTORS
330
2A
102
}
330
2A
100
AcDbVisualStyle
  2
Linepattern
 70
    14
177
     2
291
     1
 71
     2
176
     1
 72
     2
176
     1
 73
     0
176
     1
 90
        0
176
     1
 40
-0.6
176
     1
 41
-30.0
176
     1
 62
     5
 63
     7
421
 16777215
176
     1
 74
     1
176
     1
 91
        4
176
     1
 64
     7
176
     1
 65
   257
176
     1
 75
     7
176
     1
175
     7
176
     1
 42
1.0
176
     1
 92
        8
176
     1
 66
     7
176
     1
 43
1.0
176
     1
 76
     1
176
     1
 77
     6
176
     1
 78
     2
176
     1
 67
     7
176
     1
 79
     5
176
     1
170
     0
176
     1
171
     0
176
     1
290
     0
176
     1
 93
        1
176
     1
 44
0.0
176
     1
173
     0
176
     1
  0
VISUALSTYLE
  5
33
102
{ACAD_REACTORS
330
2A
102
}
330
2A
100
AcDbVisualStyle
  2
Realistic
 70
     8
177
     2
291
     0
 71
     2
176
     1
 72
     2
176
     1
 73
     0
176
     1
 90
        0
176
     1
 40
-0.6
176
     1
 41
-30.0
176
     1
 62
     5
 63
     7
421
 16777215
176
     1
 74
     1
176
     1
 91
        0
176
     1
 64
     7
176
     1
 65
   257
176
     1
 75
     1
176
     1
175
     1
176
     1
 42
1.0
176
     1
 92
        8
176
     1
 66
     8
424
  7895160
176
     1
 43
1.0
176
     1
 76
     1
176
     1
 77
     6
176
     1
 78
     2
176
     1
 67
     7
176
     1
 79
     5
176
     1
170
     0
176
     1
171
     0
176
     1
290
     0
176
     1
 93
       13
176
     1
 44
0.0
176
     1
173
     0
176
     1
  0
VISUALSTYLE
  5
37
102
{ACAD_REACTORS
330
2A
102
}
330
2A
100
AcDbVisualStyle
  2
Thicken
 70
    13
177
     2
291
     1
 71
     2
176
     1
 72
     2
176
     1
 73
     0
176
     1
 90
        0
176
     1
 40
-0.6
176
     1
 41
-30.0
176
     1
 62
     5
 63
     7
421
 16777215
176
     1
 74
     1
176
     1
 91
        4
176
     1
 64
     7
176
     1
 65
   257
176
     1
 75
     1
176
     1
175
     1
176
     1
 42
1.0
176
     1
 92
       12
176
     1
 66
     7
176
     1
 43
1.0
176
     1
 76
     1
176
     1
 77
     6
176
     1
 78
     2
176
     1
 67
     7
176
     1
 79
     5
176
     1
170
     0
176
     1
171
     0
176
     1
290
     0
176
     1
 93
        1
176
     1
 44
0.0
176
     1
173
     0
176
     1
  0
ENDSEC
  0
EOF
