  0
SECTION
  2
HEADER
  9
$ACADVER
  1
AC1024
  9
$ACADMAINTVER
 70
     6
  9
$DWGCODEPAGE
  3
ANSI_1252
  9
$INSBASE
 10
0.0
 20
0.0
 30
0.0
  9
$EXTMIN
 10
1.000000000000000E+20
 20
1.000000000000000E+20
 30
1.000000000000000E+20
  9
$EXTMAX
 10
-1.000000000000000E+20
 20
-1.000000000000000E+20
 30
-1.000000000000000E+20
  9
$LIMMIN
 10
0.0
 20
0.0
  9
$LIMMAX
 10
12.0
 20
9.0
  9
$ORTHOMODE
 70
     0
  9
$REGENMODE
 70
     1
  9
$FILLMODE
 70
     1
  9
$QTEXTMODE
 70
     0
  9
$MIRRTEXT
 70
     1
  9
$LTSCALE
 40
1.0
  9
$ATTMODE
 70
     1
  9
$TEXTSIZE
 40
0.2
  9
$TRACEWID
 40
0.05
  9
$TEXTSTYLE
  7
Standard
  9
$CLAYER
  8
0
  9
$CELTYPE
  6
ByLayer
  9
$CECOLOR
 62
   256
  9
$CELTSCALE
 40
1.0
  9
$DISPSILH
 70
     0
  9
$DIMSCALE
 40
1.0
  9
$DIMASZ
 40
0.18
  9
$DIMEXO
 40
0.0625
  9
$DIMDLI
 40
0.38
  9
$DIMRND
 40
0.0
  9
$DIMDLE
 40
0.0
  9
$DIMEXE
 40
0.18
  9
$DIMTP
 40
0.0
  9
$DIMTM
 40
0.0
  9
$DIMTXT
 40
0.18
  9
$DIMCEN
 40
0.09
  9
$DIMTSZ
 40
0.0
  9
$DIMTOL
 70
     0
  9
$DIMLIM
 70
     0
  9
$DIMTIH
 70
     1
  9
$DIMTOH
 70
     1
  9
$DIMSE1
 70
     0
  9
$DIMSE2
 70
     0
  9
$DIMTAD
 70
     0
  9
$DIMZIN
 70
     0
  9
$DIMBLK
  1

  9
$DIMASO
 70
     1
  9
$DIMSHO
 70
     1
  9
$DIMPOST
  1

  9
$DIMAPOST
  1

  9
$DIMALT
 70
     0
  9
$DIMALTD
 70
     2
  9
$DIMALTF
 40
25.4
  9
$DIMLFAC
 40
1.0
  9
$DIMTOFL
 70
     0
  9
$DIMTVP
 40
0.0
  9
$DIMTIX
 70
     0
  9
$DIMSOXD
 70
     0
  9
$DIMSAH
 70
     0
  9
$DIMBLK1
  1

  9
$DIMBLK2
  1

  9
$DIMSTYLE
  2
Standard
  9
$DIMCLRD
 70
     0
  9
$DIMCLRE
 70
     0
  9
$DIMCLRT
 70
     0
  9
$DIMTFAC
 40
1.0
  9
$DIMGAP
 40
0.09
  9
$DIMJUST
 70
     0
  9
$DIMSD1
 70
     0
  9
$DIMSD2
 70
     0
  9
$DIMTOLJ
 70
     1
  9
$DIMTZIN
 70
     0
  9
$DIMALTZ
 70
     0
  9
$DIMALTTZ
 70
     0
  9
$DIMUPT
 70
     0
  9
$DIMDEC
 70
     4
  9
$DIMTDEC
 70
     4
  9
$DIMALTU
 70
     2
  9
$DIMALTTD
 70
     2
  9
$DIMTXSTY
  7
Standard
  9
$DIMAUNIT
 70
     0
  9
$DIMADEC
 70
     0
  9
$DIMALTRND
 40
0.0
  9
$DIMAZIN
 70
     0
  9
$DIMDSEP
 70
    46
  9
$DIMATFIT
 70
     3
  9
$DIMFRAC
 70
     0
  9
$DIMLDRBLK
  1

  9
$DIMLUNIT
 70
     2
  9
$DIMLWD
 70
    -2
  9
$DIMLWE
 70
    -2
  9
$DIMTMOVE
 70
     0
  9
$DIMFXL
 40
1.0
  9
$DIMFXLON
 70
     0
  9
$DIMJOGANG
 40
0.7853981633974483
  9
$DIMTFILL
 70
     0
  9
$DIMTFILLCLR
 70
     0
  9
$DIMARCSYM
 70
     0
  9
$DIMLTYPE
  6

  9
$DIMLTEX1
  6

  9
$DIMLTEX2
  6

  9
$DIMTXTDIRECTION
 70
     0
  9
$LUNITS
 70
     2
  9
$LUPREC
 70
     4
  9
$SKETCHINC
 40
0.1
  9
$FILLETRAD
 40
0.5
  9
$AUNITS
 70
     0
  9
$AUPREC
 70
     0
  9
$MENU
  1
.
  9
$ELEVATION
 40
0.0
  9
$PELEVATION
 40
0.0
  9
$THICKNESS
 40
0.0
  9
$LIMCHECK
 70
     0
  9
$CHAMFERA
 40
0.5
  9
$CHAMFERB
 40
0.5
  9
$CHAMFERC
 40
1.0
  9
$CHAMFERD
 40
0.0
  9
$SKPOLY
 70
     0
  9
$TDCREATE
 40
2458386.562447755
  9
$TDUCREATE
 40
2458386.770781088
  9
$TDUPDATE
 40
2458386.562447755
  9
$TDUUPDATE
 40
2458386.770781088
  9
$TDINDWG
 40
0.0000000116
  9
$TDUSRTIMER
 40
0.0000000116
  9
$USRTIMER
 70
     1
  9
$ANGBASE
 50
0.0
  9
$ANGDIR
 70
     0
  9
$PDMODE
 70
     0
  9
$PDSIZE
 40
0.0
  9
$PLINEWID
 40
0.0
  9
$SPLFRAME
 70
     0
  9
$SPLINETYPE
 70
     6
  9
$SPLINESEGS
 70
     8
  9
$HANDSEED
  5
93
  9
$SURFTAB1
 70
     6
  9
$SURFTAB2
 70
     6
  9
$SURFTYPE
 70
     6
  9
$SURFU
 70
     6
  9
$SURFV
 70
     6
  9
$UCSBASE
  2

  9
$UCSNAME
  2

  9
$UCSORG
 10
0.0
 20
0.0
 30
0.0
  9
$UCSXDIR
 10
1.0
 20
0.0
 30
0.0
  9
$UCSYDIR
 10
0.0
 20
1.0
 30
0.0
  9
$UCSORTHOREF
  2

  9
$UCSORTHOVIEW
 70
     0
  9
$UCSORGTOP
 10
0.0
 20
0.0
 30
0.0
  9
$UCSORGBOTTOM
 10
0.0
 20
0.0
 30
0.0
  9
$UCSORGLEFT
 10
0.0
 20
0.0
 30
0.0
  9
$UCSORGRIGHT
 10
0.0
 20
0.0
 30
0.0
  9
$UCSORGFRONT
 10
0.0
 20
0.0
 30
0.0
  9
$UCSORGBACK
 10
0.0
 20
0.0
 30
0.0
  9
$PUCSBASE
  2

  9
$PUCSNAME
  2

  9
$PUCSORG
 10
0.0
 20
0.0
 30
0.0
  9
$PUCSXDIR
 10
1.0
 20
0.0
 30
0.0
  9
$PUCSYDIR
 10
0.0
 20
1.0
 30
0.0
  9
$PUCSORTHOREF
  2

  9
$PUCSORTHOVIEW
 70
     0
  9
$PUCSORGTOP
 10
0.0
 20
0.0
 30
0.0
  9
$PUCSORGBOTTOM
 10
0.0
 20
0.0
 30
0.0
  9
$PUCSORGLEFT
 10
0.0
 20
0.0
 30
0.0
  9
$PUCSORGRIGHT
 10
0.0
 20
0.0
 30
0.0
  9
$PUCSORGFRONT
 10
0.0
 20
0.0
 30
0.0
  9
$PUCSORGBACK
 10
0.0
 20
0.0
 30
0.0
  9
$USERI1
 70
     0
  9
$USERI2
 70
     0
  9
$USERI3
 70
     0
  9
$USERI4
 70
     0
  9
$USERI5
 70
     0
  9
$USERR1
 40
0.0
  9
$USERR2
 40
0.0
  9
$USERR3
 40
0.0
  9
$USERR4
 40
0.0
  9
$USERR5
 40
0.0
  9
$WORLDVIEW
 70
     1
  9
$SHADEDGE
 70
     3
  9
$SHADEDIF
 70
    70
  9
$TILEMODE
 70
     1
  9
$MAXACTVP
 70
    64
  9
$PINSBASE
 10
0.0
 20
0.0
 30
0.0
  9
$PLIMCHECK
 70
     0
  9
$PEXTMIN
 10
1.000000000000000E+20
 20
1.000000000000000E+20
 30
1.000000000000000E+20
  9
$PEXTMAX
 10
-1.000000000000000E+20
 20
-1.000000000000000E+20
 30
-1.000000000000000E+20
  9
$PLIMMIN
 10
0.0
 20
0.0
  9
$PLIMMAX
 10
12.0
 20
9.0
  9
$UNITMODE
 70
     0
  9
$VISRETAIN
 70
     1
  9
$PLINEGEN
 70
     0
  9
$PSLTSCALE
 70
     1
  9
$TREEDEPTH
 70
  3020
  9
$CMLSTYLE
  2
Standard
  9
$CMLJUST
 70
     0
  9
$CMLSCALE
 40
1.0
  9
$PROXYGRAPHICS
 70
     1
  9
$MEASUREMENT
 70
     0
  9
$CELWEIGHT
370
    -1
  9
$ENDCAPS
280
     0
  9
$JOINSTYLE
280
     0
  9
$LWDISPLAY
290
     1
  9
$INSUNITS
 70
     1
  9
$HYPERLINKBASE
  1

  9
$STYLESHEET
  1

  9
$XEDIT
290
     1
  9
$CEPSNTYPE
380
     0
  9
$PSTYLEMODE
290
     1
  9
$FINGERPRINTGUID
  2
{9B271AA5-6674-466A-975E-BF37591A4EF4}
  9
$VERSIONGUID
  2
{FAEB1C32-E019-11D5-929B-00C0DF256EC4}
  9
$EXTNAMES
290
     1
  9
$PSVPSCALE
 40
0.0
  9
$OLESTARTUP
290
     0
  9
$SORTENTS
280
   127
  9
$INDEXCTL
280
     0
  9
$HIDETEXT
280
     1
  9
$XCLIPFRAME
280
     2
  9
$HALOGAP
280
     0
  9
$OBSCOLOR
 70
   257
  9
$OBSLTYPE
280
     0
  9
$INTERSECTIONDISPLAY
280
     0
  9
$INTERSECTIONCOLOR
 70
   257
  9
$DIMASSOC
280
     2
  9
$PROJECTNAME
  1

  9
$CAMERADISPLAY
290
     0
  9
$LENSLENGTH
 40
50.0
  9
$CAMERAHEIGHT
 40
0.0
  9
$STEPSPERSEC
 40
2.0
  9
$STEPSIZE
 40
6.0
  9
$3DDWFPREC
 40
2.0
  9
$PSOLWIDTH
 40
0.25
  9
$PSOLHEIGHT
 40
4.0
  9
$LOFTANG1
 40
1.570796326794897
  9
$LOFTANG2
 40
1.570796326794897
  9
$LOFTMAG1
 40
0.0
  9
$LOFTMAG2
 40
0.0
  9
$LOFTPARAM
 70
     7
  9
$LOFTNORMALS
280
     1
  9
$LATITUDE
 40
37.795
  9
$LONGITUDE
 40
-122.394
  9
$NORTHDIRECTION
 40
0.0
  9
$TIMEZONE
 70
 -8000
  9
$LIGHTGLYPHDISPLAY
280
     1
  9
$TILEMODELIGHTSYNCH
280
     1
  9
$CMATERIAL
347
3C
  9
$SOLIDHIST
280
     1
  9
$SHOWHIST
280
     1
  9
$DWFFRAME
280
     2
  9
$DGNFRAME
280
     2
  9
$REALWORLDSCALE
290
     1
  9
$INTERFERECOLOR
 62
   256
  9
$CSHADOW
280
     0
  9
$SHADOWPLANELOCATION
 40
0.0
  0
ENDSEC
  0
SECTION
  2
CLASSES
  0
CLASS
  1
ACDBDICTIONARYWDFLT
  2
AcDbDictionaryWithDefault
  3
ObjectDBX Classes
 90
        0
 91
        4
280
     0
281
     0
  0
CLASS
  1
VISUALSTYLE
  2
AcDbVisualStyle
  3
ObjectDBX Classes
 90
     4095
 91
        4
280
     0
281
     0
  0
CLASS
  1
MATERIAL
  2
AcDbMaterial
  3
ObjectDBX Classes
 90
     1153
 91
        4
280
     0
281
     0
  0
CLASS
  1
SUN
  2
AcDbSun
  3
SCENEOE
 90
     1024
 91
        4
280
     0
281
     0
  0
ENDSEC
  0
SECTION
  2
TABLES
  0
TABLE
  2
VPORT
  5
8
330
0
100
AcDbSymbolTable
 70
     1
  0
VPORT
  5
29
330
8
100
AcDbSymbolTableRecord
100
AcDbViewportTableRecord
  2
*Active
 70
     0
 10
0.0
 20
0.0
 11
1.0
 21
1.0
 12
0.0
 22
0.0
 13
0.0
 23
0.0
 14
0.5
 24
0.5
 15
0.5
 25
0.5
 16
0.0
 26
0.0
 36
1.0
 17
6.0000000048
 27
6.0000000048
 37
0.0
 40
12.0000000096
 41
1.0
 42
50.0
 43
0.0
 44
0.0
 50
0.0
 51
0.0
 71
     0
 72
   100
 73
     1
 74
     3
 75
     0
 76
     0
 77
     0
 78
     0
281
     0
 65
     1
110
0.0
120
0.0
130
0.0
111
1.0
121
0.0
131
0.0
112
0.0
122
1.0
132
0.0
 79
     0
146
0.0
 60
     3
 61
     5
292
     1
282
     1
141
0.0
142
0.0
 63
   250
361
3F
  0
ENDTAB
  0
TABLE
  2
LTYPE
  5
5
330
0
100
AcDbSymbolTable
 70
     1
  0
LTYPE
  5
14
330
5
100
AcDbSymbolTableRecord
100
AcDbLinetypeTableRecord
  2
ByBlock
 70
     0
  3

 72
    65
 73
     0
 40
0.0
  0
LTYPE
  5
15
330
5
100
AcDbSymbolTableRecord
100
AcDbLinetypeTableRecord
  2
ByLayer
 70
     0
  3

 72
    65
 73
     0
 40
0.0
  0
LTYPE
  5
16
330
5
100
AcDbSymbolTableRecord
100
AcDbLinetypeTableRecord
  2
Continuous
 70
     0
  3
Solid line
 72
    65
 73
     0
 40
0.0
  0
ENDTAB
  0
TABLE
  2
LAYER
  5
2
330
0
100
AcDbSymbolTable
 70
     2
  0
LAYER
  5
10
330
2
100
AcDbSymbolTableRecord
100
AcDbLayerTableRecord
  2
0
 70
     0
 62
     7
  6
Continuous
370
    -3
390
F
347
3E
  0
LAYER
  5
40
330
2
100
AcDbSymbolTableRecord
100
AcDbLayerTableRecord
  2
Layer 1
 70
     0
 62
     7
  6
Continuous
370
    -3
390
F
347
3E
  0
ENDTAB
  0
TABLE
  2
STYLE
  5
3
330
0
100
AcDbSymbolTable
 70
     1
  0
STYLE
  5
11
330
3
100
AcDbSymbolTableRecord
100
AcDbTextStyleTableRecord
  2
Standard
 70
     0
 40
0.0
 41
1.0
 50
0.0
 71
     0
 42
0.2
  3
txt
  4

  0
ENDTAB
  0
TABLE
  2
VIEW
  5
6
330
0
100
AcDbSymbolTable
 70
     0
  0
ENDTAB
  0
TABLE
  2
UCS
  5
7
330
0
100
AcDbSymbolTable
 70
     0
  0
ENDTAB
  0
TABLE
  2
APPID
  5
9
330
0
100
AcDbSymbolTable
 70
     1
  0
APPID
  5
12
330
9
100
AcDbSymbolTableRecord
100
AcDbRegAppTableRecord
  2
ACAD
 70
     0
  0
ENDTAB
  0
TABLE
  2
DIMSTYLE
  5
A
330
0
100
AcDbSymbolTable
 70
     1
100
AcDbDimStyleTable
  0
DIMSTYLE
105
27
330
A
100
AcDbSymbolTableRecord
100
AcDbDimStyleTableRecord
  2
Standard
 70
     0
178
     0
340
11
  0
ENDTAB
  0
TABLE
  2
BLOCK_RECORD
  5
1
330
0
100
AcDbSymbolTable
 70
     1
  0
BLOCK_RECORD
  5
1F
330
1
100
AcDbSymbolTableRecord
100
AcDbBlockTableRecord
  2
*Model_Space
340
22
 70
     0
280
     1
281
     0
  0
BLOCK_RECORD
  5
1B
330
1
100
AcDbSymbolTableRecord
100
AcDbBlockTableRecord
  2
*Paper_Space
340
1E
 70
     0
280
     1
281
     0
  0
BLOCK_RECORD
  5
23
330
1
100
AcDbSymbolTableRecord
100
AcDbBlockTableRecord
  2
*Paper_Space0
340
26
 70
     0
280
     1
281
     0
  0
ENDTAB
  0
ENDSEC
  0
SECTION
  2
BLOCKS
  0
BLOCK
  5
20
330
1F
100
AcDbEntity
  8
0
100
AcDbBlockBegin
  2
*Model_Space
 70
     0
 10
0.0
 20
0.0
 30
0.0
  3
*Model_Space
  1

  0
ENDBLK
  5
21
330
1F
100
AcDbEntity
  8
0
100
AcDbBlockEnd
  0
BLOCK
  5
1C
330
1B
100
AcDbEntity
 67
     1
  8
0
100
AcDbBlockBegin
  2
*Paper_Space
 70
     0
 10
0.0
 20
0.0
 30
0.0
  3
*Paper_Space
  1

  0
ENDBLK
  5
1D
330
1B
100
AcDbEntity
 67
     1
  8
0
100
AcDbBlockEnd
  0
BLOCK
  5
24
330
23
100
AcDbEntity
  8
0
100
AcDbBlockBegin
  2
*Paper_Space0
 70
     0
 10
0.0
 20
0.0
 30
0.0
  3
*Paper_Space0
  1

  0
ENDBLK
  5
25
330
23
100
AcDbEntity
  8
0
100
AcDbBlockEnd
  0
ENDSEC
  0
SECTION
  2
ENTITIES
  0
SPLINE
  5
41
330
1F
100
AcDbEntity
  8
Layer 1
 62
    59
420
  6770214
370
    35
100
AcDbSpline
210
0.0
220
0.0
230
1.0
 70
     8
 71
     3
 72
    23
 73
    19
 74
     0
 42
0.0000000001
 43
0.0000000001
 12
1.0
 22
0.0
 32
0.0
 13
1.0
 23
0.0
 33
0.0
 40
0.0
 40
0.0
 40
0.0
 40
0.0
 40
1.0
 40
1.0
 40
1.0
 40
2.0
 40
2.0
 40
2.0
 40
3.0
 40
3.0
 40
3.0
 40
4.0
 40
4.0
 40
4.0
 40
5.0
 40
5.0
 40
5.0
 40
6.0
 40
6.0
 40
6.0
 40
6.0
 10
7.654166333705798
 20
4.420833167327899
 30
0.0
 10
7.9444444508
 20
4.163888722677899
 30
0.0
 10
7.86805556185
 20
4.230555219855798
 30
0.0
 10
8.13194445095
 20
3.934722055827899
 30
0.0
 10
8.158333678944201
 20
3.904166330705798
 30
0.0
 10
8.156944281427899
 20
3.856944617072101
 30
0.0
 10
8.181944111905798
 20
3.824999494433698
 30
0.0
 10
8.193055053483697
 20
3.809722055727899
 30
0.0
 10
8.206943942383697
 20
3.794443769311597
 30
0.0
 10
8.2083333399
 20
3.776388383283698
 30
0.0
 10
8.209721889705799
 20
3.755555049933697
 30
0.0
 10
8.193055901194201
 20
3.736110266389496
 30
0.0
 10
8.17361111765
 20
3.729165821939496
 30
0.0
 10
8.154166334105799
 20
3.722221377489496
 30
0.0
 10
8.13194445095
 20
3.723609927295294
 30
0.0
 10
8.1111111176
 20
3.727777272133697
 30
0.0
 10
8.026389234394202
 20
3.743054710839496
 30
0.0
 10
7.922222567644202
 20
4.026388383483698
 30
0.0
 10
7.3888888948
 20
4.440277103161597
 30
0.0
  0
SPLINE
  5
42
330
1F
100
AcDbEntity
  8
Layer 1
 62
    59
420
  6770214
370
    35
100
AcDbSpline
210
0.0
220
0.0
230
1.0
 70
     8
 71
     3
 72
    32
 73
    28
 74
     0
 42
0.0000000001
 43
0.0000000001
 12
1.0
 22
0.0
 32
0.0
 13
1.0
 23
0.0
 33
0.0
 40
0.0
 40
0.0
 40
0.0
 40
0.0
 40
1.0
 40
1.0
 40
1.0
 40
2.0
 40
2.0
 40
2.0
 40
3.0
 40
3.0
 40
3.0
 40
4.0
 40
4.0
 40
4.0
 40
5.0
 40
5.0
 40
5.0
 40
6.0
 40
6.0
 40
6.0
 40
7.0
 40
7.0
 40
7.0
 40
8.0
 40
8.0
 40
8.0
 40
9.0
 40
9.0
 40
9.0
 40
9.0
 10
6.116666586788949
 20
5.343055729372101
 30
0.0
 10
6.1388888938
 20
5.469444703133151
 30
0.0
 10
6.197221972866849
 20
5.59027778225
 30
0.0
 10
6.281944279927899
 20
5.686111454744202
 30
0.0
 10
6.286110777055798
 20
5.691666925533151
 30
0.0
 10
6.2916666717
 20
5.6972223963221
 30
0.0
 10
6.29861111615
 20
5.700000343644202
 30
0.0
 10
6.308333507922101
 20
5.704166840772101
 30
0.0
 10
6.3194444495
 20
5.704166840772101
 30
0.0
 10
6.329166841272101
 20
5.702778290966303
 30
0.0
 10
6.359722566394201
 20
5.702778290966303
 30
0.0
 10
6.388888894
 20
5.708333761755252
 30
0.0
 10
6.4166666718
 20
5.720833676994202
 30
0.0
 10
6.42361111625
 20
5.723611624316303
 30
0.0
 10
6.429166587038949
 20
5.727778121444202
 30
0.0
 10
6.433333508022101
 20
5.733333592233151
 30
0.0
 10
6.4444444496
 20
5.750000428455252
 30
0.0
 10
6.43194453436105
 20
5.77222231161105
 30
0.0
 10
6.415278121994202
 20
5.783333677044202
 30
0.0
 10
6.381944873405252
 20
5.806944957716302
 30
0.0
 10
6.337500259383151
 20
5.805555984055252
 30
0.0
 10
6.300000513666302
 20
5.790278121494202
 30
0.0
 10
6.262500344094201
 20
5.775000258933152
 30
0.0
 10
6.233334016488404
 20
5.745833507472101
 30
0.0
 10
6.206944788494202
 20
5.715278206205253
 30
0.0
 10
6.120833507772101
 20
5.618055983905252
 30
0.0
 10
6.063889402366303
 20
5.495833931127353
 30
0.0
 10
6.044444618822101
 20
5.366667010044202
 30
0.0
  0
SPLINE
  5
43
330
1F
100
AcDbEntity
  8
Layer 1
 62
    59
420
  6770214
370
    35
100
AcDbSpline
210
0.0
220
0.0
230
1.0
 70
     8
 71
     3
 72
     8
 73
     4
 74
     0
 42
0.0000000001
 43
0.0000000001
 12
1.0
 22
0.0
 32
0.0
 13
1.0
 23
0.0
 33
0.0
 40
0.0
 40
0.0
 40
0.0
 40
0.0
 40
1.0
 40
1.0
 40
1.0
 40
1.0
 10
5.7916666713
 20
6.2472220576779
 30
0.0
 10
5.64583333785
 20
6.306944110405799
 30
0.0
 10
5.4694442792779
 20
6.28333325358895
 30
0.0
 10
5.3444442791779
 20
6.18750000495
 30
0.0
  0
SPLINE
  5
44
330
1F
100
AcDbEntity
  8
Layer 1
 62
    59
420
  6770214
370
    35
100
AcDbSpline
210
0.0
220
0.0
230
1.0
 70
     8
 71
     3
 72
    11
 73
     7
 74
     0
 42
0.0000000001
 43
0.0000000001
 12
1.0
 22
0.0
 32
0.0
 13
1.0
 23
0.0
 33
0.0
 40
0.0
 40
0.0
 40
0.0
 40
0.0
 40
1.0
 40
1.0
 40
1.0
 40
2.0
 40
2.0
 40
2.0
 40
2.0
 10
7.073610947227899
 20
5.800000089411051
 30
0.0
 10
7.03472222785
 20
5.794444618622101
 30
0.0
 10
6.99305556115
 20
5.823611370083151
 30
0.0
 10
6.987499666505799
 20
5.863889063122101
 30
0.0
 10
6.808333084466849
 20
5.934722481283151
 30
0.0
 10
6.606944195416848
 20
5.945833422861051
 30
0.0
 10
6.420833168927899
 20
5.89583333805
 30
0.0
  0
SPLINE
  5
45
330
1F
100
AcDbEntity
  8
Layer 1
 62
    59
420
  6770214
370
    35
100
AcDbSpline
210
0.0
220
0.0
230
1.0
 70
     8
 71
     3
 72
    17
 73
    13
 74
     0
 42
0.0000000001
 43
0.0000000001
 12
1.0
 22
0.0
 32
0.0
 13
1.0
 23
0.0
 33
0.0
 40
0.0
 40
0.0
 40
0.0
 40
0.0
 40
1.0
 40
1.0
 40
1.0
 40
2.0
 40
2.0
 40
2.0
 40
3.0
 40
3.0
 40
3.0
 40
4.0
 40
4.0
 40
4.0
 40
4.0
 10
5.730555644911051
 20
6.330555391077899
 30
0.0
 10
5.57638889335
 20
6.386110946677899
 30
0.0
 10
5.393055814183151
 20
6.349999750766849
 30
0.0
 10
5.272222311211051
 20
6.238888639566849
 30
0.0
 10
5.247222480733151
 20
6.258332999255798
 30
0.0
 10
5.218055729272101
 20
6.279166332605798
 30
0.0
 10
5.18611103048895
 20
6.2749998354779
 30
0.0
 10
5.15833325268895
 20
6.27083333835
 30
0.0
 10
5.136110945677899
 20
6.24861103133895
 30
0.0
 10
5.1250000041
 20
6.223610777005798
 30
0.0
 10
5.113889062522101
 20
6.197221972866849
 30
0.0
 10
5.112500088861051
 20
6.169444195066848
 30
0.0
 10
5.1111111152
 20
6.141666417266848
 30
0.0
  0
SPLINE
  5
46
330
1F
100
AcDbEntity
  8
Layer 1
 62
    59
420
  6770214
370
    35
100
AcDbSpline
210
0.0
220
0.0
230
1.0
 70
     8
 71
     3
 72
    17
 73
    13
 74
     0
 42
0.0000000001
 43
0.0000000001
 12
1.0
 22
0.0
 32
0.0
 13
1.0
 23
0.0
 33
0.0
 40
0.0
 40
0.0
 40
0.0
 40
0.0
 40
1.0
 40
1.0
 40
1.0
 40
2.0
 40
2.0
 40
2.0
 40
3.0
 40
3.0
 40
3.0
 40
4.0
 40
4.0
 40
4.0
 40
4.0
 10
7.158333678144202
 20
5.91111120061105
 30
0.0
 10
7.144444789244202
 20
5.93194453396105
 30
0.0
 10
7.115278461638403
 20
5.93750000475
 30
0.0
 10
7.090278207305252
 20
5.934722481283151
 30
0.0
 10
7.065278376827353
 20
5.93194453396105
 30
0.0
 10
7.040278122494202
 20
5.923611539705252
 30
0.0
 10
7.015278292016302
 20
5.926389063172101
 30
0.0
 10
6.997222905988403
 20
5.927778036833152
 30
0.0
 10
6.979167096105252
 20
5.936111454944202
 30
0.0
 10
6.962500683738403
 20
5.941666925733151
 30
0.0
 10
6.766667265477353
 20
6.018055814683152
 30
0.0
 10
6.541667519610504
 20
6.019444788344201
 30
0.0
 10
6.344445127688403
 20
5.945833422861051
 30
0.0
  0
SPLINE
  5
47
330
1F
100
AcDbEntity
  8
Layer 1
 62
    59
420
  6770214
370
    35
100
AcDbSpline
210
0.0
220
0.0
230
1.0
 70
     8
 71
     3
 72
     8
 73
     4
 74
     0
 42
0.0000000001
 43
0.0000000001
 12
1.0
 22
0.0
 32
0.0
 13
1.0
 23
0.0
 33
0.0
 40
0.0
 40
0.0
 40
0.0
 40
0.0
 40
1.0
 40
1.0
 40
1.0
 40
1.0
 10
6.61805556085
 20
5.3847223960721
 30
0.0
 10
6.537500174772101
 20
5.50138897806105
 30
0.0
 10
6.445833423261051
 20
5.609722565794201
 30
0.0
 10
6.34583325363895
 20
5.711111285222101
 30
0.0
  0
SPLINE
  5
48
330
1F
100
AcDbEntity
  8
Layer 1
 62
    59
420
  6770214
370
    35
100
AcDbSpline
210
0.0
220
0.0
230
1.0
 70
     8
 71
     3
 72
     8
 73
     4
 74
     0
 42
0.0000000001
 43
0.0000000001
 12
1.0
 22
0.0
 32
0.0
 13
1.0
 23
0.0
 33
0.0
 40
0.0
 40
0.0
 40
0.0
 40
0.0
 40
1.0
 40
1.0
 40
1.0
 40
1.0
 10
5.54861111555
 20
6.59861120116105
 30
0.0
 10
5.75694444905
 20
6.294444619022101
 30
0.0
 10
6.004166501927899
 20
6.018055814683152
 30
0.0
 10
6.28472222725
 20
5.77916675606105
 30
0.0
  0
SPLINE
  5
49
330
1F
100
AcDbEntity
  8
Layer 1
 62
    59
420
  6770214
370
    35
100
AcDbSpline
210
0.0
220
0.0
230
1.0
 70
    11
 71
     3
 72
    20
 73
    16
 74
     0
 42
0.0000000001
 43
0.0000000001
 12
1.0
 22
0.0
 32
0.0
 13
1.0
 23
0.0
 33
0.0
 40
0.0
 40
0.0
 40
0.0
 40
0.0
 40
1.0
 40
1.0
 40
1.0
 40
2.0
 40
2.0
 40
2.0
 40
3.0
 40
3.0
 40
3.0
 40
4.0
 40
4.0
 40
4.0
 40
5.0
 40
5.0
 40
5.0
 40
5.0
 10
5.629166501627899
 20
6.691666502477899
 30
0.0
 10
5.593055305716849
 20
6.669444195466848
 30
0.0
 10
5.558333083466849
 20
6.6388888942
 30
0.0
 10
5.544444194566849
 20
6.598610777305798
 30
0.0
 10
5.586110861266849
 20
6.590277359194748
 30
0.0
 10
5.63055547528895
 20
6.599999750966849
 30
0.0
 10
5.668055221005798
 20
6.619444110655799
 30
0.0
 10
5.705554966722647
 20
6.638888470344748
 30
0.0
 10
5.738888639166849
 20
6.665277274483698
 30
0.0
 10
5.772221887755799
 20
6.693055052283698
 30
0.0
 10
5.790277273783698
 20
6.708332914844748
 30
0.0
 10
5.8097220573279
 20
6.723610777405798
 30
0.0
 10
5.823610946227899
 20
6.743055137094748
 30
0.0
 10
5.793055644961051
 20
6.786111201311051
 30
0.0
 10
5.663888723877899
 20
6.71388880948895
 30
0.0
 10
5.629166501627899
 20
6.691666502477899
 30
0.0
  0
SPLINE
  5
4A
330
1F
100
AcDbEntity
  8
Layer 1
 62
    59
420
  6770214
370
    35
100
AcDbSpline
210
0.0
220
0.0
230
1.0
 70
     8
 71
     3
 72
     8
 73
     4
 74
     0
 42
0.0000000001
 43
0.0000000001
 12
1.0
 22
0.0
 32
0.0
 13
1.0
 23
0.0
 33
0.0
 40
0.0
 40
0.0
 40
0.0
 40
0.0
 40
1.0
 40
1.0
 40
1.0
 40
1.0
 10
5.820833422761051
 20
6.74444453461105
 30
0.0
 10
5.990278036883152
 20
6.323611370483151
 30
0.0
 10
6.301389063472101
 20
5.975000174322101
 30
0.0
 10
6.634722397072101
 20
5.6666666712
 30
0.0
  0
SPLINE
  5
4B
330
1F
100
AcDbEntity
  8
Layer 1
 62
    59
420
  6770214
370
    35
100
AcDbSpline
210
0.0
220
0.0
230
1.0
 70
     8
 71
     3
 72
     8
 73
     4
 74
     0
 42
0.0000000001
 43
0.0000000001
 12
1.0
 22
0.0
 32
0.0
 13
1.0
 23
0.0
 33
0.0
 40
0.0
 40
0.0
 40
0.0
 40
0.0
 40
1.0
 40
1.0
 40
1.0
 40
1.0
 10
6.32638889395
 20
5.800000089411051
 30
0.0
 10
6.127777952222101
 20
6.06111103118895
 30
0.0
 10
5.906944279627899
 20
6.304166586938949
 30
0.0
 10
5.66527769753895
 20
6.526388809338949
 30
0.0
  0
SPLINE
  5
4C
330
1F
100
AcDbEntity
  8
Layer 1
 62
    59
420
  6770214
370
    35
100
AcDbSpline
210
0.0
220
0.0
230
1.0
 70
     8
 71
     3
 72
     8
 73
     4
 74
     0
 42
0.0000000001
 43
0.0000000001
 12
1.0
 22
0.0
 32
0.0
 13
1.0
 23
0.0
 33
0.0
 40
0.0
 40
0.0
 40
0.0
 40
0.0
 40
1.0
 40
1.0
 40
1.0
 40
1.0
 10
5.7597223963721
 20
6.634722397072101
 30
0.0
 10
5.8611111158
 20
6.481944619172101
 30
0.0
 10
5.984722566094201
 20
6.344444703833151
 30
0.0
 10
6.1250000049
 20
6.226389148183151
 30
0.0
  0
SPLINE
  5
4D
330
1F
100
AcDbEntity
  8
Layer 1
 62
    97
420
  4295745
370
    35
100
AcDbSpline
210
0.0
220
0.0
230
1.0
 70
     8
 71
     3
 72
    23
 73
    19
 74
     0
 42
0.0000000001
 43
0.0000000001
 12
1.0
 22
0.0
 32
0.0
 13
1.0
 23
0.0
 33
0.0
 40
0.0
 40
0.0
 40
0.0
 40
0.0
 40
1.0
 40
1.0
 40
1.0
 40
2.0
 40
2.0
 40
2.0
 40
3.0
 40
3.0
 40
3.0
 40
4.0
 40
4.0
 40
4.0
 40
5.0
 40
5.0
 40
5.0
 40
6.0
 40
6.0
 40
6.0
 40
6.0
 10
5.976388724127899
 20
6.447222396922101
 30
0.0
 10
6.302777613277899
 20
6.925000090311051
 30
0.0
 10
6.63749992053895
 20
7.39722231291105
 30
0.0
 10
6.97916667225
 20
7.863889064722101
 30
0.0
 10
7.031944280527899
 20
7.936111456544202
 30
0.0
 10
7.086111286322101
 20
8.009722398172102
 30
0.0
 10
7.141666841922101
 20
8.079166842672102
 30
0.0
 10
7.325000344944201
 20
8.304167012394203
 30
0.0
 10
7.5416666727
 20
8.500000218727626
 30
0.0
 10
7.765278292616302
 20
8.684722483483151
 30
0.0
 10
7.470833678394202
 20
8.394444790244203
 30
0.0
 10
7.202778292166302
 20
8.07777786901105
 30
0.0
 10
6.962500683738403
 20
7.740278038283152
 30
0.0
 10
6.800000514066302
 20
7.511111371433151
 30
0.0
 10
6.650000683488403
 20
7.27222231281105
 30
0.0
 10
6.483334016688404
 20
7.045833593283152
 30
0.0
 10
6.312500852760504
 20
6.815277952772101
 30
0.0
 10
6.119444957966302
 20
6.588889233244202
 30
0.0
 10
6.050000513466302
 20
6.311111455244202
 30
0.0
  0
SPLINE
  5
4E
330
1F
100
AcDbEntity
  8
Layer 1
 62
    97
420
  4295745
370
    35
100
AcDbSpline
210
0.0
220
0.0
230
1.0
 70
     8
 71
     3
 72
    20
 73
    16
 74
     0
 42
0.0000000001
 43
0.0000000001
 12
1.0
 22
0.0
 32
0.0
 13
1.0
 23
0.0
 33
0.0
 40
0.0
 40
0.0
 40
0.0
 40
0.0
 40
1.0
 40
1.0
 40
1.0
 40
2.0
 40
2.0
 40
2.0
 40
3.0
 40
3.0
 40
3.0
 40
4.0
 40
4.0
 40
4.0
 40
5.0
 40
5.0
 40
5.0
 40
5.0
 10
5.594444279377899
 20
6.6805555609
 30
0.0
 10
5.35416667095
 20
6.758333423511051
 30
0.0
 10
5.1666666708
 20
6.94305547633895
 30
0.0
 10
4.980555220455798
 20
7.112500090461051
 30
0.0
 10
4.794444193966849
 20
7.281944704583151
 30
0.0
 10
4.581943939483698
 20
7.448611371383151
 30
0.0
 10
4.330555389477899
 20
7.473611201861051
 30
0.0
 10
4.231944193516849
 20
7.483333593633152
 30
0.0
 10
4.13194444775
 20
7.47083325453895
 30
0.0
 10
4.03472222545
 20
7.455555815833152
 30
0.0
 10
3.9444444476
 20
7.441666926933151
 30
0.0
 10
3.85416666975
 20
7.425000090711051
 30
0.0
 10
3.7638888919
 20
7.408333678344202
 30
0.0
 10
3.654166754361051
 20
7.386111371333151
 30
0.0
 10
3.504166711855525
 20
7.373611456094202
 30
0.0
 10
3.404166754161051
 20
7.422222567244201
 30
0.0
  0
SPLINE
  5
4F
330
1F
100
AcDbEntity
  8
Layer 1
 62
    97
420
  4295745
370
    35
100
AcDbSpline
210
0.0
220
0.0
230
1.0
 70
     8
 71
     3
 72
    14
 73
    10
 74
     0
 42
0.0000000001
 43
0.0000000001
 12
1.0
 22
0.0
 32
0.0
 13
1.0
 23
0.0
 33
0.0
 40
0.0
 40
0.0
 40
0.0
 40
0.0
 40
1.0
 40
1.0
 40
1.0
 40
2.0
 40
2.0
 40
2.0
 40
3.0
 40
3.0
 40
3.0
 40
3.0
 10
6.308333507922101
 20
6.9347220582279
 30
0.0
 10
6.226389148183151
 20
6.931944110905798
 30
0.0
 10
6.14583333825
 20
6.924999666455799
 30
0.0
 10
6.065277952172101
 20
6.90972222775
 30
0.0
 10
5.954166840972101
 20
6.8888888944
 30
0.0
 10
5.837500258983152
 20
6.848611201361051
 30
0.0
 10
5.7777777824
 20
6.754166502527899
 30
0.0
 10
5.78333325318895
 20
6.761110946977899
 30
0.0
 10
5.78472222685
 20
6.772221888555799
 30
0.0
 10
5.780555729722101
 20
6.780555306666849
 30
0.0
  0
SPLINE
  5
50
330
1F
100
AcDbEntity
  8
Layer 1
 62
    97
420
  4295745
370
    35
100
AcDbSpline
210
0.0
220
0.0
230
1.0
 70
     8
 71
     3
 72
    20
 73
    16
 74
     0
 42
0.0000000001
 43
0.0000000001
 12
1.0
 22
0.0
 32
0.0
 13
1.0
 23
0.0
 33
0.0
 40
0.0
 40
0.0
 40
0.0
 40
0.0
 40
1.0
 40
1.0
 40
1.0
 40
2.0
 40
2.0
 40
2.0
 40
3.0
 40
3.0
 40
3.0
 40
4.0
 40
4.0
 40
4.0
 40
5.0
 40
5.0
 40
5.0
 40
5.0
 10
6.379166502227899
 20
6.858333169277899
 30
0.0
 10
6.66527769833895
 20
6.866666587388949
 30
0.0
 10
6.952777444255799
 20
6.855555221955798
 30
0.0
 10
7.238889064222101
 20
6.827777444155799
 30
0.0
 10
7.46527778375
 20
6.804166163483697
 30
0.0
 10
7.704166842372101
 20
6.772221888555799
 30
0.0
 10
7.90972222855
 20
6.868055137194748
 30
0.0
 10
7.65972222835
 20
6.794444195566848
 30
0.0
 10
7.394444789444202
 20
6.852777274633698
 30
0.0
 10
7.136110947277899
 20
6.884721973416849
 30
0.0
 10
7.015277444305799
 20
6.8999998359779
 30
0.0
 10
6.893055391527899
 20
6.90833325408895
 30
0.0
 10
6.772221888555799
 20
6.918055222005798
 30
0.0
 10
6.720832830083697
 20
6.922221719133698
 30
0.0
 10
6.669444195466848
 20
6.924999666455799
 30
0.0
 10
6.618055136994748
 20
6.929166163583697
 30
0.0
  0
SPLINE
  5
51
330
1F
100
AcDbEntity
  8
Layer 1
 62
    97
420
  4295745
370
    35
100
AcDbSpline
210
0.0
220
0.0
230
1.0
 70
     8
 71
     3
 72
    11
 73
     7
 74
     0
 42
0.0000000001
 43
0.0000000001
 12
1.0
 22
0.0
 32
0.0
 13
1.0
 23
0.0
 33
0.0
 40
0.0
 40
0.0
 40
0.0
 40
0.0
 40
1.0
 40
1.0
 40
1.0
 40
2.0
 40
2.0
 40
2.0
 40
2.0
 10
6.258333423111051
 20
6.85416667215
 30
0.0
 10
6.2361111161
 20
6.85277769848895
 30
0.0
 10
6.212500259283152
 20
6.851388724827899
 30
0.0
 10
6.190277952272101
 20
6.848611201361051
 30
0.0
 10
6.061111455044202
 20
6.831944365138949
 30
0.0
 10
5.93888897841105
 20
6.77083333875
 30
0.0
 10
5.8472222269
 20
6.677778037433152
 30
0.0
  0
SPLINE
  5
52
330
1F
100
AcDbEntity
  8
Layer 1
 62
    97
420
  4295745
370
    35
100
AcDbSpline
210
0.0
220
0.0
230
1.0
 70
     8
 71
     3
 72
    26
 73
    22
 74
     0
 42
0.0000000001
 43
0.0000000001
 12
1.0
 22
0.0
 32
0.0
 13
1.0
 23
0.0
 33
0.0
 40
0.0
 40
0.0
 40
0.0
 40
0.0
 40
1.0
 40
1.0
 40
1.0
 40
2.0
 40
2.0
 40
2.0
 40
3.0
 40
3.0
 40
3.0
 40
4.0
 40
4.0
 40
4.0
 40
5.0
 40
5.0
 40
5.0
 40
6.0
 40
6.0
 40
6.0
 40
7.0
 40
7.0
 40
7.0
 40
7.0
 10
5.60416667115
 20
6.740277613627899
 30
0.0
 10
5.543055644761051
 20
6.786110777455798
 30
0.0
 10
5.452777866911051
 20
6.897221888655799
 30
0.0
 10
5.41111120021105
 20
6.961110862366849
 30
0.0
 10
5.24861103053895
 20
7.211110862566849
 30
0.0
 10
5.09861119996105
 20
7.481944196116848
 30
0.0
 10
4.85277769688895
 20
7.65138881023895
 30
0.0
 10
4.5944442785779
 20
7.829166418616849
 30
0.0
 10
4.238888637966848
 20
7.863888640866849
 30
0.0
 10
3.959721886305799
 20
7.723611202061051
 30
0.0
 10
3.770832912494748
 20
7.627777953422101
 30
0.0
 10
3.613888637466849
 20
7.4583333393
 30
0.0
 10
3.404166330305798
 20
7.422222143388949
 30
0.0
 10
3.579166415216849
 20
7.163888725077899
 30
0.0
 10
3.883332997355798
 20
7.02638880973895
 30
0.0
 10
4.184722056027899
 20
6.94305547633895
 30
0.0
 10
4.401388807638949
 20
6.883333423611051
 30
0.0
 10
4.623611030038949
 20
6.844444280377899
 30
0.0
 10
4.8472222261
 20
6.829166417816849
 30
0.0
 10
5.080555390077899
 20
6.812499581594748
 30
0.0
 10
5.327777866811051
 20
6.816666502577899
 30
0.0
 10
5.52916675586105
 20
6.698610946927899
 30
0.0
  0
SPLINE
  5
53
330
1F
100
AcDbEntity
  8
Layer 1
 62
    97
420
  4295745
370
    35
100
AcDbSpline
210
0.0
220
0.0
230
1.0
 70
     8
 71
     3
 72
    35
 73
    31
 74
     0
 42
0.0000000001
 43
0.0000000001
 12
1.0
 22
0.0
 32
0.0
 13
1.0
 23
0.0
 33
0.0
 40
0.0
 40
0.0
 40
0.0
 40
0.0
 40
1.0
 40
1.0
 40
1.0
 40
2.0
 40
2.0
 40
2.0
 40
3.0
 40
3.0
 40
3.0
 40
4.0
 40
4.0
 40
4.0
 40
5.0
 40
5.0
 40
5.0
 40
6.0
 40
6.0
 40
6.0
 40
7.0
 40
7.0
 40
7.0
 40
8.0
 40
8.0
 40
8.0
 40
9.0
 40
9.0
 40
9.0
 40
10.0
 40
10.0
 40
10.0
 40
10.0
 10
6.31250000505
 20
6.829166841672101
 30
0.0
 10
6.52222231221105
 20
6.915278122394202
 30
0.0
 10
6.752777952722101
 20
6.947222397322101
 30
0.0
 10
6.961111286222101
 20
7.0375001751721
 30
0.0
 10
7.119444958766302
 20
7.105555646011051
 30
0.0
 10
7.262500344894201
 20
7.2083333391
 30
0.0
 10
7.379166503027899
 20
7.33472231286105
 30
0.0
 10
7.613889064522101
 20
7.59027778385
 30
0.0
 10
7.731944620172101
 20
7.9305555619
 30
0.0
 10
7.830555392277899
 20
8.262500345694201
 30
0.0
 10
7.8472222285
 20
8.316666927633152
 30
0.0
 10
7.862499667205799
 20
8.372222483233152
 30
0.0
 10
7.863889064722101
 20
8.427778038833152
 30
0.0
 10
7.8652776145279
 20
8.534722440977626
 30
0.0
 10
7.812500006250001
 20
8.638889107727627
 30
0.0
 10
7.822222398022101
 20
8.744444748138676
 30
0.0
 10
7.46527778375
 20
8.638889107727627
 30
0.0
 10
7.120833508572101
 20
8.498611456994201
 30
0.0
 10
6.776389233394202
 20
8.359722567994202
 30
0.0
 10
6.663889148533151
 20
8.313889404166302
 30
0.0
 10
6.551389063672101
 20
8.268055816483152
 30
0.0
 10
6.448611370583151
 20
8.204166842772102
 30
0.0
 10
6.283333677444202
 20
8.100000176022101
 30
0.0
 10
6.14722231191105
 20
7.945833424461051
 30
0.0
 10
6.081944788394201
 20
7.761111371633151
 30
0.0
 10
6.016666841022101
 20
7.577777868611051
 30
0.0
 10
6.025000259133152
 20
7.365278037983152
 30
0.0
 10
6.120833507772101
 20
7.194444874055252
 30
0.0
 10
6.17361111605
 20
7.100000599077353
 30
0.0
 10
6.25138897866105
 20
7.020833762805252
 30
0.0
 10
6.323611370483151
 20
6.940278376727353
 30
0.0
  0
SPLINE
  5
54
330
1F
100
AcDbEntity
  8
Layer 1
 62
    97
420
  4295745
370
    35
100
AcDbSpline
210
0.0
220
0.0
230
1.0
 70
     8
 71
     3
 72
     8
 73
     4
 74
     0
 42
0.0000000001
 43
0.0000000001
 12
1.0
 22
0.0
 32
0.0
 13
1.0
 23
0.0
 33
0.0
 40
0.0
 40
0.0
 40
0.0
 40
0.0
 40
1.0
 40
1.0
 40
1.0
 40
1.0
 10
6.176389063372101
 20
6.737500090161051
 30
0.0
 10
6.133333423011051
 20
6.775000259733151
 30
0.0
 10
6.0833333382
 20
6.804166587338949
 30
0.0
 10
6.0277777826
 20
6.815277952772101
 30
0.0
  0
SPLINE
  5
55
330
1F
100
AcDbEntity
  8
Layer 1
 62
    97
420
  4295745
370
    35
100
AcDbSpline
210
0.0
220
0.0
230
1.0
 70
     8
 71
     3
 72
    26
 73
    22
 74
     0
 42
0.0000000001
 43
0.0000000001
 12
1.0
 22
0.0
 32
0.0
 13
1.0
 23
0.0
 33
0.0
 40
0.0
 40
0.0
 40
0.0
 40
0.0
 40
1.0
 40
1.0
 40
1.0
 40
2.0
 40
2.0
 40
2.0
 40
3.0
 40
3.0
 40
3.0
 40
4.0
 40
4.0
 40
4.0
 40
5.0
 40
5.0
 40
5.0
 40
6.0
 40
6.0
 40
6.0
 40
7.0
 40
7.0
 40
7.0
 40
7.0
 10
6.230555645311051
 20
6.6847220580279
 30
0.0
 10
6.273611285672101
 20
6.636110946877899
 30
0.0
 10
6.31250000505
 20
6.5833333386
 30
0.0
 10
6.35416667175
 20
6.53333325378895
 30
0.0
 10
6.49444453441105
 20
6.365277613327899
 30
0.0
 10
6.6944444498
 20
6.230555645311051
 30
0.0
 10
6.913888724877899
 20
6.22777769798895
 30
0.0
 10
7.0597220583279
 20
6.226388724327899
 30
0.0
 10
7.198610947327899
 20
6.28333325358895
 30
0.0
 10
7.330555391877899
 20
6.344444279977899
 30
0.0
 10
7.487499666905799
 20
6.419444195266848
 30
0.0
 10
7.644443941933698
 20
6.50694444965
 30
0.0
 10
7.752777953522101
 20
6.641666417666849
 30
0.0
 10
7.809722058927899
 20
6.7124998358279
 30
0.0
 10
7.85416667295
 20
6.797222142888949
 30
0.0
 10
7.9277776145779
 20
6.851388724827899
 30
0.0
 10
7.747222058877899
 20
6.995833084616849
 30
0.0
 10
7.5555555616
 20
7.144444365388949
 30
0.0
 10
7.32638889475
 20
7.1805555613
 30
0.0
 10
7.2875001753721
 20
7.18611103208895
 30
0.0
 10
7.2500000058
 20
7.18888897941105
 30
0.0
 10
7.211111286422101
 20
7.18888897941105
 30
0.0
  0
SPLINE
  5
56
330
1F
100
AcDbEntity
  8
Layer 1
 62
    97
420
  4295745
370
    35
100
AcDbSpline
210
0.0
220
0.0
230
1.0
 70
     8
 71
     3
 72
    11
 73
     7
 74
     0
 42
0.0000000001
 43
0.0000000001
 12
1.0
 22
0.0
 32
0.0
 13
1.0
 23
0.0
 33
0.0
 40
0.0
 40
0.0
 40
0.0
 40
0.0
 40
1.0
 40
1.0
 40
1.0
 40
2.0
 40
2.0
 40
2.0
 40
2.0
 10
6.2777777828
 20
6.988889064022101
 30
0.0
 10
6.218055730072101
 20
6.9722222278
 30
0.0
 10
6.159722227150001
 20
6.955555815433152
 30
0.0
 10
6.100000174422101
 20
6.93750000555
 30
0.0
 10
6.026389232794202
 20
6.9166666722
 30
0.0
 10
5.952777867311051
 20
6.894444365188949
 30
0.0
 10
5.886111370133151
 20
6.858333169277899
 30
0.0
  0
SPLINE
  5
57
330
1F
100
AcDbEntity
  8
Layer 1
 62
    97
420
  4295745
370
    35
100
AcDbSpline
210
0.0
220
0.0
230
1.0
 70
     8
 71
     3
 72
    20
 73
    16
 74
     0
 42
0.0000000001
 43
0.0000000001
 12
1.0
 22
0.0
 32
0.0
 13
1.0
 23
0.0
 33
0.0
 40
0.0
 40
0.0
 40
0.0
 40
0.0
 40
1.0
 40
1.0
 40
1.0
 40
2.0
 40
2.0
 40
2.0
 40
3.0
 40
3.0
 40
3.0
 40
4.0
 40
4.0
 40
4.0
 40
5.0
 40
5.0
 40
5.0
 40
5.0
 10
6.2361111161
 20
6.655555730422101
 30
0.0
 10
6.323610946627899
 20
6.63194444975
 30
0.0
 10
6.388888894
 20
6.561111455444202
 30
0.0
 10
6.46527778295
 20
6.5138888941
 30
0.0
 10
6.5972222275
 20
6.43194453436105
 30
0.0
 10
6.758333423511051
 20
6.420833168927899
 30
0.0
 10
6.913888724877899
 20
6.41527769813895
 30
0.0
 10
6.987499666505799
 20
6.412499750816849
 30
0.0
 10
7.06250000565
 20
6.41111120101105
 30
0.0
 10
7.134722397472101
 20
6.425000089911051
 30
0.0
 10
7.226388725127899
 20
6.441666926133151
 30
0.0
 10
7.31250000585
 20
6.483333592833151
 30
0.0
 10
7.39583333925
 20
6.52222231221105
 30
0.0
 10
7.5555555616
 20
6.59861120116105
 30
0.0
 10
7.71527778395
 20
6.675000090111051
 30
0.0
 10
7.858333170077899
 20
6.7777777832
 30
0.0
  0
SPLINE
  5
58
330
1F
100
AcDbEntity
  8
Layer 1
 62
    97
420
  4295745
370
    35
100
AcDbSpline
210
0.0
220
0.0
230
1.0
 70
     8
 71
     3
 72
    11
 73
     7
 74
     0
 42
0.0000000001
 43
0.0000000001
 12
1.0
 22
0.0
 32
0.0
 13
1.0
 23
0.0
 33
0.0
 40
0.0
 40
0.0
 40
0.0
 40
0.0
 40
1.0
 40
1.0
 40
1.0
 40
2.0
 40
2.0
 40
2.0
 40
2.0
 10
5.65972222675
 20
6.711111286022101
 30
0.0
 10
5.61805556005
 20
6.733333593033151
 30
0.0
 10
5.57499991968895
 20
6.755555900044202
 30
0.0
 10
5.53333325298895
 20
6.776389233394202
 30
0.0
 10
5.405555305566849
 20
6.843055730572101
 30
0.0
 10
5.277777782
 20
6.909722651605252
 30
0.0
 10
5.14583333745
 20
6.966667180866303
 30
0.0
  0
SPLINE
  5
59
330
1F
100
AcDbEntity
  8
Layer 1
 62
    97
420
  4295745
370
    35
100
AcDbSpline
210
0.0
220
0.0
230
1.0
 70
     8
 71
     3
 72
    11
 73
     7
 74
     0
 42
0.0000000001
 43
0.0000000001
 12
1.0
 22
0.0
 32
0.0
 13
1.0
 23
0.0
 33
0.0
 40
0.0
 40
0.0
 40
0.0
 40
0.0
 40
1.0
 40
1.0
 40
1.0
 40
2.0
 40
2.0
 40
2.0
 40
2.0
 10
7.440277953272101
 20
8.58194436653895
 30
0.0
 10
7.34027778365
 20
8.49861103313895
 30
0.0
 10
7.2916666725
 20
8.370833085716848
 30
0.0
 10
7.245833508672101
 20
8.2500000066
 30
0.0
 10
7.231944619772101
 20
8.212499837027899
 30
0.0
 10
7.218055730872101
 20
8.17500009131105
 30
0.0
 10
7.204166841972101
 20
8.13749992173895
 30
0.0
  0
SPLINE
  5
5A
330
1F
100
AcDbEntity
  8
Layer 1
 62
    97
420
  4295745
370
    35
100
AcDbSpline
210
0.0
220
0.0
230
1.0
 70
     8
 71
     3
 72
    11
 73
     7
 74
     0
 42
0.0000000001
 43
0.0000000001
 12
1.0
 22
0.0
 32
0.0
 13
1.0
 23
0.0
 33
0.0
 40
0.0
 40
0.0
 40
0.0
 40
0.0
 40
1.0
 40
1.0
 40
1.0
 40
2.0
 40
2.0
 40
2.0
 40
2.0
 10
7.134722397472101
 20
8.44583342486105
 30
0.0
 10
7.031944704383151
 20
8.2916666733
 30
0.0
 10
7.033333678044202
 20
8.0930557315721
 30
0.0
 10
7.00138897926105
 20
7.911111202211051
 30
0.0
 10
6.99861103193895
 20
7.89583333965
 30
0.0
 10
6.995833508472101
 20
7.88055547708895
 30
0.0
 10
6.983333593233152
 20
7.872222482833151
 30
0.0
  0
SPLINE
  5
5B
330
1F
100
AcDbEntity
  8
Layer 1
 62
    97
420
  4295745
370
    35
100
AcDbSpline
210
0.0
220
0.0
230
1.0
 70
     8
 71
     3
 72
     8
 73
     4
 74
     0
 42
0.0000000001
 43
0.0000000001
 12
1.0
 22
0.0
 32
0.0
 13
1.0
 23
0.0
 33
0.0
 40
0.0
 40
0.0
 40
0.0
 40
0.0
 40
1.0
 40
1.0
 40
1.0
 40
1.0
 10
6.862500090261051
 20
8.31388898031105
 30
0.0
 10
6.805555561
 20
8.1069446204721
 30
0.0
 10
6.879166926483151
 20
7.88749992153895
 30
0.0
 10
6.855555645811051
 20
7.67500009091105
 30
0.0
  0
SPLINE
  5
5C
330
1F
100
AcDbEntity
  8
Layer 1
 62
    97
420
  4295745
370
    35
100
AcDbSpline
210
0.0
220
0.0
230
1.0
 70
     8
 71
     3
 72
     8
 73
     4
 74
     0
 42
0.0000000001
 43
0.0000000001
 12
1.0
 22
0.0
 32
0.0
 13
1.0
 23
0.0
 33
0.0
 40
0.0
 40
0.0
 40
0.0
 40
0.0
 40
1.0
 40
1.0
 40
1.0
 40
1.0
 10
6.711111286022101
 20
7.500000006
 30
0.0
 10
6.698611370783151
 20
7.731944620172101
 30
0.0
 10
6.670833592983151
 20
7.961111287022101
 30
0.0
 10
6.629166926283151
 20
8.18888898021105
 30
0.0
  0
SPLINE
  5
5D
330
1F
100
AcDbEntity
  8
Layer 1
 62
    97
420
  4295745
370
    35
100
AcDbSpline
210
0.0
220
0.0
230
1.0
 70
     8
 71
     3
 72
     8
 73
     4
 74
     0
 42
0.0000000001
 43
0.0000000001
 12
1.0
 22
0.0
 32
0.0
 13
1.0
 23
0.0
 33
0.0
 40
0.0
 40
0.0
 40
0.0
 40
0.0
 40
1.0
 40
1.0
 40
1.0
 40
1.0
 10
6.418055645461051
 20
8.065277953772101
 30
0.0
 10
6.45972231216105
 20
7.811111456444202
 30
0.0
 10
6.515277867761051
 20
7.558333508922101
 30
0.0
 10
6.587500259583151
 20
7.311111456044202
 30
0.0
  0
SPLINE
  5
5E
330
1F
100
AcDbEntity
  8
Layer 1
 62
    97
420
  4295745
370
    35
100
AcDbSpline
210
0.0
220
0.0
230
1.0
 70
     8
 71
     3
 72
     8
 73
     4
 74
     0
 42
0.0000000001
 43
0.0000000001
 12
1.0
 22
0.0
 32
0.0
 13
1.0
 23
0.0
 33
0.0
 40
0.0
 40
0.0
 40
0.0
 40
0.0
 40
1.0
 40
1.0
 40
1.0
 40
1.0
 10
6.25138897866105
 20
7.86944453551105
 30
0.0
 10
6.308333507922101
 20
7.62638897976105
 30
0.0
 10
6.379166926083151
 20
7.386111371333151
 30
0.0
 10
6.463888809288949
 20
7.15138880983895
 30
0.0
  0
SPLINE
  5
5F
330
1F
100
AcDbEntity
  8
Layer 1
 62
    97
420
  4295745
370
    35
100
AcDbSpline
210
0.0
220
0.0
230
1.0
 70
     8
 71
     3
 72
     8
 73
     4
 74
     0
 42
0.0000000001
 43
0.0000000001
 12
1.0
 22
0.0
 32
0.0
 13
1.0
 23
0.0
 33
0.0
 40
0.0
 40
0.0
 40
0.0
 40
0.0
 40
1.0
 40
1.0
 40
1.0
 40
1.0
 10
6.120833507772101
 20
7.62361103243895
 30
0.0
 10
6.183333507822101
 20
7.406944280827899
 30
0.0
 10
6.27083333835
 20
7.195833423861051
 30
0.0
 10
6.379166926083151
 20
6.99861103193895
 30
0.0
  0
SPLINE
  5
60
330
1F
100
AcDbEntity
  8
Layer 1
 62
    97
420
  4295745
370
    35
100
AcDbSpline
210
0.0
220
0.0
230
1.0
 70
     8
 71
     3
 72
    11
 73
     7
 74
     0
 42
0.0000000001
 43
0.0000000001
 12
1.0
 22
0.0
 32
0.0
 13
1.0
 23
0.0
 33
0.0
 40
0.0
 40
0.0
 40
0.0
 40
0.0
 40
1.0
 40
1.0
 40
1.0
 40
2.0
 40
2.0
 40
2.0
 40
2.0
 10
7.244444111155798
 20
8.1138890649221
 30
0.0
 10
7.343054883261597
 20
8.16111120241105
 30
0.0
 10
7.4444444504
 20
8.20138889545
 30
0.0
 10
7.5416666727
 20
8.2500000066
 30
0.0
 10
7.638888895
 20
8.30000009141105
 30
0.0
 10
7.731944620172101
 20
8.35972214413895
 30
0.0
 10
7.8027776144779
 20
8.4444444512
 30
0.0
  0
SPLINE
  5
61
330
1F
100
AcDbEntity
  8
Layer 1
 62
    97
420
  4295745
370
    35
100
AcDbSpline
210
0.0
220
0.0
230
1.0
 70
     8
 71
     3
 72
     8
 73
     4
 74
     0
 42
0.0000000001
 43
0.0000000001
 12
1.0
 22
0.0
 32
0.0
 13
1.0
 23
0.0
 33
0.0
 40
0.0
 40
0.0
 40
0.0
 40
0.0
 40
1.0
 40
1.0
 40
1.0
 40
1.0
 10
7.705555392177899
 20
8.0972222287
 30
0.0
 10
7.480555222455799
 20
8.066666503577899
 30
0.0
 10
7.27083333915
 20
7.97083325493895
 30
0.0
 10
7.063888555455798
 20
7.87638897996105
 30
0.0
  0
SPLINE
  5
62
330
1F
100
AcDbEntity
  8
Layer 1
 62
    97
420
  4295745
370
    35
100
AcDbSpline
210
0.0
220
0.0
230
1.0
 70
     8
 71
     3
 72
    11
 73
     7
 74
     0
 42
0.0000000001
 43
0.0000000001
 12
1.0
 22
0.0
 32
0.0
 13
1.0
 23
0.0
 33
0.0
 40
0.0
 40
0.0
 40
0.0
 40
0.0
 40
1.0
 40
1.0
 40
1.0
 40
2.0
 40
2.0
 40
2.0
 40
2.0
 10
7.625000006100001
 20
7.829166842472101
 30
0.0
 10
7.497222058677899
 20
7.845833678694202
 30
0.0
 10
7.365277614127899
 20
7.823611371683151
 30
0.0
 10
7.24305556135
 20
7.783333678644202
 30
0.0
 10
7.120833508572101
 20
7.743055985605253
 30
0.0
 10
7.004166502727899
 20
7.683333509022101
 30
0.0
 10
6.890277868061051
 20
7.623611456294202
 30
0.0
  0
SPLINE
  5
63
330
1F
100
AcDbEntity
  8
Layer 1
 62
    97
420
  4295745
370
    35
100
AcDbSpline
210
0.0
220
0.0
230
1.0
 70
     8
 71
     3
 72
     8
 73
     4
 74
     0
 42
0.0000000001
 43
0.0000000001
 12
1.0
 22
0.0
 32
0.0
 13
1.0
 23
0.0
 33
0.0
 40
0.0
 40
0.0
 40
0.0
 40
0.0
 40
1.0
 40
1.0
 40
1.0
 40
1.0
 10
7.419444619922101
 20
7.559722058727899
 30
0.0
 10
7.172222567044201
 20
7.508333000255798
 30
0.0
 10
6.927778037633152
 20
7.43750000595
 30
0.0
 10
6.691666926333151
 20
7.34583325443895
 30
0.0
  0
SPLINE
  5
64
330
1F
100
AcDbEntity
  8
Layer 1
 62
    97
420
  4295745
370
    35
100
AcDbSpline
210
0.0
220
0.0
230
1.0
 70
     8
 71
     3
 72
     8
 73
     4
 74
     0
 42
0.0000000001
 43
0.0000000001
 12
1.0
 22
0.0
 32
0.0
 13
1.0
 23
0.0
 33
0.0
 40
0.0
 40
0.0
 40
0.0
 40
0.0
 40
1.0
 40
1.0
 40
1.0
 40
1.0
 10
6.44305547593895
 20
7.015277868161051
 30
0.0
 10
6.698610946927899
 20
7.108333593333152
 30
0.0
 10
6.95138889445
 20
7.212500260083151
 30
0.0
 10
7.197222397522101
 20
7.329166842072101
 30
0.0
  0
SPLINE
  5
65
330
1F
100
AcDbEntity
  8
Layer 1
 62
    97
420
  4295745
370
    35
100
AcDbSpline
210
0.0
220
0.0
230
1.0
 70
     8
 71
     3
 72
    11
 73
     7
 74
     0
 42
0.0000000001
 43
0.0000000001
 12
1.0
 22
0.0
 32
0.0
 13
1.0
 23
0.0
 33
0.0
 40
0.0
 40
0.0
 40
0.0
 40
0.0
 40
1.0
 40
1.0
 40
1.0
 40
2.0
 40
2.0
 40
2.0
 40
2.0
 10
4.441666500677899
 20
7.390277868461051
 30
0.0
 10
4.647221886855799
 20
7.218055730872101
 30
0.0
 10
4.85416667055
 20
7.045833593283152
 30
0.0
 10
5.0597220567279
 20
6.872222482033151
 30
0.0
 10
5.09583325263895
 20
6.84166675691105
 30
0.0
 10
5.136110945677899
 20
6.811111455644202
 30
0.0
 10
5.181944109505799
 20
6.811111455644202
 30
0.0
  0
SPLINE
  5
66
330
1F
100
AcDbEntity
  8
Layer 1
 62
    97
420
  4295745
370
    35
100
AcDbSpline
210
0.0
220
0.0
230
1.0
 70
     8
 71
     3
 72
    11
 73
     7
 74
     0
 42
0.0000000001
 43
0.0000000001
 12
1.0
 22
0.0
 32
0.0
 13
1.0
 23
0.0
 33
0.0
 40
0.0
 40
0.0
 40
0.0
 40
0.0
 40
1.0
 40
1.0
 40
1.0
 40
2.0
 40
2.0
 40
2.0
 40
2.0
 10
4.147222310311051
 20
7.39583333925
 30
0.0
 10
4.329166839672101
 20
7.21666675721105
 30
0.0
 10
4.5277777814
 20
7.054166587538949
 30
0.0
 10
4.737500088561051
 20
6.90972222775
 30
0.0
 10
4.794444617822101
 20
6.870833508372101
 30
0.0
 10
4.85277769688895
 20
6.831944365138949
 30
0.0
 10
4.920833591583151
 20
6.820833423561051
 30
0.0
  0
SPLINE
  5
67
330
1F
100
AcDbEntity
  8
Layer 1
 62
    97
420
  4295745
370
    35
100
AcDbSpline
210
0.0
220
0.0
230
1.0
 70
     8
 71
     3
 72
     8
 73
     4
 74
     0
 42
0.0000000001
 43
0.0000000001
 12
1.0
 22
0.0
 32
0.0
 13
1.0
 23
0.0
 33
0.0
 40
0.0
 40
0.0
 40
0.0
 40
0.0
 40
1.0
 40
1.0
 40
1.0
 40
1.0
 10
3.94999991838895
 20
7.358333169677899
 30
0.0
 10
4.147222310311051
 20
7.15972222795
 30
0.0
 10
4.35277769648895
 20
6.956944365238949
 30
0.0
 10
4.612500088461051
 20
6.849999751166849
 30
0.0
  0
SPLINE
  5
68
330
1F
100
AcDbEntity
  8
Layer 1
 62
    97
420
  4295745
370
    35
100
AcDbSpline
210
0.0
220
0.0
230
1.0
 70
     8
 71
     3
 72
    11
 73
     7
 74
     0
 42
0.0000000001
 43
0.0000000001
 12
1.0
 22
0.0
 32
0.0
 13
1.0
 23
0.0
 33
0.0
 40
0.0
 40
0.0
 40
0.0
 40
0.0
 40
1.0
 40
1.0
 40
1.0
 40
2.0
 40
2.0
 40
2.0
 40
2.0
 10
3.75694444745
 20
7.32499992108895
 30
0.0
 10
3.8472222253
 20
7.24861103213895
 30
0.0
 10
3.93750000315
 20
7.172222143188949
 30
0.0
 10
4.02916675466105
 20
7.09583325423895
 30
0.0
 10
4.10972214073895
 20
7.0277777834
 30
0.0
 10
4.190277950672101
 20
6.95972231256105
 30
0.0
 10
4.28472222565
 20
6.91527769853895
 30
0.0
  0
SPLINE
  5
69
330
1F
100
AcDbEntity
  8
Layer 1
 62
    97
420
  4295745
370
    35
100
AcDbSpline
210
0.0
220
0.0
230
1.0
 70
     8
 71
     3
 72
    11
 73
     7
 74
     0
 42
0.0000000001
 43
0.0000000001
 12
1.0
 22
0.0
 32
0.0
 13
1.0
 23
0.0
 33
0.0
 40
0.0
 40
0.0
 40
0.0
 40
0.0
 40
1.0
 40
1.0
 40
1.0
 40
2.0
 40
2.0
 40
2.0
 40
2.0
 10
3.980555643511051
 20
7.00555547638895
 30
0.0
 10
3.91111119901105
 20
7.06250000565
 30
0.0
 10
3.841666754511051
 20
7.11805556125
 30
0.0
 10
3.77083333635
 20
7.172222143188949
 30
0.0
 10
3.72083325153895
 20
7.20972231276105
 30
0.0
 10
3.670833166727899
 20
7.245833084816849
 30
0.0
 10
3.61944453211105
 20
7.28333325438895
 30
0.0
  0
SPLINE
  5
6A
330
1F
100
AcDbEntity
  8
Layer 1
 62
    97
420
  4295745
370
    35
100
AcDbSpline
210
0.0
220
0.0
230
1.0
 70
     8
 71
     3
 72
     8
 73
     4
 74
     0
 42
0.0000000001
 43
0.0000000001
 12
1.0
 22
0.0
 32
0.0
 13
1.0
 23
0.0
 33
0.0
 40
0.0
 40
0.0
 40
0.0
 40
0.0
 40
1.0
 40
1.0
 40
1.0
 40
1.0
 10
6.394444364788949
 20
6.865277613727899
 30
0.0
 10
6.488888639766849
 20
6.724999751066849
 30
0.0
 10
6.60972214273895
 20
6.60277769828895
 30
0.0
 10
6.7500000054
 20
6.50694444965
 30
0.0
  0
SPLINE
  5
6B
330
1F
100
AcDbEntity
  8
Layer 1
 62
    97
420
  4295745
370
    35
100
AcDbSpline
210
0.0
220
0.0
230
1.0
 70
     8
 71
     3
 72
     8
 73
     4
 74
     0
 42
0.0000000001
 43
0.0000000001
 12
1.0
 22
0.0
 32
0.0
 13
1.0
 23
0.0
 33
0.0
 40
0.0
 40
0.0
 40
0.0
 40
0.0
 40
1.0
 40
1.0
 40
1.0
 40
1.0
 10
6.59583325383895
 20
6.8750000055
 30
0.0
 10
6.765277867961051
 20
6.69999992058895
 30
0.0
 10
6.9583333389
 20
6.54861111635
 30
0.0
 10
7.170833169527899
 20
6.427777613377899
 30
0.0
  0
SPLINE
  5
6C
330
1F
100
AcDbEntity
  8
Layer 1
 62
    97
420
  4295745
370
    35
100
AcDbSpline
210
0.0
220
0.0
230
1.0
 70
     8
 71
     3
 72
     8
 73
     4
 74
     0
 42
0.0000000001
 43
0.0000000001
 12
1.0
 22
0.0
 32
0.0
 13
1.0
 23
0.0
 33
0.0
 40
0.0
 40
0.0
 40
0.0
 40
0.0
 40
1.0
 40
1.0
 40
1.0
 40
1.0
 10
6.83888880958895
 20
6.87361103183895
 30
0.0
 10
6.987500090361051
 20
6.71666675681105
 30
0.0
 10
7.1666666724
 20
6.586110862066849
 30
0.0
 10
7.362499666805799
 20
6.49305556075
 30
0.0
  0
SPLINE
  5
6D
330
1F
100
AcDbEntity
  8
Layer 1
 62
    97
420
  4295745
370
    35
100
AcDbSpline
210
0.0
220
0.0
230
1.0
 70
     8
 71
     3
 72
     8
 73
     4
 74
     0
 42
0.0000000001
 43
0.0000000001
 12
1.0
 22
0.0
 32
0.0
 13
1.0
 23
0.0
 33
0.0
 40
0.0
 40
0.0
 40
0.0
 40
0.0
 40
1.0
 40
1.0
 40
1.0
 40
1.0
 10
7.0874998361279
 20
6.848611201361051
 30
0.0
 10
7.220832830483698
 20
6.74444453461105
 30
0.0
 10
7.363889064322101
 20
6.6527777831
 30
0.0
 10
7.515277444705799
 20
6.57638889415
 30
0.0
  0
SPLINE
  5
6E
330
1F
100
AcDbEntity
  8
Layer 1
 62
    97
420
  4295745
370
    35
100
AcDbSpline
210
0.0
220
0.0
230
1.0
 70
     8
 71
     3
 72
     8
 73
     4
 74
     0
 42
0.0000000001
 43
0.0000000001
 12
1.0
 22
0.0
 32
0.0
 13
1.0
 23
0.0
 33
0.0
 40
0.0
 40
0.0
 40
0.0
 40
0.0
 40
1.0
 40
1.0
 40
1.0
 40
1.0
 10
7.3374998363279
 20
6.82638889435
 30
0.0
 10
7.436110608433697
 20
6.76249992063895
 30
0.0
 10
7.54861111715
 20
6.7222222276
 30
0.0
 10
7.665277275283698
 20
6.711111286022101
 30
0.0
  0
SPLINE
  5
6F
330
1F
100
AcDbEntity
  8
Layer 1
 62
    97
420
  4295745
370
    35
100
AcDbSpline
210
0.0
220
0.0
230
1.0
 70
     8
 71
     3
 72
     8
 73
     4
 74
     0
 42
0.0000000001
 43
0.0000000001
 12
1.0
 22
0.0
 32
0.0
 13
1.0
 23
0.0
 33
0.0
 40
0.0
 40
0.0
 40
0.0
 40
0.0
 40
1.0
 40
1.0
 40
1.0
 40
1.0
 10
7.529166333605798
 20
7.0375001751721
 30
0.0
 10
7.324999497233698
 20
7.02222231261105
 30
0.0
 10
7.115277613927899
 20
6.998611455794202
 30
0.0
 10
6.938888555355798
 20
6.89583333885
 30
0.0
  0
SPLINE
  5
70
330
1F
100
AcDbEntity
  8
Layer 1
 62
    97
420
  4295745
370
    35
100
AcDbSpline
210
0.0
220
0.0
230
1.0
 70
     8
 71
     3
 72
     8
 73
     4
 74
     0
 42
0.0000000001
 43
0.0000000001
 12
1.0
 22
0.0
 32
0.0
 13
1.0
 23
0.0
 33
0.0
 40
0.0
 40
0.0
 40
0.0
 40
0.0
 40
1.0
 40
1.0
 40
1.0
 40
1.0
 10
7.718055731272101
 20
6.93750000555
 30
0.0
 10
7.568055900694202
 20
6.93194453476105
 30
0.0
 10
7.418056070116303
 20
6.90972222775
 30
0.0
 10
7.273611286472101
 20
6.86944453471105
 30
0.0
  0
SPLINE
  5
71
330
1F
100
AcDbEntity
  8
Layer 1
 62
    97
420
  4295745
370
    35
100
AcDbSpline
210
0.0
220
0.0
230
1.0
 70
     8
 71
     3
 72
     8
 73
     4
 74
     0
 42
0.0000000001
 43
0.0000000001
 12
1.0
 22
0.0
 32
0.0
 13
1.0
 23
0.0
 33
0.0
 40
0.0
 40
0.0
 40
0.0
 40
0.0
 40
1.0
 40
1.0
 40
1.0
 40
1.0
 10
7.341666333455798
 20
7.12638897936105
 30
0.0
 10
7.136110947277899
 20
7.087500259983151
 30
0.0
 10
6.937499581694748
 20
7.016666841822101
 30
0.0
 10
6.752777528866849
 20
6.919444619522101
 30
0.0
  0
SPLINE
  5
72
330
1F
100
AcDbEntity
  8
Layer 1
 62
    97
420
  4295745
370
    35
100
AcDbSpline
210
0.0
220
0.0
230
1.0
 70
     8
 71
     3
 72
     8
 73
     4
 74
     0
 42
0.0000000001
 43
0.0000000001
 12
1.0
 22
0.0
 32
0.0
 13
1.0
 23
0.0
 33
0.0
 40
0.0
 40
0.0
 40
0.0
 40
0.0
 40
1.0
 40
1.0
 40
1.0
 40
1.0
 10
3.747222055677899
 20
7.39722231291105
 30
0.0
 10
3.7083333363
 20
7.422222143388949
 30
0.0
 10
3.670833166727899
 20
7.447222397722101
 30
0.0
 10
3.63194444735
 20
7.47083325453895
 30
0.0
  0
SPLINE
  5
73
330
1F
100
AcDbEntity
  8
Layer 1
 62
    97
420
  4295745
370
    35
100
AcDbSpline
210
0.0
220
0.0
230
1.0
 70
     8
 71
     3
 72
     8
 73
     4
 74
     0
 42
0.0000000001
 43
0.0000000001
 12
1.0
 22
0.0
 32
0.0
 13
1.0
 23
0.0
 33
0.0
 40
0.0
 40
0.0
 40
0.0
 40
0.0
 40
1.0
 40
1.0
 40
1.0
 40
1.0
 10
3.922222140588949
 20
7.43750000595
 30
0.0
 10
3.873611029438949
 20
7.47916667265
 30
0.0
 10
3.822221970966849
 20
7.519444365688949
 30
0.0
 10
3.76944436268895
 20
7.55694453526105
 30
0.0
  0
SPLINE
  5
74
330
1F
100
AcDbEntity
  8
Layer 1
 62
    97
420
  4295745
370
    35
100
AcDbSpline
210
0.0
220
0.0
230
1.0
 70
     8
 71
     3
 72
     8
 73
     4
 74
     0
 42
0.0000000001
 43
0.0000000001
 12
1.0
 22
0.0
 32
0.0
 13
1.0
 23
0.0
 33
0.0
 40
0.0
 40
0.0
 40
0.0
 40
0.0
 40
1.0
 40
1.0
 40
1.0
 40
1.0
 10
4.54027769663895
 20
7.413888725277899
 30
0.0
 10
4.463888807688949
 20
7.5416666727
 30
0.0
 10
4.384721971416849
 20
7.672222143588949
 30
0.0
 10
4.26944436308895
 20
7.766666418566849
 30
0.0
  0
SPLINE
  5
75
330
1F
100
AcDbEntity
  8
Layer 1
 62
    97
420
  4295745
370
    35
100
AcDbSpline
210
0.0
220
0.0
230
1.0
 70
     8
 71
     3
 72
     8
 73
     4
 74
     0
 42
0.0000000001
 43
0.0000000001
 12
1.0
 22
0.0
 32
0.0
 13
1.0
 23
0.0
 33
0.0
 40
0.0
 40
0.0
 40
0.0
 40
0.0
 40
1.0
 40
1.0
 40
1.0
 40
1.0
 10
4.7819442787279
 20
7.27222231281105
 30
0.0
 10
4.72777769678895
 20
7.429166587838949
 30
0.0
 10
4.677777611977899
 20
7.594444704833151
 30
0.0
 10
4.56805547443895
 20
7.72083325473895
 30
0.0
  0
SPLINE
  5
76
330
1F
100
AcDbEntity
  8
Layer 1
 62
    97
420
  4295745
370
    35
100
AcDbSpline
210
0.0
220
0.0
230
1.0
 70
     8
 71
     3
 72
     8
 73
     4
 74
     0
 42
0.0000000001
 43
0.0000000001
 12
1.0
 22
0.0
 32
0.0
 13
1.0
 23
0.0
 33
0.0
 40
0.0
 40
0.0
 40
0.0
 40
0.0
 40
1.0
 40
1.0
 40
1.0
 40
1.0
 10
4.143055389327899
 20
7.473611201861051
 30
0.0
 10
4.091666330855799
 20
7.5416666727
 30
0.0
 10
4.0319442781279
 20
7.60416667275
 30
0.0
 10
3.966666330755798
 20
7.65972222835
 30
0.0
  0
SPLINE
  5
77
330
1F
100
AcDbEntity
  8
Layer 1
 62
    97
420
  4295745
370
    35
100
AcDbSpline
210
0.0
220
0.0
230
1.0
 70
     8
 71
     3
 72
    11
 73
     7
 74
     0
 42
0.0000000001
 43
0.0000000001
 12
1.0
 22
0.0
 32
0.0
 13
1.0
 23
0.0
 33
0.0
 40
0.0
 40
0.0
 40
0.0
 40
0.0
 40
1.0
 40
1.0
 40
1.0
 40
2.0
 40
2.0
 40
2.0
 40
2.0
 10
4.334722310461051
 20
7.468055731072101
 30
0.0
 10
4.28472222565
 20
7.53472222825
 30
0.0
 10
4.233333591033151
 20
7.600000175622101
 30
0.0
 10
4.179166585238949
 20
7.663889149333151
 30
0.0
 10
4.162499749016849
 20
7.683333509022101
 30
0.0
 10
4.14444436298895
 20
7.704166842372101
 30
0.0
 10
4.120833082316849
 20
7.711111286822101
 30
0.0
  0
SPLINE
  5
78
330
1F
100
AcDbEntity
  8
Layer 1
 62
    97
420
  4295745
370
    35
100
AcDbSpline
210
0.0
220
0.0
230
1.0
 70
     8
 71
     3
 72
     8
 73
     4
 74
     0
 42
0.0000000001
 43
0.0000000001
 12
1.0
 22
0.0
 32
0.0
 13
1.0
 23
0.0
 33
0.0
 40
0.0
 40
0.0
 40
0.0
 40
0.0
 40
1.0
 40
1.0
 40
1.0
 40
1.0
 10
5.00138897766105
 20
7.1000001752221
 30
0.0
 10
4.897222310911051
 20
7.2500000058
 30
0.0
 10
4.926389062372101
 20
7.46527778375
 30
0.0
 10
4.822222395622101
 20
7.613889064522101
 30
0.0
  0
SPLINE
  5
79
330
1F
100
AcDbEntity
  8
Layer 1
 62
    97
420
  4295745
370
    35
100
AcDbSpline
210
0.0
220
0.0
230
1.0
 70
     8
 71
     3
 72
     8
 73
     4
 74
     0
 42
0.0000000001
 43
0.0000000001
 12
1.0
 22
0.0
 32
0.0
 13
1.0
 23
0.0
 33
0.0
 40
0.0
 40
0.0
 40
0.0
 40
0.0
 40
1.0
 40
1.0
 40
1.0
 40
1.0
 10
5.081944363738949
 20
7.362500090661051
 30
0.0
 10
5.115277612327899
 20
7.20972231276105
 30
0.0
 10
5.151388808238949
 20
7.052778037733152
 30
0.0
 10
5.2361111153
 20
6.920833593183151
 30
0.0
  0
SPLINE
  5
7A
330
1F
100
AcDbEntity
  8
Layer 1
 62
   225
420
  9193857
370
    35
100
AcDbSpline
210
0.0
220
0.0
230
1.0
 70
     8
 71
     3
 72
    35
 73
    31
 74
     0
 42
0.0000000001
 43
0.0000000001
 12
1.0
 22
0.0
 32
0.0
 13
1.0
 23
0.0
 33
0.0
 40
0.0
 40
0.0
 40
0.0
 40
0.0
 40
1.0
 40
1.0
 40
1.0
 40
2.0
 40
2.0
 40
2.0
 40
3.0
 40
3.0
 40
3.0
 40
4.0
 40
4.0
 40
4.0
 40
5.0
 40
5.0
 40
5.0
 40
6.0
 40
6.0
 40
6.0
 40
7.0
 40
7.0
 40
7.0
 40
8.0
 40
8.0
 40
8.0
 40
9.0
 40
9.0
 40
9.0
 40
10.0
 40
10.0
 40
10.0
 40
10.0
 10
6.668055645661051
 20
3.641666839122101
 30
0.0
 10
6.56388897891105
 20
3.554167008594202
 30
0.0
 10
6.45972231216105
 20
3.46527778055
 30
0.0
 10
6.356944619072101
 20
3.377777950022101
 30
0.0
 10
6.316666926033151
 20
3.343055727772101
 30
0.0
 10
6.275000259333152
 20
3.308333505522101
 30
0.0
 10
6.226389148183151
 20
3.286111622366302
 30
0.0
 10
6.175000089711051
 20
3.262500341694202
 30
0.0
 10
6.118055984305252
 20
3.255555897244202
 30
0.0
 10
6.061111455044202
 20
3.250000850310504
 30
0.0
 10
5.852778121544202
 20
3.233334014088403
 30
0.0
 10
5.638889317255252
 20
3.255556744954706
 30
0.0
 10
5.444444872655252
 20
3.331945633904706
 30
0.0
 10
5.250000428055252
 20
3.408334522854706
 30
0.0
 10
5.075000343144202
 20
3.541667517210504
 30
0.0
 10
4.963889231944202
 20
3.718056575782605
 30
0.0
 10
4.794444617822101
 20
3.987501359526807
 30
0.0
 10
4.784722649905252
 20
4.340278628960504
 30
0.0
 10
4.908333676344202
 20
4.634723243182605
 30
0.0
 10
5.030555729122101
 20
4.927778883743655
 30
0.0
 10
5.273611284872101
 20
5.162501021382605
 30
0.0
 10
5.555555983855252
 20
5.309723328493655
 30
0.0
 10
5.620833931227353
 20
5.344445550743655
 30
0.0
 10
5.688889402066303
 20
5.373612302204706
 30
0.0
 10
5.761111370033151
 20
5.386112217443656
 30
0.0
 10
5.827777867211051
 20
5.397223159021554
 30
0.0
 10
5.894444788244201
 20
5.391667688232605
 30
0.0
 10
5.961111285422101
 20
5.380556746654706
 30
0.0
 10
6.325000344144201
 20
5.318056746604706
 30
0.0
 10
6.655555730422101
 20
5.047223413054706
 30
0.0
 10
6.748611455594202
 20
4.690278798782605
 30
0.0
  0
SPLINE
  5
7B
330
1F
100
AcDbEntity
  8
Layer 1
 62
   225
420
  9193857
370
    35
100
AcDbSpline
210
0.0
220
0.0
230
1.0
 70
     8
 71
     3
 72
    23
 73
    19
 74
     0
 42
0.0000000001
 43
0.0000000001
 12
1.0
 22
0.0
 32
0.0
 13
1.0
 23
0.0
 33
0.0
 40
0.0
 40
0.0
 40
0.0
 40
0.0
 40
1.0
 40
1.0
 40
1.0
 40
2.0
 40
2.0
 40
2.0
 40
3.0
 40
3.0
 40
3.0
 40
4.0
 40
4.0
 40
4.0
 40
5.0
 40
5.0
 40
5.0
 40
6.0
 40
6.0
 40
6.0
 40
6.0
 10
6.40416675656105
 20
3.4583333361
 30
0.0
 10
6.6111111164
 20
3.422222564044202
 30
0.0
 10
6.827777868011051
 20
3.52083333615
 30
0.0
 10
6.96388880968895
 20
3.681944108305798
 30
0.0
 10
7.099999751366849
 20
3.843054880461597
 30
0.0
 10
7.161110777755798
 20
4.0555555588
 30
0.0
 10
7.168055222205798
 20
4.265277442105798
 30
0.0
 10
7.176388216461596
 20
4.508332997855798
 30
0.0
 10
7.113888216411596
 20
4.754166500927899
 30
0.0
 10
6.990277613827899
 20
4.963888384233697
 30
0.0
 10
6.941666502677899
 20
5.047221717633698
 30
0.0
 10
6.879166502627899
 20
5.127777103711597
 30
0.0
 10
6.804166587338949
 20
5.188888553955798
 30
0.0
 10
6.738888639966849
 20
5.241666162233698
 30
0.0
 10
6.66527769833895
 20
5.279166331805798
 30
0.0
 10
6.5833333386
 20
5.293055220705798
 30
0.0
 10
6.483333168977899
 20
5.308333083266849
 30
0.0
 10
6.1847220576279
 20
5.237499665105799
 30
0.0
 10
6.281944279927899
 20
5.263888469244748
 30
0.0
  0
SPLINE
  5
7C
330
1F
100
AcDbEntity
  8
Layer 1
 62
   225
420
  9193857
370
    35
100
AcDbSpline
210
0.0
220
0.0
230
1.0
 70
     8
 71
     3
 72
    41
 73
    37
 74
     0
 42
0.0000000001
 43
0.0000000001
 12
1.0
 22
0.0
 32
0.0
 13
1.0
 23
0.0
 33
0.0
 40
0.0
 40
0.0
 40
0.0
 40
0.0
 40
1.0
 40
1.0
 40
1.0
 40
2.0
 40
2.0
 40
2.0
 40
3.0
 40
3.0
 40
3.0
 40
4.0
 40
4.0
 40
4.0
 40
5.0
 40
5.0
 40
5.0
 40
6.0
 40
6.0
 40
6.0
 40
7.0
 40
7.0
 40
7.0
 40
8.0
 40
8.0
 40
8.0
 40
9.0
 40
9.0
 40
9.0
 40
10.0
 40
10.0
 40
10.0
 40
11.0
 40
11.0
 40
11.0
 40
12.0
 40
12.0
 40
12.0
 40
12.0
 10
7.141666841922101
 20
4.545833167427899
 30
0.0
 10
7.155555730822101
 20
4.52083333695
 30
0.0
 10
7.1847220584279
 20
4.508332997855798
 30
0.0
 10
7.211111286422101
 20
4.4972220562779
 30
0.0
 10
7.5277777838
 20
4.383332997755798
 30
0.0
 10
7.890278292716302
 20
4.401388383783697
 30
0.0
 10
8.194444451
 20
4.545833167427899
 30
0.0
 10
8.259722398372102
 20
4.57638889255
 30
0.0
 10
8.3222223984221
 20
4.613889062122101
 30
0.0
 10
8.3750000067
 20
4.662500173272101
 30
0.0
 10
8.5111109483779
 20
4.788888723177899
 30
0.0
 10
8.5638885566558
 20
4.980555644311051
 30
0.0
 10
8.588889234844201
 20
5.163889147333151
 30
0.0
 10
8.6069446208721
 20
5.294444618222101
 30
0.0
 10
8.612500515516302
 20
5.427778036433152
 30
0.0
 10
8.579166843072102
 20
5.555555983855252
 30
0.0
 10
8.563889404366302
 20
5.611111539455252
 30
0.0
 10
8.5416666735
 20
5.665278121394202
 30
0.0
 10
8.518055392827899
 20
5.718056153527353
 30
0.0
 10
8.477777275933697
 20
5.806944957716302
 30
0.0
 10
8.4305555623
 20
5.894445212099454
 30
0.0
 10
8.3652776149279
 20
5.968056153727353
 30
0.0
 10
8.244444111955799
 20
6.104167095405252
 30
0.0
 10
8.068055053383697
 20
6.183333931677353
 30
0.0
 10
7.887499497683698
 20
6.197222820577353
 30
0.0
 10
7.706943941983698
 20
6.211111709477353
 30
0.0
 10
7.523610438961597
 20
6.166667095455252
 30
0.0
 10
7.363888216611596
 20
6.083333762055252
 30
0.0
 10
7.290277274983698
 20
6.045833592483151
 30
0.0
 10
7.218054883161597
 20
5.995833931527353
 30
0.0
 10
7.180554713589496
 20
5.922222566044201
 30
0.0
 10
7.162499327561597
 20
5.886111370133151
 30
0.0
 10
7.152776935789496
 20
5.845833677094202
 30
0.0
 10
7.126387707795295
 20
5.815277951972101
 30
0.0
 10
7.090276511884244
 20
5.773611285272101
 30
0.0
 10
7.024998988367395
 20
5.761111370033151
 30
0.0
 10
6.976387877217396
 20
5.78611120051105
 30
0.0
  0
SPLINE
  5
7D
330
1F
100
AcDbEntity
  8
Layer 1
 62
   225
420
  9193857
370
    35
100
AcDbSpline
210
0.0
220
0.0
230
1.0
 70
     8
 71
     3
 72
    11
 73
     7
 74
     0
 42
0.0000000001
 43
0.0000000001
 12
1.0
 22
0.0
 32
0.0
 13
1.0
 23
0.0
 33
0.0
 40
0.0
 40
0.0
 40
0.0
 40
0.0
 40
1.0
 40
1.0
 40
1.0
 40
2.0
 40
2.0
 40
2.0
 40
2.0
 10
6.7638888943
 20
5.929166586638949
 30
0.0
 10
6.663888724677899
 20
5.754166501727899
 30
0.0
 10
6.613889063722101
 20
5.54861111555
 30
0.0
 10
6.62361103163895
 20
5.3472222265
 30
0.0
 10
6.6250000053
 20
5.32499991948895
 30
0.0
 10
6.62638897896105
 20
5.302777612477899
 30
0.0
 10
6.641666417666849
 20
5.28611120011105
 30
0.0
  0
SPLINE
  5
7E
330
1F
100
AcDbEntity
  8
Layer 1
 62
   225
420
  9193857
370
    35
100
AcDbSpline
210
0.0
220
0.0
230
1.0
 70
     8
 71
     3
 72
    14
 73
    10
 74
     0
 42
0.0000000001
 43
0.0000000001
 12
1.0
 22
0.0
 32
0.0
 13
1.0
 23
0.0
 33
0.0
 40
0.0
 40
0.0
 40
0.0
 40
0.0
 40
1.0
 40
1.0
 40
1.0
 40
2.0
 40
2.0
 40
2.0
 40
3.0
 40
3.0
 40
3.0
 40
3.0
 10
8.055555562
 20
6.169444618922101
 30
0.0
 10
8.012500345494201
 20
6.240278037083152
 30
0.0
 10
7.929167012094202
 20
6.276389232994202
 30
0.0
 10
7.850000175822101
 20
6.295833592683151
 30
0.0
 10
7.668056070316303
 20
6.34166675651105
 30
0.0
 10
7.473611625716303
 20
6.326389317805252
 30
0.0
 10
7.294444619822101
 20
6.266666841222101
 30
0.0
 10
7.115277613927899
 20
6.206944364638949
 30
0.0
 10
6.954166841772101
 20
6.105555645211051
 30
0.0
 10
6.811111455644202
 20
5.983333592433151
 30
0.0
  0
SPLINE
  5
7F
330
1F
100
AcDbEntity
  8
Layer 1
 62
   225
420
  9193857
370
    35
100
AcDbSpline
210
0.0
220
0.0
230
1.0
 70
     8
 71
     3
 72
    23
 73
    19
 74
     0
 42
0.0000000001
 43
0.0000000001
 12
1.0
 22
0.0
 32
0.0
 13
1.0
 23
0.0
 33
0.0
 40
0.0
 40
0.0
 40
0.0
 40
0.0
 40
1.0
 40
1.0
 40
1.0
 40
2.0
 40
2.0
 40
2.0
 40
3.0
 40
3.0
 40
3.0
 40
4.0
 40
4.0
 40
4.0
 40
5.0
 40
5.0
 40
5.0
 40
6.0
 40
6.0
 40
6.0
 40
6.0
 10
5.862500089461051
 20
5.394444363988949
 30
0.0
 10
5.91111120061105
 20
5.643055390527899
 30
0.0
 10
5.855555645011051
 20
5.91111120061105
 30
0.0
 10
5.711111285222101
 20
6.120833083916849
 30
0.0
 10
5.691666925533151
 20
6.1499998353779
 30
0.0
 10
5.668055644861051
 20
6.177777613177899
 30
0.0
 10
5.636111369933151
 20
6.191666502077899
 30
0.0
 10
5.609722565794201
 20
6.202777443655799
 30
0.0
 10
5.579166840672101
 20
6.202777443655799
 30
0.0
 10
5.550000089211051
 20
6.20138889385
 30
0.0
 10
5.475000173922101
 20
6.197222396722101
 30
0.0
 10
5.401388808438949
 20
6.18888897861105
 30
0.0
 10
5.329166840472101
 20
6.175000089711051
 30
0.0
 10
5.2638888931
 20
6.162500174472101
 30
0.0
 10
5.198611369583151
 20
6.14583333825
 30
0.0
 10
5.13333342221105
 20
6.144444364588949
 30
0.0
 10
5.052778036133152
 20
6.143055390927899
 30
0.0
 10
4.975000173522101
 20
6.162499750616849
 30
0.0
 10
4.897222310911051
 20
6.18194453416105
 30
0.0
  0
SPLINE
  5
80
330
1F
100
AcDbEntity
  8
Layer 1
 62
   225
420
  9193857
370
    35
100
AcDbSpline
210
0.0
220
0.0
230
1.0
 70
     8
 71
     3
 72
     8
 73
     4
 74
     0
 42
0.0000000001
 43
0.0000000001
 12
1.0
 22
0.0
 32
0.0
 13
1.0
 23
0.0
 33
0.0
 40
0.0
 40
0.0
 40
0.0
 40
0.0
 40
1.0
 40
1.0
 40
1.0
 40
1.0
 10
5.50555547518895
 20
6.19999992018895
 30
0.0
 10
5.504166501527899
 20
6.2222222272
 30
0.0
 10
5.495833083416849
 20
6.24444453421105
 30
0.0
 10
5.481944194516849
 20
6.26249992023895
 30
0.0
  0
SPLINE
  5
81
330
1F
100
AcDbEntity
  8
Layer 1
 62
   225
420
  9193857
370
    35
100
AcDbSpline
210
0.0
220
0.0
230
1.0
 70
     8
 71
     3
 72
    26
 73
    22
 74
     0
 42
0.0000000001
 43
0.0000000001
 12
1.0
 22
0.0
 32
0.0
 13
1.0
 23
0.0
 33
0.0
 40
0.0
 40
0.0
 40
0.0
 40
0.0
 40
1.0
 40
1.0
 40
1.0
 40
2.0
 40
2.0
 40
2.0
 40
3.0
 40
3.0
 40
3.0
 40
4.0
 40
4.0
 40
4.0
 40
5.0
 40
5.0
 40
5.0
 40
6.0
 40
6.0
 40
6.0
 40
7.0
 40
7.0
 40
7.0
 40
7.0
 10
5.413888723677899
 20
6.329166841272101
 30
0.0
 10
5.363888638866849
 20
6.384722396872101
 30
0.0
 10
5.287499749916849
 20
6.406944703883151
 30
0.0
 10
5.213888808288949
 20
6.420833592783151
 30
0.0
 10
4.920833167727899
 20
6.476389148383151
 30
0.0
 10
4.59861119956105
 20
6.420833592783151
 30
0.0
 10
4.36805555905
 20
6.231944618972101
 30
0.0
 10
4.120833506172101
 20
6.02916675626105
 30
0.0
 10
4.004166500327899
 20
5.691666925533151
 30
0.0
 10
4.030555728322101
 20
5.373611454494202
 30
0.0
 10
4.03472222545
 20
5.3222223960221
 30
0.0
 10
4.0416666699
 20
5.272222735066302
 30
0.0
 10
4.054167008994201
 20
5.222222650255252
 30
0.0
 10
4.097222649355252
 20
5.040278120894202
 30
0.0
 10
4.198611368783151
 20
4.873611454094202
 30
0.0
 10
4.344444702233151
 20
4.75694444825
 30
0.0
 10
4.490278035683152
 20
4.640277442405798
 30
0.0
 10
4.677778035833152
 20
4.57638889255
 30
0.0
 10
4.863889062322101
 20
4.586111284322101
 30
0.0
 10
4.8750000039
 20
4.586111284322101
 30
0.0
 10
4.890277866461051
 20
4.591667178966302
 30
0.0
 10
4.890277866461051
 20
4.602778120544202
 30
0.0
  0
SPLINE
  5
82
330
1F
100
AcDbEntity
  8
Layer 1
 62
   225
420
  9193857
370
    35
100
AcDbSpline
210
0.0
220
0.0
230
1.0
 70
     8
 71
     3
 72
     8
 73
     4
 74
     0
 42
0.0000000001
 43
0.0000000001
 12
1.0
 22
0.0
 32
0.0
 13
1.0
 23
0.0
 33
0.0
 40
0.0
 40
0.0
 40
0.0
 40
0.0
 40
1.0
 40
1.0
 40
1.0
 40
1.0
 10
5.912500174272101
 20
5.370833507172101
 30
0.0
 10
5.39583333765
 20
5.276389232194202
 30
0.0
 10
4.7777777816
 20
4.834722734716302
 30
0.0
 10
4.852778120744202
 20
4.027777781
 30
0.0
  0
SPLINE
  5
83
330
1F
100
AcDbEntity
  8
Layer 1
 62
   225
420
  9193857
370
    35
100
AcDbSpline
210
0.0
220
0.0
230
1.0
 70
     8
 71
     3
 72
     8
 73
     4
 74
     0
 42
0.0000000001
 43
0.0000000001
 12
1.0
 22
0.0
 32
0.0
 13
1.0
 23
0.0
 33
0.0
 40
0.0
 40
0.0
 40
0.0
 40
0.0
 40
1.0
 40
1.0
 40
1.0
 40
1.0
 10
6.21527778275
 20
5.308333507122101
 30
0.0
 10
5.9583333381
 20
5.38194444875
 30
0.0
 10
5.175000088911051
 20
5.25833342231105
 30
0.0
 10
5.004166501127899
 20
4.551389062072101
 30
0.0
  0
SPLINE
  5
84
330
1F
100
AcDbEntity
  8
Layer 1
 62
   225
420
  9193857
370
    35
100
AcDbSpline
210
0.0
220
0.0
230
1.0
 70
     8
 71
     3
 72
     8
 73
     4
 74
     0
 42
0.0000000001
 43
0.0000000001
 12
1.0
 22
0.0
 32
0.0
 13
1.0
 23
0.0
 33
0.0
 40
0.0
 40
0.0
 40
0.0
 40
0.0
 40
1.0
 40
1.0
 40
1.0
 40
1.0
 10
6.386110946677899
 20
5.1944444486
 30
0.0
 10
5.906944279627899
 20
5.390277866861051
 30
0.0
 10
5.452777443055798
 20
5.1250000041
 30
0.0
 10
5.231944194316849
 20
4.64583333705
 30
0.0
  0
SPLINE
  5
85
330
1F
100
AcDbEntity
  8
Layer 1
 62
   225
420
  9193857
370
    35
100
AcDbSpline
210
0.0
220
0.0
230
1.0
 70
     8
 71
     3
 72
     8
 73
     4
 74
     0
 42
0.0000000001
 43
0.0000000001
 12
1.0
 22
0.0
 32
0.0
 13
1.0
 23
0.0
 33
0.0
 40
0.0
 40
0.0
 40
0.0
 40
0.0
 40
1.0
 40
1.0
 40
1.0
 40
1.0
 10
5.149999834577899
 20
3.61805555845
 30
0.0
 10
5.48472214183895
 20
3.295833166427899
 30
0.0
 10
5.8750000047
 20
3.265277441305798
 30
0.0
 10
6.329166417416848
 20
3.384722394472101
 30
0.0
  0
SPLINE
  5
86
330
1F
100
AcDbEntity
  8
Layer 1
 62
   225
420
  9193857
370
    35
100
AcDbSpline
210
0.0
220
0.0
230
1.0
 70
     8
 71
     3
 72
    11
 73
     7
 74
     0
 42
0.0000000001
 43
0.0000000001
 12
1.0
 22
0.0
 32
0.0
 13
1.0
 23
0.0
 33
0.0
 40
0.0
 40
0.0
 40
0.0
 40
0.0
 40
1.0
 40
1.0
 40
1.0
 40
2.0
 40
2.0
 40
2.0
 40
2.0
 10
6.518055391227899
 20
3.511110944377899
 30
0.0
 10
6.518055391227899
 20
3.511110944377899
 30
0.0
 10
6.5874998357279
 20
3.504166499927899
 30
0.0
 10
6.719444280277899
 20
3.54861111395
 30
0.0
 10
6.851388724827899
 20
3.593055727972101
 30
0.0
 10
7.129166502827899
 20
3.870833505972101
 30
0.0
 10
7.141666841922101
 20
4.22916667005
 30
0.0
  0
SPLINE
  5
87
330
1F
100
AcDbEntity
  8
Layer 1
 62
   225
420
  9193857
370
    35
100
AcDbSpline
210
0.0
220
0.0
230
1.0
 70
     8
 71
     3
 72
     8
 73
     4
 74
     0
 42
0.0000000001
 43
0.0000000001
 12
1.0
 22
0.0
 32
0.0
 13
1.0
 23
0.0
 33
0.0
 40
0.0
 40
0.0
 40
0.0
 40
0.0
 40
1.0
 40
1.0
 40
1.0
 40
1.0
 10
6.5874998357279
 20
3.561111453044202
 30
0.0
 10
7.03472222785
 20
3.719445125588404
 30
0.0
 10
7.086110862466849
 20
4.147222734166302
 30
0.0
 10
7.086110862466849
 20
4.444444448
 30
0.0
  0
SPLINE
  5
88
330
1F
100
AcDbEntity
  8
Layer 1
 62
   225
420
  9193857
370
    35
100
AcDbSpline
210
0.0
220
0.0
230
1.0
 70
     8
 71
     3
 72
    20
 73
    16
 74
     0
 42
0.0000000001
 43
0.0000000001
 12
1.0
 22
0.0
 32
0.0
 13
1.0
 23
0.0
 33
0.0
 40
0.0
 40
0.0
 40
0.0
 40
0.0
 40
1.0
 40
1.0
 40
1.0
 40
2.0
 40
2.0
 40
2.0
 40
3.0
 40
3.0
 40
3.0
 40
4.0
 40
4.0
 40
4.0
 40
5.0
 40
5.0
 40
5.0
 40
5.0
 10
6.606944619272101
 20
4.998611030338949
 30
0.0
 10
6.5000000052
 20
5.206944363838949
 30
0.0
 10
6.269444788544202
 20
5.323610945827899
 30
0.0
 10
5.95972231176105
 20
5.38194444875
 30
0.0
 10
5.712500258883152
 20
5.427777612577899
 30
0.0
 10
5.46527778215
 20
5.276388808338949
 30
0.0
 10
5.31388897791105
 20
5.163888723477899
 30
0.0
 10
5.094444702833151
 20
5.000000004
 30
0.0
 10
4.670833591383151
 20
4.456943939383698
 30
0.0
 10
4.884722395672101
 20
3.858333166877899
 30
0.0
 10
5.09861119996105
 20
3.259722394372101
 30
0.0
 10
5.850000174222101
 20
3.259722394372101
 30
0.0
 10
6.070833422961051
 20
3.272221885755799
 30
0.0
 10
6.433333508022101
 20
3.293055219105798
 30
0.0
 10
6.398611285772101
 20
3.455555388777899
 30
0.0
 10
6.68888897901105
 20
3.676388213661597
 30
0.0
  0
SPLINE
  5
89
330
1F
100
AcDbEntity
  8
Layer 1
 62
   225
420
  9193857
370
    35
100
AcDbSpline
210
0.0
220
0.0
230
1.0
 70
     8
 71
     3
 72
     8
 73
     4
 74
     0
 42
0.0000000001
 43
0.0000000001
 12
1.0
 22
0.0
 32
0.0
 13
1.0
 23
0.0
 33
0.0
 40
0.0
 40
0.0
 40
0.0
 40
0.0
 40
1.0
 40
1.0
 40
1.0
 40
1.0
 10
6.79027769843895
 20
5.913888724077899
 30
0.0
 10
6.663888724677899
 20
5.863888639266849
 30
0.0
 10
6.588888809388949
 20
5.504166501527899
 30
0.0
 10
6.68888897901105
 20
5.276388808338949
 30
0.0
  0
SPLINE
  5
8A
330
1F
100
AcDbEntity
  8
Layer 1
 62
   225
420
  9193857
370
    35
100
AcDbSpline
210
0.0
220
0.0
230
1.0
 70
     8
 71
     3
 72
    11
 73
     7
 74
     0
 42
0.0000000001
 43
0.0000000001
 12
1.0
 22
0.0
 32
0.0
 13
1.0
 23
0.0
 33
0.0
 40
0.0
 40
0.0
 40
0.0
 40
0.0
 40
1.0
 40
1.0
 40
1.0
 40
2.0
 40
2.0
 40
2.0
 40
2.0
 10
7.130555900344202
 20
4.57638889255
 30
0.0
 10
7.294444619822101
 20
4.50694444805
 30
0.0
 10
7.719445128788403
 20
4.372222056177899
 30
0.0
 10
8.070833848416303
 20
4.519444787144201
 30
0.0
 10
8.5375001763721
 20
4.71527778155
 30
0.0
 10
8.631945299060504
 20
5.269444787744201
 30
0.0
 10
8.562500854560504
 20
5.427778036433152
 30
0.0
  0
SPLINE
  5
8B
330
1F
100
AcDbEntity
  8
Layer 1
 62
   225
420
  9193857
370
    35
100
AcDbSpline
210
0.0
220
0.0
230
1.0
 70
     8
 71
     3
 72
     8
 73
     4
 74
     0
 42
0.0000000001
 43
0.0000000001
 12
1.0
 22
0.0
 32
0.0
 13
1.0
 23
0.0
 33
0.0
 40
0.0
 40
0.0
 40
0.0
 40
0.0
 40
1.0
 40
1.0
 40
1.0
 40
1.0
 10
8.4166666734
 20
5.705555390577899
 30
0.0
 10
8.265277445305799
 20
6.052777613077899
 30
0.0
 10
7.987499667305799
 20
6.1847220576279
 30
0.0
 10
7.533333678444202
 20
6.147221888055799
 30
0.0
  0
SPLINE
  5
8C
330
1F
100
AcDbEntity
  8
Layer 1
 62
   225
420
  9193857
370
    35
100
AcDbSpline
210
0.0
220
0.0
230
1.0
 70
     8
 71
     3
 72
    11
 73
     7
 74
     0
 42
0.0000000001
 43
0.0000000001
 12
1.0
 22
0.0
 32
0.0
 13
1.0
 23
0.0
 33
0.0
 40
0.0
 40
0.0
 40
0.0
 40
0.0
 40
1.0
 40
1.0
 40
1.0
 40
2.0
 40
2.0
 40
2.0
 40
2.0
 10
5.81250000465
 20
5.377777951622101
 30
0.0
 10
5.956944364438949
 20
5.700000343644202
 30
0.0
 10
5.737500089361051
 20
6.184722481483151
 30
0.0
 10
5.579166840672101
 20
6.197222396722101
 30
0.0
 10
5.4722222266
 20
6.205555814833152
 30
0.0
 10
5.206944787694201
 20
6.0833333382
 30
0.0
 10
4.99305555955
 20
6.14722231191105
 30
0.0
  0
SPLINE
  5
8D
330
1F
100
AcDbEntity
  8
Layer 1
 62
   225
420
  9193857
370
    35
100
AcDbSpline
210
0.0
220
0.0
230
1.0
 70
     8
 71
     3
 72
     8
 73
     4
 74
     0
 42
0.0000000001
 43
0.0000000001
 12
1.0
 22
0.0
 32
0.0
 13
1.0
 23
0.0
 33
0.0
 40
0.0
 40
0.0
 40
0.0
 40
0.0
 40
1.0
 40
1.0
 40
1.0
 40
1.0
 10
4.108333167077899
 20
5.768055390627899
 30
0.0
 10
4.058333082266849
 20
5.427777612577899
 30
0.0
 10
4.09583325183895
 20
4.651388383983697
 30
0.0
 10
4.905555305166849
 20
4.636110945277899
 30
0.0
  0
SPLINE
  5
8E
330
1F
100
AcDbEntity
  8
Layer 1
 62
   225
420
  9193857
370
    35
100
AcDbSpline
210
0.0
220
0.0
230
1.0
 70
     8
 71
     3
 72
    11
 73
     7
 74
     0
 42
0.0000000001
 43
0.0000000001
 12
1.0
 22
0.0
 32
0.0
 13
1.0
 23
0.0
 33
0.0
 40
0.0
 40
0.0
 40
0.0
 40
0.0
 40
1.0
 40
1.0
 40
1.0
 40
2.0
 40
2.0
 40
2.0
 40
2.0
 10
8.019444789944203
 20
6.191666502077899
 30
0.0
 10
7.981944620372101
 20
6.280555306266849
 30
0.0
 10
7.709722737016302
 20
6.336110861866849
 30
0.0
 10
7.401389233894202
 20
6.266666417366848
 30
0.0
 10
7.091667180966303
 20
6.197221972866849
 30
0.0
 10
6.877777952822101
 20
6.020832914294748
 30
0.0
 10
6.845833677894202
 20
5.983333168577899
 30
0.0
  0
SPLINE
  5
8F
330
1F
100
AcDbEntity
  8
Layer 1
 62
   225
420
  9193857
370
    35
100
AcDbSpline
210
0.0
220
0.0
230
1.0
 70
     8
 71
     3
 72
    11
 73
     7
 74
     0
 42
0.0000000001
 43
0.0000000001
 12
1.0
 22
0.0
 32
0.0
 13
1.0
 23
0.0
 33
0.0
 40
0.0
 40
0.0
 40
0.0
 40
0.0
 40
1.0
 40
1.0
 40
1.0
 40
2.0
 40
2.0
 40
2.0
 40
2.0
 10
8.14583333985
 20
6.127777952222101
 30
0.0
 10
7.65972222835
 20
6.29861111615
 30
0.0
 10
7.361111117
 20
6.08472231186105
 30
0.0
 10
7.25694445025
 20
6.0138888937
 30
0.0
 10
7.1527777835
 20
5.9444444492
 30
0.0
 10
7.18750000575
 20
5.74305556015
 30
0.0
 10
6.97916667225
 20
5.75555547538895
 30
0.0
  0
SPLINE
  5
90
330
1F
100
AcDbEntity
  8
Layer 1
 62
   225
420
  9193857
370
    35
100
AcDbSpline
210
0.0
220
0.0
230
1.0
 70
     8
 71
     3
 72
    14
 73
    10
 74
     0
 42
0.0000000001
 43
0.0000000001
 12
1.0
 22
0.0
 32
0.0
 13
1.0
 23
0.0
 33
0.0
 40
0.0
 40
0.0
 40
0.0
 40
0.0
 40
1.0
 40
1.0
 40
1.0
 40
2.0
 40
2.0
 40
2.0
 40
3.0
 40
3.0
 40
3.0
 40
3.0
 10
4.683333506622101
 20
6.393055391127899
 30
0.0
 10
4.0972222255
 20
6.127777528366849
 30
0.0
 10
4.058333506122101
 20
5.869444110055799
 30
0.0
 10
4.02083333655
 20
5.56111103078895
 30
0.0
 10
3.983333166977899
 20
5.25138897786105
 30
0.0
 10
4.204166839572101
 20
4.823610945427899
 30
0.0
 10
4.487500088361051
 20
4.677777611977899
 30
0.0
 10
4.77083333715
 20
4.533332828333697
 30
0.0
 10
4.884722395672101
 20
4.57638889255
 30
0.0
 10
4.884722395672101
 20
4.57638889255
 30
0.0
  0
ENDSEC
  0
SECTION
  2
OBJECTS
  0
DICTIONARY
  5
C
330
0
100
AcDbDictionary
281
     1
  3
ACAD_GROUP
350
D
  3
ACAD_LAYOUT
350
1A
  3
ACAD_MATERIAL
350
3B
  3
ACAD_MLEADERSTYLE
350
92
  3
ACAD_MLINESTYLE
350
17
  3
ACAD_PLOTSETTINGS
350
19
  3
ACAD_PLOTSTYLENAME
350
E
  3
ACAD_TABLESTYLE
350
91
  3
ACAD_VISUALSTYLE
350
2A
  0
SUN
  5
3F
330
29
100
AcDbSun
 90
        1
290
     0
 63
     7
421
 16777215
 40
1.0
291
     1
 91
  2455826
 92
 54000000
292
     0
 70
     2
 71
   256
280
     1
  0
DICTIONARY
  5
D
102
{ACAD_REACTORS
330
C
102
}
330
C
100
AcDbDictionary
281
     1
  0
DICTIONARY
  5
1A
102
{ACAD_REACTORS
330
C
102
}
330
C
100
AcDbDictionary
281
     1
  3
Layout1
350
1E
  3
Layout2
350
26
  3
Model
350
22
  0
DICTIONARY
  5
3B
102
{ACAD_REACTORS
330
C
102
}
330
C
100
AcDbDictionary
281
     1
  3
ByBlock
350
3D
  3
ByLayer
350
3C
  3
Global
350
3E
  0
DICTIONARY
  5
92
102
{ACAD_REACTORS
330
C
102
}
330
C
100
AcDbDictionary
281
     1
  0
DICTIONARY
  5
17
102
{ACAD_REACTORS
330
C
102
}
330
C
100
AcDbDictionary
281
     1
  3
Standard
350
18
  0
DICTIONARY
  5
19
102
{ACAD_REACTORS
330
C
102
}
330
C
100
AcDbDictionary
281
     1
  0
ACDBDICTIONARYWDFLT
  5
E
102
{ACAD_REACTORS
330
C
102
}
330
C
100
AcDbDictionary
281
     1
  3
Normal
350
F
100
AcDbDictionaryWithDefault
340
F
  0
DICTIONARY
  5
91
102
{ACAD_REACTORS
330
C
102
}
330
C
100
AcDbDictionary
281
     1
  0
DICTIONARY
  5
2A
102
{ACAD_REACTORS
330
C
102
}
330
C
100
AcDbDictionary
281
     1
  3
2dWireframe
350
2F
  3
3D Hidden
350
31
  3
3dWireframe
350
30
  3
Basic
350
32
  3
Brighten
350
36
  3
ColorChange
350
3A
  3
Conceptual
350
34
  3
Dim
350
35
  3
Facepattern
350
39
  3
Flat
350
2B
  3
FlatWithEdges
350
2C
  3
Gouraud
350
2D
  3
GouraudWithEdges
350
2E
  3
Linepattern
350
38
  3
Realistic
350
33
  3
Thicken
350
37
  0
LAYOUT
  5
1E
102
{ACAD_REACTORS
330
1A
102
}
330
1A
100
AcDbPlotSettings
  1

  2
none_device
  4

  6

 40
0.0
 41
0.0
 42
0.0
 43
0.0
 44
0.0
 45
0.0
 46
0.0
 47
0.0
 48
0.0
 49
0.0
140
0.0
141
0.0
142
1.0
143
1.0
 70
   688
 72
     0
 73
     0
 74
     5
  7

 75
    16
 76
     0
 77
     2
 78
   300
147
1.0
148
0.0
149
0.0
100
AcDbLayout
  1
Layout1
 70
     1
 71
     1
 10
0.0
 20
0.0
 11
12.0
 21
9.0
 12
0.0
 22
0.0
 32
0.0
 14
1.000000000000000E+20
 24
1.000000000000000E+20
 34
1.000000000000000E+20
 15
-1.000000000000000E+20
 25
-1.000000000000000E+20
 35
-1.000000000000000E+20
146
0.0
 13
0.0
 23
0.0
 33
0.0
 16
1.0
 26
0.0
 36
0.0
 17
0.0
 27
1.0
 37
0.0
 76
     0
330
1B
  0
LAYOUT
  5
26
102
{ACAD_REACTORS
330
1A
102
}
330
1A
100
AcDbPlotSettings
  1

  2
none_device
  4

  6

 40
0.0
 41
0.0
 42
0.0
 43
0.0
 44
0.0
 45
0.0
 46
0.0
 47
0.0
 48
0.0
 49
0.0
140
0.0
141
0.0
142
1.0
143
1.0
 70
   688
 72
     0
 73
     0
 74
     5
  7

 75
    16
 76
     0
 77
     2
 78
   300
147
1.0
148
0.0
149
0.0
100
AcDbLayout
  1
Layout2
 70
     1
 71
     2
 10
0.0
 20
0.0
 11
0.0
 21
0.0
 12
0.0
 22
0.0
 32
0.0
 14
0.0
 24
0.0
 34
0.0
 15
0.0
 25
0.0
 35
0.0
146
0.0
 13
0.0
 23
0.0
 33
0.0
 16
1.0
 26
0.0
 36
0.0
 17
0.0
 27
1.0
 37
0.0
 76
     0
330
23
  0
LAYOUT
  5
22
102
{ACAD_REACTORS
330
1A
102
}
330
1A
100
AcDbPlotSettings
  1

  2
none_device
  4

  6

 40
0.0
 41
0.0
 42
0.0
 43
0.0
 44
0.0
 45
0.0
 46
0.0
 47
0.0
 48
0.0
 49
0.0
140
0.0
141
0.0
142
1.0
143
1.0
 70
  1712
 72
     0
 73
     0
 74
     0
  7

 75
     0
 76
     0
 77
     2
 78
   300
147
1.0
148
0.0
149
0.0
100
AcDbLayout
  1
Model
 70
     1
 71
     0
 10
0.0
 20
0.0
 11
12.0
 21
9.0
 12
0.0
 22
0.0
 32
0.0
 14
1.000000000000000E+20
 24
1.000000000000000E+20
 34
1.000000000000000E+20
 15
-1.000000000000000E+20
 25
-1.000000000000000E+20
 35
-1.000000000000000E+20
146
0.0
 13
0.0
 23
0.0
 33
0.0
 16
1.0
 26
0.0
 36
0.0
 17
0.0
 27
1.0
 37
0.0
 76
     0
330
1F
331
29
  0
MATERIAL
  5
3D
102
{ACAD_REACTORS
330
3B
102
}
330
3B
100
AcDbMaterial
  1
ByBlock
 72
     1
 94
      127
  0
MATERIAL
  5
3C
102
{ACAD_REACTORS
330
3B
102
}
330
3B
100
AcDbMaterial
  1
ByLayer
 72
     1
 94
      127
  0
MATERIAL
  5
3E
102
{ACAD_REACTORS
330
3B
102
}
330
3B
100
AcDbMaterial
  1
Global
 72
     1
 94
      127
  0
MLINESTYLE
  5
18
102
{ACAD_REACTORS
330
17
102
}
330
17
100
AcDbMlineStyle
  2
Standard
 70
     0
  3

 62
   256
 51
90.0
 52
90.0
 71
     2
 49
0.5
 62
   256
  6
BYLAYER
 49
-0.5
 62
   256
  6
BYLAYER
  0
ACDBPLACEHOLDER
  5
F
102
{ACAD_REACTORS
330
E
102
}
330
E
  0
VISUALSTYLE
  5
2F
102
{ACAD_REACTORS
330
2A
102
}
330
2A
100
AcDbVisualStyle
  2
2dWireframe
 70
     4
177
     2
291
     0
 71
     0
176
     1
 72
     2
176
     1
 73
     0
176
     1
 90
        0
176
     1
 40
-0.6
176
     1
 41
-30.0
176
     1
 62
     5
 63
     7
421
 16777215
176
     1
 74
     1
176
     1
 91
        4
176
     1
 64
     7
176
     1
 65
   257
176
     1
 75
     1
176
     1
175
     1
176
     1
 42
1.0
176
     1
 92
        0
176
     1
 66
   257
176
     1
 43
1.0
176
     1
 76
     1
176
     1
 77
     6
176
     1
 78
     2
176
     1
 67
     7
176
     1
 79
     5
176
     1
170
     0
176
     1
171
     0
176
     1
290
     0
176
     1
 93
        1
176
     1
 44
0.0
176
     1
173
     0
176
     1
  0
VISUALSTYLE
  5
31
102
{ACAD_REACTORS
330
2A
102
}
330
2A
100
AcDbVisualStyle
  2
3D Hidden
 70
     6
177
     2
291
     0
 71
     1
176
     1
 72
     2
176
     1
 73
     2
176
     1
 90
        0
176
     1
 40
-0.6
176
     1
 41
-30.0
176
     1
 62
     5
 63
     7
421
 16777215
176
     1
 74
     2
176
     1
 91
        2
176
     1
 64
     7
176
     1
 65
   257
176
     1
 75
     2
176
     1
175
     1
176
     1
 42
40.0
176
     1
 92
        0
176
     1
 66
   257
176
     1
 43
1.0
176
     1
 76
     1
176
     1
 77
     6
176
     1
 78
     2
176
     1
 67
     7
176
     1
 79
     3
176
     1
170
     0
176
     1
171
     0
176
     1
290
     0
176
     1
 93
        1
176
     1
 44
0.0
176
     1
173
     0
176
     1
  0
VISUALSTYLE
  5
30
102
{ACAD_REACTORS
330
2A
102
}
330
2A
100
AcDbVisualStyle
  2
3dWireframe
 70
     5
177
     2
291
     0
 71
     0
176
     1
 72
     2
176
     1
 73
     0
176
     1
 90
        0
176
     1
 40
-0.6
176
     1
 41
-30.0
176
     1
 62
     5
 63
     7
421
 16777215
176
     1
 74
     1
176
     1
 91
        4
176
     1
 64
     7
176
     1
 65
   257
176
     1
 75
     1
176
     1
175
     1
176
     1
 42
1.0
176
     1
 92
        0
176
     1
 66
   257
176
     1
 43
1.0
176
     1
 76
     1
176
     1
 77
     6
176
     1
 78
     2
176
     1
 67
     7
176
     1
 79
     5
176
     1
170
     0
176
     1
171
     0
176
     1
290
     0
176
     1
 93
        1
176
     1
 44
0.0
176
     1
173
     0
176
     1
  0
VISUALSTYLE
  5
32
102
{ACAD_REACTORS
330
2A
102
}
330
2A
100
AcDbVisualStyle
  2
Basic
 70
     7
177
     2
291
     1
 71
     1
176
     1
 72
     0
176
     1
 73
     1
176
     1
 90
        0
176
     1
 40
-0.6
176
     1
 41
-30.0
176
     1
 62
     5
 63
     7
421
 16777215
176
     1
 74
     0
176
     1
 91
        4
176
     1
 64
     7
176
     1
 65
   257
176
     1
 75
     1
176
     1
175
     1
176
     1
 42
1.0
176
     1
 92
        8
176
     1
 66
     7
176
     1
 43
1.0
176
     1
 76
     1
176
     1
 77
     6
176
     1
 78
     2
176
     1
 67
     7
176
     1
 79
     5
176
     1
170
     0
176
     1
171
     0
176
     1
290
     0
176
     1
 93
        1
176
     1
 44
0.0
176
     1
173
     0
176
     1
  0
VISUALSTYLE
  5
36
102
{ACAD_REACTORS
330
2A
102
}
330
2A
100
AcDbVisualStyle
  2
Brighten
 70
    12
177
     2
291
     1
 71
     2
176
     1
 72
     2
176
     1
 73
     0
176
     1
 90
        0
176
     1
 40
-0.6
176
     1
 41
-30.0
176
     1
 62
     5
 63
     7
421
 16777215
176
     1
 74
     1
176
     1
 91
        4
176
     1
 64
     7
176
     1
 65
   257
176
     1
 75
     1
176
     1
175
     1
176
     1
 42
1.0
176
     1
 92
        8
176
     1
 66
     7
176
     1
 43
1.0
176
     1
 76
     1
176
     1
 77
     6
176
     1
 78
     2
176
     1
 67
     7
176
     1
 79
     5
176
     1
170
     0
176
     1
171
     0
176
     1
290
     0
176
     1
 93
        1
176
     1
 44
50.0
176
     1
173
     0
176
     1
  0
VISUALSTYLE
  5
3A
102
{ACAD_REACTORS
330
2A
102
}
330
2A
100
AcDbVisualStyle
  2
ColorChange
 70
    16
177
     2
291
     1
 71
     2
176
     1
 72
     2
176
     1
 73
     3
176
     1
 90
        0
176
     1
 40
-0.6
176
     1
 41
-30.0
176
     1
 62
     5
 63
     8
421
  8421504
176
     1
 74
     1
176
     1
 91
        4
176
     1
 64
     7
176
     1
 65
   257
176
     1
 75
     1
176
     1
175
     1
176
     1
 42
1.0
176
     1
 92
        8
176
     1
 66
     8
424
  8421504
176
     1
 43
1.0
176
     1
 76
     1
176
     1
 77
     6
176
     1
 78
     2
176
     1
 67
     7
176
     1
 79
     5
176
     1
170
     0
176
     1
171
     0
176
     1
290
     0
176
     1
 93
        1
176
     1
 44
0.0
176
     1
173
     0
176
     1
  0
VISUALSTYLE
  5
34
102
{ACAD_REACTORS
330
2A
102
}
330
2A
100
AcDbVisualStyle
  2
Conceptual
 70
     9
177
     2
291
     0
 71
     3
176
     1
 72
     2
176
     1
 73
     0
176
     1
 90
        0
176
     1
 40
-0.6
176
     1
 41
-30.0
176
     1
 62
     5
 63
     7
421
 16777215
176
     1
 74
     2
176
     1
 91
        2
176
     1
 64
     7
176
     1
 65
   257
176
     1
 75
     1
176
     1
175
     1
176
     1
 42
40.0
176
     1
 92
        8
176
     1
 66
     7
176
     1
 43
1.0
176
     1
 76
     1
176
     1
 77
     6
176
     1
 78
     2
176
     1
 67
     7
176
     1
 79
     3
176
     1
170
     0
176
     1
171
     0
176
     1
290
     0
176
     1
 93
        1
176
     1
 44
0.0
176
     1
173
     0
176
     1
  0
VISUALSTYLE
  5
35
102
{ACAD_REACTORS
330
2A
102
}
330
2A
100
AcDbVisualStyle
  2
Dim
 70
    11
177
     2
291
     1
 71
     2
176
     1
 72
     2
176
     1
 73
     0
176
     1
 90
        0
176
     1
 40
-0.6
176
     1
 41
-30.0
176
     1
 62
     5
 63
     7
421
 16777215
176
     1
 74
     1
176
     1
 91
        4
176
     1
 64
     7
176
     1
 65
   257
176
     1
 75
     1
176
     1
175
     1
176
     1
 42
1.0
176
     1
 92
        8
176
     1
 66
     7
176
     1
 43
1.0
176
     1
 76
     1
176
     1
 77
     6
176
     1
 78
     2
176
     1
 67
     7
176
     1
 79
     5
176
     1
170
     0
176
     1
171
     0
176
     1
290
     0
176
     1
 93
        1
176
     1
 44
-50.0
176
     1
173
     0
176
     1
  0
VISUALSTYLE
  5
39
102
{ACAD_REACTORS
330
2A
102
}
330
2A
100
AcDbVisualStyle
  2
Facepattern
 70
    15
177
     2
291
     1
 71
     2
176
     1
 72
     2
176
     1
 73
     0
176
     1
 90
        0
176
     1
 40
-0.6
176
     1
 41
-30.0
176
     1
 62
     5
 63
     7
421
 16777215
176
     1
 74
     1
176
     1
 91
        4
176
     1
 64
     7
176
     1
 65
   257
176
     1
 75
     1
176
     1
175
     1
176
     1
 42
1.0
176
     1
 92
        8
176
     1
 66
     7
176
     1
 43
1.0
176
     1
 76
     1
176
     1
 77
     6
176
     1
 78
     2
176
     1
 67
     7
176
     1
 79
     5
176
     1
170
     0
176
     1
171
     0
176
     1
290
     0
176
     1
 93
        1
176
     1
 44
0.0
176
     1
173
     0
176
     1
  0
VISUALSTYLE
  5
2B
102
{ACAD_REACTORS
330
2A
102
}
330
2A
100
AcDbVisualStyle
  2
Flat
 70
     0
177
     2
291
     1
 71
     2
176
     1
 72
     1
176
     1
 73
     1
176
     1
 90
        2
176
     1
 40
-0.6
176
     1
 41
30.0
176
     1
 62
     5
 63
     7
421
 16777215
176
     1
 74
     0
176
     1
 91
        4
176
     1
 64
     7
176
     1
 65
   257
176
     1
 75
     1
176
     1
175
     1
176
     1
 42
1.0
176
     1
 92
        8
176
     1
 66
     7
176
     1
 43
1.0
176
     1
 76
     1
176
     1
 77
     6
176
     1
 78
     2
176
     1
 67
     7
176
     1
 79
     5
176
     1
170
     0
176
     1
171
     0
176
     1
290
     0
176
     1
 93
       13
176
     1
 44
0.0
176
     1
173
     0
176
     1
  0
VISUALSTYLE
  5
2C
102
{ACAD_REACTORS
330
2A
102
}
330
2A
100
AcDbVisualStyle
  2
FlatWithEdges
 70
     1
177
     2
291
     1
 71
     2
176
     1
 72
     1
176
     1
 73
     1
176
     1
 90
        2
176
     1
 40
-0.6
176
     1
 41
30.0
176
     1
 62
     5
 63
     7
421
 16777215
176
     1
 74
     1
176
     1
 91
        4
176
     1
 64
     7
176
     1
 65
   257
176
     1
 75
     1
176
     1
175
     1
176
     1
 42
1.0
176
     1
 92
        0
176
     1
 66
   257
176
     1
 43
1.0
176
     1
 76
     1
176
     1
 77
     6
176
     1
 78
     2
176
     1
 67
     7
176
     1
 79
     5
176
     1
170
     0
176
     1
171
     0
176
     1
290
     0
176
     1
 93
       13
176
     1
 44
0.0
176
     1
173
     0
176
     1
  0
VISUALSTYLE
  5
2D
102
{ACAD_REACTORS
330
2A
102
}
330
2A
100
AcDbVisualStyle
  2
Gouraud
 70
     2
177
     2
291
     1
 71
     2
176
     1
 72
     2
176
     1
 73
     1
176
     1
 90
        2
176
     1
 40
-0.6
176
     1
 41
30.0
176
     1
 62
     5
 63
     7
421
 16777215
176
     1
 74
     0
176
     1
 91
        4
176
     1
 64
     7
176
     1
 65
   257
176
     1
 75
     1
176
     1
175
     1
176
     1
 42
1.0
176
     1
 92
        0
176
     1
 66
     7
176
     1
 43
1.0
176
     1
 76
     1
176
     1
 77
     6
176
     1
 78
     2
176
     1
 67
     7
176
     1
 79
     5
176
     1
170
     0
176
     1
171
     0
176
     1
290
     0
176
     1
 93
       13
176
     1
 44
0.0
176
     1
173
     0
176
     1
  0
VISUALSTYLE
  5
2E
102
{ACAD_REACTORS
330
2A
102
}
330
2A
100
AcDbVisualStyle
  2
GouraudWithEdges
 70
     3
177
     2
291
     1
 71
     2
176
     1
 72
     2
176
     1
 73
     1
176
     1
 90
        2
176
     1
 40
-0.6
176
     1
 41
30.0
176
     1
 62
     5
 63
     7
421
 16777215
176
     1
 74
     1
176
     1
 91
        4
176
     1
 64
     7
176
     1
 65
   257
176
     1
 75
     1
176
     1
175
     1
176
     1
 42
1.0
176
     1
 92
        0
176
     1
 66
   257
176
     1
 43
1.0
176
     1
 76
     1
176
     1
 77
     6
176
     1
 78
     2
176
     1
 67
     7
176
     1
 79
     5
176
     1
170
     0
176
     1
171
     0
176
     1
290
     0
176
     1
 93
       13
176
     1
 44
0.0
176
     1
173
     0
176
     1
  0
VISUALSTYLE
  5
38
102
{ACAD_REACTORS
330
2A
102
}
330
2A
100
AcDbVisualStyle
  2
Linepattern
 70
    14
177
     2
291
     1
 71
     2
176
     1
 72
     2
176
     1
 73
     0
176
     1
 90
        0
176
     1
 40
-0.6
176
     1
 41
-30.0
176
     1
 62
     5
 63
     7
421
 16777215
176
     1
 74
     1
176
     1
 91
        4
176
     1
 64
     7
176
     1
 65
   257
176
     1
 75
     7
176
     1
175
     7
176
     1
 42
1.0
176
     1
 92
        8
176
     1
 66
     7
176
     1
 43
1.0
176
     1
 76
     1
176
     1
 77
     6
176
     1
 78
     2
176
     1
 67
     7
176
     1
 79
     5
176
     1
170
     0
176
     1
171
     0
176
     1
290
     0
176
     1
 93
        1
176
     1
 44
0.0
176
     1
173
     0
176
     1
  0
VISUALSTYLE
  5
33
102
{ACAD_REACTORS
330
2A
102
}
330
2A
100
AcDbVisualStyle
  2
Realistic
 70
     8
177
     2
291
     0
 71
     2
176
     1
 72
     2
176
     1
 73
     0
176
     1
 90
        0
176
     1
 40
-0.6
176
     1
 41
-30.0
176
     1
 62
     5
 63
     7
421
 16777215
176
     1
 74
     1
176
     1
 91
        0
176
     1
 64
     7
176
     1
 65
   257
176
     1
 75
     1
176
     1
175
     1
176
     1
 42
1.0
176
     1
 92
        8
176
     1
 66
     8
424
  7895160
176
     1
 43
1.0
176
     1
 76
     1
176
     1
 77
     6
176
     1
 78
     2
176
     1
 67
     7
176
     1
 79
     5
176
     1
170
     0
176
     1
171
     0
176
     1
290
     0
176
     1
 93
       13
176
     1
 44
0.0
176
     1
173
     0
176
     1
  0
VISUALSTYLE
  5
37
102
{ACAD_REACTORS
330
2A
102
}
330
2A
100
AcDbVisualStyle
  2
Thicken
 70
    13
177
     2
291
     1
 71
     2
176
     1
 72
     2
176
     1
 73
     0
176
     1
 90
        0
176
     1
 40
-0.6
176
     1
 41
-30.0
176
     1
 62
     5
 63
     7
421
 16777215
176
     1
 74
     1
176
     1
 91
        4
176
     1
 64
     7
176
     1
 65
   257
176
     1
 75
     1
176
     1
175
     1
176
     1
 42
1.0
176
     1
 92
       12
176
     1
 66
     7
176
     1
 43
1.0
176
     1
 76
     1
176
     1
 77
     6
176
     1
 78
     2
176
     1
 67
     7
176
     1
 79
     5
176
     1
170
     0
176
     1
171
     0
176
     1
290
     0
176
     1
 93
        1
176
     1
 44
0.0
176
     1
173
     0
176
     1
  0
ENDSEC
  0
EOF
