  0
SECTION
  2
HEADER
  9
$ACADVER
  1
AC1009
  9
$DWGCODEPAGE
  3
ansi_1252
  9
$INSBASE
 10
0.0
 20
0.0
 30
0.0
  9
$EXTMIN
 10
6.00104367727242
 20
6.333644891616642
 30
0.0
  9
$EXTMAX
 10
17.99895745001858
 20
17.8838786108486
 30
0.0
  9
$LIMMIN
 10
0.0
 20
0.0
  9
$LIMMAX
 10
12.0
 20
9.0
  9
$ORTHOMODE
 70
     0
  9
$REGENMODE
 70
     1
  9
$FILLMODE
 70
     1
  9
$QTEXTMODE
 70
     0
  9
$MIRRTEXT
 70
     1
  9
$DRAGMODE
 70
     2
  9
$LTSCALE
 40
1.0
  9
$OSMODE
 70
    37
  9
$ATTMODE
 70
     1
  9
$TEXTSIZE
 40
0.2
  9
$TRACEWID
 40
0.05
  9
$TEXTSTYLE
  7
STANDARD
  9
$CLAYER
  8
0
  9
$CELTYPE
  6
BYLAYER
  9
$CECOLOR
 62
   256
  9
$DIMSCALE
 40
1.0
  9
$DIMASZ
 40
0.18
  9
$DIMEXO
 40
0.0625
  9
$DIMDLI
 40
0.38
  9
$DIMRND
 40
0.0
  9
$DIMDLE
 40
0.0
  9
$DIMEXE
 40
0.18
  9
$DIMTP
 40
0.0
  9
$DIMTM
 40
0.0
  9
$DIMTXT
 40
0.18
  9
$DIMCEN
 40
0.09
  9
$DIMTSZ
 40
0.0
  9
$DIMTOL
 70
     0
  9
$DIMLIM
 70
     0
  9
$DIMTIH
 70
     1
  9
$DIMTOH
 70
     1
  9
$DIMSE1
 70
     0
  9
$DIMSE2
 70
     0
  9
$DIMTAD
 70
     0
  9
$DIMZIN
 70
     0
  9
$DIMBLK
  1

  9
$DIMASO
 70
     1
  9
$DIMSHO
 70
     1
  9
$DIMPOST
  1

  9
$DIMAPOST
  1

  9
$DIMALT
 70
     0
  9
$DIMALTD
 70
     2
  9
$DIMALTF
 40
25.4
  9
$DIMLFAC
 40
1.0
  9
$DIMTOFL
 70
     0
  9
$DIMTVP
 40
0.0
  9
$DIMTIX
 70
     0
  9
$DIMSOXD
 70
     0
  9
$DIMSAH
 70
     0
  9
$DIMBLK1
  1

  9
$DIMBLK2
  1

  9
$DIMSTYLE
  2
STANDARD
  9
$DIMCLRD
 70
     0
  9
$DIMCLRE
 70
     0
  9
$DIMCLRT
 70
     0
  9
$DIMTFAC
 40
1.0
  9
$DIMGAP
 40
0.09
  9
$LUNITS
 70
     2
  9
$LUPREC
 70
     4
  9
$SKETCHINC
 40
0.1
  9
$FILLETRAD
 40
0.5
  9
$AUNITS
 70
     0
  9
$AUPREC
 70
     0
  9
$MENU
  1
.
  9
$ELEVATION
 40
0.0
  9
$PELEVATION
 40
0.0
  9
$THICKNESS
 40
0.0
  9
$LIMCHECK
 70
     0
  9
$CHAMFERA
 40
0.0
  9
$CHAMFERB
 40
0.0
  9
$SKPOLY
 70
     0
  9
$TDCREATE
 40
2454910.5
  9
$TDUPDATE
 40
2459717.682471516
  9
$TDINDWG
 40
0.0000000116
  9
$TDUSRTIMER
 40
0.0000000116
  9
$USRTIMER
 70
     1
  9
$ANGBASE
 50
0.0
  9
$ANGDIR
 70
     0
  9
$PDMODE
 70
     0
  9
$PDSIZE
 40
0.0
  9
$PLINEWID
 40
0.0
  9
$COORDS
 70
     1
  9
$SPLFRAME
 70
     0
  9
$SPLINETYPE
 70
     6
  9
$SPLINESEGS
 70
     8
  9
$ATTDIA
 70
     0
  9
$ATTREQ
 70
     1
  9
$HANDLING
 70
     1
  9
$HANDSEED
  5
4AA
  9
$SURFTAB1
 70
     6
  9
$SURFTAB2
 70
     6
  9
$SURFTYPE
 70
     6
  9
$SURFU
 70
     6
  9
$SURFV
 70
     6
  9
$UCSNAME
  2

  9
$UCSORG
 10
0.0
 20
0.0
 30
0.0
  9
$UCSXDIR
 10
1.0
 20
0.0
 30
0.0
  9
$UCSYDIR
 10
0.0
 20
1.0
 30
0.0
  9
$PUCSNAME
  2

  9
$PUCSORG
 10
0.0
 20
0.0
 30
0.0
  9
$PUCSXDIR
 10
1.0
 20
0.0
 30
0.0
  9
$PUCSYDIR
 10
0.0
 20
1.0
 30
0.0
  9
$USERI1
 70
     0
  9
$USERI2
 70
     0
  9
$USERI3
 70
     0
  9
$USERI4
 70
     0
  9
$USERI5
 70
     0
  9
$USERR1
 40
0.0
  9
$USERR2
 40
0.0
  9
$USERR3
 40
0.0
  9
$USERR4
 40
0.0
  9
$USERR5
 40
0.0
  9
$WORLDVIEW
 70
     1
  9
$SHADEDGE
 70
     3
  9
$SHADEDIF
 70
    70
  9
$TILEMODE
 70
     1
  9
$MAXACTVP
 70
    64
  9
$PLIMCHECK
 70
     0
  9
$PEXTMIN
 10
1.000000000000000E+20
 20
1.000000000000000E+20
 30
1.000000000000000E+20
  9
$PEXTMAX
 10
-1.000000000000000E+20
 20
-1.000000000000000E+20
 30
-1.000000000000000E+20
  9
$PLIMMIN
 10
0.0
 20
0.0
  9
$PLIMMAX
 10
12.0
 20
9.0
  9
$UNITMODE
 70
     0
  9
$VISRETAIN
 70
     1
  9
$PLINEGEN
 70
     0
  9
$PSLTSCALE
 70
     1
  0
ENDSEC
  0
SECTION
  2
TABLES
  0
TABLE
  2
VPORT
 70
     1
  0
VPORT
  2
*ACTIVE
 70
     0
 10
0.0
 20
0.0
 11
1.0
 21
1.0
 12
10.42990654205607
 22
4.5
 13
0.0
 23
0.0
 14
0.5
 24
0.5
 15
0.5
 25
0.5
 16
0.0
 26
0.0
 36
1.0
 17
0.0
 27
0.0
 37
0.0
 40
9.0
 41
1.972972972850329
 42
50.0
 43
0.0
 44
0.0
 50
0.0
 51
0.0
 71
     0
 72
   100
 73
     1
 74
     3
 75
     0
 76
     0
 77
     0
 78
     0
  0
ENDTAB
  0
TABLE
  2
LTYPE
 70
     2
  0
LTYPE
  2
CONTINUOUS
 70
     0
  3
Solid line
 72
    65
 73
     0
 40
0.0
  0
LTYPE
  2
CONTINUOUS2
 70
     0
  3
Solid Line
 72
    65
 73
     0
 40
0.0
  0
ENDTAB
  0
TABLE
  2
LAYER
 70
     2
  0
LAYER
  2
SignTorch
 70
     0
 62
    7
  6
CONTINUOUS
  0
ENDTAB
  0
TABLE
  2
STYLE
 70
     1
  0
STYLE
  2
STANDARD
 70
     0
 40
0.0
 41
1.0
 50
0.0
 71
     0
 42
0.2
  3
txt
  4

  0
ENDTAB
  0
TABLE
  2
VIEW
 70
     0
  0
ENDTAB
  0
TABLE
  2
UCS
 70
     0
  0
ENDTAB
  0
TABLE
  2
APPID
 70
     1
  0
APPID
  2
ACAD
 70
     0
  0
ENDTAB
  0
TABLE
  2
DIMSTYLE
 70
     1
  0
DIMSTYLE
  2
STANDARD
 70
     0
  3

  4

  5

  6

  7

 40
1.0
 41
0.18
 42
0.0625
 43
0.38
 44
0.18
 45
0.0
 46
0.0
 47
0.0
 48
0.0
140
0.18
141
0.09
142
0.0
143
25.4
144
1.0
145
0.0
146
1.0
147
0.09
 71
     0
 72
     0
 73
     1
 74
     1
 75
     0
 76
     0
 77
     0
 78
     0
170
     0
171
     2
172
     0
173
     0
174
     0
175
     0
176
     0
177
     0
178
     0
  0
ENDTAB
  0
ENDSEC
  0
SECTION
  2
BLOCKS
  0
BLOCK
  8
0
  2
$MODEL_SPACE
 70
     0
 10
0.0
 20
0.0
 30
0.0
  3
$MODEL_SPACE
  1

  0
ENDBLK
  5
21
  8
0
  0
BLOCK
 67
     1
  8
0
  2
$PAPER_SPACE
 70
     0
 10
0.0
 20
0.0
 30
0.0
  3
$PAPER_SPACE
  1

  0
ENDBLK
  5
1D
 67
     1
  8
0
  0
ENDSEC
  0
SECTION
  2
ENTITIES
  0
POLYLINE
  5
70
  8
SignTorch
 66
     1
 10
0.0
 20
0.0
 30
0.0
 70
     1
  0
VERTEX
  5
A0
  8
SignTorch
 10
12.82769097401029
 20
9.39735250388023
 30
0.0
  0
VERTEX
  5
A1
  8
SignTorch
 10
12.86882358305977
 20
9.25027579116593
 30
0.0
 42
-0.0833532055959532
  0
VERTEX
  5
A2
  8
SignTorch
 10
12.86645951259744
 20
9.23546258061248
 30
0.0
 42
0.0787343666107357
  0
VERTEX
  5
A3
  8
SignTorch
 10
12.86181683189332
 20
9.207993898601368
 30
0.0
 42
0.0573620168094979
  0
VERTEX
  5
A4
  8
SignTorch
 10
12.8713583069619
 20
9.11685198224271
 30
0.0
 42
0.0320738934974119
  0
VERTEX
  5
A5
  8
SignTorch
 10
12.91702503807008
 20
8.959835496688255
 30
0.0
 42
0.0316415251359794
  0
VERTEX
  5
A6
  8
SignTorch
 10
12.94808626991593
 20
8.888451835098188
 30
0.0
 42
0.0711652337052112
  0
VERTEX
  5
A7
  8
SignTorch
 10
12.9681596244043
 20
8.8600814810836
 30
0.0
 42
0.0683323785607936
  0
VERTEX
  5
A8
  8
SignTorch
 10
12.97495501206497
 20
8.854625765976303
 30
0.0
 42
-0.1185926961984786
  0
VERTEX
  5
A9
  8
SignTorch
 10
12.98117404692695
 20
8.848521199965843
 30
0.0
  0
VERTEX
  5
AA
  8
SignTorch
 10
13.022627514402
 20
8.700300289999479
 30
0.0
 42
-0.0858811741327277
  0
VERTEX
  5
AB
  8
SignTorch
 10
12.92961620437372
 20
8.711550356544082
 30
0.0
 42
-0.0933374721696067
  0
VERTEX
  5
AC
  8
SignTorch
 10
12.85296588652656
 20
8.751245783909528
 30
0.0
 42
-0.1140415905420775
  0
VERTEX
  5
AD
  8
SignTorch
 10
12.74639197840423
 20
8.883113968144452
 30
0.0
 42
-0.0881888543701754
  0
VERTEX
  5
AE
  8
SignTorch
 10
12.6868073767754
 20
9.092940198939079
 30
0.0
 42
-0.0993541906350697
  0
VERTEX
  5
AF
  8
SignTorch
 10
12.70224364759161
 20
9.251095834148488
 30
0.0
 42
-0.1854657813265589
  0
VERTEX
  5
B0
  8
SignTorch
 10
12.80787346525317
 20
9.386605305450857
 30
0.0
 42
-0.0168755798754908
  0
VERTEX
  5
B1
  8
SignTorch
 10
12.81772176775112
 20
9.39209037610448
 30
0.0
 42
0.0056247187085609
  0
SEQEND
  5
481
  8
SignTorch
  0
POLYLINE
  5
71
  8
SignTorch
 66
     1
 10
0.0
 20
0.0
 30
0.0
 70
     1
  0
VERTEX
  5
B2
  8
SignTorch
 10
13.12255690011706
 20
8.728726354384788
 30
0.0
  0
VERTEX
  5
B3
  8
SignTorch
 10
13.08198123686836
 20
8.87380119874514
 30
0.0
 42
-0.0773355246771773
  0
VERTEX
  5
B4
  8
SignTorch
 10
13.08404591449601
 20
8.883729683186319
 30
0.0
 42
0.0899209116448356
  0
VERTEX
  5
B5
  8
SignTorch
 10
13.09130901939332
 20
8.923635132257509
 30
0.0
 42
0.056915075545813
  0
VERTEX
  5
B6
  8
SignTorch
 10
13.08089501035109
 20
9.015377483387036
 30
0.0
 42
0.0311672409121606
  0
VERTEX
  5
B7
  8
SignTorch
 10
13.03294298562731
 20
9.176625669477087
 30
0.0
 42
0.0414094413397196
  0
VERTEX
  5
B8
  8
SignTorch
 10
13.00274324144392
 20
9.241762093226678
 30
0.0
 42
0.0805723792453526
  0
VERTEX
  5
B9
  8
SignTorch
 10
12.97949674573202
 20
9.270644208270014
 30
0.0
 42
0.0620838470515576
  0
VERTEX
  5
BA
  8
SignTorch
 10
12.97376051613755
 20
9.274638732149544
 30
0.0
 42
-0.1257777041815871
  0
VERTEX
  5
BB
  8
SignTorch
 10
12.96857283029284
 20
9.279323651205534
 30
0.0
  0
VERTEX
  5
BC
  8
SignTorch
 10
12.92756398697687
 20
9.425969091201194
 30
0.0
 42
-0.0747262672349526
  0
VERTEX
  5
BD
  8
SignTorch
 10
13.0098823114456
 20
9.41869423693358
 30
0.0
 42
-0.1145998257457384
  0
VERTEX
  5
BE
  8
SignTorch
 10
13.10102420561836
 20
9.37290919536786
 30
0.0
 42
-0.0954151790296607
  0
VERTEX
  5
BF
  8
SignTorch
 10
13.19432301445612
 20
9.25912902516157
 30
0.0
 42
-0.1008005406085342
  0
VERTEX
  5
C0
  8
SignTorch
 10
13.263943774965
 20
9.030535237717332
 30
0.0
 42
-0.123290329006846
  0
VERTEX
  5
C1
  8
SignTorch
 10
13.23635143399695
 20
8.848741932567572
 30
0.0
 42
-0.1587888413504347
  0
VERTEX
  5
C2
  8
SignTorch
 10
13.14227164136032
 20
8.739490276470153
 30
0.0
 42
-0.0169419043301343
  0
VERTEX
  5
C3
  8
SignTorch
 10
13.13247505462077
 20
8.733996986257909
 30
0.0
 42
0.005646821243038
  0
SEQEND
  5
482
  8
SignTorch
  0
POLYLINE
  5
72
  8
SignTorch
 66
     1
 10
0.0
 20
0.0
 30
0.0
 70
     1
  0
VERTEX
  5
C4
  8
SignTorch
 10
12.07049391183581
 20
8.724520650649437
 30
0.0
  0
VERTEX
  5
C5
  8
SignTorch
 10
12.23370615820083
 20
8.763163110094967
 30
0.0
 42
0.0943715404597316
  0
VERTEX
  5
C6
  8
SignTorch
 10
12.2582933903062
 20
8.724695357663608
 30
0.0
 42
0.1838251257562922
  0
VERTEX
  5
C7
  8
SignTorch
 10
12.3015257038672
 20
8.703795820121337
 30
0.0
 42
0.3371395127768489
  0
VERTEX
  5
C8
  8
SignTorch
 10
12.39605728501848
 20
8.76354231674807
 30
0.0
 42
0.0875944950078925
  0
VERTEX
  5
C9
  8
SignTorch
 10
12.41124979833755
 20
8.846060296374263
 30
0.0
 42
0.0273211485030238
  0
VERTEX
  5
CA
  8
SignTorch
 10
12.40704330566819
 20
8.9349278443528
 30
0.0
 42
0.0202743370047387
  0
VERTEX
  5
CB
  8
SignTorch
 10
12.39002595523986
 20
9.05356295950979
 30
0.0
 42
0.0248336824071668
  0
VERTEX
  5
CC
  8
SignTorch
 10
12.3765872804463
 20
9.110275134214076
 30
0.0
 42
0.1959860803013692
  0
VERTEX
  5
CD
  8
SignTorch
 10
12.33702963769429
 20
9.160267790633142
 30
0.0
 42
0.2335211368108534
  0
VERTEX
  5
CE
  8
SignTorch
 10
12.25727553252004
 20
9.164699946521896
 30
0.0
 42
0.2402787778108098
  0
VERTEX
  5
CF
  8
SignTorch
 10
12.20735873295194
 20
9.104938024094736
 30
0.0
 42
0.1917340516850917
  0
VERTEX
  5
D0
  8
SignTorch
 10
12.22208451677772
 20
9.010454944197441
 30
0.0
 42
0.2502351335403259
  0
VERTEX
  5
D1
  8
SignTorch
 10
12.28622621476643
 20
8.971401175337732
 30
0.0
 42
0.0404349380768183
  0
VERTEX
  5
D2
  8
SignTorch
 10
12.29605258890465
 20
8.971640119569205
 30
0.0
 42
-0.0134717891858175
  0
VERTEX
  5
D3
  8
SignTorch
 10
12.30585183216458
 20
8.972407944147157
 30
0.0
  0
VERTEX
  5
D4
  8
SignTorch
 10
12.323592293726
 20
8.851385825684702
 30
0.0
 42
-0.216264341762202
  0
VERTEX
  5
D5
  8
SignTorch
 10
12.14272698414088
 20
8.85699651990702
 30
0.0
 42
-0.2215141825499839
  0
VERTEX
  5
D6
  8
SignTorch
 10
12.0316974207427
 20
8.994908545226886
 30
0.0
 42
-0.1370137125180016
  0
VERTEX
  5
D7
  8
SignTorch
 10
12.03586369249082
 20
9.13150108090743
 30
0.0
 42
-0.1985953760790413
  0
VERTEX
  5
D8
  8
SignTorch
 10
12.14790950066506
 20
9.265908311285278
 30
0.0
 42
-0.0880172756173742
  0
VERTEX
  5
D9
  8
SignTorch
 10
12.25183557646273
 20
9.29899393739068
 30
0.0
 42
-0.0827223562694662
  0
VERTEX
  5
DA
  8
SignTorch
 10
12.36771709650748
 20
9.295233559337955
 30
0.0
 42
-0.2099915664417177
  0
VERTEX
  5
DB
  8
SignTorch
 10
12.52408946678341
 20
9.18559807195578
 30
0.0
 42
-0.1041757874153359
  0
VERTEX
  5
DC
  8
SignTorch
 10
12.58550548152784
 20
9.01072666096459
 30
0.0
 42
-0.1079377722745814
  0
VERTEX
  5
DD
  8
SignTorch
 10
12.56362264397328
 20
8.75358654706026
 30
0.0
 42
-0.126759942149263
  0
VERTEX
  5
DE
  8
SignTorch
 10
12.49301464868909
 20
8.638966524413263
 30
0.0
 42
-0.0955007375436256
  0
VERTEX
  5
DF
  8
SignTorch
 10
12.41650367322668
 20
8.58926617260158
 30
0.0
 42
-0.1494510263034373
  0
VERTEX
  5
E0
  8
SignTorch
 10
12.23282337367527
 20
8.572883997173145
 30
0.0
 42
-0.1139533725892767
  0
VERTEX
  5
E1
  8
SignTorch
 10
12.14030098430163
 20
8.61584200384424
 30
0.0
 42
-0.1254042270245697
  0
VERTEX
  5
E2
  8
SignTorch
 10
12.08333822932501
 20
8.68928593775733
 30
0.0
 42
-0.0227328663210346
  0
VERTEX
  5
E3
  8
SignTorch
 10
12.0766491007871
 20
8.706805974131676
 30
0.0
 42
0.007576462147208
  0
SEQEND
  5
483
  8
SignTorch
  0
POLYLINE
  5
73
  8
SignTorch
 66
     1
 10
0.0
 20
0.0
 30
0.0
 70
     1
  0
VERTEX
  5
E4
  8
SignTorch
 10
11.93249003271255
 20
9.254351371338998
 30
0.0
  0
VERTEX
  5
E5
  8
SignTorch
 10
11.91714265790243
 20
9.13355707507435
 30
0.0
 42
-0.1023559893059902
  0
VERTEX
  5
E6
  8
SignTorch
 10
11.90833824202142
 20
9.122277899960178
 30
0.0
 42
0.0397978222185377
  0
VERTEX
  5
E7
  8
SignTorch
 10
11.86785551091028
 20
9.08194411179526
 30
0.0
 42
0.0504745357675229
  0
VERTEX
  5
E8
  8
SignTorch
 10
11.76697976250361
 20
8.936632278651954
 30
0.0
 42
0.0460806758018018
  0
VERTEX
  5
E9
  8
SignTorch
 10
11.68909168422215
 20
8.759304914684133
 30
0.0
 42
0.0299948573313087
  0
VERTEX
  5
EA
  8
SignTorch
 10
11.66498438542425
 20
8.66933417243607
 30
0.0
 42
0.0288983082496011
  0
VERTEX
  5
EB
  8
SignTorch
 10
11.65110736601875
 20
8.573662725234398
 30
0.0
  0
VERTEX
  5
EC
  8
SignTorch
 10
11.43482420358386
 20
8.601141685059702
 30
0.0
 42
-0.1067848842023376
  0
VERTEX
  5
ED
  8
SignTorch
 10
11.56342392300532
 20
8.91214358796564
 30
0.0
 42
-0.0684488086468492
  0
VERTEX
  5
EE
  8
SignTorch
 10
11.74980078981975
 20
9.115630541057422
 30
0.0
  0
VERTEX
  5
EF
  8
SignTorch
 10
11.39808019181085
 20
9.160324593859615
 30
0.0
  0
VERTEX
  5
F0
  8
SignTorch
 10
11.4316859793
 20
9.317988998834657
 30
0.0
  0
SEQEND
  5
484
  8
SignTorch
  0
POLYLINE
  5
74
  8
SignTorch
 66
     1
 10
0.0
 20
0.0
 30
0.0
 70
     1
  0
VERTEX
  5
F1
  8
SignTorch
 10
11.21662860625313
 20
9.380638619738521
 30
0.0
  0
VERTEX
  5
F2
  8
SignTorch
 10
11.05763922976116
 20
8.820773727838564
 30
0.0
  0
VERTEX
  5
F3
  8
SignTorch
 10
11.2238002371125
 20
8.773592916274437
 30
0.0
  0
VERTEX
  5
F4
  8
SignTorch
 10
11.1856274092859
 20
8.639165739692947
 30
0.0
  0
VERTEX
  5
F5
  8
SignTorch
 10
10.66491148385729
 20
8.787043326905405
 30
0.0
  0
VERTEX
  5
F6
  8
SignTorch
 10
10.70308092084189
 20
8.921462238309484
 30
0.0
  0
VERTEX
  5
F7
  8
SignTorch
 10
10.87770674142565
 20
8.871874140843122
 30
0.0
  0
VERTEX
  5
F8
  8
SignTorch
 10
10.98121346546537
 20
9.236395591309702
 30
0.0
 42
-0.0181233852692286
  0
VERTEX
  5
F9
  8
SignTorch
 10
10.88084565965799
 20
9.226005116877136
 30
0.0
 42
-0.0257603322406183
  0
VERTEX
  5
FA
  8
SignTorch
 10
10.80984031008342
 20
9.224911233263912
 30
0.0
  0
VERTEX
  5
FB
  8
SignTorch
 10
10.84868240535252
 20
9.36170648913685
 30
0.0
 42
0.0546169484276562
  0
VERTEX
  5
FC
  8
SignTorch
 10
10.98028833524348
 20
9.372527350067406
 30
0.0
 42
0.0898950227561101
  0
VERTEX
  5
FD
  8
SignTorch
 10
11.05545430892036
 20
9.401722172956699
 30
0.0
 42
0.0678573278298051
  0
VERTEX
  5
FE
  8
SignTorch
 10
11.07081409902332
 20
9.414277898000748
 30
0.0
 42
-0.1638462946620976
  0
VERTEX
  5
FF
  8
SignTorch
 10
11.08022605227092
 20
9.419370724569792
 30
0.0
  0
SEQEND
  5
485
  8
SignTorch
  0
POLYLINE
  5
75
  8
SignTorch
 66
     1
 10
0.0
 20
0.0
 30
0.0
 70
     1
  0
VERTEX
  5
100
  8
SignTorch
 10
13.98130883289701
 20
10.09950412029462
 30
0.0
  0
VERTEX
  5
101
  8
SignTorch
 10
14.41064283761706
 20
9.495780382366016
 30
0.0
 42
-0.0027122129337714
  0
VERTEX
  5
102
  8
SignTorch
 10
14.15390712981286
 20
9.315289749244982
 30
0.0
 42
-0.0835596660546378
  0
VERTEX
  5
103
  8
SignTorch
 10
14.04098616884807
 20
9.262046754834753
 30
0.0
 42
-0.1583726398832076
  0
VERTEX
  5
104
  8
SignTorch
 10
13.85481781188635
 20
9.269548545516205
 30
0.0
 42
-0.2383995455467784
  0
VERTEX
  5
105
  8
SignTorch
 10
13.59774801645007
 20
9.546423031698698
 30
0.0
 42
-0.1446398155922226
  0
VERTEX
  5
106
  8
SignTorch
 10
13.59909286550027
 20
9.737838244677926
 30
0.0
 42
-0.1422697066161147
  0
VERTEX
  5
107
  8
SignTorch
 10
13.70517640160182
 20
9.900836570042074
 30
0.0
 42
-0.0158018375891297
  0
VERTEX
  5
108
  8
SignTorch
 10
13.71924175662869
 20
9.912201307951028
 30
0.0
 42
0.0052668895528567
  0
VERTEX
  5
109
  8
SignTorch
 10
13.73354339778416
 20
9.923267225899002
 30
0.0
  0
VERTEX
  5
10A
  8
SignTorch
 10
13.82260301556845
 20
9.798039403701194
 30
0.0
 42
0.2400338867048031
  0
VERTEX
  5
10B
  8
SignTorch
 10
13.78839535931229
 20
9.670508727086215
 30
0.0
 42
0.1031358339796754
  0
VERTEX
  5
10C
  8
SignTorch
 10
13.84466637684232
 20
9.542665131036806
 30
0.0
 42
0.1240350366442454
  0
VERTEX
  5
10D
  8
SignTorch
 10
13.96452009134779
 20
9.440931643488533
 30
0.0
 42
0.2074303989932582
  0
VERTEX
  5
10E
  8
SignTorch
 10
14.06097289105249
 20
9.43630455978483
 30
0.0
 42
0.0542762999050231
  0
VERTEX
  5
10F
  8
SignTorch
 10
14.07604965547991
 20
9.443954890595501
 30
0.0
 42
0.0100524074207626
  0
VERTEX
  5
110
  8
SignTorch
 10
14.15127309342218
 20
9.495210720907682
 30
0.0
  0
VERTEX
  5
111
  8
SignTorch
 10
13.80877940038833
 20
9.976820489245357
 30
0.0
  0
SEQEND
  5
486
  8
SignTorch
  0
POLYLINE
  5
76
  8
SignTorch
 66
     1
 10
0.0
 20
0.0
 30
0.0
 70
     1
  0
VERTEX
  5
112
  8
SignTorch
 10
14.089705574976
 20
10.19279508505699
 30
0.0
  0
VERTEX
  5
113
  8
SignTorch
 10
14.2346522031227
 20
10.37722552532392
 30
0.0
  0
VERTEX
  5
114
  8
SignTorch
 10
14.53183492203546
 20
10.28576391982804
 30
0.0
  0
VERTEX
  5
115
  8
SignTorch
 10
14.64302147938138
 20
10.19839082209041
 30
0.0
 42
0.0531053739435948
  0
VERTEX
  5
116
  8
SignTorch
 10
14.60632767625758
 20
10.13983001014011
 30
0.0
 42
0.2946399522879934
  0
VERTEX
  5
117
  8
SignTorch
 10
14.61614706959982
 20
10.05800326050424
 30
0.0
 42
0.160876449639969
  0
VERTEX
  5
118
  8
SignTorch
 10
14.6651671376654
 20
10.0273191899741
 30
0.0
 42
0.1823448345013287
  0
VERTEX
  5
119
  8
SignTorch
 10
14.71618386785182
 20
10.03349479004181
 30
0.0
 42
0.1054744109431369
  0
VERTEX
  5
11A
  8
SignTorch
 10
14.75278701150711
 20
10.06378863140615
 30
0.0
 42
0.0007985946628111
  0
VERTEX
  5
11B
  8
SignTorch
 10
14.83349609553807
 20
10.16615154393286
 30
0.0
  0
VERTEX
  5
11C
  8
SignTorch
 10
14.36072964317261
 20
10.53767465930287
 30
0.0
  0
VERTEX
  5
11D
  8
SignTorch
 10
14.49153391698989
 20
10.70412346437014
 30
0.0
  0
VERTEX
  5
11E
  8
SignTorch
 10
15.07401699668824
 20
10.24638268067873
 30
0.0
 42
-0.0017653583835724
  0
VERTEX
  5
11F
  8
SignTorch
 10
14.81673176654201
 20
9.92133902116752
 30
0.0
 42
-0.0870491130919436
  0
VERTEX
  5
120
  8
SignTorch
 10
14.73884975426719
 20
9.852472023892105
 30
0.0
 42
-0.1367308765648549
  0
VERTEX
  5
121
  8
SignTorch
 10
14.62617294636457
 20
9.820241212797633
 30
0.0
 42
-0.1462459963870882
  0
VERTEX
  5
122
  8
SignTorch
 10
14.52070098300767
 20
9.85098196903305
 30
0.0
 42
-0.1139700276111381
  0
VERTEX
  5
123
  8
SignTorch
 10
14.44310736254322
 20
9.931034825698935
 30
0.0
 42
-0.1394275691640077
  0
VERTEX
  5
124
  8
SignTorch
 10
14.41901927702949
 20
10.0195258132064
 30
0.0
 42
-0.0341870694004273
  0
VERTEX
  5
125
  8
SignTorch
 10
14.42130813893029
 20
10.04820280759941
 30
0.0
 42
-0.0195581974150326
  0
VERTEX
  5
126
  8
SignTorch
 10
14.43065473947253
 20
10.0975721880572
 30
0.0
  0
SEQEND
  5
487
  8
SignTorch
  0
POLYLINE
  5
77
  8
SignTorch
 66
     1
 10
0.0
 20
0.0
 30
0.0
 70
     1
  0
VERTEX
  5
127
  8
SignTorch
 10
14.64822303103069
 20
10.97901266860734
 30
0.0
  0
VERTEX
  5
128
  8
SignTorch
 10
14.80231136924683
 20
10.95564340930287
 30
0.0
  0
VERTEX
  5
129
  8
SignTorch
 10
14.85707516319215
 20
11.07676810073624
 30
0.0
  0
VERTEX
  5
12A
  8
SignTorch
 10
14.97204420480456
 20
10.98122137832413
 30
0.0
  0
VERTEX
  5
12B
  8
SignTorch
 10
14.94876183582669
 20
10.9297255083697
 30
0.0
  0
VERTEX
  5
12C
  8
SignTorch
 10
15.23189799169692
 20
10.88565007230742
 30
0.0
  0
VERTEX
  5
12D
  8
SignTorch
 10
14.77693091677287
 20
11.26370649252769
 30
0.0
  0
VERTEX
  5
12E
  8
SignTorch
 10
14.84526401274727
 20
11.41485242758628
 30
0.0
  0
VERTEX
  5
12F
  8
SignTorch
 10
15.42590332210057
 20
10.90084697850317
 30
0.0
  0
VERTEX
  5
130
  8
SignTorch
 10
15.33082750287313
 20
10.69055585776207
 30
0.0
  0
VERTEX
  5
131
  8
SignTorch
 10
14.55977715565091
 20
10.78337973403702
 30
0.0
  0
SEQEND
  5
488
  8
SignTorch
  0
POLYLINE
  5
78
  8
SignTorch
 66
     1
 10
0.0
 20
0.0
 30
0.0
 70
     1
  0
VERTEX
  5
132
  8
SignTorch
 10
15.59555562516046
 20
11.36212313884931
 30
0.0
 42
0.0019582510002318
  0
VERTEX
  5
133
  8
SignTorch
 10
15.35218078440624
 20
11.40459904431705
 30
0.0
 42
-0.0058748130766348
  0
VERTEX
  5
134
  8
SignTorch
 10
15.10914611995213
 20
11.44897998089032
 30
0.0
 42
-0.066344942242255
  0
VERTEX
  5
135
  8
SignTorch
 10
15.01584926297014
 20
11.48040228672543
 30
0.0
 42
-0.1925056725446094
  0
VERTEX
  5
136
  8
SignTorch
 10
14.91764153222236
 20
11.58946482884656
 30
0.0
 42
-0.0937439149701186
  0
VERTEX
  5
137
  8
SignTorch
 10
14.89796217639508
 20
11.70708608881584
 30
0.0
 42
-0.0969081924669177
  0
VERTEX
  5
138
  8
SignTorch
 10
14.93987486276354
 20
11.89958939997127
 30
0.0
 42
-0.0726313897482174
  0
VERTEX
  5
139
  8
SignTorch
 10
14.99094684456547
 20
11.98240592437421
 30
0.0
 42
-0.1992241750935402
  0
VERTEX
  5
13A
  8
SignTorch
 10
15.12265212847119
 20
12.05095458078156
 30
0.0
 42
-0.0361403429785254
  0
VERTEX
  5
13B
  8
SignTorch
 10
15.15592609843446
 20
12.05143179745832
 30
0.0
 42
-0.0252727324352636
  0
VERTEX
  5
13C
  8
SignTorch
 10
15.20320214344388
 20
12.04628485488663
 30
0.0
 42
-0.0066513278398023
  0
VERTEX
  5
13D
  8
SignTorch
 10
15.45271249071893
 20
12.0028688101393
 30
0.0
 42
0.0022170802183454
  0
VERTEX
  5
13E
  8
SignTorch
 10
15.70182800471775
 20
11.95724176745716
 30
0.0
  0
VERTEX
  5
13F
  8
SignTorch
 10
15.66400909602635
 20
11.74545316611168
 30
0.0
 42
-0.0030193573912161
  0
VERTEX
  5
140
  8
SignTorch
 10
15.42857812545886
 20
11.78896545283005
 30
0.0
 42
0.0090582923879154
  0
VERTEX
  5
141
  8
SignTorch
 10
15.19263882286011
 20
11.82963124296172
 30
0.0
 42
0.0704471162664154
  0
VERTEX
  5
142
  8
SignTorch
 10
15.13632471204208
 20
11.83030153188438
 30
0.0
 42
0.2443718725589986
  0
VERTEX
  5
143
  8
SignTorch
 10
15.07221243295397
 20
11.78567247305748
 30
0.0
 42
0.1988717554613659
  0
VERTEX
  5
144
  8
SignTorch
 10
15.06164312266641
 20
11.66948383706573
 30
0.0
 42
0.2126529414949499
  0
VERTEX
  5
145
  8
SignTorch
 10
15.10587904367175
 20
11.61914599651532
 30
0.0
 42
0.0482412619083627
  0
VERTEX
  5
146
  8
SignTorch
 10
15.12530264936172
 20
11.612398210641
 30
0.0
 42
0.013815622349406
  0
VERTEX
  5
147
  8
SignTorch
 10
15.1953701461023
 20
11.59744036907392
 30
0.0
 42
0.0022419035766002
  0
VERTEX
  5
148
  8
SignTorch
 10
15.40958280769399
 20
11.55885680022044
 30
0.0
 42
-0.0007473000792288
  0
VERTEX
  5
149
  8
SignTorch
 10
15.6239098460806
 20
11.52091372722821
 30
0.0
  0
SEQEND
  5
489
  8
SignTorch
  0
POLYLINE
  5
79
  8
SignTorch
 66
     1
 10
0.0
 20
0.0
 30
0.0
 70
     1
  0
VERTEX
  5
14A
  8
SignTorch
 10
15.39324866579631
 20
12.25625215021541
 30
0.0
  0
VERTEX
  5
14B
  8
SignTorch
 10
14.98916371842218
 20
12.22551967747778
 30
0.0
  0
VERTEX
  5
14C
  8
SignTorch
 10
14.98200565093086
 20
12.31965072334909
 30
0.0
 42
0.0158828541104188
  0
VERTEX
  5
14D
  8
SignTorch
 10
15.03223445952505
 20
12.34316090735598
 30
0.0
 42
0.0209610536829594
  0
VERTEX
  5
14E
  8
SignTorch
 10
15.06888665272123
 20
12.36373251724015
 30
0.0
 42
-0.0727199109341289
  0
VERTEX
  5
14F
  8
SignTorch
 10
15.00441760588911
 20
12.42129498589751
 30
0.0
 42
-0.0878863040431955
  0
VERTEX
  5
150
  8
SignTorch
 10
14.96870942592614
 20
12.48345457809935
 30
0.0
 42
-0.1809696139787546
  0
VERTEX
  5
151
  8
SignTorch
 10
14.97140327356134
 20
12.70872076383524
 30
0.0
 42
-0.1820648860491828
  0
VERTEX
  5
152
  8
SignTorch
 10
15.1208253669738
 20
12.87561885397736
 30
0.0
 42
-0.0830803735771194
  0
VERTEX
  5
153
  8
SignTorch
 10
15.25127315287761
 20
12.91807112199766
 30
0.0
 42
-0.0718140672941958
  0
VERTEX
  5
154
  8
SignTorch
 10
15.40969872653477
 20
12.91893664629364
 30
0.0
 42
-0.1030589087163159
  0
VERTEX
  5
155
  8
SignTorch
 10
15.56935509726288
 20
12.86186475054468
 30
0.0
 42
-0.172482843018009
  0
VERTEX
  5
156
  8
SignTorch
 10
15.69330530875252
 20
12.7087392687576
 30
0.0
 42
-0.129366486064154
  0
VERTEX
  5
157
  8
SignTorch
 10
15.71077645566262
 20
12.4950527170916
 30
0.0
 42
-0.2254044707471668
  0
VERTEX
  5
158
  8
SignTorch
 10
15.56993161486247
 20
12.29739979288085
 30
0.0
 42
-0.0240750550862931
  0
VERTEX
  5
159
  8
SignTorch
 10
15.55092902542714
 20
12.28798183086649
 30
0.0
 42
0.0080236406229474
  0
VERTEX
  5
15A
  8
SignTorch
 10
15.53163401464614
 20
12.27917848078181
 30
0.0
  0
VERTEX
  5
15B
  8
SignTorch
 10
15.49213579144735
 20
12.47807849163251
 30
0.0
 42
0.0861510241336972
  0
VERTEX
  5
15C
  8
SignTorch
 10
15.54224986703702
 20
12.51327969514162
 30
0.0
 42
0.1753060078090407
  0
VERTEX
  5
15D
  8
SignTorch
 10
15.56889019754191
 20
12.56994308909876
 30
0.0
 42
0.370071988589134
  0
VERTEX
  5
15E
  8
SignTorch
 10
15.48451170848752
 20
12.68901758613255
 30
0.0
 42
0.0679687447708117
  0
VERTEX
  5
15F
  8
SignTorch
 10
15.3635025340318
 20
12.70234503644476
 30
0.0
 42
0.0690562402573743
  0
VERTEX
  5
160
  8
SignTorch
 10
15.20052073114598
 20
12.67538574646482
 30
0.0
 42
0.4471650227726802
  0
VERTEX
  5
161
  8
SignTorch
 10
15.12183528655098
 20
12.50290040884849
 30
0.0
 42
0.1780689365872545
  0
VERTEX
  5
162
  8
SignTorch
 10
15.1716589076694
 20
12.45104774471297
 30
0.0
 42
0.1189528704272137
  0
VERTEX
  5
163
  8
SignTorch
 10
15.2276941953102
 20
12.4387455719819
 30
0.0
 42
0.0158540352823993
  0
VERTEX
  5
164
  8
SignTorch
 10
15.23353457047922
 20
12.43905179329951
 30
0.0
 42
-0.0052842849103343
  0
VERTEX
  5
165
  8
SignTorch
 10
15.23936716894301
 20
12.43948138469892
 30
0.0
  0
VERTEX
  5
166
  8
SignTorch
 10
15.22971344172947
 20
12.56639042875273
 30
0.0
  0
VERTEX
  5
167
  8
SignTorch
 10
15.3688557960589
 20
12.5769766375201
 30
0.0
  0
SEQEND
  5
48A
  8
SignTorch
  0
POLYLINE
  5
7A
  8
SignTorch
 66
     1
 10
0.0
 20
0.0
 30
0.0
 70
     1
  0
VERTEX
  5
168
  8
SignTorch
 10
15.39254421836793
 20
13.44315451431046
 30
0.0
  0
VERTEX
  5
169
  8
SignTorch
 10
15.33456760161445
 20
13.59019074884822
 30
0.0
  0
VERTEX
  5
16A
  8
SignTorch
 10
14.79438018977635
 20
13.37720094171931
 30
0.0
  0
VERTEX
  5
16B
  8
SignTorch
 10
14.72134823448121
 20
13.56242060046497
 30
0.0
  0
VERTEX
  5
16C
  8
SignTorch
 10
15.26154497113485
 20
13.77541379843589
 30
0.0
  0
VERTEX
  5
16D
  8
SignTorch
 10
15.20356835438138
 20
13.92244494671063
 30
0.0
  0
VERTEX
  5
16E
  8
SignTorch
 10
15.35256364789267
 20
13.98118535062773
 30
0.0
  0
VERTEX
  5
16F
  8
SignTorch
 10
15.5415369687477
 20
13.50189830906957
 30
0.0
  0
SEQEND
  5
48B
  8
SignTorch
  0
POLYLINE
  5
7B
  8
SignTorch
 66
     1
 10
0.0
 20
0.0
 30
0.0
 70
     1
  0
VERTEX
  5
170
  8
SignTorch
 10
14.44474453575074
 20
14.42462610583607
 30
0.0
  0
VERTEX
  5
171
  8
SignTorch
 10
14.55085161175985
 20
14.3102775883122
 30
0.0
  0
VERTEX
  5
172
  8
SignTorch
 10
14.56343417876289
 20
14.2533945181082
 30
0.0
 42
-0.0892261717906875
  0
VERTEX
  5
173
  8
SignTorch
 10
14.56058342926051
 20
14.24248981663403
 30
0.0
 42
0.1112265098509697
  0
VERTEX
  5
174
  8
SignTorch
 10
14.55109254532383
 20
14.19842417916758
 30
0.0
 42
0.1086706286919301
  0
VERTEX
  5
175
  8
SignTorch
 10
14.56652494027853
 20
14.13127327022389
 30
0.0
 42
0.0934235285895168
  0
VERTEX
  5
176
  8
SignTorch
 10
14.61351449635286
 20
14.06664849368503
 30
0.0
 42
0.1097899014301607
  0
VERTEX
  5
177
  8
SignTorch
 10
14.64408496052634
 20
14.04844420307842
 30
0.0
 42
0.2890335250378316
  0
VERTEX
  5
178
  8
SignTorch
 10
14.69734997398316
 20
14.06172439172304
 30
0.0
 42
0.2349907787419297
  0
VERTEX
  5
179
  8
SignTorch
 10
14.71140433119653
 20
14.10681990429074
 30
0.0
 42
0.0468698474097317
  0
VERTEX
  5
17A
  8
SignTorch
 10
14.69277191340916
 20
14.17884007474883
 30
0.0
 42
-0.0170897906744945
  0
VERTEX
  5
17B
  8
SignTorch
 10
14.64236998758307
 20
14.33475876887745
 30
0.0
 42
-0.1057271463646215
  0
VERTEX
  5
17C
  8
SignTorch
 10
14.63599730648093
 20
14.42859678907795
 30
0.0
 42
-0.1924696823602589
  0
VERTEX
  5
17D
  8
SignTorch
 10
14.70456691261761
 20
14.54748512523505
 30
0.0
 42
-0.3104027842623933
  0
VERTEX
  5
17E
  8
SignTorch
 10
14.96757540616717
 20
14.56471253151135
 30
0.0
 42
-0.0691861663374953
  0
VERTEX
  5
17F
  8
SignTorch
 10
15.0365610994461
 20
14.50952968539348
 30
0.0
 42
-0.1003172105215722
  0
VERTEX
  5
180
  8
SignTorch
 10
15.13597749518016
 20
14.35024696635972
 30
0.0
 42
-0.1054482831359951
  0
VERTEX
  5
181
  8
SignTorch
 10
15.15405017808806
 20
14.22894625285362
 30
0.0
 42
-0.1122279896339111
  0
VERTEX
  5
182
  8
SignTorch
 10
15.12152312274601
 20
14.11822607519167
 30
0.0
 42
-0.0144655475701573
  0
VERTEX
  5
183
  8
SignTorch
 10
15.11523303314604
 20
14.10768936272079
 30
0.0
 42
0.0048215502670435
  0
VERTEX
  5
184
  8
SignTorch
 10
15.10874091433147
 20
14.09727591323624
 30
0.0
  0
VERTEX
  5
185
  8
SignTorch
 10
15.01663971126072
 20
14.17577729669978
 30
0.0
  0
VERTEX
  5
186
  8
SignTorch
 10
14.99046580175551
 20
14.25915725411081
 30
0.0
 42
-0.0475744222164411
  0
VERTEX
  5
187
  8
SignTorch
 10
14.99009867154007
 20
14.27485708558291
 30
0.0
 42
0.1235333746885804
  0
VERTEX
  5
188
  8
SignTorch
 10
14.97924069742354
 20
14.33658321083688
 30
0.0
 42
0.1100502112297265
  0
VERTEX
  5
189
  8
SignTorch
 10
14.93116716944363
 20
14.40126380243673
 30
0.0
 42
0.6329930531653202
  0
VERTEX
  5
18A
  8
SignTorch
 10
14.84411451730456
 20
14.36278053834475
 30
0.0
 42
0.106154193597698
  0
VERTEX
  5
18B
  8
SignTorch
 10
14.85279690027761
 20
14.3165418367694
 30
0.0
 42
-0.0304576022100406
  0
VERTEX
  5
18C
  8
SignTorch
 10
14.91474512067099
 20
14.13929501554473
 30
0.0
 42
-0.0567979709318337
  0
VERTEX
  5
18D
  8
SignTorch
 10
14.92659361375829
 20
14.06673384424398
 30
0.0
 42
-0.1515686561859453
  0
VERTEX
  5
18E
  8
SignTorch
 10
14.89816647284553
 20
13.95653586302635
 30
0.0
 42
-0.3434226122633516
  0
VERTEX
  5
18F
  8
SignTorch
 10
14.64916766884502
 20
13.86398082951161
 30
0.0
 42
-0.1283259676534045
  0
VERTEX
  5
190
  8
SignTorch
 10
14.501629509992
 20
13.95668162618515
 30
0.0
 42
-0.1082069396902759
  0
VERTEX
  5
191
  8
SignTorch
 10
14.38714754286648
 20
14.14810766550473
 30
0.0
 42
-0.2171945799068252
  0
VERTEX
  5
192
  8
SignTorch
 10
14.41115736809035
 20
14.37738832878838
 30
0.0
 42
-0.0215039567626455
  0
VERTEX
  5
193
  8
SignTorch
 10
14.4211902194243
 20
14.39286716344868
 30
0.0
 42
-0.0100281725922396
  0
SEQEND
  5
48C
  8
SignTorch
  0
POLYLINE
  5
7C
  8
SignTorch
 66
     1
 10
0.0
 20
0.0
 30
0.0
 70
     1
  0
VERTEX
  5
194
  8
SignTorch
 10
14.10066308094388
 20
14.47571846559084
 30
0.0
  0
VERTEX
  5
195
  8
SignTorch
 10
14.16701168662965
 20
14.61674019410647
 30
0.0
  0
VERTEX
  5
196
  8
SignTorch
 10
14.06588745295994
 20
14.70433496814076
 30
0.0
  0
VERTEX
  5
197
  8
SignTorch
 10
14.19026099489787
 20
14.787280897774
 30
0.0
  0
VERTEX
  5
198
  8
SignTorch
 10
14.2336264734135
 20
14.74972223620716
 30
0.0
  0
VERTEX
  5
199
  8
SignTorch
 10
14.35661824723077
 20
15.0085214712332
 30
0.0
  0
VERTEX
  5
19A
  8
SignTorch
 10
13.86450873659709
 20
14.68028033489423
 30
0.0
  0
VERTEX
  5
19B
  8
SignTorch
 10
13.73913150542305
 20
14.7888907000201
 30
0.0
  0
VERTEX
  5
19C
  8
SignTorch
 10
14.39739142702678
 20
15.1988045048161
 30
0.0
  0
VERTEX
  5
19D
  8
SignTorch
 10
14.57182820816827
 20
15.04769756444067
 30
0.0
  0
VERTEX
  5
19E
  8
SignTorch
 10
14.26294115033407
 20
14.33515026219457
 30
0.0
  0
SEQEND
  5
48D
  8
SignTorch
  0
POLYLINE
  5
7D
  8
SignTorch
 66
     1
 10
0.0
 20
0.0
 30
0.0
 70
     1
  0
VERTEX
  5
19F
  8
SignTorch
 10
13.68402862727635
 20
15.67850438138945
 30
0.0
  0
VERTEX
  5
1A0
  8
SignTorch
 10
13.60957675688789
 20
15.53521078872452
 30
0.0
 42
-0.1380007480619611
  0
VERTEX
  5
1A1
  8
SignTorch
 10
13.60147164167482
 20
15.53227767265136
 30
0.0
 42
0.1013814691709044
  0
VERTEX
  5
1A2
  8
SignTorch
 10
13.56830662191735
 20
15.52291926789055
 30
0.0
 42
0.1024959582117642
  0
VERTEX
  5
1A3
  8
SignTorch
 10
13.51094382084014
 20
15.47640136641953
 30
0.0
 42
0.0918167571385461
  0
VERTEX
  5
1A4
  8
SignTorch
 10
13.4081310250361
 20
15.28910418895652
 30
0.0
 42
0.0684919083413997
  0
VERTEX
  5
1A5
  8
SignTorch
 10
13.39332720065881
 20
15.20872330894191
 30
0.0
 42
0.1150888033093752
  0
VERTEX
  5
1A6
  8
SignTorch
 10
13.4022933088739
 20
15.16049455215802
 30
0.0
 42
0.0866287991672211
  0
VERTEX
  5
1A7
  8
SignTorch
 10
13.40607571779044
 20
15.15479383436016
 30
0.0
 42
-0.191464961813789
  0
VERTEX
  5
1A8
  8
SignTorch
 10
13.40861511409275
 20
15.14844117609431
 30
0.0
  0
VERTEX
  5
1A9
  8
SignTorch
 10
13.33476596587227
 20
15.00630725139813
 30
0.0
 42
-0.0591725773756421
  0
VERTEX
  5
1AA
  8
SignTorch
 10
13.26323239568665
 20
15.07381430242167
 30
0.0
 42
-0.1320155866101826
  0
VERTEX
  5
1AB
  8
SignTorch
 10
13.19368494894762
 20
15.22401810898817
 30
0.0
 42
-0.1043516156176602
  0
VERTEX
  5
1AC
  8
SignTorch
 10
13.19902207729627
 20
15.36884594320275
 30
0.0
 42
-0.1144931263655132
  0
VERTEX
  5
1AD
  8
SignTorch
 10
13.30299832436766
 20
15.57213623869191
 30
0.0
 42
-0.11595476296115
  0
VERTEX
  5
1AE
  8
SignTorch
 10
13.44126031252277
 20
15.67489481465665
 30
0.0
 42
-0.1751130902846601
  0
VERTEX
  5
1AF
  8
SignTorch
 10
13.65549878789312
 20
15.6880992043128
 30
0.0
 42
-0.014727720985733
  0
VERTEX
  5
1B0
  8
SignTorch
 10
13.66981080898451
 20
15.68344184706382
 30
0.0
 42
0.0049089248576394
  0
SEQEND
  5
48E
  8
SignTorch
  0
POLYLINE
  5
7E
  8
SignTorch
 66
     1
 10
0.0
 20
0.0
 30
0.0
 70
     1
  0
VERTEX
  5
1B1
  8
SignTorch
 10
13.42697821901897
 20
14.95845229805612
 30
0.0
  0
VERTEX
  5
1B2
  8
SignTorch
 10
13.49999406781454
 20
15.09897642050621
 30
0.0
 42
0.2116140817828477
  0
VERTEX
  5
1B3
  8
SignTorch
 10
13.59213495110232
 20
15.14914136048385
 30
0.0
 42
0.0486601144987927
  0
VERTEX
  5
1B4
  8
SignTorch
 10
13.67450544748034
 20
15.28113499662383
 30
0.0
 42
0.0622059605199847
  0
VERTEX
  5
1B5
  8
SignTorch
 10
13.71767619174481
 20
15.40458093097892
 30
0.0
 42
0.1323684752858676
  0
VERTEX
  5
1B6
  8
SignTorch
 10
13.71449816902471
 20
15.46679362536573
 30
0.0
 42
0.0337634296995324
  0
VERTEX
  5
1B7
  8
SignTorch
 10
13.71119543408172
 20
15.47502085146869
 30
0.0
 42
0.0175043252510936
  0
VERTEX
  5
1B8
  8
SignTorch
 10
13.70324113812704
 20
15.49014225980742
 30
0.0
  0
VERTEX
  5
1B9
  8
SignTorch
 10
13.77642907215482
 20
15.63101648669544
 30
0.0
 42
-0.0591046068882633
  0
VERTEX
  5
1BA
  8
SignTorch
 10
13.84856579481105
 20
15.56401224930135
 30
0.0
 42
-0.1333299333112825
  0
VERTEX
  5
1BB
  8
SignTorch
 10
13.918623392913
 20
15.41485251864894
 30
0.0
 42
-0.1206065222243543
  0
VERTEX
  5
1BC
  8
SignTorch
 10
13.90758031812502
 20
15.24790259997276
 30
0.0
 42
-0.0978081313807984
  0
VERTEX
  5
1BD
  8
SignTorch
 10
13.80895525561431
 20
15.06784144256946
 30
0.0
 42
-0.1387833315744817
  0
VERTEX
  5
1BE
  8
SignTorch
 10
13.64182240682937
 20
14.95377039866317
 30
0.0
 42
-0.1507223478565968
  0
VERTEX
  5
1BF
  8
SignTorch
 10
13.45492234342621
 20
14.94930294534667
 30
0.0
 42
-0.0154216754728175
  0
VERTEX
  5
1C0
  8
SignTorch
 10
13.44090325051105
 20
14.95373397962136
 30
0.0
 42
0.0051401962961044
  0
SEQEND
  5
48F
  8
SignTorch
  0
POLYLINE
  5
7F
  8
SignTorch
 66
     1
 10
0.0
 20
0.0
 30
0.0
 70
     1
  0
VERTEX
  5
1C1
  8
SignTorch
 10
12.87795427289267
 20
15.49088570191897
 30
0.0
  0
VERTEX
  5
1C2
  8
SignTorch
 10
13.06141959475139
 20
15.43684330961211
 30
0.0
 42
-0.0543909783423483
  0
VERTEX
  5
1C3
  8
SignTorch
 10
13.01419026478739
 20
15.3506989640979
 30
0.0
 42
-0.1467043360353097
  0
VERTEX
  5
1C4
  8
SignTorch
 10
12.89545997328221
 20
15.25677227855825
 30
0.0
 42
-0.1159777044477564
  0
VERTEX
  5
1C5
  8
SignTorch
 10
12.75568139135052
 20
15.23607098035723
 30
0.0
 42
-0.1040850359281264
  0
VERTEX
  5
1C6
  8
SignTorch
 10
12.60525623556633
 20
15.28117528274096
 30
0.0
 42
-0.2523238101627107
  0
VERTEX
  5
1C7
  8
SignTorch
 10
12.44766505112679
 20
15.52290646608246
 30
0.0
 42
-0.1278848168545774
  0
VERTEX
  5
1C8
  8
SignTorch
 10
12.49457045574976
 20
15.79454604004261
 30
0.0
 42
-0.1140875795891869
  0
VERTEX
  5
1C9
  8
SignTorch
 10
12.6019734254982
 20
15.935076425088
 30
0.0
 42
-0.1871959684076073
  0
VERTEX
  5
1CA
  8
SignTorch
 10
12.79961143778423
 20
16.00077437739673
 30
0.0
 42
-0.1171872357455474
  0
VERTEX
  5
1CB
  8
SignTorch
 10
12.97587183852679
 20
15.94961356276883
 30
0.0
 42
-0.2029714082566488
  0
VERTEX
  5
1CC
  8
SignTorch
 10
13.10279826005292
 20
15.78419673159159
 30
0.0
 42
-0.0509993624859609
  0
VERTEX
  5
1CD
  8
SignTorch
 10
13.11160396540821
 20
15.72674082674517
 30
0.0
 42
-0.0361222356591301
  0
VERTEX
  5
1CE
  8
SignTorch
 10
13.1097971616188
 20
15.6448002594819
 30
0.0
  0
VERTEX
  5
1CF
  8
SignTorch
 10
12.91758516278524
 20
15.67834162097279
 30
0.0
 42
0.0604989635959636
  0
VERTEX
  5
1D0
  8
SignTorch
 10
12.91996322867394
 20
15.7545030638441
 30
0.0
 42
0.2609652624388784
  0
VERTEX
  5
1D1
  8
SignTorch
 10
12.86463633027334
 20
15.83534281168815
 30
0.0
 42
0.3677820952275426
  0
VERTEX
  5
1D2
  8
SignTorch
 10
12.73856686532848
 20
15.80385155438198
 30
0.0
 42
0.0750235958877334
  0
VERTEX
  5
1D3
  8
SignTorch
 10
12.69077017750998
 20
15.71008044528733
 30
0.0
 42
0.0726923309521986
  0
VERTEX
  5
1D4
  8
SignTorch
 10
12.6544939203011
 20
15.50668158596906
 30
0.0
 42
0.1852261855333672
  0
VERTEX
  5
1D5
  8
SignTorch
 10
12.68191639016064
 20
15.42789248672893
 30
0.0
 42
0.1400543885599569
  0
VERTEX
  5
1D6
  8
SignTorch
 10
12.72926472329622
 20
15.3961035877893
 30
0.0
 42
0.1344384300497591
  0
VERTEX
  5
1D7
  8
SignTorch
 10
12.78852513280173
 20
15.39339419915713
 30
0.0
 42
0.1762815773643963
  0
VERTEX
  5
1D8
  8
SignTorch
 10
12.84126132287597
 20
15.42723840837547
 30
0.0
 42
0.0642333493321071
  0
SEQEND
  5
490
  8
SignTorch
  0
POLYLINE
  5
80
  8
SignTorch
 66
     1
 10
0.0
 20
0.0
 30
0.0
 70
     1
  0
VERTEX
  5
1D9
  8
SignTorch
 10
11.33594640274835
 20
15.49747326024145
 30
0.0
  0
VERTEX
  5
1DA
  8
SignTorch
 10
11.48465559396472
 20
15.53605510838598
 30
0.0
  0
VERTEX
  5
1DB
  8
SignTorch
 10
11.54144626372383
 20
15.52290542305612
 30
0.0
 42
-0.0997878632175766
  0
VERTEX
  5
1DC
  8
SignTorch
 10
11.54980655164855
 20
15.51502667521102
 30
0.0
 42
0.1149613851992866
  0
VERTEX
  5
1DD
  8
SignTorch
 10
11.58417488896177
 20
15.48453171433114
 30
0.0
 42
0.1105455306901635
  0
VERTEX
  5
1DE
  8
SignTorch
 10
11.6508771384175
 20
15.46559374471328
 30
0.0
 42
0.0943052764037183
  0
VERTEX
  5
1DF
  8
SignTorch
 10
11.73118868317862
 20
15.47622526401715
 30
0.0
 42
0.1103136156290986
  0
VERTEX
  5
1E0
  8
SignTorch
 10
11.76168007926243
 20
15.49447811466605
 30
0.0
 42
0.2887913006128507
  0
VERTEX
  5
1E1
  8
SignTorch
 10
11.77524347616559
 20
15.547737314116
 30
0.0
 42
0.2350035407281611
  0
VERTEX
  5
1E2
  8
SignTorch
 10
11.74220866873764
 20
15.58149688255656
 30
0.0
 42
0.046863170724687
  0
VERTEX
  5
1E3
  8
SignTorch
 10
11.66996256689223
 20
15.59925023099883
 30
0.0
 42
-0.0171014636909165
  0
VERTEX
  5
1E4
  8
SignTorch
 10
11.5088050729288
 20
15.62882607511269
 30
0.0
 42
-0.1057279081652239
  0
VERTEX
  5
1E5
  8
SignTorch
 10
11.42315655721965
 20
15.66773106908901
 30
0.0
 42
-0.1924703662665006
  0
VERTEX
  5
1E6
  8
SignTorch
 10
11.35101687521124
 20
15.78448578826352
 30
0.0
 42
-0.3103961976220607
  0
VERTEX
  5
1E7
  8
SignTorch
 10
11.46059694071603
 20
16.02419977103111
 30
0.0
 42
-0.0691933471688284
  0
VERTEX
  5
1E8
  8
SignTorch
 10
11.54188915619228
 20
16.05875462221259
 30
0.0
 42
-0.1002905760023169
  0
VERTEX
  5
1E9
  8
SignTorch
 10
11.72928931494546
 20
16.0707364948038
 30
0.0
 42
-0.1054697838881063
  0
VERTEX
  5
1EA
  8
SignTorch
 10
11.84463879995826
 20
16.02912345757515
 30
0.0
 42
-0.1122353788860225
  0
VERTEX
  5
1EB
  8
SignTorch
 10
11.92668589228136
 20
15.9479699733549
 30
0.0
 42
-0.0144608909098753
  0
VERTEX
  5
1EC
  8
SignTorch
 10
11.93297966087892
 20
15.93743262500833
 30
0.0
 42
0.0048199983355773
  0
VERTEX
  5
1ED
  8
SignTorch
 10
11.93906911392999
 20
15.92677589967287
 30
0.0
  0
VERTEX
  5
1EE
  8
SignTorch
 10
11.81655672040243
 20
15.87914643732478
 30
0.0
  0
VERTEX
  5
1EF
  8
SignTorch
 10
11.75052897314223
 20
15.8904057282319
 30
0.0
 42
-0.0755864296601148
  0
VERTEX
  5
1F0
  8
SignTorch
 10
11.7408935186025
 20
15.8969637069578
 30
0.0
 42
0.113237126845078
  0
VERTEX
  5
1F1
  8
SignTorch
 10
11.70052565647489
 20
15.92023602506621
 30
0.0
 42
0.1932253083670837
  0
VERTEX
  5
1F2
  8
SignTorch
 10
11.58286282295919
 20
15.91029416215404
 30
0.0
 42
0.3687928027829285
  0
VERTEX
  5
1F3
  8
SignTorch
 10
11.5565959431727
 20
15.84784017054011
 30
0.0
 42
0.237376834774607
  0
VERTEX
  5
1F4
  8
SignTorch
 10
11.58621182719743
 20
15.81758017361721
 30
0.0
 42
0.0447133667551881
  0
VERTEX
  5
1F5
  8
SignTorch
 10
11.65253660592761
 20
15.80130287721194
 30
0.0
 42
-0.0094747733247015
  0
VERTEX
  5
1F6
  8
SignTorch
 10
11.82727229175015
 20
15.7712645256706
 30
0.0
 42
-0.2179326464908306
  0
VERTEX
  5
1F7
  8
SignTorch
 10
11.96309313025732
 20
15.67463925859435
 30
0.0
 42
-0.3434108662379902
  0
VERTEX
  5
1F8
  8
SignTorch
 10
11.92647351063926
 20
15.4115295840397
 30
0.0
 42
-0.1283264388403111
  0
VERTEX
  5
1F9
  8
SignTorch
 10
11.7748886488874
 20
15.32560899735593
 30
0.0
 42
-0.1082084398702826
  0
VERTEX
  5
1FA
  8
SignTorch
 10
11.55206602296767
 20
15.31561417767233
 30
0.0
 42
-0.2171963561925589
  0
VERTEX
  5
1FB
  8
SignTorch
 10
11.36160271793597
 20
15.4454986226006
 30
0.0
 42
-0.0215047636617331
  0
VERTEX
  5
1FC
  8
SignTorch
 10
11.35273422525133
 20
15.4616729338692
 30
0.0
 42
-0.0100284517993217
  0
SEQEND
  5
491
  8
SignTorch
  0
POLYLINE
  5
81
  8
SignTorch
 66
     1
 10
0.0
 20
0.0
 30
0.0
 70
     1
  0
VERTEX
  5
1FD
  8
SignTorch
 10
11.25911924752917
 20
15.43083049901098
 30
0.0
  0
VERTEX
  5
1FE
  8
SignTorch
 10
11.31008784155044
 20
15.28020590591202
 30
0.0
  0
VERTEX
  5
1FF
  8
SignTorch
 10
10.78734843115005
 20
15.10332771852053
 30
0.0
  0
VERTEX
  5
200
  8
SignTorch
 10
10.54990005671971
 20
15.80506755955786
 30
0.0
  0
VERTEX
  5
201
  8
SignTorch
 10
11.07263607627808
 20
15.98194574694935
 30
0.0
  0
VERTEX
  5
202
  8
SignTorch
 10
11.12176937705933
 20
15.8367439579411
 30
0.0
  0
VERTEX
  5
203
  8
SignTorch
 10
10.79522620485881
 20
15.72625421862904
 30
0.0
  0
VERTEX
  5
204
  8
SignTorch
 10
10.83823013484471
 20
15.5991459626069
 30
0.0
  0
VERTEX
  5
205
  8
SignTorch
 10
11.10185538576702
 20
15.68835053888728
 30
0.0
  0
VERTEX
  5
206
  8
SignTorch
 10
11.14878887779176
 20
15.54966170967721
 30
0.0
  0
VERTEX
  5
207
  8
SignTorch
 10
10.88515854060643
 20
15.46045798110734
 30
0.0
  0
VERTEX
  5
208
  8
SignTorch
 10
10.93257226063138
 20
15.32033567343589
 30
0.0
  0
SEQEND
  5
492
  8
SignTorch
  0
POLYLINE
  5
82
  8
SignTorch
 66
     1
 10
0.0
 20
0.0
 30
0.0
 70
     1
  0
VERTEX
  5
209
  8
SignTorch
 10
10.4088719703753
 20
15.56849020766984
 30
0.0
  0
VERTEX
  5
20A
  8
SignTorch
 10
10.27185948868585
 20
15.48970907974015
 30
0.0
  0
VERTEX
  5
20B
  8
SignTorch
 10
10.56130133913616
 20
14.98632417169978
 30
0.0
  0
VERTEX
  5
20C
  8
SignTorch
 10
10.38869857966893
 20
14.88707931221628
 30
0.0
  0
VERTEX
  5
20D
  8
SignTorch
 10
10.09925800078438
 20
15.39046082941463
 30
0.0
  0
VERTEX
  5
20E
  8
SignTorch
 10
9.96224212825291
 20
15.31167715835343
 30
0.0
  0
VERTEX
  5
20F
  8
SignTorch
 10
9.882407296167406
 20
15.45052281400664
 30
0.0
  0
VERTEX
  5
210
  8
SignTorch
 10
10.3290371382898
 20
15.70733586332305
 30
0.0
  0
SEQEND
  5
493
  8
SignTorch
  0
POLYLINE
  5
83
  8
SignTorch
 66
     1
 10
0.0
 20
0.0
 30
0.0
 70
     1
  0
VERTEX
  5
211
  8
SignTorch
 10
10.10089111506932
 20
14.66868874146975
 30
0.0
  0
VERTEX
  5
212
  8
SignTorch
 10
9.970773062904602
 20
14.7544685673161
 30
0.0
  0
VERTEX
  5
213
  8
SignTorch
 10
9.87030114246732
 20
14.66743412992461
 30
0.0
  0
VERTEX
  5
214
  8
SignTorch
 10
9.80594338489896
 20
14.80236675389379
 30
0.0
  0
VERTEX
  5
215
  8
SignTorch
 10
9.848662908010938
 20
14.83936762194935
 30
0.0
  0
VERTEX
  5
216
  8
SignTorch
 10
9.610045540796312
 20
14.99802766291072
 30
0.0
  0
VERTEX
  5
217
  8
SignTorch
 10
9.864702862302389
 20
14.46420147069067
 30
0.0
  0
VERTEX
  5
218
  8
SignTorch
 10
9.739356148706468
 20
14.35551142077747
 30
0.0
  0
VERTEX
  5
219
  8
SignTorch
 10
9.427529230846226
 20
15.06551474380265
 30
0.0
  0
VERTEX
  5
21A
  8
SignTorch
 10
9.601970250540235
 20
15.21662337959909
 30
0.0
  0
VERTEX
  5
21B
  8
SignTorch
 10
10.26317045602526
 20
14.809253554024
 30
0.0
  0
SEQEND
  5
494
  8
SignTorch
  0
POLYLINE
  5
84
  8
SignTorch
 66
     1
 10
0.0
 20
0.0
 30
0.0
 70
     1
  0
VERTEX
  5
21C
  8
SignTorch
 10
9.2643759003612
 20
14.69458205879831
 30
0.0
  0
VERTEX
  5
21D
  8
SignTorch
 10
9.172776753836134
 20
14.56578346803225
 30
0.0
  0
VERTEX
  5
21E
  8
SignTorch
 10
9.645990585419794
 20
14.22926528633737
 30
0.0
  0
VERTEX
  5
21F
  8
SignTorch
 10
9.530603834456794
 20
14.06700925742027
 30
0.0
  0
VERTEX
  5
220
  8
SignTorch
 10
9.057391698294142
 20
14.40352743911515
 30
0.0
  0
VERTEX
  5
221
  8
SignTorch
 10
8.965793399479582
 20
14.27472884834909
 30
0.0
  0
VERTEX
  5
222
  8
SignTorch
 10
8.835277559161113
 20
14.36754806221628
 30
0.0
  0
VERTEX
  5
223
  8
SignTorch
 10
9.133855821490215
 20
14.78740635892852
 30
0.0
  0
SEQEND
  5
495
  8
SignTorch
  0
POLYLINE
  5
85
  8
SignTorch
 66
     1
 10
0.0
 20
0.0
 30
0.0
 70
     1
  0
VERTEX
  5
224
  8
SignTorch
 10
8.944710415402975
 20
13.38185953479115
 30
0.0
  0
VERTEX
  5
225
  8
SignTorch
 10
8.98352135731107
 20
13.53602119996584
 30
0.0
  0
VERTEX
  5
226
  8
SignTorch
 10
9.015505474607076
 20
13.57387571249839
 30
0.0
 42
-0.1103807916763602
  0
VERTEX
  5
227
  8
SignTorch
 10
9.026964061367135
 20
13.57726385709051
 30
0.0
 42
0.1207255716812515
  0
VERTEX
  5
228
  8
SignTorch
 10
9.072510276536073
 20
13.59174873147842
 30
0.0
 42
0.1145927137266048
  0
VERTEX
  5
229
  8
SignTorch
 10
9.122680979548816
 20
13.64102353965393
 30
0.0
 42
0.0965553354852784
  0
VERTEX
  5
22A
  8
SignTorch
 10
9.15303409857875
 20
13.71842945000632
 30
0.0
 42
0.1104242819457507
  0
VERTEX
  5
22B
  8
SignTorch
 10
9.151657010062879
 20
13.75393249765599
 30
0.0
 42
0.2889029346686204
  0
VERTEX
  5
22C
  8
SignTorch
 10
9.111426719493263
 20
13.79137935288519
 30
0.0
 42
0.2348041999206233
  0
VERTEX
  5
22D
  8
SignTorch
 10
9.065932950618581
 20
13.77858444742989
 30
0.0
 42
0.0469242068144276
  0
VERTEX
  5
22E
  8
SignTorch
 10
9.01569917645712
 20
13.72374584324926
 30
0.0
 42
-0.0170943466982878
  0
VERTEX
  5
22F
  8
SignTorch
 10
8.9124085073348
 20
13.5965383267784
 30
0.0
 42
-0.1057312634388528
  0
VERTEX
  5
230
  8
SignTorch
 10
8.83718290213902
 20
13.54006933406264
 30
0.0
 42
-0.1924698850682949
  0
VERTEX
  5
231
  8
SignTorch
 10
8.70013063555211
 20
13.53280488498722
 30
0.0
 42
-0.3104015182890226
  0
VERTEX
  5
232
  8
SignTorch
 10
8.542405848834179
 20
13.74397555372222
 30
0.0
 42
-0.0691621311226181
  0
VERTEX
  5
233
  8
SignTorch
 10
8.551100472170244
 20
13.83193342331372
 30
0.0
 42
-0.1005095698961151
  0
VERTEX
  5
234
  8
SignTorch
 10
8.630495924221071
 20
14.00190981938875
 30
0.0
 42
-0.1051976397584048
  0
VERTEX
  5
235
  8
SignTorch
 10
8.722498973011138
 20
14.08323078983615
 30
0.0
 42
-0.1121635930340415
  0
VERTEX
  5
236
  8
SignTorch
 10
8.832993204682579
 20
14.11630328936977
 30
0.0
 42
-0.0145123657334278
  0
VERTEX
  5
237
  8
SignTorch
 10
8.845234229343973
 20
14.11677371528462
 30
0.0
 42
0.0048371534101548
  0
VERTEX
  5
238
  8
SignTorch
 10
8.857482064233812
 20
14.11700722291506
 30
0.0
  0
VERTEX
  5
239
  8
SignTorch
 10
8.838793226546638
 20
13.97369667604006
 30
0.0
  0
VERTEX
  5
23A
  8
SignTorch
 10
8.810005825559225
 20
13.93675684314076
 30
0.0
 42
-0.0900774861294213
  0
VERTEX
  5
23B
  8
SignTorch
 10
8.798238304857737
 20
13.93170703437006
 30
0.0
 42
0.1266593518805441
  0
VERTEX
  5
23C
  8
SignTorch
 10
8.752774266865444
 20
13.90817236285511
 30
0.0
 42
0.0887941094827911
  0
VERTEX
  5
23D
  8
SignTorch
 10
8.717010476282185
 20
13.86247212628056
 30
0.0
 42
0.0911870392981523
  0
VERTEX
  5
23E
  8
SignTorch
 10
8.700032714886724
 20
13.80854976059102
 30
0.0
 42
0.1779611534076329
  0
VERTEX
  5
23F
  8
SignTorch
 10
8.709982185930581
 20
13.76587917185687
 30
0.0
 42
0.4049581162943988
  0
VERTEX
  5
240
  8
SignTorch
 10
8.779001449677606
 20
13.75044957181914
 30
0.0
 42
0.1063578270184979
  0
VERTEX
  5
241
  8
SignTorch
 10
8.813053905820274
 20
13.78291388942163
 30
0.0
 42
-0.0305178967753766
  0
VERTEX
  5
242
  8
SignTorch
 10
8.927932343681581
 20
13.93143311521514
 30
0.0
 42
-0.0567822276149956
  0
VERTEX
  5
243
  8
SignTorch
 10
8.982333519152697
 20
13.98090408305498
 30
0.0
 42
-0.151592883835713
  0
VERTEX
  5
244
  8
SignTorch
 10
9.090223704907554
 20
14.01709317546192
 30
0.0
 42
-0.3433924819379965
  0
VERTEX
  5
245
  8
SignTorch
 10
9.303483114280322
 20
13.85870454201131
 30
0.0
 42
-0.1283279009628583
  0
VERTEX
  5
246
  8
SignTorch
 10
9.30612576683355
 20
13.6844887738205
 30
0.0
 42
-0.1179524268345754
  0
VERTEX
  5
247
  8
SignTorch
 10
9.199649242183769
 20
13.47740124783773
 30
0.0
 42
-0.2293561107965308
  0
VERTEX
  5
248
  8
SignTorch
 10
8.974323057339763
 20
13.37942725281189
 30
0.0
 42
-0.0154471718387586
  0
VERTEX
  5
249
  8
SignTorch
 10
8.95950421296549
 20
13.38049092334897
 30
0.0
 42
0.0051486932854361
  0
SEQEND
  5
496
  8
SignTorch
  0
POLYLINE
  5
86
  8
SignTorch
 66
     1
 10
0.0
 20
0.0
 30
0.0
 70
     1
  0
VERTEX
  5
24A
  8
SignTorch
 10
8.984304217961027
 20
12.31715082507435
 30
0.0
  0
VERTEX
  5
24B
  8
SignTorch
 10
8.245612040294468
 20
12.3733273285737
 30
0.0
 42
-0.0025793668713499
  0
VERTEX
  5
24C
  8
SignTorch
 10
8.271075440335776
 20
12.68667310209037
 30
0.0
 42
-0.0836082224350651
  0
VERTEX
  5
24D
  8
SignTorch
 10
8.302216478652351
 20
12.80708696492285
 30
0.0
 42
-0.1585432670335585
  0
VERTEX
  5
24E
  8
SignTorch
 10
8.427046960141551
 20
12.94535465779893
 30
0.0
 42
-0.2382962715462595
  0
VERTEX
  5
24F
  8
SignTorch
 10
8.80454219890958
 20
12.96579362996191
 30
0.0
 42
-0.1446702200483595
  0
VERTEX
  5
250
  8
SignTorch
 10
8.950792565578823
 20
12.84232766205611
 30
0.0
 42
-0.1422466173361335
  0
VERTEX
  5
251
  8
SignTorch
 10
9.008228612161272
 20
12.65647433580064
 30
0.0
 42
-0.0158054727929694
  0
VERTEX
  5
252
  8
SignTorch
 10
9.00796686360119
 20
12.63839456039923
 30
0.0
 42
0.0052681010184535
  0
VERTEX
  5
253
  8
SignTorch
 10
9.007324220538067
 20
12.62032431411515
 30
0.0
  0
VERTEX
  5
254
  8
SignTorch
 10
8.854096732338196
 20
12.63197821426163
 30
0.0
 42
0.2398114834158449
  0
VERTEX
  5
255
  8
SignTorch
 10
8.77789196496825
 20
12.73986804033476
 30
0.0
 42
0.103190419915888
  0
VERTEX
  5
256
  8
SignTorch
 10
8.643694773448765
 20
12.77837781821128
 30
0.0
 42
0.1239957355026007
  0
VERTEX
  5
257
  8
SignTorch
 10
8.488793881596669
 20
12.75132050720952
 30
0.0
 42
0.2075190129363842
  0
VERTEX
  5
258
  8
SignTorch
 10
8.42357653558247
 20
12.68016817219824
 30
0.0
 42
0.0542057961172016
  0
VERTEX
  5
259
  8
SignTorch
 10
8.419814668842056
 20
12.66368404584472
 30
0.0
 42
0.0100381431941487
  0
VERTEX
  5
25A
  8
SignTorch
 10
8.411088945269512
 20
12.5730589434283
 30
0.0
  0
VERTEX
  5
25B
  8
SignTorch
 10
9.000355616344272
 20
12.52824430380699
 30
0.0
  0
SEQEND
  5
497
  8
SignTorch
  0
POLYLINE
  5
87
  8
SignTorch
 66
     1
 10
0.0
 20
0.0
 30
0.0
 70
     1
  0
VERTEX
  5
25C
  8
SignTorch
 10
8.83006922582778
 20
12.17755579333607
 30
0.0
  0
VERTEX
  5
25D
  8
SignTorch
 10
8.987812467879646
 20
12.19760329903268
 30
0.0
  0
VERTEX
  5
25E
  8
SignTorch
 10
9.057379618419468
 20
11.65015524673234
 30
0.0
  0
VERTEX
  5
25F
  8
SignTorch
 10
8.322466746105015
 20
11.55676806682782
 30
0.0
  0
VERTEX
  5
260
  8
SignTorch
 10
8.252903622190084
 20
12.10421442370716
 30
0.0
  0
VERTEX
  5
261
  8
SignTorch
 10
8.404962541460918
 20
12.12354052776532
 30
0.0
  0
VERTEX
  5
262
  8
SignTorch
 10
8.448419572710918
 20
11.7815550371783
 30
0.0
  0
VERTEX
  5
263
  8
SignTorch
 10
8.58153406957778
 20
11.79847237184084
 30
0.0
  0
VERTEX
  5
264
  8
SignTorch
 10
8.546450298825826
 20
12.07455642403268
 30
0.0
  0
VERTEX
  5
265
  8
SignTorch
 10
8.691694473359247
 20
12.09301659181155
 30
0.0
  0
VERTEX
  5
266
  8
SignTorch
 10
8.726781423025589
 20
11.81692618179093
 30
0.0
  0
VERTEX
  5
267
  8
SignTorch
 10
8.873529435992168
 20
11.83557538901207
 30
0.0
  0
SEQEND
  5
498
  8
SignTorch
  0
POLYLINE
  5
88
  8
SignTorch
 66
     1
 10
0.0
 20
0.0
 30
0.0
 70
     1
  0
VERTEX
  5
268
  8
SignTorch
 10
8.540485807723396
 20
11.34313866212405
 30
0.0
  0
VERTEX
  5
269
  8
SignTorch
 10
8.59846284833212
 20
11.19610751384931
 30
0.0
  0
VERTEX
  5
26A
  8
SignTorch
 10
9.138651531735983
 20
11.40909096314944
 30
0.0
  0
VERTEX
  5
26B
  8
SignTorch
 10
9.211678824623352
 20
11.22387596681155
 30
0.0
  0
VERTEX
  5
26C
  8
SignTorch
 10
8.671486114594599
 20
11.01088276884063
 30
0.0
  0
VERTEX
  5
26D
  8
SignTorch
 10
8.729462943275696
 20
10.86384653430287
 30
0.0
  0
VERTEX
  5
26E
  8
SignTorch
 10
8.580466378198656
 20
10.80510655424102
 30
0.0
  0
VERTEX
  5
26F
  8
SignTorch
 10
8.39149411698175
 20
11.28439359579918
 30
0.0
  0
SEQEND
  5
499
  8
SignTorch
  0
POLYLINE
  5
89
  8
SignTorch
 66
     1
 10
0.0
 20
0.0
 30
0.0
 70
     1
  0
VERTEX
  5
270
  8
SignTorch
 10
8.67029296206096
 20
10.62574118423234
 30
0.0
  0
VERTEX
  5
271
  8
SignTorch
 10
9.312521194550653
 20
10.99501701905764
 30
0.0
  0
VERTEX
  5
272
  8
SignTorch
 10
9.418045257661005
 20
10.81149320517418
 30
0.0
  0
VERTEX
  5
273
  8
SignTorch
 10
8.775820416013326
 20
10.44221737034887
 30
0.0
  0
SEQEND
  5
49A
  8
SignTorch
  0
POLYLINE
  5
8A
  8
SignTorch
 66
     1
 10
0.0
 20
0.0
 30
0.0
 70
     1
  0
VERTEX
  5
274
  8
SignTorch
 10
9.443868003090149
 20
10.00481189007001
 30
0.0
  0
VERTEX
  5
275
  8
SignTorch
 10
9.794836258027216
 20
10.30882376479874
 30
0.0
  0
VERTEX
  5
276
  8
SignTorch
 10
9.904198542369663
 20
10.18257551108238
 30
0.0
  0
VERTEX
  5
277
  8
SignTorch
 10
9.344245700504972
 20
9.697528276653125
 30
0.0
  0
VERTEX
  5
278
  8
SignTorch
 10
9.211226359142124
 20
9.85108785544273
 30
0.0
  0
VERTEX
  5
279
  8
SignTorch
 10
9.350351547333856
 20
10.31699442248646
 30
0.0
  0
VERTEX
  5
27A
  8
SignTorch
 10
9.042049197819425
 20
10.04639887194935
 30
0.0
  0
VERTEX
  5
27B
  8
SignTorch
 10
8.93193435847752
 20
10.173511366524
 30
0.0
  0
VERTEX
  5
27C
  8
SignTorch
 10
9.49189546551962
 20
10.65855690553225
 30
0.0
  0
VERTEX
  5
27D
  8
SignTorch
 10
9.605367874238153
 20
10.52756104914119
 30
0.0
  0
SEQEND
  5
49B
  8
SignTorch
  0
POLYLINE
  5
8B
  8
SignTorch
 66
     1
 10
0.0
 20
0.0
 30
0.0
 70
     1
  0
VERTEX
  5
27E
  8
SignTorch
 10
9.585470413300653
 20
9.473745843249263
 30
0.0
 42
0.0019529817550502
  0
VERTEX
  5
27F
  8
SignTorch
 10
9.727863175347922
 20
9.675634859005749
 30
0.0
 42
-0.0058590048574676
  0
VERTEX
  5
280
  8
SignTorch
 10
9.871828716794576
 20
9.876405365411806
 30
0.0
 42
-0.0663600803141121
  0
VERTEX
  5
281
  8
SignTorch
 10
9.940093754507963
 20
9.94732453622553
 30
0.0
 42
-0.1924477217407576
  0
VERTEX
  5
282
  8
SignTorch
 10
10.08067392985019
 20
9.989534719597334
 30
0.0
 42
-0.0938006577799851
  0
VERTEX
  5
283
  8
SignTorch
 10
10.19538120023742
 20
9.957094906933312
 30
0.0
 42
-0.096888961367256
  0
VERTEX
  5
284
  8
SignTorch
 10
10.35155280609918
 20
9.836927752174637
 30
0.0
 42
-0.095331193765201
  0
VERTEX
  5
285
  8
SignTorch
 10
10.41131717791051
 20
9.735321893197405
 30
0.0
 42
-0.1761030201593609
  0
VERTEX
  5
286
  8
SignTorch
 10
10.41041620751215
 20
9.607034178304376
 30
0.0
 42
-0.0361749408347088
  0
VERTEX
  5
287
  8
SignTorch
 10
10.39665573715117
 20
9.576868926601136
 30
0.0
 42
-0.025098155817325
  0
VERTEX
  5
288
  8
SignTorch
 10
10.3716748573382
 20
9.536167641955318
 30
0.0
 42
-0.0065637762532881
  0
VERTEX
  5
289
  8
SignTorch
 10
10.22580622598277
 20
9.329137028252525
 30
0.0
 42
0.0021878974887532
  0
VERTEX
  5
28A
  8
SignTorch
 10
10.07813135961684
 20
9.12339090686146
 30
0.0
  0
VERTEX
  5
28B
  8
SignTorch
 10
9.902809144854473
 20
9.248071955784527
 30
0.0
 42
-0.0030176374238652
  0
VERTEX
  5
28C
  8
SignTorch
 10
10.04273868107506
 20
9.442344438991638
 30
0.0
 42
0.0090531321097715
  0
VERTEX
  5
28D
  8
SignTorch
 10
10.18031311213963
 20
9.638291750163868
 30
0.0
 42
0.070451905206913
  0
VERTEX
  5
28E
  8
SignTorch
 10
10.20497832493986
 20
9.68891809149746
 30
0.0
 42
0.2443836851710175
  0
VERTEX
  5
28F
  8
SignTorch
 10
10.19201819280776
 20
9.765948104008405
 30
0.0
 42
0.198859222743738
  0
VERTEX
  5
290
  8
SignTorch
 10
10.0915006546298
 20
9.825132523575016
 30
0.0
 42
0.2125302840026286
  0
VERTEX
  5
291
  8
SignTorch
 10
10.02707290828221
 20
9.806655957113737
 30
0.0
 42
0.0483461449048376
  0
VERTEX
  5
292
  8
SignTorch
 10
10.01268359926164
 20
9.791995549024772
 30
0.0
 42
0.0138270610640007
  0
VERTEX
  5
293
  8
SignTorch
 10
9.969206493894186
 20
9.73501700210343
 30
0.0
 42
0.0022433805052167
  0
VERTEX
  5
294
  8
SignTorch
 10
9.842801039413272
 20
9.557827742794121
 30
0.0
 42
-0.0007477923865352
  0
VERTEX
  5
295
  8
SignTorch
 10
9.716926152639845
 20
9.38026117663685
 30
0.0
  0
SEQEND
  5
49C
  8
SignTorch
  0
POLYLINE
  5
8C
  8
SignTorch
 66
     1
 10
0.0
 20
0.0
 30
0.0
 70
     1
  0
VERTEX
  5
296
  8
SignTorch
 10
16.19140415900276
 20
16.01102091916174
 30
0.0
 42
-0.2132629467297226
  0
VERTEX
  5
297
  8
SignTorch
 10
16.16141958555757
 20
16.0281052063409
 30
0.0
 42
-0.1877934450225275
  0
VERTEX
  5
298
  8
SignTorch
 10
16.15139007747166
 20
16.06559442858997
 30
0.0
 42
0.0098691339662593
  0
VERTEX
  5
299
  8
SignTorch
 10
16.15710225634072
 20
16.12880931260015
 30
0.0
 42
0.058691177046234
  0
VERTEX
  5
29A
  8
SignTorch
 10
16.15362443208687
 20
16.20295817535225
 30
0.0
 42
0.1876615944266164
  0
VERTEX
  5
29B
  8
SignTorch
 10
16.01285413356386
 20
16.44041610871183
 30
0.0
 42
0.1873783243755508
  0
VERTEX
  5
29C
  8
SignTorch
 10
15.74829457879059
 20
16.52057641957638
 30
0.0
 42
0.0175273628152438
  0
VERTEX
  5
29D
  8
SignTorch
 10
15.69735503050548
 20
16.51488283510441
 30
0.0
 42
-0.2291706080543113
  0
VERTEX
  5
29E
  8
SignTorch
 10
15.66233402007149
 20
16.52587749608129
 30
0.0
 42
-0.2400439325722439
  0
VERTEX
  5
29F
  8
SignTorch
 10
15.64865207283754
 20
16.56396580773892
 30
0.0
 42
-0.1029921036961416
  0
VERTEX
  5
2A0
  8
SignTorch
 10
15.71269538515137
 20
16.74998572350645
 30
0.0
 42
-0.5397274701448727
  0
VERTEX
  5
2A1
  8
SignTorch
 10
16.53499238010357
 20
16.78628866666359
 30
0.0
 42
-0.5402885190084453
  0
VERTEX
  5
2A2
  8
SignTorch
 10
16.24086237629248
 20
16.01803992570543
 30
0.0
 42
-0.0183682633858913
  0
VERTEX
  5
2A3
  8
SignTorch
 10
16.20320496088264
 20
16.01127652128574
 30
0.0
 42
-0.0597309546549598
  0
SEQEND
  5
49D
  8
SignTorch
  0
POLYLINE
  5
8D
  8
SignTorch
 66
     1
 10
0.0
 20
0.0
 30
0.0
 70
     1
  0
VERTEX
  5
2A4
  8
SignTorch
 10
13.49372874544719
 20
11.16416435818974
 30
0.0
 42
-0.3034214359328447
  0
VERTEX
  5
2A5
  8
SignTorch
 10
13.44596050877976
 20
11.15502063565921
 30
0.0
 42
-0.2787881323423253
  0
VERTEX
  5
2A6
  8
SignTorch
 10
13.41531287478069
 20
11.19732313071128
 30
0.0
  0
VERTEX
  5
2A7
  8
SignTorch
 10
13.41531287478069
 20
12.52204796388186
 30
0.0
 42
-0.3056636203891461
  0
VERTEX
  5
2A8
  8
SignTorch
 10
13.44649643511301
 20
12.5636020676387
 30
0.0
 42
-0.1332123634070293
  0
VERTEX
  5
2A9
  8
SignTorch
 10
13.50051094604856
 20
12.56732759672175
 30
0.0
 42
-0.1691901657289466
  0
VERTEX
  5
2AA
  8
SignTorch
 10
13.52531697505345
 20
12.552753054488
 30
0.0
 42
-0.153696129985439
  0
VERTEX
  5
2AB
  8
SignTorch
 10
13.53757222672296
 20
12.52371625815269
 30
0.0
 42
-0.0113652992699664
  0
VERTEX
  5
2AC
  8
SignTorch
 10
13.54294852138369
 20
12.44880090716967
 30
0.0
 42
0.0232083843920587
  0
VERTEX
  5
2AD
  8
SignTorch
 10
13.57154103298975
 20
12.14974944506523
 30
0.0
 42
0.0071619429483411
  0
VERTEX
  5
2AE
  8
SignTorch
 10
13.5959181772802
 20
11.99480887775056
 30
0.0
 42
-0.0234356440286729
  0
VERTEX
  5
2AF
  8
SignTorch
 10
13.61524168539371
 20
11.83915725842801
 30
0.0
 42
-0.0561548995786074
  0
VERTEX
  5
2B0
  8
SignTorch
 10
13.60312867514053
 20
11.49848042234531
 30
0.0
 42
-0.0662678498318151
  0
VERTEX
  5
2B1
  8
SignTorch
 10
13.52317860114898
 20
11.2205241558024
 30
0.0
 42
-0.0172752139925644
  0
VERTEX
  5
2B2
  8
SignTorch
 10
13.50064489413369
 20
11.17351196514337
 30
0.0
 42
-0.0778992661915447
  0
SEQEND
  5
49E
  8
SignTorch
  0
POLYLINE
  5
8E
  8
SignTorch
 66
     1
 10
0.0
 20
0.0
 30
0.0
 70
     1
  0
VERTEX
  5
2B3
  8
SignTorch
 10
12.9503719692097
 20
10.64686665979793
 30
0.0
 42
-0.2298968991882556
  0
VERTEX
  5
2B4
  8
SignTorch
 10
12.91321363498057
 20
10.65542220764005
 30
0.0
 42
-0.2108535608498371
  0
VERTEX
  5
2B5
  8
SignTorch
 10
12.89428075333429
 20
10.69206266318199
 30
0.0
  0
VERTEX
  5
2B6
  8
SignTorch
 10
12.89428075333429
 20
12.52204796388186
 30
0.0
 42
-0.1858212550522535
  0
VERTEX
  5
2B7
  8
SignTorch
 10
12.9084806546624
 20
12.55402165629993
 30
0.0
 42
-0.1858218123170756
  0
VERTEX
  5
2B8
  8
SignTorch
 10
12.94045427289267
 20
12.56822148344023
 30
0.0
  0
VERTEX
  5
2B9
  8
SignTorch
 10
13.11405605918824
 20
12.56822148344023
 30
0.0
 42
-0.1858080717995251
  0
VERTEX
  5
2BA
  8
SignTorch
 10
13.14603432877209
 20
12.55402085781834
 30
0.0
 42
-0.1858357209940122
  0
VERTEX
  5
2BB
  8
SignTorch
 10
13.16023508886489
 20
12.52204796388186
 30
0.0
  0
VERTEX
  5
2BC
  8
SignTorch
 10
13.16023000260187
 20
10.79748945151207
 30
0.0
 42
-0.229726252571726
  0
VERTEX
  5
2BD
  8
SignTorch
 10
13.13801583036602
 20
10.75760576856513
 30
0.0
 42
-0.0162914705722428
  0
VERTEX
  5
2BE
  8
SignTorch
 10
13.05442291014717
 20
10.70302716276153
 30
0.0
 42
-0.0127270463929659
  0
VERTEX
  5
2BF
  8
SignTorch
 10
12.96803637073273
 20
10.65352135394436
 30
0.0
 42
-0.0674251797217767
  0
SEQEND
  5
49F
  8
SignTorch
  0
POLYLINE
  5
8F
  8
SignTorch
 66
     1
 10
0.0
 20
0.0
 30
0.0
 70
     1
  0
VERTEX
  5
2C0
  8
SignTorch
 10
12.42007320635841
 20
10.46560062349939
 30
0.0
 42
-0.2035503340468787
  0
VERTEX
  5
2C1
  8
SignTorch
 10
12.38840394291545
 20
10.47816752568024
 30
0.0
 42
-0.1865409925441245
  0
VERTEX
  5
2C2
  8
SignTorch
 10
12.37325371815091
 20
10.51185933134063
 30
0.0
  0
VERTEX
  5
2C3
  8
SignTorch
 10
12.37325371815091
 20
12.52205305014488
 30
0.0
 42
-0.1858166536018634
  0
VERTEX
  5
2C4
  8
SignTorch
 10
12.38745380437967
 20
12.55402876590202
 30
0.0
 42
-0.1858342912607488
  0
VERTEX
  5
2C5
  8
SignTorch
 10
12.41942638999879
 20
12.56822826512426
 30
0.0
  0
VERTEX
  5
2C6
  8
SignTorch
 10
12.59302478545234
 20
12.56822148344023
 30
0.0
 42
-0.1858181203551619
  0
VERTEX
  5
2C7
  8
SignTorch
 10
12.62499873156683
 20
12.55402123745749
 30
0.0
 42
-0.1858231721378668
  0
VERTEX
  5
2C8
  8
SignTorch
 10
12.63919830501072
 20
12.52204796388186
 30
0.0
  0
VERTEX
  5
2C9
  8
SignTorch
 10
12.63919830501072
 20
10.5561772126069
 30
0.0
 42
-0.304457400907056
  0
VERTEX
  5
2CA
  8
SignTorch
 10
12.60439011386307
 20
10.51229093681915
 30
0.0
 42
-0.013240650273806
  0
VERTEX
  5
2CB
  8
SignTorch
 10
12.54729859213027
 20
10.49570779715416
 30
0.0
 42
-0.0003011838890764
  0
VERTEX
  5
2CC
  8
SignTorch
 10
12.44602330341932
 20
10.46924243951733
 30
0.0
 42
-0.0578514176896355
  0
SEQEND
  5
4A0
  8
SignTorch
  0
POLYLINE
  5
90
  8
SignTorch
 66
     1
 10
0.0
 20
0.0
 30
0.0
 70
     1
  0
VERTEX
  5
2CD
  8
SignTorch
 10
11.86314856522606
 20
10.33991020965348
 30
0.0
 42
-0.0914699133509863
  0
VERTEX
  5
2CE
  8
SignTorch
 10
11.85582712086726
 20
10.35234500002161
 30
0.0
 42
-0.0735041117964458
  0
VERTEX
  5
2CF
  8
SignTorch
 10
11.8522182058625
 20
10.36988180923234
 30
0.0
  0
VERTEX
  5
2D0
  8
SignTorch
 10
11.8522182058625
 20
12.52204796388186
 30
0.0
 42
-0.1858234117740154
  0
VERTEX
  5
2D1
  8
SignTorch
 10
11.86641797099976
 20
12.55402170902687
 30
0.0
 42
-0.1858233420956201
  0
VERTEX
  5
2D2
  8
SignTorch
 10
11.89839172542088
 20
12.56822148344023
 30
0.0
  0
VERTEX
  5
2D3
  8
SignTorch
 10
12.07199775026897
 20
12.56822148344023
 30
0.0
 42
-0.1858138793963536
  0
VERTEX
  5
2D4
  8
SignTorch
 10
12.10397425578067
 20
12.55402119254921
 30
0.0
 42
-0.1858306600153975
  0
VERTEX
  5
2D5
  8
SignTorch
 10
12.11817466066936
 20
12.52204796388186
 30
0.0
  0
VERTEX
  5
2D6
  8
SignTorch
 10
12.11817466066936
 20
10.36988180923234
 30
0.0
 42
-0.2245109846156521
  0
VERTEX
  5
2D7
  8
SignTorch
 10
12.09769498115934
 20
10.33220912691756
 30
0.0
 42
0.0481695382451801
  0
VERTEX
  5
2D8
  8
SignTorch
 10
12.0385725847217
 20
10.27957244099283
 30
0.0
 42
-0.0068457173864974
  0
VERTEX
  5
2D9
  8
SignTorch
 10
12.01466524773141
 20
10.25445867155541
 30
0.0
 42
-0.2017532375976478
  0
VERTEX
  5
2DA
  8
SignTorch
 10
11.98519431398967
 20
10.24206274795304
 30
0.0
 42
-0.1989840997218842
  0
VERTEX
  5
2DB
  8
SignTorch
 10
11.95781604344105
 20
10.25340797012269
 30
0.0
 42
0.0225154665490412
  0
VERTEX
  5
2DC
  8
SignTorch
 10
11.871383244925
 20
10.3324337738862
 30
0.0
 42
-0.0103842995416827
  0
VERTEX
  5
2DD
  8
SignTorch
 10
11.86516159586775
 20
10.33785114639623
 30
0.0
 42
-0.0297728588801766
  0
SEQEND
  5
4A1
  8
SignTorch
  0
POLYLINE
  5
91
  8
SignTorch
 66
     1
 10
0.0
 20
0.0
 30
0.0
 70
     1
  0
VERTEX
  5
2DE
  8
SignTorch
 10
11.35088018755111
 20
10.51825769127512
 30
0.0
 42
-0.1231238817425911
  0
VERTEX
  5
2DF
  8
SignTorch
 10
11.33783239555667
 20
10.53301900988736
 30
0.0
 42
-0.1001820980952399
  0
VERTEX
  5
2E0
  8
SignTorch
 10
11.33119456152114
 20
10.5561772126069
 30
0.0
  0
VERTEX
  5
2E1
  8
SignTorch
 10
11.33119456152114
 20
12.52204796388186
 30
0.0
 42
-0.1858213000636167
  0
VERTEX
  5
2E2
  8
SignTorch
 10
11.34539397881082
 20
12.55402136512852
 30
0.0
 42
-0.1858204436615248
  0
VERTEX
  5
2E3
  8
SignTorch
 10
11.37736723336901
 20
12.56822148344023
 30
0.0
  0
VERTEX
  5
2E4
  8
SignTorch
 10
11.55096605267782
 20
12.56822826512426
 30
0.0
 42
-0.1858306080185509
  0
VERTEX
  5
2E5
  8
SignTorch
 10
11.58293920877116
 20
12.55402859136783
 30
0.0
 42
-0.1858166086091275
  0
VERTEX
  5
2E6
  8
SignTorch
 10
11.5971395722362
 20
12.52205305014488
 30
0.0
  0
VERTEX
  5
2E7
  8
SignTorch
 10
11.5971395722362
 20
10.51185933134063
 30
0.0
 42
-0.2169124245794895
  0
VERTEX
  5
2E8
  8
SignTorch
 10
11.57868263612272
 20
10.47648994727524
 30
0.0
 42
-0.2158862783611167
  0
VERTEX
  5
2E9
  8
SignTorch
 10
11.53973812705933
 20
10.46706757990291
 30
0.0
 42
-0.0132299598089161
  0
VERTEX
  5
2EA
  8
SignTorch
 10
11.51322450473876
 20
10.4728386918904
 30
0.0
 42
-0.0038598776679438
  0
VERTEX
  5
2EB
  8
SignTorch
 10
11.42309093654148
 20
10.49570970450279
 30
0.0
 42
-0.0116101888464186
  0
VERTEX
  5
2EC
  8
SignTorch
 10
11.36006528052986
 20
10.51379480035768
 30
0.0
 42
-0.0749558589129719
  0
SEQEND
  5
4A2
  8
SignTorch
  0
POLYLINE
  5
92
  8
SignTorch
 66
     1
 10
0.0
 20
0.0
 30
0.0
 70
     1
  0
VERTEX
  5
2ED
  8
SignTorch
 10
10.82121678372217
 20
10.7673667541587
 30
0.0
 42
-0.0920149513100391
  0
VERTEX
  5
2EE
  8
SignTorch
 10
10.81381414769601
 20
10.77985118106941
 30
0.0
 42
-0.0739242894148826
  0
VERTEX
  5
2EF
  8
SignTorch
 10
10.81016286392999
 20
10.79748945151207
 30
0.0
  0
VERTEX
  5
2F0
  8
SignTorch
 10
10.81015947308798
 20
12.52204796388186
 30
0.0
 42
-0.1858215543262663
  0
VERTEX
  5
2F1
  8
SignTorch
 10
10.82435907375715
 20
12.55402182042158
 30
0.0
 42
-0.1858254954360734
  0
VERTEX
  5
2F2
  8
SignTorch
 10
10.85633214493585
 20
12.56822148344023
 30
0.0
  0
VERTEX
  5
2F3
  8
SignTorch
 10
11.02993477894193
 20
12.56822148344023
 30
0.0
 42
-0.3849383626751154
  0
VERTEX
  5
2F4
  8
SignTorch
 10
11.0761082985003
 20
12.52204796388186
 30
0.0
  0
VERTEX
  5
2F5
  8
SignTorch
 10
11.0761082985003
 20
10.69206774944501
 30
0.0
 42
-0.2454020768017634
  0
VERTEX
  5
2F6
  8
SignTorch
 10
11.05301628613548
 20
10.6537711323606
 30
0.0
 42
-0.2476113373347205
  0
VERTEX
  5
2F7
  8
SignTorch
 10
11.00873353925009
 20
10.65104703818199
 30
0.0
 42
-0.0260300767614261
  0
VERTEX
  5
2F8
  8
SignTorch
 10
10.96068386464355
 20
10.67582259470541
 30
0.0
 42
-0.0134709285133088
  0
VERTEX
  5
2F9
  8
SignTorch
 10
10.87194785323401
 20
10.73084645186302
 30
0.0
 42
-0.0104871413995285
  0
VERTEX
  5
2FA
  8
SignTorch
 10
10.82842094406603
 20
10.76081502967759
 30
0.0
 42
-0.0570918196947396
  0
SEQEND
  5
4A3
  8
SignTorch
  0
POLYLINE
  5
93
  8
SignTorch
 66
     1
 10
0.0
 20
0.0
 30
0.0
 70
     1
  0
VERTEX
  5
2FB
  8
SignTorch
 10
10.51819211837311
 20
12.56728061584403
 30
0.0
 42
-0.1729859311354145
  0
VERTEX
  5
2FC
  8
SignTorch
 10
10.54358764312241
 20
12.55191660985532
 30
0.0
 42
-0.1597486831482355
  0
VERTEX
  5
2FD
  8
SignTorch
 10
10.55508041560643
 20
12.52204796388186
 30
0.0
  0
VERTEX
  5
2FE
  8
SignTorch
 10
10.55508041560643
 20
11.19734262805287
 30
0.0
 42
-0.2787989850952549
  0
VERTEX
  5
2FF
  8
SignTorch
 10
10.52443114806686
 20
11.15503843179867
 30
0.0
 42
-0.3034473240316913
  0
VERTEX
  5
300
  8
SignTorch
 10
10.47666324688321
 20
11.16418574301173
 30
0.0
 42
-0.0919060370316978
  0
VERTEX
  5
301
  8
SignTorch
 10
10.46159748882212
 20
11.18578467325626
 30
0.0
 42
-0.0258167009144538
  0
VERTEX
  5
302
  8
SignTorch
 10
10.41227251997831
 20
11.31140958213412
 30
0.0
 42
-0.0895753428623678
  0
VERTEX
  5
303
  8
SignTorch
 10
10.35076140402781
 20
11.7360709677529
 30
0.0
 42
-0.0308738361759467
  0
VERTEX
  5
304
  8
SignTorch
 10
10.37841542740655
 20
12.02158765707847
 30
0.0
 42
0.008286053012891
  0
VERTEX
  5
305
  8
SignTorch
 10
10.41148060879862
 20
12.25335155106514
 30
0.0
 42
0.0131188187734427
  0
VERTEX
  5
306
  8
SignTorch
 10
10.42608293076349
 20
12.40051214609977
 30
0.0
 42
0.0059953052708555
  0
VERTEX
  5
307
  8
SignTorch
 10
10.43371999406448
 20
12.52622234866668
 30
0.0
 42
-0.1909732070753811
  0
VERTEX
  5
308
  8
SignTorch
 10
10.44690879364801
 20
12.5552792752561
 30
0.0
 42
-0.1512653352227938
  0
VERTEX
  5
309
  8
SignTorch
 10
10.47228822472903
 20
12.56807715500145
 30
0.0
 42
-0.0923348046066336
  0
SEQEND
  5
4A4
  8
SignTorch
  0
POLYLINE
  5
94
  8
SignTorch
 66
     1
 10
0.0
 20
0.0
 30
0.0
 70
     1
  0
VERTEX
  5
30A
  8
SignTorch
 10
10.17865585135082
 20
13.82739183023012
 30
0.0
 42
-0.2560339922569749
  0
VERTEX
  5
30B
  8
SignTorch
 10
10.14872536896797
 20
13.85712704628896
 30
0.0
 42
-0.2367112307207686
  0
VERTEX
  5
30C
  8
SignTorch
 10
10.1567107324467
 20
13.90164297866593
 30
0.0
 42
-0.0271402485874762
  0
VERTEX
  5
30D
  8
SignTorch
 10
10.20526639745601
 20
13.95968644172859
 30
0.0
 42
-0.021427662467496
  0
VERTEX
  5
30E
  8
SignTorch
 10
10.3782747501486
 20
14.12983098135495
 30
0.0
 42
-0.1993972933188095
  0
VERTEX
  5
30F
  8
SignTorch
 10
12.11165766352996
 20
14.74410835679262
 30
0.0
 42
-0.1992276980973035
  0
VERTEX
  5
310
  8
SignTorch
 10
13.77178812899102
 20
13.94960244161242
 30
0.0
 42
-0.0216505013314175
  0
VERTEX
  5
311
  8
SignTorch
 10
13.81506908186704
 20
13.89692972303142
 30
0.0
 42
-0.4365559372211149
  0
VERTEX
  5
312
  8
SignTorch
 10
13.80346489131443
 20
13.8326853319781
 30
0.0
 42
-0.1413788262770721
  0
VERTEX
  5
313
  8
SignTorch
 10
13.78017377448171
 20
13.82578653163166
 30
0.0
 42
-0.0017674483049876
  0
VERTEX
  5
314
  8
SignTorch
 10
13.71492258886489
 20
13.82555587471628
 30
0.0
  0
VERTEX
  5
315
  8
SignTorch
 10
10.25546646296971
 20
13.82555587471628
 30
0.0
 42
0.0126240627230912
  0
VERTEX
  5
316
  8
SignTorch
 10
10.20544630117374
 20
13.82429275809735
 30
0.0
 42
-0.0830199144741807
  0
SEQEND
  5
4A5
  8
SignTorch
  0
POLYLINE
  5
95
  8
SignTorch
 66
     1
 10
0.0
 20
0.0
 30
0.0
 70
     1
  0
VERTEX
  5
317
  8
SignTorch
 10
11.90224141723573
 20
10.009704901587
 30
0.0
 42
-0.240450039729473
  0
VERTEX
  5
318
  8
SignTorch
 10
11.89352879966327
 20
9.970585738752744
 30
0.0
 42
-0.223897456752007
  0
VERTEX
  5
319
  8
SignTorch
 10
11.85485585709405
 20
9.952417870837154
 30
0.0
 42
-0.0215530732006095
  0
VERTEX
  5
31A
  8
SignTorch
 10
11.8011606826454
 20
9.954805999956923
 30
0.0
 42
-0.0158785801301774
  0
VERTEX
  5
31B
  8
SignTorch
 10
11.62099219840841
 20
9.976402719358802
 30
0.0
 42
-0.1587121246946961
  0
VERTEX
  5
31C
  8
SignTorch
 10
10.29589328271867
 20
10.64260983888162
 30
0.0
 42
-0.3005160612066843
  0
VERTEX
  5
31D
  8
SignTorch
 10
9.75402031852132
 20
13.23207359146181
 30
0.0
 42
-0.0229565187464983
  0
VERTEX
  5
31E
  8
SignTorch
 10
9.84391788402676
 20
13.43151149595909
 30
0.0
 42
-0.0228787585524198
  0
VERTEX
  5
31F
  8
SignTorch
 10
9.952057837330559
 20
13.62253066417098
 30
0.0
 42
-0.0063200999316188
  0
VERTEX
  5
320
  8
SignTorch
 10
9.999165188115445
 20
13.69545749536047
 30
0.0
 42
-0.5392470309828479
  0
VERTEX
  5
321
  8
SignTorch
 10
10.07646907216965
 20
13.69511199707227
 30
0.0
 42
-0.0693774273656279
  0
VERTEX
  5
322
  8
SignTorch
 10
10.08730797135322
 20
13.67201049716171
 30
0.0
 42
-0.013566237902578
  0
VERTEX
  5
323
  8
SignTorch
 10
10.15818823224961
 20
13.41888769349559
 30
0.0
 42
-0.0652203443268875
  0
VERTEX
  5
324
  8
SignTorch
 10
10.25281995440997
 20
12.60423114707227
 30
0.0
 42
-0.0334292379000327
  0
VERTEX
  5
325
  8
SignTorch
 10
10.21588795231441
 20
12.15178366404709
 30
0.0
 42
-0.0005995946252135
  0
VERTEX
  5
326
  8
SignTorch
 10
10.18615239844411
 20
11.95434000568903
 30
0.0
 42
0.0258923555613061
  0
VERTEX
  5
327
  8
SignTorch
 10
10.17010013800832
 20
11.79257045151624
 30
0.0
 42
0.0622427420413189
  0
VERTEX
  5
328
  8
SignTorch
 10
10.20092050066283
 20
11.39409924493385
 30
0.0
 42
0.1389141098915424
  0
VERTEX
  5
329
  8
SignTorch
 10
10.50987427467266
 20
10.79713110114406
 30
0.0
 42
0.0777818812101833
  0
VERTEX
  5
32A
  8
SignTorch
 10
10.84879348008955
 20
10.53305863420769
 30
0.0
 42
0.0609208490879853
  0
VERTEX
  5
32B
  8
SignTorch
 10
11.35602965837441
 20
10.32753799455612
 30
0.0
 42
0.0092202670074594
  0
VERTEX
  5
32C
  8
SignTorch
 10
11.50975367220746
 20
10.28913121221015
 30
0.0
 42
-0.0374192018849443
  0
VERTEX
  5
32D
  8
SignTorch
 10
11.661069977747
 20
10.24212558449411
 30
0.0
 42
-0.0590763462764133
  0
VERTEX
  5
32E
  8
SignTorch
 10
11.78769630593035
 20
10.17393049468175
 30
0.0
 42
-0.1011821829547852
  0
VERTEX
  5
32F
  8
SignTorch
 10
11.84575695640504
 20
10.11248595894479
 30
0.0
 42
-0.0132272295888006
  0
VERTEX
  5
330
  8
SignTorch
 10
11.8946528049005
 20
10.02883460631772
 30
0.0
 42
-0.062508313243303
  0
SEQEND
  5
4A6
  8
SignTorch
  0
POLYLINE
  5
96
  8
SignTorch
 66
     1
 10
0.0
 20
0.0
 30
0.0
 70
     1
  0
VERTEX
  5
331
  8
SignTorch
 10
13.88835483305977
 20
13.68316933229006
 30
0.0
 42
-0.2697862467755583
  0
VERTEX
  5
332
  8
SignTorch
 10
13.92611619309547
 20
13.71341955372732
 30
0.0
 42
-0.2722303421433317
  0
VERTEX
  5
333
  8
SignTorch
 10
13.97064293934232
 20
13.69546961169544
 30
0.0
 42
-0.0242506078867388
  0
VERTEX
  5
334
  8
SignTorch
 10
14.00469711409482
 20
13.64648794213737
 30
0.0
 42
-0.0177597017956344
  0
VERTEX
  5
335
  8
SignTorch
 10
14.10581989040798
 20
13.47130587827269
 30
0.0
 42
-0.2303118812346077
  0
VERTEX
  5
336
  8
SignTorch
 10
14.1798023797858
 20
11.37481932443195
 30
0.0
 42
-0.2302924488185118
  0
VERTEX
  5
337
  8
SignTorch
 10
12.57607876108745
 20
10.02224114833047
 30
0.0
 42
-0.0182241473507184
  0
VERTEX
  5
338
  8
SignTorch
 10
12.40595111365163
 20
9.985710619347715
 30
0.0
 42
-0.0181905373494897
  0
VERTEX
  5
339
  8
SignTorch
 10
12.23329829955259
 20
9.961610463495568
 30
0.0
 42
-0.0072964631335035
  0
VERTEX
  5
33A
  8
SignTorch
 10
12.11975319226397
 20
9.951624487713268
 30
0.0
 42
-0.1396889018970383
  0
VERTEX
  5
33B
  8
SignTorch
 10
12.0916111752059
 20
9.957459735020368
 30
0.0
 42
-0.2037334288149085
  0
VERTEX
  5
33C
  8
SignTorch
 10
12.06978204337725
 20
9.984081785631838
 30
0.0
 42
-0.1862889509603046
  0
VERTEX
  5
33D
  8
SignTorch
 10
12.07290268123143
 20
10.02135665596628
 30
0.0
 42
-0.037641595699471
  0
VERTEX
  5
33E
  8
SignTorch
 10
12.12885744763932
 20
10.11748803062753
 30
0.0
 42
-0.0950875736582809
  0
VERTEX
  5
33F
  8
SignTorch
 10
12.19935500800602
 20
10.18706352890634
 30
0.0
 42
-0.0701942474220134
  0
VERTEX
  5
340
  8
SignTorch
 10
12.32591241686183
 20
10.24804980115746
 30
0.0
 42
-0.0156846265647695
  0
VERTEX
  5
341
  8
SignTorch
 10
12.53174972712986
 20
10.30668838204049
 30
0.0
 42
0.0264777672822113
  0
VERTEX
  5
342
  8
SignTorch
 10
12.86007048805601
 20
10.40792732493819
 30
0.0
 42
0.0782003854498458
  0
VERTEX
  5
343
  8
SignTorch
 10
13.30580636878646
 20
10.65616002004552
 30
0.0
 42
0.0741893524187772
  0
VERTEX
  5
344
  8
SignTorch
 10
13.57168387593047
 20
10.93675299069715
 30
0.0
 42
0.1031225292905585
  0
VERTEX
  5
345
  8
SignTorch
 10
13.7732768672704
 20
11.40719027699136
 30
0.0
 42
0.0583153093794657
  0
VERTEX
  5
346
  8
SignTorch
 10
13.80088245336252
 20
11.73969479239735
 30
0.0
 42
0.03100115110048
  0
VERTEX
  5
347
  8
SignTorch
 10
13.7711741147438
 20
12.04934805679093
 30
0.0
 42
-0.0142458177911478
  0
VERTEX
  5
348
  8
SignTorch
 10
13.73058031514325
 20
12.36193656025528
 30
0.0
 42
-0.0403166152427017
  0
VERTEX
  5
349
  8
SignTorch
 10
13.72101296497708
 20
12.83877697965606
 30
0.0
 42
-0.0315276082739867
  0
VERTEX
  5
34A
  8
SignTorch
 10
13.7660353602072
 20
13.20128995144355
 30
0.0
 42
-0.0268529287231264
  0
VERTEX
  5
34B
  8
SignTorch
 10
13.86807675010621
 20
13.61774473105308
 30
0.0
 42
0.006011289898006
  0
VERTEX
  5
34C
  8
SignTorch
 10
13.87760740732972
 20
13.65064559783968
 30
0.0
 42
-0.0246120685772473
  0
SEQEND
  5
4A7
  8
SignTorch
  0
POLYLINE
  5
97
  8
SignTorch
 66
     1
 10
0.0
 20
0.0
 30
0.0
 70
     1
  0
VERTEX
  5
34D
  8
SignTorch
 10
8.32230111804266
 20
16.55433513768286
 30
0.0
 42
-0.2132906305624263
  0
VERTEX
  5
34E
  8
SignTorch
 10
8.305218543913467
 20
16.52435141203237
 30
0.0
 42
-0.1877685954134339
  0
VERTEX
  5
34F
  8
SignTorch
 10
8.267722237573656
 20
16.51431896336645
 30
0.0
 42
0.0098487894145809
  0
VERTEX
  5
350
  8
SignTorch
 10
8.204491604867425
 20
16.52003044010263
 30
0.0
 42
0.058689637004032
  0
VERTEX
  5
351
  8
SignTorch
 10
8.13036472322205
 20
16.51655442066759
 30
0.0
 42
0.1876643655751358
  0
VERTEX
  5
352
  8
SignTorch
 10
7.89291107822153
 20
16.37578927400504
 30
0.0
 42
0.1873683881570087
  0
VERTEX
  5
353
  8
SignTorch
 10
7.812741721388293
 20
16.11122081559006
 30
0.0
 42
0.0175602871554864
  0
VERTEX
  5
354
  8
SignTorch
 10
7.818436908545767
 20
16.06027830504528
 30
0.0
 42
-0.2291924542377824
  0
VERTEX
  5
355
  8
SignTorch
 10
7.80744722333212
 20
16.02526714451879
 30
0.0
 42
-0.2400350060560264
  0
VERTEX
  5
356
  8
SignTorch
 10
7.769355701184328
 20
16.01158299731477
 30
0.0
 42
-0.1029991112264841
  0
VERTEX
  5
357
  8
SignTorch
 10
7.583332313770976
 20
16.07562181401025
 30
0.0
 42
-0.5397322708757842
  0
VERTEX
  5
358
  8
SignTorch
 10
7.547024168239955
 20
16.89792379504216
 30
0.0
 42
-0.5402881128822544
  0
VERTEX
  5
359
  8
SignTorch
 10
8.315281616035364
 20
16.60378978862799
 30
0.0
 42
-0.0183632657708381
  0
VERTEX
  5
35A
  8
SignTorch
 10
8.322044922542338
 20
16.56613505246956
 30
0.0
 42
-0.0597148787193724
  0
SEQEND
  5
4A8
  8
SignTorch
  0
POLYLINE
  5
98
  8
SignTorch
 66
     1
 10
0.0
 20
0.0
 30
0.0
 70
     1
  0
VERTEX
  5
35B
  8
SignTorch
 10
11.87850345611979
 20
16.52490992125806
 30
0.0
 42
0.0432225725579815
  0
VERTEX
  5
35C
  8
SignTorch
 10
11.15888348794417
 20
16.44436392180381
 30
0.0
 42
0.0435077613938064
  0
VERTEX
  5
35D
  8
SignTorch
 10
10.46848030639598
 20
16.24223008074963
 30
0.0
 42
-0.0020923146858853
  0
VERTEX
  5
35E
  8
SignTorch
 10
10.36847551252276
 20
16.20371860533969
 30
0.0
 42
-0.2017958819769733
  0
VERTEX
  5
35F
  8
SignTorch
 10
10.32865735818935
 20
16.20510625058847
 30
0.0
 42
-0.2317956924615489
  0
VERTEX
  5
360
  8
SignTorch
 10
10.29733695154001
 20
16.24366591484546
 30
0.0
 42
-0.2214985042082745
  0
VERTEX
  5
361
  8
SignTorch
 10
10.30809233102526
 20
16.29429231134822
 30
0.0
  0
VERTEX
  5
362
  8
SignTorch
 10
11.09689119305868
 20
17.25696677016984
 30
0.0
 42
0.1740634506862729
  0
VERTEX
  5
363
  8
SignTorch
 10
11.10639533598028
 20
17.28822441782098
 30
0.0
 42
0.1740563336950679
  0
VERTEX
  5
364
  8
SignTorch
 10
11.09384833620647
 20
17.31839102554093
 30
0.0
  0
VERTEX
  5
365
  8
SignTorch
 10
10.54083252131932
 20
17.87141023127009
 30
0.0
 42
0.1858349755772185
  0
VERTEX
  5
366
  8
SignTorch
 10
10.50843908237017
 20
17.8838786108486
 30
0.0
 42
0.1858017192387336
  0
VERTEX
  5
367
  8
SignTorch
 10
10.47604073597318
 20
17.87140684042808
 30
0.0
  0
VERTEX
  5
368
  8
SignTorch
 10
8.896057130694317
 20
16.29142111587296
 30
0.0
 42
-0.2615067927482758
  0
VERTEX
  5
369
  8
SignTorch
 10
8.847791317259325
 20
16.28181843903173
 30
0.0
 42
-0.2847593137791998
  0
VERTEX
  5
36A
  8
SignTorch
 10
8.818303047087383
 20
16.31677171304263
 30
0.0
 42
-0.0830076103200741
  0
VERTEX
  5
36B
  8
SignTorch
 10
8.818821078500612
 20
16.34309965128858
 30
0.0
 42
0.033586263123871
  0
VERTEX
  5
36C
  8
SignTorch
 10
8.831226327071512
 20
16.44759587659873
 30
0.0
 42
0.6976154234454843
  0
VERTEX
  5
36D
  8
SignTorch
 10
7.109492594029051
 20
17.18277578815168
 30
0.0
 42
0.6974794359309134
  0
VERTEX
  5
36E
  8
SignTorch
 10
7.94394961411126
 20
15.50676563367516
 30
0.0
 42
0.0059140765495999
  0
VERTEX
  5
36F
  8
SignTorch
 10
8.005093625372455
 20
15.51420341295318
 30
0.0
 42
-0.3168033996945701
  0
VERTEX
  5
370
  8
SignTorch
 10
8.050218160086136
 20
15.49066953574058
 30
0.0
 42
-0.1590762350438085
  0
VERTEX
  5
371
  8
SignTorch
 10
8.054457462252481
 20
15.46456010791252
 30
0.0
 42
-0.1392747931010292
  0
VERTEX
  5
372
  8
SignTorch
 10
8.041899576915561
 20
15.43727309883737
 30
0.0
  0
VERTEX
  5
373
  8
SignTorch
 10
6.461915388835727
 20
13.85727889717721
 30
0.0
 42
0.1858106740730022
  0
VERTEX
  5
374
  8
SignTorch
 10
6.449444069598759
 20
13.82488442324908
 30
0.0
 42
0.1858333891714632
  0
VERTEX
  5
375
  8
SignTorch
 10
6.46191130922893
 20
13.79249262194935
 30
0.0
  0
VERTEX
  5
376
  8
SignTorch
 10
7.014926806224643
 20
13.23947341622018
 30
0.0
 42
0.1740260701518273
  0
VERTEX
  5
377
  8
SignTorch
 10
7.04510004923884
 20
13.22692540857366
 30
0.0
 42
0.1740753063809932
  0
VERTEX
  5
378
  8
SignTorch
 10
7.076356677677823
 20
13.23642971165746
 30
0.0
  0
VERTEX
  5
379
  8
SignTorch
 10
8.03904130902548
 20
14.0252451040457
 30
0.0
 42
-0.3329119769124751
  0
VERTEX
  5
37A
  8
SignTorch
 10
8.108788399146993
 20
14.02542057056953
 30
0.0
 42
-0.3312307161336827
  0
VERTEX
  5
37B
  8
SignTorch
 10
8.128871283729797
 20
13.95833107545412
 30
0.0
 42
-0.0092948520969484
  0
VERTEX
  5
37C
  8
SignTorch
 10
8.099802439388522
 20
13.88281381150878
 30
0.0
 42
0.0218826333072466
  0
VERTEX
  5
37D
  8
SignTorch
 10
7.991172779069933
 20
13.57793350399637
 30
0.0
 42
0.1074415198341995
  0
VERTEX
  5
37E
  8
SignTorch
 10
7.84124413504139
 20
11.80697947329871
 30
0.0
 42
0.1076647548756131
  0
VERTEX
  5
37F
  8
SignTorch
 10
8.439608285387699
 20
10.13726977978998
 30
0.0
 42
0.0087445232213948
  0
VERTEX
  5
380
  8
SignTorch
 10
8.522323533989805
 20
10.0099384614103
 30
0.0
 42
-0.1739097341124039
  0
VERTEX
  5
381
  8
SignTorch
 10
8.531786761482483
 20
9.972755240544048
 30
0.0
 42
-0.0872996467266035
  0
VERTEX
  5
382
  8
SignTorch
 10
8.526918148192195
 20
9.955117082450922
 30
0.0
 42
-0.0748495051591386
  0
VERTEX
  5
383
  8
SignTorch
 10
8.515017193357076
 20
9.93745366117461
 30
0.0
  0
VERTEX
  5
384
  8
SignTorch
 10
8.125155556665453
 20
9.547590117134353
 30
0.0
 42
-0.0654940118143239
  0
VERTEX
  5
385
  8
SignTorch
 10
8.040750431314752
 20
9.486008484232563
 30
0.0
 42
-0.1861395593507857
  0
VERTEX
  5
386
  8
SignTorch
 10
7.884944798350261
 20
9.465409670085743
 30
0.0
 42
-0.1114571593816472
  0
VERTEX
  5
387
  8
SignTorch
 10
7.780417497415504
 20
9.517017898270334
 30
0.0
 42
-0.0732202014675239
  0
VERTEX
  5
388
  8
SignTorch
 10
7.661079938345412
 20
9.646669037286806
 30
0.0
 42
-0.0384714632450437
  0
VERTEX
  5
389
  8
SignTorch
 10
7.468879100926421
 20
9.981643274330247
 30
0.0
 42
-0.037783163475211
  0
VERTEX
  5
38A
  8
SignTorch
 10
7.327244679679399
 20
10.34846203490532
 30
0.0
 42
-0.0133069530930978
  0
VERTEX
  5
38B
  8
SignTorch
 10
7.295840595004318
 20
10.46357169898489
 30
0.0
 42
-0.307576525175615
  0
VERTEX
  5
38C
  8
SignTorch
 10
7.313549043536113
 20
10.51104086684952
 30
0.0
 42
-0.3119615102294817
  0
VERTEX
  5
38D
  8
SignTorch
 10
7.366474288558326
 20
10.51168448030323
 30
0.0
 42
-0.0021467355718427
  0
VERTEX
  5
38E
  8
SignTorch
 10
7.483752038876142
 20
10.43197933217986
 30
0.0
 42
-0.0038484623785523
  0
VERTEX
  5
38F
  8
SignTorch
 10
7.601269645673831
 20
10.35003422603391
 30
0.0
 42
-0.0038339914576789
  0
VERTEX
  5
390
  8
SignTorch
 10
7.717953095965842
 20
10.2659771645841
 30
0.0
 42
-0.0117760347031386
  0
VERTEX
  5
391
  8
SignTorch
 10
7.775169387921784
 20
10.22198282860554
 30
0.0
 42
0.0276669686331309
  0
VERTEX
  5
392
  8
SignTorch
 10
7.833754223386373
 20
10.17982808134063
 30
0.0
 42
0.2527654323234311
  0
VERTEX
  5
393
  8
SignTorch
 10
7.881679961249692
 20
10.17631134080952
 30
0.0
 42
0.2763908654164436
  0
VERTEX
  5
394
  8
SignTorch
 10
7.907135796348181
 20
10.21276668754985
 30
0.0
 42
0.0835168110196739
  0
VERTEX
  5
395
  8
SignTorch
 10
7.904412896348905
 20
10.24092568243868
 30
0.0
 42
-0.0108281718446722
  0
VERTEX
  5
396
  8
SignTorch
 10
7.877418330175107
 20
10.35057526522481
 30
0.0
 42
-0.0275038480843512
  0
VERTEX
  5
397
  8
SignTorch
 10
7.722023952614233
 20
11.28529880491815
 30
0.0
 42
-0.0289629336407715
  0
VERTEX
  5
398
  8
SignTorch
 10
7.675397926970415
 20
12.18398103848368
 30
0.0
 42
-0.0016447722477786
  0
VERTEX
  5
399
  8
SignTorch
 10
7.676702057185175
 20
12.32326193151853
 30
0.0
 42
0.2979469391600569
  0
VERTEX
  5
39A
  8
SignTorch
 10
7.650184901356624
 20
12.36495359786123
 30
0.0
 42
0.1813915136302616
  0
VERTEX
  5
39B
  8
SignTorch
 10
7.617572247944279
 20
12.36711831042442
 30
0.0
 42
0.0048274467148622
  0
VERTEX
  5
39C
  8
SignTorch
 10
7.494450162183259
 20
12.32872756483509
 30
0.0
 42
0.0463186225389514
  0
VERTEX
  5
39D
  8
SignTorch
 10
6.832040115305284
 20
12.04515848785151
 30
0.0
 42
0.0827674569839666
  0
VERTEX
  5
39E
  8
SignTorch
 10
6.200929653742605
 20
11.55310988330085
 30
0.0
 42
0.0186439804820401
  0
VERTEX
  5
39F
  8
SignTorch
 10
6.064563292048307
 20
11.39321368473446
 30
0.0
 42
0.0251005028595673
  0
VERTEX
  5
3A0
  8
SignTorch
 10
6.008482361965636
 20
11.31443730375273
 30
0.0
 42
0.2126269453777872
  0
VERTEX
  5
3A1
  8
SignTorch
 10
6.00275035033467
 20
11.27637285951942
 30
0.0
 42
0.2096438631168175
  0
VERTEX
  5
3A2
  8
SignTorch
 10
6.027356060147213
 20
11.24612200969892
 30
0.0
 42
0.0152196803512089
  0
VERTEX
  5
3A3
  8
SignTorch
 10
6.092481690082584
 20
11.21512689116207
 30
0.0
 42
-0.0109066212796091
  0
VERTEX
  5
3A4
  8
SignTorch
 10
6.354041848464072
 20
11.09339864433908
 30
0.0
 42
-0.0050272067826901
  0
VERTEX
  5
3A5
  8
SignTorch
 10
6.597289660944518
 20
10.97061716997843
 30
0.0
 42
-0.0152509734999571
  0
VERTEX
  5
3A6
  8
SignTorch
 10
6.675781357751879
 20
10.9269178911822
 30
0.0
 42
-0.3750832442188607
  0
VERTEX
  5
3A7
  8
SignTorch
 10
6.69576735670222
 20
10.86550112826552
 30
0.0
 42
0.0232643668403058
  0
VERTEX
  5
3A8
  8
SignTorch
 10
6.665517364476424
 20
10.78428856004919
 30
0.0
 42
0.1010567733472996
  0
VERTEX
  5
3A9
  8
SignTorch
 10
6.609060719608535
 20
10.26651745402908
 30
0.0
 42
0.0543008398216822
  0
VERTEX
  5
3AA
  8
SignTorch
 10
6.705404538939142
 20
9.794430211848523
 30
0.0
 42
0.0405434244725993
  0
VERTEX
  5
3AB
  8
SignTorch
 10
6.885507339656121
 20
9.357343882507813
 30
0.0
 42
0.0113344765427362
  0
VERTEX
  5
3AC
  8
SignTorch
 10
7.048553150693502
 20
9.054995716092687
 30
0.0
 42
-0.0242725813476006
  0
VERTEX
  5
3AD
  8
SignTorch
 10
7.204870785947648
 20
8.746267141755226
 30
0.0
 42
-0.0735535657513139
  0
VERTEX
  5
3AE
  8
SignTorch
 10
7.342105125933813
 20
8.256727920491862
 30
0.0
 42
-0.0323258020408808
  0
VERTEX
  5
3AF
  8
SignTorch
 10
7.35466477745573
 20
8.053908496509079
 30
0.0
 42
-0.0325906511445084
  0
VERTEX
  5
3B0
  8
SignTorch
 10
7.34098111659902
 20
7.852813499290075
 30
0.0
 42
-0.0032407305585567
  0
VERTEX
  5
3B1
  8
SignTorch
 10
7.328776801896287
 20
7.765946521907326
 30
0.0
 42
0.300921512530643
  0
VERTEX
  5
3B2
  8
SignTorch
 10
7.360092202954749
 20
7.699176007321512
 30
0.0
 42
0.1819994127113715
  0
VERTEX
  5
3B3
  8
SignTorch
 10
7.402345911445024
 20
7.691155216392596
 30
0.0
 42
-0.0229397577656067
  0
VERTEX
  5
3B4
  8
SignTorch
 10
7.571322163492368
 20
7.712661569170854
 30
0.0
 42
-0.0926952898423168
  0
VERTEX
  5
3B5
  8
SignTorch
 10
8.14293106368946
 20
7.652918084650267
 30
0.0
 42
-0.0532690585067642
  0
VERTEX
  5
3B6
  8
SignTorch
 10
8.611899674226354
 20
7.457157354940136
 30
0.0
 42
-0.0057582737255004
  0
VERTEX
  5
3B7
  8
SignTorch
 10
8.79307299720433
 20
7.355007698608632
 30
0.0
 42
0.0156633505702224
  0
VERTEX
  5
3B8
  8
SignTorch
 10
8.97623399948073
 20
7.256466476307347
 30
0.0
 42
0.0466160258176346
  0
VERTEX
  5
3B9
  8
SignTorch
 10
9.554302000017307
 20
7.032855301841318
 30
0.0
 42
0.0650255435222764
  0
VERTEX
  5
3BA
  8
SignTorch
 10
9.994806437374589
 20
6.968051748879789
 30
0.0
 42
0.0437093959546581
  0
VERTEX
  5
3BB
  8
SignTorch
 10
10.242258742403
 20
6.9856919744237
 30
0.0
 42
0.0472809818046149
  0
VERTEX
  5
3BC
  8
SignTorch
 10
10.4643690469123
 20
7.043121524768745
 30
0.0
 42
-0.0108033731652377
  0
VERTEX
  5
3BD
  8
SignTorch
 10
10.51333328354006
 20
7.059669406817303
 30
0.0
 42
-0.30744111012092
  0
VERTEX
  5
3BE
  8
SignTorch
 10
10.5592007663183
 20
7.045870128976174
 30
0.0
 42
-0.0231165073664229
  0
VERTEX
  5
3BF
  8
SignTorch
 10
10.5610194288981
 20
7.043405912203863
 30
0.0
 42
-0.0127540666962114
  0
VERTEX
  5
3C0
  8
SignTorch
 10
10.56398603830065
 20
7.038716548493539
 30
0.0
 42
-0.0152636428019398
  0
VERTEX
  5
3C1
  8
SignTorch
 10
10.60766436101638
 20
6.960268179425272
 30
0.0
 42
-0.005027805063046
  0
VERTEX
  5
3C2
  8
SignTorch
 10
10.73046848687853
 20
6.716978079389566
 30
0.0
 42
-0.0109003838398373
  0
VERTEX
  5
3C3
  8
SignTorch
 10
10.85220127942917
 20
6.455418790306446
 30
0.0
 42
0.0151926235715518
  0
VERTEX
  5
3C4
  8
SignTorch
 10
10.88319481922513
 20
6.390292101910745
 30
0.0
 42
0.2096564733884923
  0
VERTEX
  5
3C5
  8
SignTorch
 10
10.91344640853468
 20
6.365682974899528
 30
0.0
 42
0.2127081172913766
  0
VERTEX
  5
3C6
  8
SignTorch
 10
10.95150163617392
 20
6.371418403729169
 30
0.0
 42
0.0253245619950351
  0
VERTEX
  5
3C7
  8
SignTorch
 10
11.03349053519327
 20
6.429876139906574
 30
0.0
 42
0.027130051495792
  0
VERTEX
  5
3C8
  8
SignTorch
 10
11.22872152585943
 20
6.602590880828049
 30
0.0
 42
0.0711391854233556
  0
VERTEX
  5
3C9
  8
SignTorch
 10
11.59689331722321
 20
7.086665503157104
 30
0.0
 42
0.0390593236698993
  0
VERTEX
  5
3CA
  8
SignTorch
 10
11.82822227180825
 20
7.590916880729006
 30
0.0
 42
0.0064503089435684
  0
VERTEX
  5
3CB
  8
SignTorch
 10
11.86670873121547
 20
7.70001729095373
 30
0.0
 42
0.0055065807666903
  0
VERTEX
  5
3CC
  8
SignTorch
 10
11.90872189809043
 20
7.828855515114102
 30
0.0
 42
0.0123061805301719
  0
VERTEX
  5
3CD
  8
SignTorch
 10
11.94549213475637
 20
7.956922872272888
 30
0.0
 42
0.3593151503597672
  0
VERTEX
  5
3CE
  8
SignTorch
 10
11.92212613602472
 20
8.007217533533144
 30
0.0
 42
0.0605981473029179
  0
VERTEX
  5
3CF
  8
SignTorch
 10
11.91383287510375
 20
8.01001133547964
 30
0.0
 42
0.0416011060010542
  0
VERTEX
  5
3D0
  8
SignTorch
 10
11.90120273345039
 20
8.011543665141895
 30
0.0
 42
0.0150789544392554
  0
VERTEX
  5
3D1
  8
SignTorch
 10
11.82007181136218
 20
8.012145934261415
 30
0.0
 42
-0.0162629114119231
  0
VERTEX
  5
3D2
  8
SignTorch
 10
11.49555491731391
 20
8.015323256901562
 30
0.0
 42
-0.0247095312663592
  0
VERTEX
  5
3D3
  8
SignTorch
 10
10.88712430989047
 20
8.07128711363871
 30
0.0
 42
-0.0191058842269695
  0
VERTEX
  5
3D4
  8
SignTorch
 10
10.10978694770064
 20
8.212207825087212
 30
0.0
 42
-0.0076712202701035
  0
VERTEX
  5
3D5
  8
SignTorch
 10
9.913474877951534
 20
8.25877142459098
 30
0.0
 42
0.0232814934614178
  0
VERTEX
  5
3D6
  8
SignTorch
 10
9.864052668346226
 20
8.268876043105491
 30
0.0
 42
0.2528322972664401
  0
VERTEX
  5
3D7
  8
SignTorch
 10
9.818751133403108
 20
8.252842850316235
 30
0.0
 42
0.2764338176862207
  0
VERTEX
  5
3D8
  8
SignTorch
 10
9.810093252327633
 20
8.209225565669637
 30
0.0
 42
0.0385143099295517
  0
VERTEX
  5
3D9
  8
SignTorch
 10
9.81193567205788
 20
8.205104730247301
 30
0.0
 42
0.017774292957981
  0
VERTEX
  5
3DA
  8
SignTorch
 10
9.816899619301086
 20
8.196690102892818
 30
0.0
 42
0.0221076230746307
  0
VERTEX
  5
3DB
  8
SignTorch
 10
9.850041688004751
 20
8.149545357692304
 30
0.0
 42
-0.0100879599431109
  0
VERTEX
  5
3DC
  8
SignTorch
 10
9.987095410757522
 20
7.964217219562366
 30
0.0
 42
-0.003842196941699
  0
VERTEX
  5
3DD
  8
SignTorch
 10
10.12568891135165
 20
7.765454967125575
 30
0.0
 42
-0.0212611608600396
  0
VERTEX
  5
3DE
  8
SignTorch
 10
10.14891094810426
 20
7.728308009251324
 30
0.0
 42
-0.2003191599344167
  0
VERTEX
  5
3DF
  8
SignTorch
 10
10.15332232978197
 20
7.691961365376858
 30
0.0
 42
-0.3884755994069534
  0
VERTEX
  5
3E0
  8
SignTorch
 10
10.09947331925226
 20
7.658566760166852
 30
0.0
 42
-0.0233348933851223
  0
VERTEX
  5
3E1
  8
SignTorch
 10
10.05224346015718
 20
7.669755916622684
 30
0.0
 42
-0.0145810156455116
  0
VERTEX
  5
3E2
  8
SignTorch
 10
9.875268590251531
 20
7.726141795990568
 30
0.0
 42
-0.0322336770168715
  0
VERTEX
  5
3E3
  8
SignTorch
 10
9.567013001188712
 20
7.857214288683871
 30
0.0
 42
-0.032845874478633
  0
VERTEX
  5
3E4
  8
SignTorch
 10
9.283737820188131
 20
8.024012744901281
 30
0.0
 42
-0.0851506218298895
  0
VERTEX
  5
3E5
  8
SignTorch
 10
9.142644794622713
 20
8.160203087056422
 30
0.0
 42
-0.1336116752704778
  0
VERTEX
  5
3E6
  8
SignTorch
 10
9.097266818943048
 20
8.27805840644012
 30
0.0
 42
-0.143626890432198
  0
VERTEX
  5
3E7
  8
SignTorch
 10
9.118977520728219
 20
8.395096276773302
 30
0.0
 42
-0.0732298792912009
  0
VERTEX
  5
3E8
  8
SignTorch
 10
9.184659111963304
 20
8.488094827013912
 30
0.0
  0
VERTEX
  5
3E9
  8
SignTorch
 10
9.574521384437805
 20
8.87795815912654
 30
0.0
 42
-0.3490550825683134
  0
VERTEX
  5
3EA
  8
SignTorch
 10
9.651901211127687
 20
8.883425716900048
 30
0.0
 42
0.0197007355216877
  0
VERTEX
  5
3EB
  8
SignTorch
 10
9.904127633538439
 20
8.724684755481979
 30
0.0
 42
0.135946163560424
  0
VERTEX
  5
3EC
  8
SignTorch
 10
12.06087690038644
 20
8.169159160254328
 30
0.0
 42
0.1359462669988037
  0
VERTEX
  5
3ED
  8
SignTorch
 10
14.19605516241649
 20
8.802548931351339
 30
0.0
 42
0.0087375961513545
  0
VERTEX
  5
3EE
  8
SignTorch
 10
14.32338583567395
 20
8.885261588517539
 30
0.0
 42
-0.1739114326246335
  0
VERTEX
  5
3EF
  8
SignTorch
 10
14.36056889606839
 20
8.894723621154197
 30
0.0
 42
-0.0872845253264276
  0
VERTEX
  5
3F0
  8
SignTorch
 10
14.37820854263202
 20
8.889854550846568
 30
0.0
 42
-0.074846777641896
  0
VERTEX
  5
3F1
  8
SignTorch
 10
14.39587148209405
 20
8.877954768284528
 30
0.0
  0
VERTEX
  5
3F2
  8
SignTorch
 10
14.81533559342218
 20
8.45848874960777
 30
0.0
 42
-0.0654954301909533
  0
VERTEX
  5
3F3
  8
SignTorch
 10
14.87691712960822
 20
8.374083653734873
 30
0.0
 42
-0.1861397719050432
  0
VERTEX
  5
3F4
  8
SignTorch
 10
14.89751551065173
 20
8.218276719726823
 30
0.0
 42
-0.1114545280864637
  0
VERTEX
  5
3F5
  8
SignTorch
 10
14.84590594413756
 20
8.113746452679596
 30
0.0
 42
-0.0732215057083903
  0
VERTEX
  5
3F6
  8
SignTorch
 10
14.71625688519735
 20
7.99440995237334
 30
0.0
 42
-0.0384706580574006
  0
VERTEX
  5
3F7
  8
SignTorch
 10
14.38129125864417
 20
7.802212903616807
 30
0.0
 42
-0.037780532167152
  0
VERTEX
  5
3F8
  8
SignTorch
 10
14.01446490168564
 20
7.660571565912202
 30
0.0
 42
-0.0133114275502919
  0
VERTEX
  5
3F9
  8
SignTorch
 10
13.89935604316954
 20
7.62916698889279
 30
0.0
 42
-0.3076082765628448
  0
VERTEX
  5
3FA
  8
SignTorch
 10
13.85188632720039
 20
7.646878951600229
 30
0.0
 42
-0.3119223513982561
  0
VERTEX
  5
3FB
  8
SignTorch
 10
13.85124522687629
 20
7.699805801066671
 30
0.0
 42
-0.0021512860636862
  0
VERTEX
  5
3FC
  8
SignTorch
 10
13.93094692144122
 20
7.817082109197347
 30
0.0
 42
-0.0038486157249283
  0
VERTEX
  5
3FD
  8
SignTorch
 10
14.01289553515484
 20
7.934606003489806
 30
0.0
 42
-0.0038345505507103
  0
VERTEX
  5
3FE
  8
SignTorch
 10
14.09694747308883
 20
8.051283225891693
 30
0.0
 42
-0.0117665768970882
  0
VERTEX
  5
3FF
  8
SignTorch
 10
14.14094041607611
 20
8.108500238824787
 30
0.0
 42
0.027637026812556
  0
VERTEX
  5
400
  8
SignTorch
 10
14.18309614572253
 20
8.167084025486677
 30
0.0
 42
0.2528155280413351
  0
VERTEX
  5
401
  8
SignTorch
 10
14.18661163968179
 20
8.21500249201904
 30
0.0
 42
0.2763358665477968
  0
VERTEX
  5
402
  8
SignTorch
 10
14.15014910876744
 20
8.240462975844114
 30
0.0
 42
0.0384952734359964
  0
VERTEX
  5
403
  8
SignTorch
 10
14.14569823343071
 20
8.240433564507525
 30
0.0
 42
0.0174207357623089
  0
VERTEX
  5
404
  8
SignTorch
 10
14.13594309667739
 20
8.239273144613737
 30
0.0
 42
0.0228663375797743
  0
VERTEX
  5
405
  8
SignTorch
 10
14.06248546332266
 20
8.224461983646549
 30
0.0
 42
-0.0116184741507281
  0
VERTEX
  5
406
  8
SignTorch
 10
13.77007624654713
 20
8.158628309827083
 30
0.0
 42
-0.0247495327712507
  0
VERTEX
  5
407
  8
SignTorch
 10
12.99781791252078
 20
8.042919817243508
 30
0.0
 42
-0.0263299895432487
  0
VERTEX
  5
408
  8
SignTorch
 10
12.26454879118743
 20
8.008733386855358
 30
0.0
 42
-0.0014258921473228
  0
VERTEX
  5
409
  8
SignTorch
 10
12.12609889899265
 20
8.009967200593433
 30
0.0
 42
0.2977727062322487
  0
VERTEX
  5
40A
  8
SignTorch
 10
12.08455104476868
 20
7.983508277745083
 30
0.0
 42
0.1811197021881313
  0
VERTEX
  5
40B
  8
SignTorch
 10
12.08238222226903
 20
7.950970125246672
 30
0.0
 42
0.0015795830861557
  0
VERTEX
  5
40C
  8
SignTorch
 10
12.11980762066519
 20
7.827787214949947
 30
0.0
 42
0.0264713764742312
  0
VERTEX
  5
40D
  8
SignTorch
 10
12.33322309409216
 20
7.245027876510713
 30
0.0
 42
0.0628849781889221
  0
VERTEX
  5
40E
  8
SignTorch
 10
12.62268257226788
 20
6.750525923051301
 30
0.0
 42
0.03373115894479
  0
VERTEX
  5
40F
  8
SignTorch
 10
12.79855741536097
 20
6.551057972789394
 30
0.0
 42
0.0339638753439491
  0
VERTEX
  5
410
  8
SignTorch
 10
12.99836203203995
 20
6.378332953782976
 30
0.0
 42
0.0159953832349973
  0
VERTEX
  5
411
  8
SignTorch
 10
13.05156812749589
 20
6.340912495839644
 30
0.0
 42
0.3990114021268915
  0
VERTEX
  5
412
  8
SignTorch
 10
13.11165838950203
 20
6.351744737782509
 30
0.0
 42
0.0278227069920516
  0
VERTEX
  5
413
  8
SignTorch
 10
13.1133399678802
 20
6.354325385867555
 30
0.0
 42
0.0118279708041474
  0
VERTEX
  5
414
  8
SignTorch
 10
13.11680009808798
 20
6.360685981456804
 30
0.0
 42
0.0151945557462701
  0
VERTEX
  5
415
  8
SignTorch
 10
13.14779378350952
 20
6.425812967227461
 30
0.0
 42
-0.0109008431936267
  0
VERTEX
  5
416
  8
SignTorch
 10
13.26952637745267
 20
6.687373807921378
 30
0.0
 42
-0.0050278776833763
  0
VERTEX
  5
417
  8
SignTorch
 10
13.39235220592983
 20
6.930708010249226
 30
0.0
 42
-0.0152744414989874
  0
VERTEX
  5
418
  8
SignTorch
 10
13.43600972672296
 20
7.009115345422792
 30
0.0
 42
-0.3750748576119617
  0
VERTEX
  5
419
  8
SignTorch
 10
13.49742230591703
 20
7.0290943503037
 30
0.0
 42
0.023284715642391
  0
VERTEX
  5
41A
  8
SignTorch
 10
13.57863790762086
 20
6.998840679539877
 30
0.0
 42
0.101054402117913
  0
VERTEX
  5
41B
  8
SignTorch
 10
14.09640932775734
 20
6.942388413823973
 30
0.0
 42
0.0542993449150483
  0
VERTEX
  5
41C
  8
SignTorch
 10
14.5684976516477
 20
7.038732821817877
 30
0.0
 42
0.0405433583666107
  0
VERTEX
  5
41D
  8
SignTorch
 10
15.00559597213366
 20
7.218839354343364
 30
0.0
 42
0.0113364681741136
  0
VERTEX
  5
41E
  8
SignTorch
 10
15.30793168988485
 20
7.381879032132726
 30
0.0
 42
-0.024272727506985
  0
VERTEX
  5
41F
  8
SignTorch
 10
15.616660538387
 20
7.538198814053428
 30
0.0
 42
-0.0735545446967484
  0
VERTEX
  5
420
  8
SignTorch
 10
16.10619958586156
 20
7.675434656087924
 30
0.0
 42
-0.0323254664928066
  0
VERTEX
  5
421
  8
SignTorch
 10
16.30902037698727
 20
7.687994730252118
 30
0.0
 42
-0.0325904383989798
  0
VERTEX
  5
422
  8
SignTorch
 10
16.51011601496894
 20
7.674311582473617
 30
0.0
 42
-0.0032499724518094
  0
VERTEX
  5
423
  8
SignTorch
 10
16.59698419879104
 20
7.662105742679935
 30
0.0
 42
0.3009509822920277
  0
VERTEX
  5
424
  8
SignTorch
 10
16.66375078274137
 20
7.693420950383976
 30
0.0
 42
0.1819733787545699
  0
VERTEX
  5
425
  8
SignTorch
 10
16.67177053764437
 20
7.735674713812664
 30
0.0
 42
-0.0229352150808406
  0
VERTEX
  5
426
  8
SignTorch
 10
16.65026714086525
 20
7.904651233987048
 30
0.0
 42
-0.0926912746353714
  0
VERTEX
  5
427
  8
SignTorch
 10
16.71001066493016
 20
8.476258462088651
 30
0.0
 42
-0.0532665353202112
  0
VERTEX
  5
428
  8
SignTorch
 10
16.9057654572112
 20
8.945229501756934
 30
0.0
 42
-0.0057655223121715
  0
VERTEX
  5
429
  8
SignTorch
 10
17.00791469072411
 20
9.126403412439222
 30
0.0
 42
0.0156638875238938
  0
VERTEX
  5
42A
  8
SignTorch
 10
17.10645793722728
 20
9.309563671195873
 30
0.0
 42
0.0466173741306193
  0
VERTEX
  5
42B
  8
SignTorch
 10
17.33007335211566
 20
9.887631466818725
 30
0.0
 42
0.0650278319367976
  0
VERTEX
  5
42C
  8
SignTorch
 10
17.3948763202544
 20
10.32813421809745
 30
0.0
 42
0.0437106110159728
  0
VERTEX
  5
42D
  8
SignTorch
 10
17.37723422221433
 20
10.57558581653185
 30
0.0
 42
0.0472815531018624
  0
VERTEX
  5
42E
  8
SignTorch
 10
17.31980139547745
 20
10.79769843940529
 30
0.0
 42
-0.0108270532294274
  0
VERTEX
  5
42F
  8
SignTorch
 10
17.3032559212584
 20
10.84666118792619
 30
0.0
 42
-0.3074440591823655
  0
VERTEX
  5
430
  8
SignTorch
 10
17.31706076542529
 20
10.89253259663221
 30
0.0
 42
-0.0231244553662837
  0
VERTEX
  5
431
  8
SignTorch
 10
17.31952285785173
 20
10.89434927711133
 30
0.0
 42
-0.012740988552176
  0
VERTEX
  5
432
  8
SignTorch
 10
17.32421451323555
 20
10.89731668811146
 30
0.0
 42
-0.0152490153342108
  0
VERTEX
  5
433
  8
SignTorch
 10
17.40269269823907
 20
10.94100716308678
 30
0.0
 42
-0.0050254099907908
  0
VERTEX
  5
434
  8
SignTorch
 10
17.64595328615764
 20
11.06379357358916
 30
0.0
 42
-0.0109046267837227
  0
VERTEX
  5
435
  8
SignTorch
 10
17.90751338640299
 20
11.1855226293873
 30
0.0
 42
0.0152265952652809
  0
VERTEX
  5
436
  8
SignTorch
 10
17.97263844986749
 20
11.21651911120716
 30
0.0
 42
0.2096329735860058
  0
VERTEX
  5
437
  8
SignTorch
 10
17.99725237131825
 20
11.246780885403
 30
0.0
 42
0.2127728622317345
  0
VERTEX
  5
438
  8
SignTorch
 10
17.9915118765168
 20
11.28483143827422
 30
0.0
 42
0.0258406412204656
  0
VERTEX
  5
439
  8
SignTorch
 10
17.93287767986014
 20
11.36684144242134
 30
0.0
 42
0.0266034282142361
  0
VERTEX
  5
43A
  8
SignTorch
 10
17.75501066335366
 20
11.56737750402196
 30
0.0
 42
0.0585224456770349
  0
VERTEX
  5
43B
  8
SignTorch
 10
17.32401480391916
 20
11.91244781558322
 30
0.0
 42
0.047784458844966
  0
VERTEX
  5
43C
  8
SignTorch
 10
16.7196249810026
 20
12.21394234032535
 30
0.0
 42
0.0073968176975865
  0
VERTEX
  5
43D
  8
SignTorch
 10
16.60397153211198
 20
12.25647797473321
 30
0.0
 42
0.0068054917410955
  0
VERTEX
  5
43E
  8
SignTorch
 10
16.47700779029058
 20
12.29912051192029
 30
0.0
 42
0.0128904720321423
  0
VERTEX
  5
43F
  8
SignTorch
 10
16.34875381570362
 20
12.33664511697685
 30
0.0
 42
0.360452193748304
  0
VERTEX
  5
440
  8
SignTorch
 10
16.29799175441258
 20
12.31317659928835
 30
0.0
 42
0.0606445709854601
  0
VERTEX
  5
441
  8
SignTorch
 10
16.29517860715094
 20
12.30481909071925
 30
0.0
 42
0.0421367764874373
  0
VERTEX
  5
442
  8
SignTorch
 10
16.29367065608494
 20
12.29224169964032
 30
0.0
 42
0.0158518447123801
  0
VERTEX
  5
443
  8
SignTorch
 10
16.29339123432347
 20
12.21004601108837
 30
0.0
 42
-0.0113685579617768
  0
VERTEX
  5
444
  8
SignTorch
 10
16.29522104181341
 20
11.88126909138696
 30
0.0
 42
-0.0233126283401912
  0
VERTEX
  5
445
  8
SignTorch
 10
16.24225542678172
 20
11.05205094544026
 30
0.0
 42
-0.0261496843647398
  0
VERTEX
  5
446
  8
SignTorch
 10
16.12225392825894
 20
10.32096992584007
 30
0.0
 42
0.0020729641378359
  0
VERTEX
  5
447
  8
SignTorch
 10
16.09494339459338
 20
10.19335881504026
 30
0.0
 42
0.3090651379427993
  0
VERTEX
  5
448
  8
SignTorch
 10
16.11356777793824
 20
10.14841065851619
 30
0.0
 42
0.154437829598923
  0
VERTEX
  5
449
  8
SignTorch
 10
16.1382548451273
 20
10.14152462136884
 30
0.0
 42
0.1342924211251
  0
VERTEX
  5
44A
  8
SignTorch
 10
16.16624027007149
 20
10.15022518284887
 30
0.0
 42
0.0221401117734319
  0
VERTEX
  5
44B
  8
SignTorch
 10
16.21338675376657
 20
10.18336542737705
 30
0.0
 42
-0.0100904594412035
  0
VERTEX
  5
44C
  8
SignTorch
 10
16.39871374944838
 20
10.32042309358157
 30
0.0
 42
-0.0038411274834987
  0
VERTEX
  5
44D
  8
SignTorch
 10
16.5974880663612
 20
10.45902909600007
 30
0.0
 42
-0.021265344528266
  0
VERTEX
  5
44E
  8
SignTorch
 10
16.63461982058147
 20
10.48224202177031
 30
0.0
 42
-0.2451999350976157
  0
VERTEX
  5
44F
  8
SignTorch
 10
16.67848759231907
 20
10.48378993813707
 30
0.0
 42
-0.3400541003342732
  0
VERTEX
  5
450
  8
SignTorch
 10
16.70435926828112
 20
10.43280524062882
 30
0.0
 42
-0.0233251057187373
  0
VERTEX
  5
451
  8
SignTorch
 10
16.69316638694042
 20
10.38556261191658
 30
0.0
 42
-0.01458126887288
  0
VERTEX
  5
452
  8
SignTorch
 10
16.63678505864401
 20
10.20859894535048
 30
0.0
 42
-0.0322337380998263
  0
VERTEX
  5
453
  8
SignTorch
 10
16.50570930829026
 20
9.9003319220937
 30
0.0
 42
-0.0328478261857037
  0
VERTEX
  5
454
  8
SignTorch
 10
16.33891466107626
 20
9.617062959880665
 30
0.0
 42
-0.0851500605557837
  0
VERTEX
  5
455
  8
SignTorch
 10
16.20272461507
 20
9.475970918438236
 30
0.0
 42
-0.1336124316283648
  0
VERTEX
  5
456
  8
SignTorch
 10
16.08487112854083
 20
9.43059402337773
 30
0.0
 42
-0.1436250255460521
  0
VERTEX
  5
457
  8
SignTorch
 10
15.96783546938523
 20
9.452304387897433
 30
0.0
 42
-0.0732295583389895
  0
VERTEX
  5
458
  8
SignTorch
 10
15.87483893679241
 20
9.517984039728212
 30
0.0
  0
VERTEX
  5
459
  8
SignTorch
 10
15.45537143462227
 20
9.937456628161373
 30
0.0
 42
-0.3490735273157258
  0
VERTEX
  5
45A
  8
SignTorch
 10
15.44990223085296
 20
10.01483659667903
 30
0.0
 42
0.0197043608290848
  0
VERTEX
  5
45B
  8
SignTorch
 10
15.60864435480693
 20
10.26706229363319
 30
0.0
 42
0.1122788457420616
  0
VERTEX
  5
45C
  8
SignTorch
 10
16.15285019309163
 20
12.03441939833714
 30
0.0
 42
0.1121850753384538
  0
VERTEX
  5
45D
  8
SignTorch
 10
15.87929781353301
 20
13.86484475222581
 30
0.0
 42
-0.0020927359705023
  0
VERTEX
  5
45E
  8
SignTorch
 10
15.84078598483079
 20
13.96484829898119
 30
0.0
 42
-0.201815953346399
  0
VERTEX
  5
45F
  8
SignTorch
 10
15.84217490600208
 20
14.00466628088988
 30
0.0
 42
-0.2317869598815919
  0
VERTEX
  5
460
  8
SignTorch
 10
15.88073730929083
 20
14.03598544646378
 30
0.0
 42
-0.221500174671372
  0
VERTEX
  5
461
  8
SignTorch
 10
15.93136257774293
 20
14.02522814983563
 30
0.0
  0
VERTEX
  5
462
  8
SignTorch
 10
16.89403703656454
 20
13.23642971165746
 30
0.0
 42
0.1740799668818942
  0
VERTEX
  5
463
  8
SignTorch
 10
16.92529230245154
 20
13.22692555182822
 30
0.0
 42
0.1740235046893772
  0
VERTEX
  5
464
  8
SignTorch
 10
16.95546553048815
 20
13.23947341622018
 30
0.0
  0
VERTEX
  5
465
  8
SignTorch
 10
17.5084796499543
 20
13.79249262194935
 30
0.0
 42
0.1858321348426237
  0
VERTEX
  5
466
  8
SignTorch
 10
17.52094792971573
 20
13.8248850683313
 30
0.0
 42
0.185819492652693
  0
VERTEX
  5
467
  8
SignTorch
 10
17.50847710682279
 20
13.85727889717721
 30
0.0
  0
VERTEX
  5
468
  8
SignTorch
 10
15.92848799142565
 20
15.43727309883737
 30
0.0
 42
-0.2615549491706243
  0
VERTEX
  5
469
  8
SignTorch
 10
15.91888609568282
 20
15.48553159964042
 30
0.0
 42
-0.2847685339804078
  0
VERTEX
  5
46A
  8
SignTorch
 10
15.95384158207303
 20
15.5150161257827
 30
0.0
 42
-0.0829775819411934
  0
VERTEX
  5
46B
  8
SignTorch
 10
15.98016853352474
 20
15.51449676571172
 30
0.0
 42
0.033589894676626
  0
VERTEX
  5
46C
  8
SignTorch
 10
16.08466128024783
 20
15.50209359540976
 30
0.0
 42
0.6976046373196246
  0
VERTEX
  5
46D
  8
SignTorch
 10
16.81982899335627
 20
17.22383909250115
 30
0.0
 42
0.6974890925930088
  0
VERTEX
  5
46E
  8
SignTorch
 10
15.14383619850701
 20
16.38937619645003
 30
0.0
 42
0.0059283793770878
  0
VERTEX
  5
46F
  8
SignTorch
 10
15.15127785046458
 20
16.32822511118646
 30
0.0
 42
-0.3168380253577456
  0
VERTEX
  5
470
  8
SignTorch
 10
15.1277440406878
 20
16.28309914186037
 30
0.0
 42
-0.1590715895673741
  0
VERTEX
  5
471
  8
SignTorch
 10
15.10163265921473
 20
16.27886058543656
 30
0.0
 42
-0.1392356579699216
  0
VERTEX
  5
472
  8
SignTorch
 10
15.07433658354805
 20
16.29142111587296
 30
0.0
  0
VERTEX
  5
473
  8
SignTorch
 10
13.49434746815091
 20
17.87140684042808
 30
0.0
 42
0.1858054246345285
  0
VERTEX
  5
474
  8
SignTorch
 10
13.46195186048838
 20
17.88387782319143
 30
0.0
 42
0.1858388593288928
  0
VERTEX
  5
475
  8
SignTorch
 10
13.42956119292305
 20
17.87141023127009
 30
0.0
  0
VERTEX
  5
476
  8
SignTorch
 10
12.87654495418064
 20
17.31839102554093
 30
0.0
 42
0.1740391224202267
  0
VERTEX
  5
477
  8
SignTorch
 10
12.86399652078921
 20
17.28822339929634
 30
0.0
 42
0.1740641145333021
  0
VERTEX
  5
478
  8
SignTorch
 10
12.87349828263116
 20
17.25696677016984
 30
0.0
  0
VERTEX
  5
479
  8
SignTorch
 10
13.66231113188789
 20
16.29428129111168
 30
0.0
 42
-0.3329109294004559
  0
VERTEX
  5
47A
  8
SignTorch
 10
13.6624883416199
 20
16.22453288443272
 30
0.0
 42
-0.3312347936408895
  0
VERTEX
  5
47B
  8
SignTorch
 10
13.59539879871732
 20
16.20444856134822
 30
0.0
 42
-0.009300765494337
  0
VERTEX
  5
47C
  8
SignTorch
 10
13.51988144367854
 20
16.23351741405777
 30
0.0
 42
0.0218850881008518
  0
VERTEX
  5
47D
  8
SignTorch
 10
13.21500151203731
 20
16.3421492117753
 30
0.0
 42
0.0406771528311812
  0
VERTEX
  5
47E
  8
SignTorch
 10
12.5575681777057
 20
16.48724104456819
 30
0.0
 42
0.0402658044022557
  0
SEQEND
  5
4A9
  8
SignTorch
  0
ENDSEC
  999
SignTorch Vector Graphics
  999
copyright Gary DeWitt, signtorch.com
  0
EOF
